<?xml version="1.0" encoding="UTF-8" standalone="no"?>
<!-- Created with Inkscape (http://www.inkscape.org/) -->

<svg
   xmlns:dc="http://purl.org/dc/elements/1.1/"
   xmlns:cc="http://creativecommons.org/ns#"
   xmlns:rdf="http://www.w3.org/1999/02/22-rdf-syntax-ns#"
   xmlns:svg="http://www.w3.org/2000/svg"
   xmlns="http://www.w3.org/2000/svg"
   version="1.1"
   width="32pt"
   height="32pt"
   viewBox="0 0 32 32"
   id="svg2">
  <title
     id="title3091">Ocean Logo</title>
  <metadata
     id="metadata22">
    <rdf:RDF>
      <cc:Work
         rdf:about="">
        <dc:format>image/svg+xml</dc:format>
        <dc:type
           rdf:resource="http://purl.org/dc/dcmitype/StillImage" />
        <dc:title>Ocean Logo</dc:title>
      </cc:Work>
    </rdf:RDF>
  </metadata>
  <defs
     id="defs20" />
  <path
     d="m 16.44,0 1.46,0 c 1.86,0.37 3.69,0.84 5.5,1.4 C 19.26,1.64 14.8,2.69 11.83,5.78 6.67,11.54 4.38,19.59 5.75,27.21 4.37,26.86 2.96,26.58 1.56,26.3 1.02,25.32 0.5,24.34 0,23.34 L 0,16.57 C 1.07,17.8 2,19.14 2.77,20.58 3.74,15.03 6.78,10.23 9.54,5.44 5.45,8.16 3.57,12.68 1.31,16.82 0.66,14.21 2.41,11.82 3.8,9.77 7.34,5.75 11.12,1.55 16.44,0 z"
     id="path6"
     style="fill:#1d4583" />
  <path
     d="m 17.9,0 5.57,0 c 3.61,2.16 7.75,5.36 7.6,10.02 0.7,6.14 -2.95,11.77 -7.26,15.79 -2.39,2.6 -5.25,4.71 -8.46,6.19 l -8,0 C 5.08,30.49 2.81,28.79 1.56,26.3 c 1.4,0.28 2.81,0.56 4.19,0.91 2.61,1.84 5.63,4.21 9.01,2.83 7.08,-2.7 11.75,-9.92 12.88,-17.21 C 28.06,8.76 28.17,2.94 23.4,1.4 21.59,0.84 19.76,0.37 17.9,0 z"
     id="path8"
     style="fill:#2b3632" />
  <path
     d="m 23.4,1.4 c 4.77,1.54 4.66,7.36 4.24,11.43 -1.13,7.29 -5.8,14.51 -12.88,17.21 C 11.38,31.42 8.36,29.05 5.75,27.21 4.38,19.59 6.67,11.54 11.83,5.78 14.8,2.69 19.26,1.64 23.4,1.4 z"
     id="path12"
     style="fill:#ffffff" />
  <path
     d="m 10.74,12.78 c 3.51,-4.1 10.47,-5.05 14,-0.47 -0.5,3.86 -2.03,7.44 -3.52,11 -1.49,0.08 -2.98,0.15 -4.47,0.24 0.98,-1.34 1.98,-2.68 2.97,-4.01 -1.48,-0.48 -2.96,-0.96 -4.43,-1.48 0.78,-1.34 1.6,-2.67 2.42,-4 -0.13,-0.45 -0.4,-1.35 -0.54,-1.81 -1.7,0.29 -3.41,0.54 -5.12,0.82 1.34,2.77 2.77,5.51 3.66,8.47 -0.86,0 -2.59,0 -3.45,0.01 1.32,2.25 3.27,3.86 5.76,4.7 -5.23,0.43 -8.53,-4.27 -9.28,-8.93 0.51,0 1.52,-0.01 2.03,-0.01 -0.63,-1.44 -1.55,-3.26 -0.03,-4.53 z"
     id="path14"
     style="fill:#1d4583" />
</svg>
