<?xml version="1.0" encoding="utf-8"?>
<!-- Generator: Adobe Illustrator 15.1.0, SVG Export Plug-In . SVG Version: 6.00 Build 0)  -->
<svg version="1.2" baseProfile="tiny" id="Шар_1"
	 xmlns="http://www.w3.org/2000/svg" xmlns:xlink="http://www.w3.org/1999/xlink" x="0px" y="0px" width="24px" height="24px"
	 viewBox="0 0 24 24" xml:space="preserve">
<path fill-rule="evenodd" fill="#006eb7" d="M19.645,20.629l-1.109-1.021c2.446-1.899,3.63-4.246,3.63-7.575
	c0-3.33-1.213-5.589-3.659-7.486l1.139-1.11c2.577,2.033,4.07,5.058,4.07,8.597S22.222,18.596,19.645,20.629L19.645,20.629z
	 M16.953,18.402l-1.108-1.024c2.101-1.723,2.619-3.289,2.619-5.346c0-1.826-0.808-3.506-2.561-4.971l1.137-1.109
	c1.741,1.86,2.974,3.61,2.974,6.08C20.014,14.469,19.406,16.219,16.953,18.402L16.953,18.402z M12.957,17.25v6.814l-9.255-7.053
	V7.053L12.957,0v6.925C15,8,16.292,9.978,16.292,12.032S14.792,16.476,12.957,17.25L12.957,17.25z M12.957,15.325
	c0.772-0.225,1.842-1.68,1.842-3.293c0-1.574-0.736-2.678-1.842-3.261V15.325z M2.776,8.33v7.406v0.924H0.001V7.405h2.775V8.33
	L2.776,8.33z"/>
</svg>
