<?xml version="1.0" encoding="utf-8"?>
<!-- Generator: Adobe Illustrator 15.1.0, SVG Export Plug-In . SVG Version: 6.00 Build 0)  -->
<svg version="1.2" baseProfile="tiny" id="Шар_1"
	 xmlns="http://www.w3.org/2000/svg" xmlns:xlink="http://www.w3.org/1999/xlink" x="0px" y="0px" width="24px" height="24px"
	 viewBox="0 0 24 24" xml:space="preserve">
<g>
	<path fill-rule="evenodd" fill="#006eb7" d="M10.114,16.396v6.082l-6.81-6.294V7.295L10.114,1v6.181
		c1.823,0.959,2.977,2.725,2.977,4.558C13.091,13.573,11.752,15.705,10.114,16.396L10.114,16.396z M10.114,14.678
		c0.689-0.2,1.644-1.499,1.644-2.939c0-1.404-0.657-2.39-1.644-2.911V14.678z M2.478,8.434v6.61v0.824H0.001V7.609h2.477V8.434
		L2.478,8.434z"/>
	<polygon fill="#006eb7" points="22.899,6.355 18.702,10.845 14.309,6.355 13.331,7.332 17.725,11.822 13.331,16.313 14.309,17.288 
		18.702,12.799 22.899,17.288 23.875,16.313 19.679,11.822 23.875,7.332 	"/>
</g>
</svg>
