<?xml version="1.0" encoding="utf-8"?>
<!-- Generator: Adobe Illustrator 15.1.0, SVG Export Plug-In . SVG Version: 6.00 Build 0)  -->
<svg version="1.2" baseProfile="tiny" id="Шар_1"
	 xmlns="http://www.w3.org/2000/svg" xmlns:xlink="http://www.w3.org/1999/xlink" x="0px" y="0px" width="24px" height="24px"
	 viewBox="0 0 24 24" xml:space="preserve">
<g id="Шар_1_1_" display="none">
	<g display="inline">
		<path fill="none" d="M-37.288,7.488V6.534V2.718h-8.234c-0.122,0-0.219,0.098-0.219,0.218v8.516v0.012h13.115V7.488H-37.288z"/>
		<polygon fill="none" points="-44.998,19.589 -44.998,20.377 -44.998,21.177 -33.442,21.177 -33.442,20.377 -33.442,19.589 
			-33.442,18.753 -44.998,18.753 		"/>
		<polygon fill="none" points="-48.049,18.634 -46.741,18.634 -46.741,17.229 -46.741,16.273 -44.998,16.273 -33.442,16.273 
			-31.699,16.273 -31.699,17.229 -31.699,18.634 -30.392,18.634 -30.392,14.163 -48.049,14.163 		"/>
		<polygon fill="#FFFFFF" points="-44.998,18.634 -44.998,18.753 -33.442,18.753 -33.442,18.634 -33.442,17.798 -44.998,17.798 		
			"/>
		<path fill="#FFFFFF" d="M-30.392,20.377H-31.7v0.8c0,0.964-0.78,1.743-1.743,1.743h-11.556c-0.962,0-1.743-0.779-1.743-1.743v-0.8
			h-1.308c-0.962,0-1.743-0.781-1.743-1.743v0.955c0,0.962,0.781,1.743,1.743,1.743h1.308v0.8c0,0.964,0.781,1.743,1.743,1.743
			h11.556c0.963,0,1.743-0.779,1.743-1.743v-0.8h1.308c0.963,0,1.743-0.781,1.743-1.743v-0.955
			C-28.648,19.596-29.429,20.377-30.392,20.377z"/>
		<rect x="-48.049" y="13.208" fill="#FFFFFF" width="17.657" height="0.955"/>
		<polygon fill="#FFFFFF" points="-30.879,7.488 -30.881,7.487 -30.881,7.488 		"/>
		<path fill="#FFFFFF" d="M-45.522,2.718h8.234V1.763h-8.234c-0.122,0-0.219,0.098-0.219,0.218v0.955
			C-45.742,2.816-45.644,2.718-45.522,2.718z"/>
		<rect x="-47.488" y="11.453" fill="#FFFFFF" width="1.746" height="0.012"/>
		<rect x="-37.288" y="6.534" fill="#FFFFFF" width="4.661" height="0.955"/>
		<path fill="#266E9E" d="M-30.392,11.465h-0.489v0.001h-1.746v-0.001h-13.115h-1.746h-0.561c-0.962,0-1.743,0.78-1.743,1.743v0.955
			v4.471c0,0.962,0.781,1.743,1.743,1.743h1.308v0.8c0,0.964,0.781,1.743,1.743,1.743h11.556c0.963,0,1.743-0.779,1.743-1.743v-0.8
			h1.308c0.963,0,1.743-0.781,1.743-1.743v-4.471v-0.955C-28.648,12.245-29.429,11.465-30.392,11.465z M-33.442,18.634v0.119v0.836
			v0.788v0.8h-11.556v-0.8v-0.788v-0.836v-0.119v-0.836h11.556V18.634z M-30.392,14.163v4.471H-31.7v-1.405v-0.955h-1.743h-11.556
			h-1.743v0.955v1.405h-1.308v-4.471v-0.955h17.657L-30.392,14.163L-30.392,14.163z"/>
		<path fill="#6DB9E4" d="M-45.742,2.937V1.981c0-0.12,0.098-0.218,0.219-0.218h8.234v0.955v3.815h4.661v0.955v3.977v0.001h1.746
			v-0.001V7.488l0,0v-0.77V6.533h0.002h-0.002v-0.77L-37.288,0v0.017h-8.234c-1.085,0-1.965,0.88-1.965,1.965v0.955v8.516h1.746
			L-45.742,2.937L-45.742,2.937z"/>
	</g>
</g>
<g>
	<g>
		<path fill="#8b4b18" d="M12.468,10.138c-0.012-0.016-0.035-0.027-0.046-0.043c-0.129-0.158-0.295-0.285-0.423-0.446
			c-0.104-0.132-0.217-0.263-0.313-0.404c-0.126-0.187-0.231-0.387-0.328-0.603c-0.057-0.128-0.086-0.27-0.129-0.412
			c-0.014-0.043-0.01-0.083-0.023-0.128c-0.035-0.138-0.042-0.316-0.042-0.481c0-0.064-0.005-0.132,0.007-0.188
			c0-0.018,0-0.035,0-0.053c0.007-0.033,0.002-0.071,0.011-0.107c0.021-0.091,0.02-0.187,0.047-0.275
			c0.025-0.086,0.042-0.176,0.072-0.261c0.05-0.138,0.105-0.271,0.166-0.398c0.042-0.089,0.098-0.177,0.152-0.258
			c0.087-0.135,0.174-0.261,0.272-0.385c0.176-0.223,0.396-0.416,0.602-0.612c0.078-0.073,0.154-0.146,0.23-0.218
			c0.041-0.036,0.074-0.075,0.119-0.107c0.013-0.013,0.023-0.024,0.036-0.037c0.044-0.041,0.087-0.085,0.137-0.12
			c0.02-0.02,0.041-0.04,0.062-0.06c0.052-0.048,0.104-0.095,0.155-0.142c0.069-0.061,0.137-0.13,0.213-0.184
			c0.016-0.016,0.03-0.03,0.046-0.046c0.049-0.045,0.097-0.093,0.15-0.131c0.019-0.018,0.037-0.036,0.055-0.054
			c0.021-0.021,0.048-0.037,0.069-0.057c0.039-0.035,0.071-0.073,0.114-0.104c0.063-0.06,0.126-0.119,0.187-0.177
			c0.045-0.03,0.078-0.069,0.116-0.104c0.038-0.036,0.08-0.067,0.111-0.107c0.016-0.013,0.03-0.024,0.044-0.037
			c0.037-0.034,0.075-0.071,0.109-0.11c0.014-0.012,0.026-0.024,0.042-0.036c0.061-0.075,0.139-0.137,0.198-0.211
			c0.062-0.077,0.131-0.149,0.191-0.228c0.113-0.147,0.22-0.302,0.313-0.468c0.112-0.202,0.193-0.42,0.268-0.66
			c0.016-0.079,0.033-0.158,0.051-0.238c0.002-0.024,0.004-0.049,0.006-0.074c0.038-0.152,0.032-0.446-0.012-0.588
			c-0.036-0.128-0.076-0.248-0.143-0.349c-0.066-0.1-0.127-0.184-0.229-0.251c-0.026-0.019-0.054-0.05-0.091-0.056
			c0.015,0.102,0.03,0.205,0.045,0.308c0.002,0.063,0.002,0.125,0.005,0.187c0,0.155-0.024,0.318-0.065,0.439
			c-0.072,0.208-0.16,0.391-0.275,0.558c-0.076,0.114-0.169,0.216-0.254,0.322c-0.094,0.115-0.218,0.207-0.312,0.321
			c-0.021,0.02-0.044,0.041-0.067,0.061c-0.041,0.049-0.091,0.087-0.136,0.131c-0.048,0.043-0.091,0.092-0.146,0.13
			c-0.023,0.023-0.048,0.047-0.071,0.07c-0.115,0.081-0.208,0.187-0.325,0.268c-0.008,0.006-0.016,0.013-0.022,0.02
			c0-0.002,0.001-0.005,0.002-0.007c0.015-0.06,0.011-0.154-0.003-0.208c-0.014-0.053-0.022-0.096-0.048-0.137
			c-0.072-0.116-0.224-0.192-0.378-0.231c-0.051-0.012-0.117-0.008-0.177-0.006c-0.017,0.011-0.046,0.005-0.064,0.011
			c-0.04,0.01-0.081,0.022-0.12,0.033c-0.103,0.041-0.194,0.093-0.276,0.154c-0.092,0.068-0.165,0.184-0.205,0.301
			c-0.011,0.031-0.012,0.058-0.021,0.09c-0.006,0.024-0.032,0.138-0.024,0.165c0.007,0.024,0.031,0.053,0.042,0.076
			c0.068,0.156,0.146,0.237,0.317,0.292c0.058,0.019,0.135,0.026,0.212,0.026c-0.266,0.188-0.529,0.379-0.804,0.558
			c-0.209,0.136-0.42,0.274-0.637,0.402c-0.081,0.046-0.157,0.095-0.236,0.141c-0.032,0.018-0.076,0.034-0.1,0.06
			c-0.001,0-0.002,0-0.003,0c0.011-0.066,0.032-0.137,0.05-0.2c0.021-0.102,0.042-0.205,0.063-0.308
			c0.01-0.096,0.022-0.192,0.035-0.288c0.001-0.043,0.003-0.087,0.003-0.13c0.007-0.032,0.007-0.092,0-0.125c0-0.023,0-0.046,0-0.07
			c-0.004-0.049-0.011-0.099-0.018-0.147c-0.025-0.095-0.045-0.184-0.083-0.265c-0.055-0.119-0.16-0.245-0.266-0.318
			c-0.028-0.019-0.057-0.041-0.086-0.057c-0.02-0.013-0.045-0.019-0.061-0.034c-0.003,0-0.005,0-0.008,0
			c0.046,0.103,0.063,0.221,0.095,0.338c0.003,0.034,0.006,0.069,0.01,0.103c0.032,0.132,0.006,0.377-0.025,0.489
			c-0.014,0.05-0.017,0.093-0.033,0.14c-0.064,0.18-0.138,0.346-0.238,0.493c-0.081,0.119-0.177,0.227-0.267,0.338
			c-0.021,0.027-0.056,0.052-0.08,0.079C9.882,4.83,9.753,4.94,9.632,5.054c-0.08,0.074-0.156,0.159-0.247,0.224
			c-0.044,0.031-0.075,0.08-0.119,0.11c-0.039,0.026-0.07,0.064-0.105,0.09c-0.124,0.087-0.225,0.201-0.35,0.288
			C8.757,5.805,8.711,5.861,8.657,5.9C8.478,6.026,8.329,6.186,8.149,6.313C8.101,6.346,8.061,6.391,8.012,6.426
			C7.955,6.465,7.91,6.52,7.854,6.56C7.842,6.573,7.829,6.584,7.817,6.597c-0.082,0.057-0.145,0.132-0.227,0.19
			C7.563,6.813,7.539,6.839,7.512,6.864C7.454,6.905,7.407,6.958,7.356,7.005c-0.122,0.113-0.24,0.232-0.335,0.368
			C6.899,7.544,6.806,7.732,6.73,7.949C6.705,8.02,6.698,8.099,6.679,8.173C6.678,8.192,6.677,8.211,6.676,8.23
			C6.651,8.328,6.655,8.536,6.679,8.632c0.003,0.03,0.006,0.06,0.011,0.09c0.033,0.121,0.056,0.24,0.104,0.348
			c0.295,0.663,0.856,1.112,1.473,1.476c0.127,0.074,0.26,0.147,0.39,0.221c0.06,0.034,0.123,0.053,0.184,0.087
			c0.069,0.04,0.148,0.08,0.223,0.11c0.25,0.102,0.495,0.216,0.746,0.319c0.087,0.035,0.175,0.069,0.26,0.104
			c0.038,0.015,0.088,0.022,0.119,0.047c0.003,0,0.007,0,0.011,0c-0.014-0.02-0.037-0.031-0.058-0.044
			c-0.039-0.027-0.075-0.059-0.114-0.086c-0.031-0.022-0.06-0.052-0.091-0.074c-0.114-0.079-0.218-0.166-0.332-0.244
			c-0.102-0.071-0.187-0.164-0.288-0.234c-0.02-0.021-0.042-0.041-0.061-0.061c-0.068-0.046-0.152-0.128-0.202-0.19
			c-0.04-0.048-0.096-0.088-0.138-0.138c-0.092-0.115-0.193-0.227-0.276-0.351C8.504,9.814,8.412,9.597,8.325,9.352
			C8.312,9.313,8.312,9.278,8.3,9.237c-0.1-0.329-0.06-0.839,0.042-1.131c0.022-0.062,0.033-0.119,0.058-0.177
			c0.032-0.072,0.068-0.145,0.101-0.214c0.021-0.044,0.037-0.089,0.064-0.13c0.075-0.115,0.142-0.232,0.225-0.341
			c0.082-0.111,0.174-0.216,0.262-0.325c0.072-0.091,0.167-0.167,0.241-0.258c0.03-0.037,0.079-0.063,0.109-0.101
			c0.036-0.045,0.083-0.087,0.125-0.127c0.016-0.012,0,0.177,0.001,0.177c0.004,0.933,0.188,1.167,0.579,1.74
			c0.088,0.13,0.477,0.494,1.408,1.221c0.22,0.172,0.455,0.331,0.692,0.485c0.083,0.056,0.169,0.112,0.255,0.165
			c0.039,0.023,0.093,0.044,0.123,0.077c0.001,0,0.003,0,0.006,0c-0.006-0.02-0.022-0.031-0.035-0.047
			C12.527,10.21,12.497,10.176,12.468,10.138z"/>
		<path fill="#8b4b18" d="M17.173,8.883c-0.048-0.104-0.095-0.207-0.159-0.298c-0.043-0.061-0.097-0.119-0.145-0.177
			c-0.034-0.04-0.085-0.083-0.13-0.113c-0.051-0.036-0.101-0.082-0.155-0.117c-0.107-0.068-0.223-0.119-0.336-0.182
			c-0.307-0.17-0.644-0.306-0.951-0.475c-0.111-0.061-0.232-0.104-0.341-0.164c-0.021-0.009-0.04-0.016-0.06-0.023
			c-0.088-0.049-0.188-0.089-0.277-0.138c-0.051-0.026-0.113-0.039-0.155-0.073c-0.001,0-0.003,0-0.003,0
			c0.007-0.02,0.03-0.031,0.042-0.046c0.036-0.042,0.082-0.079,0.116-0.121c0.104-0.125,0.231-0.232,0.337-0.357
			c0.027-0.032,0.065-0.059,0.093-0.09c0.089-0.108,0.199-0.202,0.287-0.309c0.229-0.272,0.48-0.522,0.7-0.803
			c0.149-0.189,0.312-0.376,0.419-0.602c0.054-0.113,0.131-0.365,0.093-0.532c-0.003-0.028-0.006-0.057-0.009-0.084
			c-0.042-0.158-0.089-0.29-0.169-0.409c-0.032-0.046-0.064-0.088-0.097-0.13c-0.014-0.017-0.025-0.045-0.049-0.053
			c0.014,0.066,0.012,0.141,0.012,0.218c0,0.033,0.004,0.075-0.003,0.104c0,0.016,0,0.033,0,0.049
			c-0.009,0.055-0.016,0.109-0.022,0.165c-0.034,0.123-0.062,0.242-0.111,0.349c-0.048,0.101-0.09,0.193-0.153,0.281
			c-0.18,0.259-0.442,0.459-0.711,0.642c-0.007-0.041-0.009-0.086-0.026-0.115c-0.092-0.146-0.289-0.174-0.531-0.171
			c-0.012,0.006-0.031,0-0.047,0.003c-0.041,0.006-0.081,0.014-0.121,0.02c-0.109,0.03-0.223,0.08-0.283,0.157
			c-0.037,0.047-0.066,0.097-0.086,0.158c-0.014,0.042-0.025,0.115-0.014,0.164c0,0.012,0,0.024,0,0.037
			c0.008,0.034,0.014,0.072,0.027,0.104c0.047,0.109,0.136,0.171,0.243,0.218c-0.009,0.005-0.017,0.011-0.025,0.017
			c-0.216,0.138-0.428,0.28-0.645,0.419c-0.045,0.027-0.089,0.058-0.134,0.087c-0.023,0.015-0.053,0.04-0.104,0.03
			c-0.053-0.011-0.105-0.021-0.144-0.047c-0.023-0.016-0.038-0.044-0.056-0.067c-0.036-0.047-0.076-0.092-0.114-0.141
			c-0.063-0.081-0.134-0.159-0.197-0.241c-0.065-0.085-0.126-0.172-0.19-0.258c-0.045-0.057-0.089-0.116-0.134-0.174
			c-0.023-0.029-0.065-0.063-0.078-0.1c-0.003,0-0.006,0-0.008,0c-0.014,0.042-0.026,0.085-0.039,0.127
			c-0.011,0.028-0.01,0.058-0.016,0.084c-0.023,0.089,0.003,0.252,0.025,0.318c0.014,0.043,0.02,0.08,0.037,0.121
			c0.089,0.195,0.212,0.354,0.337,0.515c0.054,0.07,0.11,0.137,0.163,0.205c0.023,0.031,0.04,0.066,0.07,0.093
			c-0.007,0.032-0.038,0.059-0.057,0.084c-0.035,0.052-0.073,0.111-0.1,0.167c-0.048,0.099-0.09,0.2-0.13,0.308
			c-0.023,0.069-0.028,0.144-0.047,0.217c-0.002,0.022-0.002,0.044-0.004,0.067c-0.017,0.063-0.009,0.198,0.007,0.258
			c0.001,0.016,0.002,0.031,0.005,0.046c0.018,0.066,0.027,0.137,0.055,0.198c0.037,0.082,0.073,0.166,0.122,0.238
			c0.047,0.07,0.104,0.136,0.155,0.201c0.086,0.11,0.185,0.206,0.273,0.312c0.037,0.045,0.101,0.084,0.137,0.128
			c0.04,0.045,0.09,0.083,0.134,0.123c0.056,0.05,0.107,0.105,0.17,0.148c0.036,0.025,0.063,0.065,0.102,0.09
			c0.058,0.04,0.104,0.088,0.162,0.127c0.009,0.011,0.021,0.02,0.029,0.031c0.066,0.045,0.129,0.093,0.196,0.137
			c0.162,0.103,0.351,0.179,0.521,0.275c0.059,0.031,0.121,0.058,0.178,0.09c0.019,0.01,0.037,0.014,0.052,0.026
			c0.002,0,0.004,0,0.007,0c-0.03-0.041-0.083-0.072-0.121-0.107c-0.072-0.066-0.149-0.132-0.213-0.208
			c-0.019-0.024-0.053-0.044-0.072-0.07c-0.096-0.115-0.203-0.225-0.29-0.349c-0.141-0.204-0.246-0.4-0.339-0.652
			c-0.037-0.099-0.053-0.21-0.083-0.321c-0.011-0.046,0.002-0.1-0.011-0.147c-0.01-0.046-0.01-0.138,0-0.185
			c0.003-0.028,0.004-0.058,0.005-0.087c0.019-0.074,0.019-0.153,0.04-0.224c0.014-0.045,0.023-0.092,0.04-0.138
			c0.013-0.033,0.034-0.068,0.042-0.103c0.024,0.006,0.041,0.022,0.058,0.033c0.059,0.033,0.119,0.062,0.175,0.094
			c0.125,0.07,0.252,0.129,0.37,0.205c0.053,0.033,0.101,0.072,0.151,0.107c0.019,0.012,0.031,0.032,0.048,0.043
			c0.121,0.082,0.221,0.186,0.342,0.267c0.043,0.03,0.075,0.078,0.117,0.107c0.062,0.042,0.122,0.097,0.168,0.151
			c0.028,0.034,0.069,0.062,0.1,0.097c0.015,0.019,0.041,0.033,0.055,0.051c0.072,0.085,0.155,0.163,0.219,0.254
			c0.08,0.113,0.146,0.239,0.196,0.378c0.016,0.056,0.029,0.112,0.044,0.167c0.005,0.031,0.009,0.063,0.012,0.094
			c0.035,0.141,0.011,0.393-0.026,0.516c-0.013,0.045-0.014,0.087-0.029,0.13c-0.053,0.146-0.105,0.284-0.178,0.409
			c-0.016,0.026-0.023,0.054-0.041,0.08c-0.06,0.089-0.114,0.18-0.181,0.265c-0.048,0.062-0.108,0.119-0.155,0.18
			c-0.053,0.066-0.095,0.146-0.138,0.221c-0.021,0.036-0.034,0.081-0.063,0.11c0,0.003,0,0.004,0,0.007
			c0.024-0.008,0.037-0.031,0.056-0.043c0.047-0.032,0.086-0.072,0.133-0.103c0.132-0.09,0.243-0.197,0.374-0.285
			c0.027-0.019,0.05-0.049,0.077-0.068c0.078-0.052,0.143-0.115,0.22-0.167c0.022-0.016,0.04-0.042,0.062-0.058
			c0.083-0.056,0.152-0.125,0.226-0.191c0.225-0.203,0.434-0.438,0.57-0.72c0.024-0.048,0.039-0.096,0.063-0.147
			c0.036-0.079,0.065-0.17,0.093-0.258c0.014-0.043,0.013-0.082,0.026-0.126c0.013-0.049,0.014-0.111,0.014-0.174
			c0-0.019,0-0.039,0-0.057C17.24,9.094,17.218,8.982,17.173,8.883z"/>
	</g>
	<path fill-rule="evenodd" fill="#8b4b18" d="M6.321,22.228c2.494,0,6.098,0.002,8.585,0.002c0.331,0,0.662,0.007,0.985,0.008
		c0.071,0,0.148,0.003,0.214,0.003c0.045,0,0.1-0.004,0.141,0.004c0.02,0,0.04,0,0.061,0c0.055,0,0.122-0.004,0.173,0.006
		c0.075,0.003,0.153,0.006,0.229,0.008c0.063,0.013,0.132,0,0.196,0.013c0.04,0.009,0.086,0.004,0.129,0.014
		c0.102,0.022,0.205,0.029,0.291,0.063c0.113,0.046,0.303,0.177,0.374,0.265c0.021,0.025,0.281,0.117,0.281,0.605
		c0,0.307-0.216,0.497-0.463,0.629c-0.176,0.096-0.666,0.147-0.684,0.153c-0.564,0-0.787,0-1.352,0c-2.703,0-6.509,0-9.214,0
		c0-0.186,0-0.372,0-0.558c2.424,0,5.957-0.004,8.376-0.004c0.321,0,2.101-0.034,2.171-0.075c0.03-0.018,0.08-0.015,0.102-0.043
		c0.066-0.081,0.262-0.118,0.002-0.337c-0.075-0.063-0.199-0.064-0.316-0.09c-0.045-0.01-1.592-0.05-1.735-0.05
		c-2.466-0.004-6.045-0.025-8.509-0.028C6.345,22.62,6.333,22.423,6.321,22.228L6.321,22.228z"/>
	<path fill-rule="evenodd" fill="#8b4b18" d="M7.401,19.914c2.373,0,4.819,0.003,7.187,0.003c0.315,0,0.629,0.007,0.937,0.007
		c0.067,0,0.142,0.003,0.204,0.004c0.041,0,0.095-0.004,0.132,0.003c0.021,0,0.039,0,0.06,0c0.052,0-0.307-0.003-0.257,0.006
		c0.072,0.003,0.146,0.006,0.219,0.008c0.058,0.013,0.124,0,0.185,0.013c0.039,0.009,0.082,0.005,0.124,0.014
		c0.096,0.022,0.195,0.029,0.276,0.064c0.107,0.045,0.288,0.176,0.355,0.264c0.021,0.026,0.269,0.09,0.269,0.577
		c0,0.308-0.207,0.497-0.441,0.63c-0.168,0.095-0.633,0.146-0.65,0.152c-0.536,0-0.328,0-0.864,0c-2.572,0-5.212,0-7.785,0
		c0-0.186,0-0.372,0-0.558c2.306,0,4.686-0.003,6.986-0.003c0.306,0,1.579-0.035,1.646-0.075c0.028-0.019,0.077-0.016,0.097-0.043
		c0.063-0.082,0.248-0.09,0.002-0.309c-0.072-0.064-0.188-0.065-0.301-0.091c-0.043-0.01-1.095-0.05-1.23-0.05
		c-2.346-0.004-4.77-0.025-7.114-0.027C7.424,20.307,7.413,20.11,7.401,19.914L7.401,19.914z"/>
	<g>
		<path fill="none" d="M16.978,13.746c-0.064-0.037-0.143-0.061-0.226-0.079c-0.047-0.012-0.1-0.007-0.146-0.017
			c-0.075-0.003-0.148-0.007-0.223-0.011c-0.06-0.013-0.153-0.01-0.218-0.01c-0.026,0-0.055,0-0.082,0
			c-0.016-0.003-2.061-0.006-3.769-0.006c-1.706,0-4.188,0.003-4.205,0.006c-0.028,0-0.055,0-0.082,0
			c-0.064,0-0.159-0.003-0.219,0.01c-0.074,0.004-0.148,0.008-0.222,0.011c-0.047,0.01-0.099,0.005-0.146,0.017
			c-0.083,0.019-0.16,0.042-0.226,0.079c-0.244,0.147-0.417,0.346-0.531,0.62c-0.044,0.107-0.054,0.229-0.082,0.354
			c-0.006,0.025,0,0.068,0.003,0.087c0.008,0.038,0.005,0.067,0.017,0.102c0.015,0.05,0.04,0.101,0.061,0.146
			c0.101,0.23,0.25,0.382,0.504,0.462c0.093,0.03,0.259,0.042,0.365,0.01c0.066-0.019,0.136-0.04,0.191-0.073
			c0.187-0.111,0.289-0.254,0.352-0.488c0.024-0.09,0.031-0.234-0.004-0.318c-0.047-0.112-0.315-0.08-0.229,0.21
			c-0.172,0.397-0.497,0.237-0.559,0.215c-0.397-0.144-0.373-0.508-0.172-0.816c0.301-0.322,0.663-0.371,0.725-0.358
			c0.02,0.001,0.04,0.002,0.062,0.004c0.061,0.013,0.126,0.018,0.18,0.04c0.086,0.036,0.162,0.105,0.215,0.174
			c0.016,0.021,0.044,0.038,0.061,0.061c0.046,0.06,0.096,0.118,0.137,0.185c0.05,0.08,0.07,0.178,0.096,0.284
			c0.004,0.039,0.008,0.077,0.013,0.117c0.013,0.055,0.023,0.12,0.027,0.181c0.989,0,2.229,0,3.217,0c0.008,0,0.454,0,0.461,0
			c0.989,0,2.229,0,3.218,0c0.003-0.061,0.014-0.126,0.026-0.181c0.006-0.04,0.01-0.078,0.014-0.117
			c0.026-0.106,0.046-0.204,0.096-0.284c0.042-0.066,0.09-0.125,0.137-0.185c0.017-0.022,0.045-0.039,0.062-0.061
			c0.052-0.068,0.129-0.138,0.215-0.174c0.054-0.022,0.118-0.027,0.181-0.04c0.021-0.002,0.041-0.003,0.062-0.004
			c0.061-0.013,0.424,0.036,0.725,0.358c0.2,0.309,0.226,0.673-0.172,0.816c-0.062,0.022-0.387,0.183-0.559-0.215
			c0.086-0.29-0.183-0.322-0.23-0.21c-0.035,0.084-0.027,0.229-0.003,0.318c0.063,0.234,0.164,0.377,0.352,0.488
			c0.055,0.033,0.124,0.055,0.191,0.073c0.105,0.032,0.271,0.021,0.364-0.01c0.255-0.08,0.403-0.231,0.504-0.462
			c0.021-0.046,0.046-0.097,0.062-0.146c0.013-0.034,0.009-0.063,0.018-0.102c0.004-0.019,0.01-0.062,0.003-0.087
			c-0.027-0.125-0.037-0.247-0.082-0.354C17.396,14.092,17.223,13.894,16.978,13.746z"/>
		<path fill="#8b4b18" d="M18.06,14.581c-0.004-0.038-0.006-0.077-0.009-0.113c-0.008-0.035-0.007-0.075-0.017-0.112
			c-0.02-0.07-0.036-0.141-0.064-0.204c-0.1-0.223-0.242-0.414-0.406-0.574c-0.044-0.045-0.088-0.091-0.14-0.128
			c-0.087-0.063-0.193-0.111-0.283-0.171c-0.032-0.021-0.091-0.049-0.099-0.094c0.012-0.016,0.013-0.038,0.021-0.057
			c0.022-0.048,0.048-0.109,0.075-0.154c0.097-0.155,0.177-0.3,0.229-0.501c0.005-0.043,0.009-0.085,0.014-0.127
			c0-0.023,0-0.047,0-0.071c0.014-0.058,0.003-0.142,0.003-0.207c0-0.14,0-0.279,0-0.418c-1.602,0-3.453,0-5.055,0
			c-0.008,0-0.454,0-0.461,0c-1.602,0-3.454,0-5.055,0c0,0.139,0,0.279,0,0.418c0,0.064-0.01,0.148,0.004,0.207
			c0,0.024,0,0.048,0,0.071c0.004,0.042,0.008,0.084,0.014,0.127c0.052,0.202,0.131,0.346,0.228,0.501
			c0.028,0.045,0.053,0.106,0.075,0.154c0.008,0.019,0.009,0.041,0.02,0.057c-0.007,0.045-0.065,0.072-0.098,0.094
			c-0.091,0.06-0.197,0.107-0.284,0.171c-0.051,0.037-0.095,0.083-0.14,0.128c-0.163,0.16-0.306,0.352-0.405,0.574
			c-0.028,0.063-0.046,0.134-0.064,0.204c-0.01,0.037-0.008,0.077-0.018,0.112c-0.001,0.036-0.004,0.075-0.007,0.113
			c-0.007,0.028-0.003,0.072-0.003,0.107c0,0.077-0.004,0.159,0.01,0.224c0.002,0.028,0.004,0.058,0.007,0.087
			c0.022,0.088,0.029,0.181,0.062,0.258c0.13,0.311,0.353,0.529,0.665,0.663c0.083,0.035,0.175,0.062,0.273,0.087
			c0.052,0.013,0.103,0.004,0.16,0.017c0.031,0.007,0.134,0.012,0.17,0.004c0.053-0.008,0.105-0.014,0.157-0.021
			c0.143-0.038,0.271-0.078,0.382-0.147c0.075-0.046,0.14-0.102,0.215-0.15c0.037-0.024,0.075-0.059,0.137-0.058
			c0.003,0.043,0.031,2.897,0.031,3.744c0.323,0,0.647,0,0.97,0c0-0.445,0.01-1.604,0.011-1.671
			c0.008-0.035,0.022-0.351,0.085-0.436c0.051-0.067,0.383-0.089,0.482-0.11c0.057-0.013,0.124,0.01,0.161,0.023
			c0.067,0.023,0.129,0.051,0.163,0.107c0.049,0.08,0.028,0.214,0.05,0.32c0.005,0.021,0.038,1.68,0.039,1.766
			c0.321,0,0.643,0,0.965,0c0-0.331,0.033-1.865,0.037-2.047c0.011-0.043,0.034-0.081,0.051-0.12
			c0.011-0.022,0.013-0.045,0.027-0.063c0.007-0.011,0.023-0.016,0.034-0.023c0.09-0.063,0.167-0.063,0.293-0.09
			c0.027-0.006,0.063-0.002,0.097,0.001l0,0c0.004,0,0.445,0.001,0.449,0c0.005,0.001,0.008,0,0.012,0l0,0
			c0.035-0.003,0.071-0.007,0.097-0.001c0.127,0.026,0.203,0.026,0.294,0.09c0.01,0.008,0.025,0.013,0.033,0.023
			c0.014,0.019,0.017,0.041,0.027,0.063c0.018,0.039,0.041,0.077,0.051,0.12c0.004,0.182,0.037,1.716,0.037,2.047
			c0.322,0,0.643,0,0.965,0c0.002-0.086,0.033-1.744,0.038-1.766c0.023-0.106,0.003-0.24,0.052-0.32
			c0.033-0.057,0.095-0.084,0.163-0.107c0.037-0.014,0.104-0.036,0.159-0.023c0.101,0.021,0.432,0.043,0.482,0.11
			c0.063,0.085,0.078,0.4,0.086,0.436c0,0.067,0.011,1.226,0.011,1.671c0.323,0,0.647,0,0.971,0c0-0.847,0.027-3.701,0.031-3.744
			c0.062-0.001,0.1,0.033,0.137,0.058c0.074,0.049,0.14,0.104,0.214,0.15c0.11,0.069,0.239,0.109,0.383,0.147
			c0.052,0.007,0.104,0.013,0.157,0.021c0.036,0.008,0.139,0.003,0.169-0.004c0.058-0.013,0.108-0.004,0.161-0.017
			c0.097-0.025,0.189-0.052,0.272-0.087c0.312-0.134,0.534-0.353,0.665-0.663c0.033-0.077,0.04-0.17,0.062-0.258
			c0.002-0.029,0.004-0.059,0.006-0.087c0.016-0.064,0.011-0.146,0.011-0.224C18.062,14.653,18.065,14.609,18.06,14.581z
			 M17.588,14.808c-0.009,0.038-0.005,0.067-0.018,0.102c-0.016,0.05-0.04,0.101-0.062,0.146c-0.101,0.23-0.249,0.382-0.504,0.462
			c-0.094,0.03-0.259,0.042-0.364,0.01c-0.067-0.019-0.137-0.04-0.191-0.073c-0.188-0.111-0.289-0.254-0.352-0.488
			c-0.024-0.09-0.032-0.234,0.003-0.318c0.048-0.112,0.316-0.08,0.23,0.21c0.172,0.397,0.497,0.237,0.559,0.215
			c0.397-0.144,0.372-0.508,0.172-0.816c-0.301-0.322-0.664-0.371-0.725-0.358c-0.021,0.001-0.04,0.002-0.062,0.004
			c-0.063,0.013-0.127,0.018-0.181,0.04c-0.086,0.036-0.163,0.105-0.215,0.174c-0.017,0.021-0.045,0.038-0.062,0.061
			c-0.047,0.06-0.095,0.118-0.137,0.185c-0.05,0.08-0.069,0.178-0.096,0.284c-0.004,0.039-0.008,0.077-0.014,0.117
			c-0.013,0.055-0.023,0.12-0.026,0.181c-0.989,0-2.229,0-3.218,0c-0.008,0-0.454,0-0.461,0c-0.989,0-2.229,0-3.217,0
			c-0.004-0.061-0.014-0.126-0.027-0.181c-0.005-0.04-0.009-0.078-0.013-0.117c-0.026-0.106-0.046-0.204-0.096-0.284
			c-0.041-0.066-0.09-0.125-0.137-0.185c-0.017-0.022-0.045-0.039-0.061-0.061c-0.053-0.068-0.129-0.138-0.215-0.174
			c-0.054-0.022-0.119-0.027-0.18-0.04c-0.021-0.002-0.042-0.003-0.062-0.004c-0.062-0.013-0.424,0.036-0.725,0.358
			c-0.201,0.309-0.226,0.673,0.172,0.816c0.062,0.022,0.387,0.183,0.559-0.215c-0.086-0.29,0.183-0.322,0.229-0.21
			c0.035,0.084,0.028,0.229,0.004,0.318c-0.063,0.234-0.165,0.377-0.352,0.488c-0.055,0.033-0.125,0.055-0.191,0.073
			c-0.106,0.032-0.272,0.021-0.365-0.01c-0.255-0.08-0.403-0.231-0.504-0.462c-0.021-0.046-0.046-0.097-0.061-0.146
			c-0.012-0.034-0.009-0.063-0.017-0.102c-0.004-0.019-0.009-0.062-0.003-0.087c0.028-0.125,0.037-0.247,0.082-0.354
			c0.114-0.274,0.287-0.473,0.531-0.62c0.065-0.037,0.143-0.061,0.226-0.079c0.048-0.012,0.1-0.007,0.146-0.017
			c0.074-0.003,0.148-0.007,0.222-0.011c0.06-0.013,0.154-0.01,0.219-0.01c0.027,0,0.054,0,0.082,0
			c0.016-0.003,2.499-0.006,4.205-0.006c1.708,0,3.753,0.003,3.769,0.006c0.027,0,0.056,0,0.082,0c0.064,0,0.158-0.003,0.218,0.01
			c0.074,0.004,0.147,0.008,0.223,0.011c0.046,0.01,0.099,0.005,0.146,0.017c0.083,0.019,0.161,0.042,0.226,0.079
			c0.245,0.147,0.418,0.346,0.531,0.62c0.045,0.107,0.055,0.229,0.082,0.354C17.598,14.746,17.592,14.789,17.588,14.808z"/>
	</g>
</g>
</svg>
