<?xml version="1.0" encoding="utf-8"?>
<!-- Generator: Adobe Illustrator 15.1.0, SVG Export Plug-In . SVG Version: 6.00 Build 0)  -->
<svg version="1.2" baseProfile="tiny" id="Шар_1"
	 xmlns="http://www.w3.org/2000/svg" xmlns:xlink="http://www.w3.org/1999/xlink" x="0px" y="0px" width="24px" height="24px"
	 viewBox="0 0 24 24" xml:space="preserve">
<g>
	<path fill="none" d="M15.26,1.676c0-0.396-0.321-0.718-0.718-0.718H9.275c-0.396,0-0.718,0.322-0.718,0.718v1.197h6.702V1.676z"/>
	<path fill="none" d="M6.285,22.262c0,0.396,0.513,0.719,0.91,0.719h9.429c0.396,0,0.91-0.322,0.91-0.719L18.969,3.83H4.848
		L6.285,22.262z M14.781,5.745h0.957l-0.479,15.32h-0.766L14.781,5.745z M11.43,5.745h0.958v15.32H11.43V5.745z M8.845,5.745
		l0.479,15.32H8.558L8.079,5.745H8.845z"/>
	<path fill="#e83338" d="M16.218,2.873V1.676C16.218,0.75,15.468,0,14.542,0H9.275C8.35,0,7.6,0.75,7.6,1.676v1.197H2.813V3.83H3.77
		l1.436,18.432c0,0.926,0.75,1.676,1.676,1.676h10.054c0.926,0,1.676-0.75,1.676-1.676L20.048,3.83h0.957V2.873H16.218z
		 M8.558,1.676c0-0.396,0.322-0.718,0.718-0.718h5.267c0.396,0,0.718,0.322,0.718,0.718v1.197H8.558V1.676z M17.533,22.262
		c0,0.396-0.514,0.719-0.91,0.719H7.194c-0.396,0-0.91-0.322-0.91-0.719L4.848,3.83h14.121L17.533,22.262z"/>
	<rect x="11.43" y="5.745" fill="#e83338" width="0.958" height="15.32"/>
	<polygon fill="#e83338" points="9.323,21.065 8.845,5.745 8.079,5.745 8.558,21.065 	"/>
	<polygon fill="#e83338" points="15.738,5.745 14.781,5.745 14.494,21.065 15.26,21.065 	"/>
</g>
</svg>
