<?xml version="1.0" encoding="utf-8"?>
<!-- Generator: Adobe Illustrator 15.1.0, SVG Export Plug-In . SVG Version: 6.00 Build 0)  -->
<svg version="1.2" baseProfile="tiny" id="Шар_2"
	 xmlns="http://www.w3.org/2000/svg" xmlns:xlink="http://www.w3.org/1999/xlink" x="0px" y="0px" width="24px" height="24px"
	 viewBox="0 0 24 24" xml:space="preserve">
<g>
	<path fill="none" d="M12.041,5.501c-3.653,0-6.625,2.972-6.625,6.625c0,3.653,2.972,6.625,6.625,6.625
		c3.652,0,6.625-2.972,6.625-6.625C18.666,8.473,15.693,5.501,12.041,5.501z M16.016,13.984h-4.953v-0.047v-0.892V8.031H12v5.016
		h4.016V13.984z"/>
	<path fill="#D0D0D0" d="M12.041,4.001c-4.487,0-8.125,3.638-8.125,8.125c0,4.487,3.638,8.125,8.125,8.125
		c4.488,0,8.125-3.638,8.125-8.125C20.166,7.639,16.529,4.001,12.041,4.001z M12.041,18.751c-3.653,0-6.625-2.972-6.625-6.625
		c0-3.653,2.972-6.625,6.625-6.625c3.652,0,6.625,2.972,6.625,6.625C18.666,15.779,15.693,18.751,12.041,18.751z"/>
	<polygon fill="#D0D0D0" points="12,8.031 11.063,8.031 11.063,13.047 11.063,13.938 11.063,13.984 16.016,13.984 16.016,13.047 
		12,13.047 	"/>
</g>
</svg>
