<svg xmlns="http://www.w3.org/2000/svg">
<defs>
<font id="1689GLCGaramondProNormal" horiz-adv-x="459" >
  <font-face 
    font-family="1689GLCGaramondProNormal"
    font-weight="400"
    font-stretch="normal"
    units-per-em="1000"
    panose-1="2 10 5 2 5 0 0 2 0 0"
    ascent="720"
    descent="-280"
    x-height="432"
    cap-height="690"
    bbox="-423 -316 1455 921"
    underline-thickness="40"
    underline-position="-153"
    unicode-range="U+0020-U+FC08"
  />
<missing-glyph horiz-adv-x="518" 
d="M453 108q-19 -19 -19 -31q0 -2 4.5 -17t4.5 -22q0 -6 -4 -18.5t-4 -13.5q0 -4 4 -12.5t4 -10.5q-13 -104 -13 -109q0 -32 9 -48l13 -21q2 -16 -12 -33.5t-30 -17.5q-8 0 -20 4q-4 -7 -14 -7q-2 0 -9 2.5t-10 2.5t-23.5 -7t-28.5 -7q-14 0 -22 7l-20 5l-10 -6l-21 1l-2 3
l-19 -2q-49 -5 -67 -13q-23 0 -66 5q-8 -8 -12 2q-9 -1 -23 -1q-8 0 -10 2q-2 1 -3 3t-1.5 7.5l-1 11.5t-1 17.5t-0.5 23t-0.5 31t-1.5 38.5q-2 94 -2 112q0 80 8 115q-2 8 -7 20q0 7 0.5 18t1.5 20.5t1 10.5q0 21 -21 43q-3 3 1 21q1 8 5 24q6 4 16 20q4 64 3 188
q-4 173 -4 196q10 3 26 16q6 1 13 1.5t11 1.5t7 1q4 10 16 10q2 0 11.5 -2.5t13.5 -2.5q6 0 13 4q23 -9 42 -10q26 -1 39 -5q10 4 20 5l1 1q10 2 20 1q4 0 9 -0.5t8 -1t4 -0.5l11 6q11 6 15 5q22 -7 30 -6q11 11 21 11h26q4 -5 5 -11l28 -2q16 -20 17 -33q3 -17 1 -75
q-2 -48 6 -75q-4 -20 -3 -33l6 -30q0 -1 -5 -15.5t-5 -19.5q0 -10 11 -18q0 -10 -3 -46q-3 -32 -2 -45q9 -16 11 -89q2 -93 3 -100zM352 611q-21 -5 -28 -9q-4 8 -21 19h-1h-9q-6 0 -24 -2l-9 5q-27 -3 -50 -1q-21 -5 -30 -12q-14 12 -64 12h-4q-10 -4 -16 -3l-1 1
q-4 -1 -7 -4q-1 -7 0 -26q2 -15 -7 -31q-1 -9 4 -37t5 -35t-8.5 -25.5t-8.5 -22.5q-10 -87 11 -186q3 -13 -4 -40q-8 -37 -8 -53q0 -31 15 -63q-13 -20 -14 -132q-2 -95 3 -143l16 -12q25 3 36 5l16 -4q15 7 30 7q19 0 25 -13q3 0 7.5 1t6.5 1q56 9 70 9q8 0 20 -2
q12 5 18 5q3 0 12.5 -4.5t13.5 -4.5q7 0 14 4l1 1q2 1 5 1q1 1 4 2t5 2q15 9 15 25q0 3 -2 16.5t-2 17.5q-3 184 -2 306l2 140q0 32 -3 47.5t-10 14.5q-2 10 6 54q9 45 9 67q0 35 -18 47q2 6 2 11q0 19 -14 39q0 1 -1.5 3t-2.5 3z" />
    <glyph glyph-name="ellipsis" unicode="&#x2e;&#x2e;&#x2e;" horiz-adv-x="571" 
d="M504 113q0 -1 4 -9.5t6 -13.5q10 -26 9 -33q-8 -26 -25 -45q-22 -24 -45 -25q-6 -1 -17 5l-16 9q-39 17 -39 53q0 19 10 49q29 33 64 33q26 0 49 -23zM319 110q0 -1 4 -9.5t6 -13.5q11 -25 9 -33q-8 -27 -26 -45q-20 -24 -45 -25q-5 -1 -16 5l-16 9q-39 16 -39 53
q0 19 10 49q28 33 63 33q27 0 50 -23zM130 110q7 -12 11 -23q10 -24 8 -33q-8 -26 -25 -45q-22 -24 -45 -25q-5 -1 -16 5l-16 9q-40 16 -40 53q0 16 11 49q28 33 63 33q26 0 49 -23z" />
    <glyph glyph-name="ff" unicode="ff" horiz-adv-x="511" 
d="M244 414q6 8 13 8q9 8 15 0q2 -2 4 -7q9 -5 15 -3l8 10q0 28 1 80q0 49 9 79q-10 10 -30 23q-8 15 -19 20q-16 8 -18 11q-37 3 -77 -17q-27 -14 -31 -59v-71q0 -6 -4 -27t-4 -26q0 -27 35 -25q5 8 21 9q12 2 32 0q6 0 11 -0.5t9.5 -0.5t3.5 0q2 -2 6 -4zM584 619
q-14 0 -31 12q-26 20 -27 20q-6 14 -18 20q-16 8 -18 11q-37 3 -77 -17q-27 -14 -31 -59v-71q0 -10 -4 -35t-4 -44q0 -51 35 -48q5 7 21 8q12 2 32 0q6 0 11 -0.5t9.5 -0.5t3.5 0q3 -4 6 -4q2 0 10 6t11 6q13 0 14 -25q1 -16 -4 -22.5t-25 -11.5l-30 -6l-8 2q-8 3 -15 5
q-11 4 -22 4q-3 0 -11 -2q-10 5 -16 5q-20 0 -20 -34q0 -8 2 -27t2 -20q1 -150 6 -224q4 -11 18 -27q13 3 29 -6.5t16 -21.5q0 -21 -16 -21q-9 0 -19 9q-1 -1 -5 -1q-6 0 -33 7q-25 7 -44 7q-13 0 -42 -11q-19 -8 -28 -8q-21 0 -21 20q0 24 31 34q3 3 23 18l4 12
q-2 53 -3 46q5 85 5 109q0 66 -11 82q-1 4 4.5 19t5.5 19q0 10 -11 16l-2 -1q-2 -1 -5.5 -3t-7.5 -4q-9 -6 -15 -6q-10 0 -16 10q-20 -3 -23 -4q-1 0 -4 1t-8.5 2.5t-9.5 2.5q-12 4 -22 4q-8 0 -12 -1q-8 4 -16 4q-19 0 -19 -33q0 -7 1.5 -26t1.5 -21q1 -150 6 -224
q4 -10 18 -27q13 3 29 -6.5t16 -21.5q0 -21 -16 -21q-9 0 -19 9q-4 -3 -34 -1q-37 2 -53 -2q-48 -10 -71 -2q-14 5 -14 19q0 24 31 34q6 6 22 18l5 12l-3 46q4 68 4 109q0 65 -11 82q-1 4 4.5 19t5.5 19q0 10 -11 16l-2 -1q-2 -1 -5.5 -3t-7.5 -4q-9 -6 -15 -6q-22 0 -22 34
q0 33 20 33q3 0 16.5 -5.5t17.5 -4.5l8 10q0 38 1 68q2 46 33 92q32 47 68 68q27 15 89 30q18 -9 34 -9q1 0 3.5 0.5t7.5 1t10 0.5q13 2 24 0q20 -3 33 -16q25 30 59 46q23 10 77 24q18 -9 34 -9q1 0 3.5 0.5t7 1t9.5 0.5q14 2 25 0q23 -3 38.5 -21.5t15.5 -40.5
q0 -15 -8 -29q-2 -2 -31 -13z" />
    <glyph glyph-name="fi" unicode="fi" horiz-adv-x="503" 
d="M306 67q8 4 16 40q6 31 6 62q0 7 -4 23t-4 19t5 14t4 18q-12 16 -11 40q2 33 -1 41l-23 14q-23 14 -19 23q-42 -1 -47 -3l-8 2q-8 3 -15 5q-11 4 -22 4q-3 0 -11 -2q-10 5 -16 5q-20 0 -20 -34q0 -8 2 -27t2 -20q1 -150 6 -224q4 -11 18 -27q13 3 29 -6.5t16 -21.5
q0 -21 -16 -21q-9 0 -19 9q-1 -1 -5 -1q-6 0 -33 7q-25 7 -44 7q-13 0 -42 -11q-19 -8 -28 -8q-21 0 -21 20q0 24 31 34q3 3 23 18l4 12q-2 53 -3 46q5 85 5 109q0 66 -11 82q-1 4 4.5 19t5.5 19q0 10 -11 16l-2 -1q-2 -1 -5.5 -3t-7.5 -4q-9 -6 -15 -6q-22 0 -22 34
q0 33 20 33q3 0 16.5 -5.5t17.5 -4.5l8 10q0 43 1 76q1 56 32 103t79 69q27 14 99 30q18 -9 34 -9q1 0 3.5 0.5t7 1t9.5 0.5q14 2 25 0q23 -3 38.5 -21.5t15.5 -40.5q0 -15 -8 -29q-2 -2 -31 -13q-14 0 -31 12q-26 20 -27 20q-6 14 -18 20q-16 8 -18 11q-13 1 -50 -5
q-35 -6 -47 -12q-27 -14 -31 -59v-71q0 -5 -4 -30t-4 -34q0 -36 35 -33q5 8 182 5q26 13 41 13q11 0 13 -8q-1 -34 -1 -122q0 -9 7 -52q6 -42 3 -48q-6 -17 -9 -68q-3 -50 0 -69q1 -9 27 -11q26 0 26 -18q0 -8 -3 -18t-55 -13q-6 -1 -27 5t-27 6q-7 0 -10 -1
q-54 -16 -58 -16q-24 0 -24 21t17 29q3 2 11 0q4 -1 9 -2h3q15 0 12 26z" />
    <glyph glyph-name="fl" unicode="fl" horiz-adv-x="499" 
d="M282 341q-6 -4 -27.5 -4t-24.5 -1q-31 6 -55 1q-12 5 -17 5q-19 0 -19 -34q0 -8 1.5 -27t1.5 -20q2 -104 6 -194q4 -11 18 -27q11 3 37 -15q8 -6 8 -17q0 -18 -15 -18q-10 0 -20 10q-1 -1 -5 -1q-6 0 -33 7q-25 7 -43 7q-7 0 -15 -2l-26 -9q-21 -8 -29 -8q-9 0 -18 6.5
t-9 14.5q0 17 37 33q1 1 4 3.5l8.5 7t9.5 7.5l5 12l-3 46q5 85 5 92q0 54 -12 69q0 4 5 19t5 19q0 10 -11 16q-2 -2 -13.5 -8t-16.5 -6q-22 0 -22 34q0 33 20 33q3 0 16.5 -5.5t17.5 -4.5l8 10q-2 48 4 127q-5 2 -5 14q-2 10 1 13l18 26q9 19 16 30q2 0 4 1t4 1q2 2 6 6.5
t7.5 7.5t6.5 6l21 18q39 42 90 42q24 0 49 -9q19 -18 39 -18q16 0 32 10l28 18q20 -5 20 -27q0 -12 -7 -37q-6 -25 -4 -37q3 -13 1 -43q-2 -29 0 -43q4 -19 4 -49q0 -26 -4 -65q-3 -44 -3 -62q0 -25 5 -45q8 -33 -1 -46q11 -65 6 -90q-4 -25 -4 -46q0 -29 12 -42t35 -11
q13 -4 13 -23q0 -16 -6.5 -23t-20.5 -5q-7 4 -29 12q-10 2 -14 2q-6 0 -16 -3t-12 -3q-10 0 -31 12q-5 0 -20 -7q-9 -4 -18 -4q-15 1 -28 8.5t-13 18.5q0 5 3 10l52 28q9 8 11 62q-5 12 -5 32q0 22 4 61t4 63q0 43 -13 50q-10 -4 -21 8zM144 505q0 -10 -4 -35t-4 -44
q0 -51 35 -48q5 7 21 8q14 2 33 0q6 0 10.5 -0.5t9.5 -0.5t3 0q4 -4 11 -2t11 -2q7 1 17 -2q16 0 23.5 3t8 4.5t0.5 6.5q0 3 -4 13.5t-4 12.5q1 40 0 118q0 4 -6.5 28t-5.5 33q-5 2 -22 17q-13 13 -24 12q-5 -2 -18 4q-7 3 -15 3q-12 0 -42 -10q-14 -6 -36 -30q-2 -3 -3 -19
q5 -18 5 -70z" />
    <glyph glyph-name="ffi" unicode="ffi" horiz-adv-x="745" 
d="M549 59v8q8 4 15 37t7 65q0 7 -4 23t-4 19t4.5 14t4.5 18q-11 14 -11 35q0 6 0.5 15t0.5 12q0 4 1 9q1 6 -1.5 8.5t-19.5 12.5q-3 2 -5 3q-20 12 -20 20q0 2 1 3q-43 -2 -47 -3h-3l-41 11h-1q-1 0 -11 -2h-3q-5 3 -13 5q-20 0 -20 -34q0 -8 2 -27t2 -20q2 -151 6 -224
q6 -13 17 -27h3h4q15 0 27 -8.5t12 -19.5q0 -21 -16 -21h-3q-8 0 -19 8h-4h-1q-1 0 -16.5 3.5t-34 7t-26.5 3.5l-39 -11q-21 -8 -28 -8h-3q-21 0 -21 20q0 9 4 15t8.5 9.5t18 12t23.5 15.5l4 12q-2 46 -3 47q5 85 5 108q0 21 -2.5 39.5t-5.5 29.5t-3 14q0 5 5 19t5 18
q0 9 -10 15q-1 -1 -53 1q-14 0 -28.5 0.5t-22 1t-10.5 0.5q-9 0 -12 -1q-7 4 -16 4q-19 0 -19 -33q0 -7 1.5 -26t1.5 -21q2 -151 6 -224q4 -10 18 -27q2 0 3 0.5t3 0.5q13 0 26 -9t13 -20q0 -21 -16 -21q-9 0 -19 9q-6 -2 -14 -2q-5 0 -21 0.5t-22 0.5q-19 0 -43.5 -4
t-32.5 -4q-39 0 -39 23q0 9 4 15t9 9.5t17.5 11.5t22.5 16l5 12q-3 44 -3 46q4 68 4 109q0 27 -5.5 54.5t-5.5 28.5q0 5 5 19t5 18q0 10 -11 16l-15 -8q-9 -6 -15 -6q-22 0 -22 34q0 33 20 33q3 0 16.5 -5t17.5 -5l8 10q0 88 21 137q26 58 81 91q27 15 89 30q18 -9 34 -9
q1 0 5.5 1t12.5 1.5t16 0.5q24 0 44 -17q23 29 48 41.5t88 28.5q18 -9 34 -9l12 1q12 2 21 2t16.5 -2t12 -4t11.5 -8.5t9.5 -9.5l11.5 -14t12 -15q16 -19 16 -40q0 -18 -6.5 -25.5t-32.5 -16.5q-6 0 -14.5 3.5t-16 8t-14 9t-10.5 8.5l-3 3q-3 7 -31 41q-35 20 -63 2
q-11 -7 -24.5 -17.5t-14.5 -11.5q-26 -13 -31 -59v-71q0 -5 -4 -30.5t-4 -33.5q0 -18 7 -25l2 -2q7 -7 17 -7q1 0 12.5 5t28.5 5h11.5t11.5 -0.5t9 -1t7 -0.5h3l1 -2l1 1h4h2q2 -1 4 -1q10 10 15 10q3 0 8 -5l3 -4q21 -1 70 -1q25 13 41 13q11 0 13 -8q-1 -35 -1 -122
l11 -89v-3q0 -2 -3 -18t-6 -43t-3 -57q0 -2 -0.5 -9.5t0 -10t2 -7.5t4.5 -6.5t8.5 -3t14.5 -1.5q26 0 26 -18v-2q1 -4 1.5 -6.5t-2 -7.5t-8.5 -7.5t-19 -5t-32 -2.5q-6 0 -26 5.5t-26 5.5q-8 0 -10 -1q-52 -16 -58 -16q-24 0 -24 21q0 30 21 30q4 0 8.5 -1t7.5 -1l3 -1
q12 0 12 18zM244 414q12 12 21 12q3 0 7 -4l4 -6l13 -5l10 11q0 28 1 80q0 49 9 79q-7 7 -30 23q-7 12 -22 21t-15 10h-10q-92 0 -98 -76v-71q0 -6 -4 -27t-4 -26q0 -25 35 -25q6 10 35 10q40 0 48 -6z" />
    <glyph glyph-name="ffl" unicode="ffl" horiz-adv-x="763" 
d="M694 -2q-7 -4 -20 -4q-4 0 -58 18l-23 -9l-52 -11q-30 21 -30 37q0 12 8 12q38 0 56 23q3 16 3 52q0 13 -1.5 55t-1.5 62q0 49 8 70l-1 1v4q0 3 2 27q-3 5 -3.5 12.5t-5 10t-22.5 6.5q-19 -2 -68 -2q-28 0 -42.5 3.5t-19.5 3.5q-1 0 -11 -2q-12 5 -16 5q-20 0 -20 -34
q0 -8 2 -27t2 -20q2 -151 6 -224q4 -11 18 -27q2 0 3 0.5t3 0.5q13 0 26 -9t13 -20q0 -21 -16 -21q-9 0 -19 9q-1 -1 -5 -1q-1 0 -16.5 3.5t-34 7t-26.5 3.5q-13 0 -42 -11q-21 -8 -28 -8q-21 0 -21 20q0 9 4 15t8.5 9.5t18 12t23.5 15.5l4 12q-2 46 -3 47q5 85 5 108
q0 21 -2.5 39.5t-5.5 29.5t-3 14q0 5 5 19t5 18q0 10 -11 16l-15 -8q-9 -6 -15 -6q-10 0 -16 10l-23 -4l-22 6q-11 4 -22 4q-9 0 -12 -1q-7 4 -16 4q-19 0 -19 -33q0 -7 1.5 -26t1.5 -21q2 -151 6 -224q4 -10 18 -27q2 0 3 0.5t3 0.5q13 0 26 -9t13 -20q0 -21 -16 -21
q-9 0 -19 9q-6 -2 -14 -2q-5 0 -21 0.5t-22 0.5q-19 0 -43.5 -4t-32.5 -4q-39 0 -39 23q0 9 4 15t9 9.5t17.5 11.5t22.5 16l5 12q-3 44 -3 46q4 68 4 109q0 27 -5.5 54.5t-5.5 28.5q0 5 5 19t5 18q0 10 -11 16l-15 -8q-9 -6 -15 -6q-22 0 -22 34q0 33 20 33q3 0 16.5 -5
t17.5 -5l8 10q0 88 21 137q26 58 81 91q27 15 89 30q18 -9 34 -9q1 0 5.5 1t12.5 1.5t16 0.5q24 0 44 -17q23 29 48 41.5t88 28.5q18 -9 34 -9l12 1q12 2 21 2q19 0 32.5 -8.5t32.5 -30.5h6l24 25q4 0 7 -3t8.5 -11t6.5 -9q-3 -19 -12 -64q0 -39 6 -113l-15 -53l14 -27
q0 -1 0.5 -2.5t0.5 -3.5q0 -6 -3 -16l-3 -10q0 -3 5 -16t5 -17q0 -8 -8 -14q3 -17 3 -39q0 -12 -0.5 -24t-0.5 -20.5t-1 -16.5t-1.5 -13.5t-0.5 -9.5t-1 -6v-2q0 -5 4.5 -24t4.5 -32q0 -7 -4 -12t-5 -13v-22q16 -67 56 -71q34 -3 34 -39q0 -17 -20 -17q-11 0 -38 8zM508 671
q-23 11 -28 11q-92 0 -98 -76v-71q0 -2 -4 -35.5t-4 -43.5q0 -48 31 -48q1 0 12 4.5t27 4.5q2 0 8 -0.5t10 -0.5q13 0 82 4q11 1 27 1q1 -1 2 -1q9 0 9 92q0 42 -6 52q-1 1 -3.5 10.5t-5 15t-10 15t-18.5 18.5l-19 37q-5 7 -12 11zM300 502q0 49 9 79q-7 7 -30 23
q-7 12 -22 21t-15 10h-10q-92 0 -98 -76v-71q0 -6 -4 -27t-4 -26q0 -25 35 -25q5 8 21 9q12 1 114 3q-7 1 -7 17q0 14 11 63z" />
    <glyph glyph-name="kgreenlandic.sc" unicode="&#xfc01;" horiz-adv-x="612" arabic-form="isolated" 
d="M323 392q-1 1 -20 4q-13 2 -18 15q-2 8 -2 10q0 20 42 26l55 3q8 -3 26 -6q4 0 17 5t18 5q6 0 9 -1q9 4 20 -2q14 -9 14 -19q0 -17 -43 -41q-52 -30 -53 -31q-7 -1 -13.5 -4l-10.5 -5t-10.5 -8.5l-8 -8t-9 -10t-7.5 -9.5q-31 -25 -31 -43q0 -16 27 -38q42 -34 55 -50
l89 -96q4 -18 27 -26q29 -8 37 -17q1 -11 -4 -33q-9 -11 -63 -22q-5 -1 -24 5q-9 9 -15 10q-8 2 -17 -2q-15 -5 -16 -5q-25 -2 -84 2q-11 8 -11 22q0 13 11 32l22 6q16 6 16 11q-2 15 -35 47q-46 46 -47 46l-38 44q-1 0 -4 1.5t-9 4l-13 5.5q-8 1 -35 1q0 -2 -8.5 -14
t-8.5 -13q-2 -7 8 -22q11 -17 10 -22l-4 -23t-3 -16l-1 -4q0 -18 14 -27q9 -4 29 -2q41 -29 41 -47q0 -27 -61 -27q-8 0 -26 2q-6 1 -18 -4q-13 -6 -17 -6q-13 7 -25 7q-6 0 -18 -6t-16 -4q-22 10 -30 9q-16 12 -16 26q0 11 14 19q24 0 28 10q10 23 2 175q11 17 12 24
q0 4 -7 15l-6 10q-5 15 -2 39q5 27 -6 29q-7 2 -30 17q-12 8 -13 32q14 26 62 26q7 -7 18 9q21 11 42 17q11 3 31 9q9 1 25 -3q11 -4 26 -8q20 -11 20 -27q0 -12 -12 -20q-55 -7 -55 -103q0 -9 2 -43q12 -5 22 -5q28 0 69 54l12 12.5l14 15t12 13.5q25 28 26 48z" />
    <glyph glyph-name="uni1E03.sc" unicode="&#xfc02;" horiz-adv-x="544" arabic-form="isolated" 
d="M232 588q-7 -15 -25.5 -26.5t-35.5 -11.5q-20 0 -35.5 20.5t-15.5 42.5q0 34 38 41q12 1 36 5q3 1 7 1q15 0 25 -16t10 -36q0 -13 -4 -20zM350 28q-38 -32 -88 -32q-27 0 -54 7q-9 -4 -26 -4q-4 0 -17 1t-16 1q-17 0 -28 -8q-19 9 -42 2q-6 6 -18 6q-5 0 -21 -2.5
t-20 -2.5q-20 0 -20 20q0 9 5 29l13.5 3.5t14 4t11 5t11 8.5t7.5 12q4 37 5 93q7 16 10 31q0 16 -6 44q-5 28 -6 42q0 6 3 28.5t3 28.5q0 7 -2 17q-2 8 -29 32q-26 26 -33 27q-13 4 -13 16q0 22 26 22q8 0 15 -4q5 -3 40 -3q42 1 46 0q9 -1 32.5 2t27.5 3q13 0 22 -4
q3 1 10 1t10 1q14 2 20 -2q5 5 9 5q5 0 12 -4q4 -3 9 -6l3 -2h19q5 -6 28 -17q18 -7 27 -26q5 -21 22 -48q-2 -23 -9 -69q0 -1 -11.5 -13.5t-9.5 -17.5q-22 -7 -22 -16q0 -12 31 -12q20 -24 30 -35q20 -26 22 -36l2 -42q0 -13 -20 -48q-23 -38 -35 -38zM181 395
q-11 -23 -10 -120l5 -10q-2 -8 1 -19q11 -4 30 -12h18q7 1 22 8q24 20 24 67q0 34 -10 58q-14 35 -40 35q-13 0 -40 -7zM276 185q-11 1 -36.5 9t-31.5 8q-17 0 -37 -14q-7 -18 -7 -59q0 -49 10 -69q5 0 22.5 -1.5t21.5 -1.5q32 0 51 24q33 9 33 38q0 25 -26 66z" />
    <glyph glyph-name="uni1E0B.sc" unicode="&#xfc03;" horiz-adv-x="637" arabic-form="isolated" 
d="M280 577q-7 -15 -25.5 -26.5t-35.5 -11.5q-20 0 -35.5 20.5t-15.5 42.5q0 34 38 41q12 1 36 5q3 1 7 1q15 0 25 -16t10 -36q0 -13 -4 -20zM497 163q11 -19 7 -25q-36 -70 -89 -110q-19 1 -26 -10q-4 -9 -11 -11q-66 -11 -87 -11l-36 7l-24 -11q-6 -2 -9 -2q-6 0 -25 8.5
t-23 6.5q-8 -6 -19 -11q-4 1 -18 1q-4 -4 -17 -12q-3 -2 -15 1.5t-13 3.5q-50 0 -54 1q-20 2 -29 10.5t-5 21.5q1 9 18 17q6 3 12.5 5.5t9.5 4.5l3 1q13 10 24 49q9 33 9 64q0 9 -2 19q3 11 3 18q0 8 -9 23t-7 23q11 8 11 10v14q0 67 -8 89q-14 34 -64 56q-5 8 0 22
q4 15 13 18q12 4 28 4q10 0 35.5 -6t31.5 -6q13 0 22 4q13 4 46 7q2 0 14 -4t16 -4q14 0 39 3q23 4 40 4q7 -11 55 -10q4 -7 11.5 -10t14.5 -3h6q3 -6 17 -21q8 -2 26 -12q5 -9 27 -33q2 -10 10 -24q57 -49 57 -121q0 -8 -2 -40q0 -3 -14 -19zM389 210l-3 10q6 8 3 18
q-9 29 -7 40q3 20 3 21q-5 4 -15 10q1 2 0.5 4.5t-1 4.5t-2 4t-2.5 3.5t-3.5 3t-3.5 2.5t-4 2.5t-4.5 2.5t-4.5 2.5l-5 2.5q0 16 -8 26.5t-22 9.5q-8 17 -29 17q-6 0 -12 -2q-3 12 -28 13q-17 1 -34 -2q-5 -1 -11.5 -9t-7.5 -14q-5 -59 -3 -148q2 -87 2.5 -118.5t0.5 -30.5
q0 -6 15 -14.5t22 -7.5q5 0 17.5 6.5t16.5 6.5q11 -11 14 -11q5 0 12 6q38 7 70 55q27 42 34 86z" />
    <glyph glyph-name="uni1E1F.sc" unicode="&#xfc04;" horiz-adv-x="530" arabic-form="isolated" 
d="M244 579q-7 -15 -25.5 -26.5t-35.5 -11.5q-20 0 -35.5 20.5t-15.5 42.5q0 34 38 41q12 1 36 5q3 1 7 1q15 0 25 -16t10 -36q0 -13 -4 -20zM395 397l1 -59q-2 -24 -14 -31q-7 2 -26 14q2 4 2 6q0 9 -12 13q2 11 -25 30q-27 20 -37 17q-14 5 -33 9q-5 2 -24.5 -2t-22.5 -4
q-13 13 -23 13q-9 0 -16.5 -12.5t-7.5 -23.5q0 -16 11 -25q-4 -8 -4 -11v-48v-11q10 -10 35 -10q48 0 58 40q7 21 31 21q18 0 24 -18q3 -11 3 -26q0 -4 -1 -20t-1 -21q0 -28 9 -47q1 -6 -3 -22q-7 -26 -27 -26q-28 0 -40 47q-1 5 -4.5 9t-9.5 7.5l-10 6t-12 6t-11 4.5
q-1 1 -33 -4q-13 -16 -13 -43q0 -10 4 -14q-9 -30 -1 -68q5 -17 32 -34q29 -17 29 -31q0 -5 -1 -8q-4 -15 -39 -20q-3 0 -18.5 4t-21.5 4q-9 0 -17 -6q-4 -3 -11 0q-7 1 -47 9q-8 1 -18 -1.5t-17.5 -5.5t-8.5 -3q-8 0 -14 9.5t-6 19.5q0 11 6 24q3 6 18.5 14t17.5 12t3 20
t5 23q8 14 6 36q-1 10 -6 37q4 12 6 33q0 1 -4 11.5t-4 13.5q7 16 10 30q2 25 -6 54q-4 24 -9 46q-16 7 -45 31q-2 6 -2 9q0 12 26 20q18 5 48 2q33 -3 52 4q4 -6 24 -3q13 -1 56 -1q15 15 18 15q1 0 2 -1q13 -16 21 -16q7 0 17 6q3 -1 15 -1q4 0 13 2.5l16 4.5l7 2h41
q13 -2 18 -9.5t5 -24.5q16 -16 16 -28z" />
    <glyph glyph-name="uni1E41.sc" unicode="&#xfc05;" horiz-adv-x="690" arabic-form="isolated" 
d="M335 568q-7 -15 -25.5 -26.5t-35.5 -11.5q-20 0 -35.5 20.5t-15.5 42.5q0 34 38 41q12 1 36 5q3 1 7 1q15 0 25 -16t10 -36q0 -13 -4 -20zM577 44q5 -27 -11 -37q-8 2 -34 0q-26 -5 -39 -3l-22 3q-6 -5 -19 -6q-10 3 -23 3q-4 0 -16.5 -1t-14.5 -1q-30 0 -34 34
q30 9 31 9q19 10 26 35q-2 15 -4 60q4 66 5 79q6 55 -3 83q-1 0 -2 1q-1 -6 -8 -14q-5 -5 -9 -9.5t-6 -10t-3 -8.5t-2 -9.5t-1 -8.5q-1 -2 -11 -18q-1 -6 -6 -19q-10 -8 -21 -25q-14 -47 -50 -145q-8 -21 -24 -31q-11 -5 -24.5 8t-12.5 31q-4 16 -19 24q2 14 -3 39
q-11 14 -26 48q-5 2 -17 27q-12 27 -15 45q-1 1 -3.5 4.5t-6 8l-6.5 8.5q0 1 -20 49q-5 7 -9 6q-5 -2 -5 -5q-4 -15 -2 -48q3 -46 3 -54q0 -27 -4 -44l2 -4q2 -4 4.5 -9.5t2.5 -8.5q1 -4 -3 -21.5t-4 -23.5q0 -8 0.5 -11t4 -9t12.5 -9t24 -5q11 -1 19 -10.5t8 -20.5
q0 -10 -8 -15q-6 0 -24 -2t-31 -3q-10 -10 -20 -10q-4 0 -5 1q-16 19 -36 22q-10 -15 -23 -15q-12 0 -21.5 13t-9.5 28q0 23 26 17q9 -2 22 10t16 27l1 41q-1 43 0 98q4 9 4 23q0 6 -4.5 28.5t-4.5 30.5q1 19 0 56q-2 5 -10 15q-13 13 -14 16q-7 9 -15 26q13 21 39 21l24 -2
q17 -2 20 -1q2 1 9.5 -3t9.5 -4q13 -2 24 0q9 4 12 4t7 -3v-5q0 -6 1.5 -10.5l4 -11.5t8.5 -16t15 -19q-2 -11 4 -25.5t13 -16.5q-1 -13 8 -55q2 -2 18 -34q10 -19 9 -40q0 2 20 -20q1 -5 2 -16t2 -17q4 -18 24 -23q6 6 22 37q2 21 7 43q9 10 24 36q4 20 6 29q7 28 16 40
q16 19 17 26q4 16 6 23q6 4 26 26q4 18 23 51q5 2 22 2t19 1q5 -4 17 -4q3 0 17.5 1t18.5 1q27 0 32 -23l-42 -42q-4 -13 -3 -43q1 -69 0 -123l-1 -49q0 -2 -5 -17q-1 -3 2 -14.5t3 -12.5v-26q2 -18 10 -29q10 -14 47 -19z" />
    <glyph glyph-name="uni1E57.sc" unicode="&#xfc06;" horiz-adv-x="537" arabic-form="isolated" 
d="M219 561q-7 -15 -25.5 -26.5t-35.5 -11.5q-20 0 -35.5 20.5t-15.5 42.5q0 34 38 41q12 1 36 5q3 1 7 1q15 0 25 -16t10 -36q0 -13 -4 -20zM354 205h-12q-34 -22 -77 -22q-20 0 -57 8q-27 6 -34 4q-7 -81 16 -123q3 -5 26 -8l16 -9q29 -18 29 -33q0 -27 -62 -27
q-13 0 -19 1q-25 20 -44 20q-9 0 -14 -4q-15 3 -23 1q-5 -7 -15 -18q-2 -2 -19 0q-14 2 -25 -13q-38 8 -38 42q0 33 31 46q29 -11 38 99l-7 18q2 7 -2 33t-2 34q8 47 6 110q-7 10 -19 20q-10 -6 -62 26q-1 4 -1 11q0 24 28 28q1 0 46 2q8 0 18 2q18 -10 61 -5q44 5 61 -2
l27 12h52l26.5 -7.5t32.5 -8.5q3 -3 9.5 -11.5l9.5 -12.5q14 -10 32 -28q2 -16 8 -32q18 -36 18 -59q0 -27 -22 -43q-11 -7 -21.5 -27.5t-15.5 -23.5zM185 405l-9 -6q-4 -7 -4 -82q0 -74 4 -81t19 -7q6 0 28 3.5t26 3.5q57 40 57 84q0 36 -38 65q-33 25 -62 20q-8 -1 -21 0z
" />
    <glyph glyph-name="uni1E61.sc" unicode="&#xfc07;" arabic-form="isolated" 
d="M207 563q-7 -15 -25.5 -26.5t-35.5 -11.5q-20 0 -35.5 20.5t-15.5 42.5q0 34 38 41q12 1 36 5q3 1 7 1q15 0 25 -16t10 -36q0 -13 -4 -20zM286 424q-5 -2 -8 -10q-3 -9 -5 -14q7 -92 -9 -99q-8 -3 -13 -3q-16 0 -27 35q-14 41 -29 51q-3 2 -12 5.5l-14 5.5q-5 -4 -13 -4
q-2 0 -10 1.5t-11 1.5q-15 0 -28 -12t-13 -36q0 -32 25 -32q3 0 9 2q3 -2 9 -5t9.5 -5t7 -5.5t5.5 -8.5l68 -37q78 -47 78 -105q0 -45 -50 -115q-9 -2 -25 -14q-18 -12 -28 -12q-9 0 -18 9q-16 -16 -50 -16q-41 0 -98 23q-1 0 -3.5 -0.5t-5.5 -1.5t-8 -1.5t-10 -1.5
q-5 -4 -10 -4q-8 0 -8 12q0 15 11 28q1 40 11 106q6 14 21 14t30 -11t17 -22q1 -6 -4 -23t-5 -21q0 -18 19.5 -32t39.5 -14q17 0 34 11q4 -2 5 -2q14 0 25 33q12 29 7 42q-8 19 -42 48q-9 0 -23 7q-2 2 -7.5 15t-10.5 16l-67 26q-34 15 -39 54q-7 13 -7 27q0 25 30 73
q2 3 15 11.5t15 13.5q55 10 100 19q2 0 21 -10q13 -7 22 -7q3 0 22 10t27 10q9 0 19 -7q-1 -16 9 -19z" />
    <glyph glyph-name="afii61352.sc" unicode="&#xfc08;" horiz-adv-x="984" arabic-form="isolated" 
d="M804 126q-14 -15 -20 -15q-31 0 -78 -4l-29 3q-31 3 -52 3q-16 0 -21 -1q-26 -3 -28 -3q-11 2 -15 8q-2 12 -8 22q-5 8 -5 10q0 5 24 12q4 0 36 5q8 -2 27 -6l24 2q9 0 41 -4q16 2 37 2q5 -2 18 -3q3 0 8 3.5t7 3.5q10 0 30 -13q6 -5 5 -12q-2 -12 -1 -13zM800 315
q-8 -6 -9 -12q-2 -10 -11 -24q1 -3 -1 -12q-2 -2 -7 -7.5t-7 -8.5q-23 -20 -86 -32l-12 1q-8 1 -13 2q-10 8 -30 8q-2 2 -9.5 5t-11.5 6q-9 6 -44 49q-3 14 -12 36q-2 20 2 39q5 30 14 35q5 3 18 21q6 2 16 5q10 18 31 25q28 6 41 9q7 2 13 0.5t8 -0.5q5 -5 20 -3
q12 -2 31 -9q65 -41 65 -99q0 -17 -6 -34zM715 406q-12 16 -42 24q-7 -6 -15 -8q-19 0 -29 -19q-10 -17 -14 -19q-5 -15 -5 -31q0 -57 43 -73q10 -10 26 -10q8 0 25.5 5t18.5 5q2 12 9 31q6 17 6 37v21q0 2 -5 7q-4 6 -8 19q-1 6 -10 11zM513 425q-9 -16 -24 -38
q-25 -22 -22 -47q-15 -28 -5 -74q1 -7 -3 -25l-2 -12t-2 -9.5t-1 -4.5q0 -3 6 -22t6 -26q0 -4 -4 -14.5t-4 -16.5q0 -7 5.5 -24.5t5.5 -20.5v-42q0 -1 -2 -36q-2 -3 -43 -23q-5 10 -20 35l-8.5 8.5t-9 7.5t-8.5 5t-6 4l-3 1q-20 22 -46 64q-4 5 -13 8q-2 1 -11.5 15
t-14.5 18q-3 2 -22 13q-18 12 -26 24l-24 38q-1 4 -8 24q-7 3 -23 13q-4 2 -10.5 15.5t-8.5 15.5q-8 11 -15 6q-9 -6 -9 -35q0 -30 10 -49q5 -11 -6 -44q-4 -10 -3 -31q2 -23 0 -28q-2 -17 8 -35l18 -27q9 0 21 -4q8 -7 29 -18q8 0 23 -6q2 -10 2 -14q0 -23 -27 -23l-67 14
q-4 -3 -12 -12q-2 -1 -8 -1q-3 0 -17.5 3t-19.5 2q-15 -9 -39 -20q-9 -3 -22.5 9t-13.5 24q0 5 1 7q23 12 59 38q13 2 14 11q2 22 2 43v24q1 40 6 70l-4 26v75q0 39 -1 40q-9 24 -44 53q-17 5 -42 15q-1 3 7 39q20 0 56 4q2 0 14.5 -3t17.5 -3q6 0 15 5t15 2q66 -26 71 -70
q1 -1 3.5 -3t5 -5t5.5 -6q13 -16 18 -27q1 -2 2 -7t2 -7q3 -10 12 -10q16 0 26 -13q8 -15 19 -32q2 -12 10 -27q24 -19 57 -57q28 -32 45 -43q5 -3 7 -3q6 0 6 10q0 9 -4 21q-1 3 -2 8t-2 7l4 44q0 1 -0.5 10t-1 27.5t-0.5 39.5v42q-3 33 -43 40q-49 8 -59 27q1 23 12 28
q3 0 12 -4t12 -3q41 11 71 13l13 9q5 3 8 3q4 0 14 -7t11 -7q3 0 10.5 4.5t11.5 4.5q10 0 19 -10.5t9 -20.5q0 -5 -1 -7z" />
    <glyph glyph-name=".notdef" horiz-adv-x="518" 
d="M453 108q-19 -19 -19 -31q0 -2 4.5 -17t4.5 -22q0 -6 -4 -18.5t-4 -13.5q0 -4 4 -12.5t4 -10.5q-13 -104 -13 -109q0 -32 9 -48l13 -21q2 -16 -12 -33.5t-30 -17.5q-8 0 -20 4q-4 -7 -14 -7q-2 0 -9 2.5t-10 2.5t-23.5 -7t-28.5 -7q-14 0 -22 7l-20 5l-10 -6l-21 1l-2 3
l-19 -2q-49 -5 -67 -13q-23 0 -66 5q-8 -8 -12 2q-9 -1 -23 -1q-8 0 -10 2q-2 1 -3 3t-1.5 7.5l-1 11.5t-1 17.5t-0.5 23t-0.5 31t-1.5 38.5q-2 94 -2 112q0 80 8 115q-2 8 -7 20q0 7 0.5 18t1.5 20.5t1 10.5q0 21 -21 43q-3 3 1 21q1 8 5 24q6 4 16 20q4 64 3 188
q-4 173 -4 196q10 3 26 16q6 1 13 1.5t11 1.5t7 1q4 10 16 10q2 0 11.5 -2.5t13.5 -2.5q6 0 13 4q23 -9 42 -10q26 -1 39 -5q10 4 20 5l1 1q10 2 20 1q4 0 9 -0.5t8 -1t4 -0.5l11 6q11 6 15 5q22 -7 30 -6q11 11 21 11h26q4 -5 5 -11l28 -2q16 -20 17 -33q3 -17 1 -75
q-2 -48 6 -75q-4 -20 -3 -33l6 -30q0 -1 -5 -15.5t-5 -19.5q0 -10 11 -18q0 -10 -3 -46q-3 -32 -2 -45q9 -16 11 -89q2 -93 3 -100zM352 611q-21 -5 -28 -9q-4 8 -21 19h-1h-9q-6 0 -24 -2l-9 5q-27 -3 -50 -1q-21 -5 -30 -12q-14 12 -64 12h-4q-10 -4 -16 -3l-1 1
q-4 -1 -7 -4q-1 -7 0 -26q2 -15 -7 -31q-1 -9 4 -37t5 -35t-8.5 -25.5t-8.5 -22.5q-10 -87 11 -186q3 -13 -4 -40q-8 -37 -8 -53q0 -31 15 -63q-13 -20 -14 -132q-2 -95 3 -143l16 -12q25 3 36 5l16 -4q15 7 30 7q19 0 25 -13q3 0 7.5 1t6.5 1q56 9 70 9q8 0 20 -2
q12 5 18 5q3 0 12.5 -4.5t13.5 -4.5q7 0 14 4l1 1q2 1 5 1q1 1 4 2t5 2q15 9 15 25q0 3 -2 16.5t-2 17.5q-3 184 -2 306l2 140q0 32 -3 47.5t-10 14.5q-2 10 6 54q9 45 9 67q0 35 -18 47q2 6 2 11q0 19 -14 39q0 1 -1.5 3t-2.5 3z" />
    <glyph glyph-name=".null" horiz-adv-x="0" 
 />
    <glyph glyph-name="nonmarkingreturn" horiz-adv-x="333" 
 />
    <glyph glyph-name="space" unicode=" " horiz-adv-x="300" 
 />
    <glyph glyph-name="exclam" unicode="!" horiz-adv-x="311" 
d="M271 620q1 -6 -3 -25q-5 -27 -11 -35q-8 -11 -6 -41q0 -40 -1 -45q-4 -10 -12 -38q4 -6 2 -23q-8 -17 -10 -42q-1 -10 -1.5 -30.5t-0.5 -30.5q0 -14 -6 -40q-8 -16 -8 -35q-2 -15 -4 -21q-1 -6 -10 -10q-8 -3 -13 0q-7 7 -10 28q-3 20 1 27q-3 14 -10 53q1 4 1.5 14
t0.5 15q3 45 -3 130q-3 44 -5 58q-4 7 -12 24q-1 12 0 19q3 5 1 10q-4 8 -4 20q0 22 16.5 40t35.5 18q4 4 16 4q18 -1 35.5 -15t20.5 -29zM252 72v-41q-16 -37 -59 -37q-8 0 -40 5q-6 1 -17 27q-9 27 -9 42q0 23 17 45q20 13 63 14q17 -11 28 -21q17 -17 17 -34z" />
    <glyph glyph-name="quotedbl" unicode="&#x22;" horiz-adv-x="469" 
d="M307 692q2 -10 -10 -50q-4 -12 -4 -42q0 -40 -10 -59q-4 -5 -4 -11q0 -4 3 -15t3 -14q0 -17 -11 -37q-10 -19 -21 -19t-12 28q0 18 -0.5 53.5t-1.5 53.5q-3 72 -12 102q-4 11 -4 23q0 24 17 35q5 5 26 -3q20 -5 26 -11q3 -14 15 -34zM198 528q-8 -35 -1 -57
q2 -7 -2.5 -15.5t-11.5 -8.5q-4 0 -9 5q-6 24 -26 89l2 11q-2 34 -21 101q-1 1 7 29q1 4 -2 16t-3 15q4 12 21 20q5 2 15 4.5l14 3.5q6 -3 16 -19q0 -1 2 -96q0 -95 -1 -98z" />
    <glyph glyph-name="numbersign" unicode="#" horiz-adv-x="586" 
d="M258 521q10 0 19.5 0.5t14 1t5.5 0.5q3 21 5 42l-21 9q-7 2 -18 1q-18 -2 -24 -10q1 -6 2.5 -16t1.5 -15q2 -12 15 -13zM541 503q-2 -5 -5 -16t-14 -16q-27 -12 -63 -12q-20 0 -55 5q-31 6 -35 6q-6 -6 -15 -10q-3 -9 -4 -17q0 -13 1 -29q2 -36 2 -45q0 -75 -19 -76
q-5 1 -18 -2q-14 20 -16 30q2 50 2 132l-6 7q-6 8 -8 8q-20 0 -23 -1q-15 -5 -22 -19q1 -43 0 -130q0 -9 -15 -30q-2 2 -24 3q-4 1 -7.5 2.5t-5.5 3t-3.5 5t-2 5.5t-1 7t-0.5 7v8v8q0 29 6 65q4 29 4 39q0 3 -7 11t-7 10q-1 0 -26 -2h-12q-12 1 -39.5 2.5t-59.5 2.5
q-36 9 -36 13t9 11q1 7 11 23q15 15 119 6q2 0 10.5 -2.5t15.5 -2.5l9 24q3 7 3 13q0 11 -14 27h-27q-104 -9 -119 6q-14 16 -11 23v16q2 2 27 8q33 0 111 5q10 0 10 -5q1 -1 8 3l14 8q1 0 1 15l6 111l6 24h5q5 0 12 3q8 3 23 -12q17 -14 6 -119q-2 -36 43 -36q2 0 9.5 6
t9.5 6q0 1 -0.5 4.5t-1 10t-0.5 12.5q-11 105 5 119q17 15 24 15q3 0 8.5 -3.5t7.5 -3.5h2l1 -3q0 -3 1.5 -9t2.5 -12q0 -39 6 -110v-18q4 -3 24 -14q4 0 30 3q25 3 44 3q39 0 72 -14q9 -5 9 -15q0 -4 -1.5 -13.5t-1.5 -11.5q0 -4 1 -5q-4 1 -14 1.5t-15 0.5q-6 -1 -44 1
q-50 2 -52 2q-43 0 -57 -11v-14l-2 -20v7q2 -14 11 -17l16 -5q44 2 131 0q10 0 30 -16z" />
    <glyph glyph-name="dollar" unicode="$" horiz-adv-x="436" 
d="M253 184q1 -8 -2 -30t-3 -27q0 -4 4 -21t3 -24q-3 -11 -1 -18q4 1 11 4q4 1 4 9q13 6 14 16q3 14 6 19q-1 7 -1.5 20.5t-0.5 20.5q-3 9 -34 31zM130 331l6 1q-2 40 -3 68q5 14 -4 45l2 17l-4 2l-17 -11v-9q-20 -28 -20 -49q0 -27 40 -64zM186 -12l-12 -10q2 -8 4 -42
q0 -10 -14 -13q-13 -3 -20 1q-8 5 -8 63q-10 15 -23 15q-3 0 -11 -1.5t-11 -1.5q-6 0 -13 5q-9 9 -21 11q-22 2 -23 2q-6 6 -14.5 8t-12.5 7.5t-4 21.5q0 42 13 48l-10 8q0 4 -2.5 21t-2.5 23q0 20 11 29q2 0 7.5 -3l10.5 -5.5t6 -1.5q5 -14 15 -32q1 -23 22 -43
q6 -26 63 -51v195q-22 14 -72 27q-18 19 -28 19q-31 33 -36 80l3 5q-2 8 -2 15q0 4 9 45l42 56q19 9 48 20l2 -1q2 0 5 -0.5t6 -0.5q8 -2 20 6l3 1q1 43 -13 54q0 3 5.5 12.5t3.5 13.5q4 9 11 9t20 -13q14 -14 16 -15q0 -16 -1 -28q-1 -15 -1 -29q19 6 34 2q0 17 -11 25
q0 17 -4 41q9 16 24 16q11 0 31 -11q0 -21 -1 -42q-1 -27 0 -43q21 -8 33 -4q17 -1 46 -5q15 -5 16 -32q16 -19 16 -82q0 -13 -3 -15q-5 -2 -18 6t-14 8q1 10 -2 17t-6 9.5t-13 7t-11 5.5q0 1 -20 24q-19 22 -21 22q-7 -17 -7 -20q-2 -10 5 -22q-4 -7 -1 -51q1 -41 6 -52
q-1 -19 0 -35l12 1q15 -13 33 -26q41 -15 64 -47.5t23 -72.5q0 -54 -42 -95l-31 -24q-1 -9 -29 -20q-24 -10 -40 -10q2 -19 3 -57q-1 -9 -14 -9t-24 6q-7 4 -4 22q5 17 0 23zM208 211l-29 14q-7 -99 3 -192q17 -3 25 1zM183 313l-1 -2l25 -5q1 36 -3 105q5 14 -4 45
q4 19 5 23q-11 0 -26 -4q2 -11 -1 -23q-4 -15 -4 -21q0 -10 4 -17q-3 -6 -1 -50q1 -40 6 -51z" />
    <glyph glyph-name="percent" unicode="%" horiz-adv-x="521" 
d="M261 295q-7 -2 -20 -28q-6 -12 -11.5 -21t-8.5 -11.5t-7 -5.5l-3 -3l-5 -4q-6 -5 -16.5 -18.5t-21.5 -34.5q-18 -37 -28 -45q-2 -2 -7 -6t-6.5 -6l-4.5 -6t-4.5 -8.5t-1.5 -10.5q-2 -5 -9 -11q-12 -9 -13 -10q-9 -9 -54 -76q-4 -7 -15 -7q-24 0 -24 17q0 12 35 67
l183 278q12 7 23 42l48 57q37 46 37 68q0 2 -2 8q10 16 19 38q8 4 17 4q19 0 42 -35l-53 -80q-41 -60 -45 -79l-8 -5q-8 -5 -15.5 -14.5t-7.5 -21.5q-10 -6 -13 -32zM452 65q-6 -15 -26 -42q-7 -3 -16 -11q-9 -3 -24 -12q-4 0 -20.5 -1.5t-21.5 -1.5q-25 0 -42 17
q-5 2 -19 9q-5 4 -23 35q-16 32 -17 39q-3 19 -5 28q0 2 0.5 6t1 9.5t0.5 9.5q7 11 10 22q2 8 17 23q16 16 16 22q5 5 51 30q2 1 11.5 -1.5t10.5 -3.5q21 0 33 -5q13 -9 28 -17q10 -2 15 -5q28 -25 28 -81q0 -24 -4 -47zM414 131q0 12 -7 16q-3 14 -5 18q-12 25 -50 25
q-16 0 -23 -6q-5 -8 -19 -21q-26 -24 -26 -53q0 -11 5 -26q3 -10 22 -19l28 -15q31 9 36 12q24 11 29 23l7 4q0 1 1 3t2 5.5t2 6.5q4 8 4 15t-6 12zM204 393q-5 -13 -26 -41q-8 -2 -16 -11q-10 -3 -23 -12q-4 0 -20.5 -2t-21.5 -2q-25 0 -42 18q-6 1 -20 9q-5 4 -23 35
q-14 29 -16 39q-1 7 -6 28q1 7 3 25q4 6 10 22q2 9 17 23q16 16 15 21q5 5 51 30q2 2 12 -1l11 -3q21 0 33 -5l28 -18q6 0 14 -4q29 -26 29 -81q0 -19 -5 -47zM167 460q-1 10 -7 16l-6 18q-12 25 -50 25q-14 0 -23 -6q-2 -9 -18 -21q-27 -25 -27 -53q0 -11 5 -26
q4 -10 22 -19l29 -15q30 9 36 12q24 11 29 23l7 4q0 2 5 15q3 9 3 15q0 7 -5 12z" />
    <glyph glyph-name="ampersand" unicode="&#x26;" horiz-adv-x="759" 
d="M723 61q2 -23 -8 -30q-13 -12 -62 -29q-47 -15 -74 -15q-8 0 -14 2t-13 -2q-71 32 -107 132q-4 6 -12 26q0 7 -5 25l-21 -14l1 -39q0 -18 -7 -18q-2 0 -9 5q-10 -6 -22 -26q-13 -21 -25 -30q-20 -16 -31 -24q-21 -14 -33 -17q-47 -11 -91 -11q-24 0 -41 5q-3 17 -18 18
q-9 -1 -27 -1l-51 48q-27 28 -40 56q2 26 -14 66q-1 3 3 43q4 36 7 45q4 7 19 43q38 24 60 55q9 2 21.5 13.5t14.5 12.5q25 0 32 14q-91 52 -91 151q0 15 3 29q2 3 7.5 10l11.5 14.5l12 15.5q9 2 18 7q23 25 39 33q9 4 50 4q19 2 26 4q2 0 5 1.5l5 2.5q4 1 41 -24
q9 -1 15 -4.5t10 -7t5 -4.5q35 -12 39 -34l9 -51q-9 -43 -25 -56q-3 -3 -29 -13q-18 -6 -26 -26q-29 6 -29 -29q0 -11 5 -19q31 -16 61 -52q1 -1 20.5 -11t25.5 -19q11 2 33 -20q27 -26 37 -31q7 1 28 6q8 18 46 89q12 20 12 21q0 5 -12 22q-4 2 -7.5 14t-7.5 13
q-5 -5 -14 -5q-12 0 -24 7t-12 15q0 9 24 17q15 4 32 4q23 0 37 -8q10 7 62 7h66q3 0 6 0.5t5.5 1t3.5 0.5q7 1 14.5 -1t13 -4.5t6.5 -2.5q6 4 20 9q13 -14 13 -32q0 -37 -41 -37q-4 0 -16 2q-4 0 -17 4.5t-20 4.5q-3 0 -45 -15q1 -8 -6 -13.5t-22 -9.5q-4 0 -16 -5
q0 -2 -11 -29q-19 -27 -62 -95q-12 -8 -17 -16q-5 -6 27 -53q33 -53 37 -61q6 -17 25 -47q22 -31 36 -38q25 -11 42 -11q30 0 48 38t28 38q5 0 11 -3q9 -10 9 -20q0 -12 -13 -31zM295 573l-20 44q-5 -1 -19 14q-13 16 -24 16q-14 0 -34 -20l-12 2q-8 -4 -29 -25
q-23 -21 -23 -24q-3 -27 4 -51q10 -31 30 -36l30 -30q20 -2 44 15l39 27q-1 4 4.5 17t5.5 14q0 16 4 37zM165 127q6 2 8 2q9 0 25 -14q18 -18 23 -19q2 -1 43 5q40 7 44 11q12 3 15 4l45 41q34 33 34 50q0 3 -2 7q-7 9 -28 24q-24 15 -31 22q-9 3 -16 6q-6 4 -17 21
q-9 17 -12 18q-40 19 -91 64q-4 6 -13 17q-10 14 -15 12q-9 -1 -14 -11q-4 -12 -7 -15l-33 -33q-28 -31 -28 -85q0 -84 55 -115q6 -3 15 -12z" />
    <glyph glyph-name="quotesingle" unicode="'" horiz-adv-x="237" 
d="M82 339q-9 -6 -32 -25q-3 1 -14 -7t-13 -8q-5 0 -10.5 6.5t-5.5 11.5q0 17 55 42q2 2 15 11t23 15q9 5 32 45q10 21 -3 70q-4 3 -16 15q0 1 -1 4.5t-1.5 5l-1.5 4.5t-2 4t-2.5 3t-3.5 2.5t-4 0.5q-2 -2 -6.5 -15.5t-8.5 -16.5q-6 1 -18 -3q-8 -7 -17 -7q-8 0 -19 11
q-11 12 -18 19q1 2 -1 33q-1 13 8 33q46 29 85 29q45 0 73.5 -34.5t28.5 -86.5q0 -40 -18 -82q-10 -25 -44 -51t-60 -29z" />
    <glyph glyph-name="parenleft" unicode="(" horiz-adv-x="351" 
d="M237 -84q2 -6 2 -10q0 -12 -8.5 -22t-17.5 -7q-34 13 -46 25l-28 40q-35 34 -63 84l-45 82q-4 4 -2 20l2 14q-5 9 -9 18.5t-6.5 21t-3.5 18.5t-2 22t-2 20q-9 9 -9 17q4 12 5 18q-1 5 -1 22q6 5 16 18q-19 7 -19 25q0 4 5.5 23.5t5.5 25.5q0 10 -8 20l12 39q10 28 19 37
q1 37 36 73q1 5 3 17q9 6 20 20q2 14 7 31q7 8 39 40q11 8 30 24q4 12 18 32q5 3 11 2q8 -2 10 0q2 1 17 10q10 2 23 -8.5t13 -22.5q0 -6 -5 -11q-2 -1 -32 -17q-2 -2 -8.5 -9l-10.5 -11q-11 -7 -29 -25q-3 -4 -16 -23l-10 -28q-11 -11 -17 -18q-5 -15 -39 -69
q-2 -4 -5.5 -20.5t-7.5 -21.5q2 -12 -11 -27q0 -4 -10 -18t-11 -20q-1 -4 8 -20q11 -14 9 -17l-4 -64q5 -27 5 -70q4 -7 6 -22q1 -5 1 -15q5 -20 26 -83q-1 -3 -2 -7l-1 -6q3 -10 29 -56q21 -33 61 -69l21 -12q14 -12 29 -30z" />
    <glyph glyph-name="parenright" unicode=")" horiz-adv-x="455" 
d="M362 264q-1 -5 -9.5 -13.5t-8.5 -9.5q0 -2 -2 -55q0 -4 -10 -15t-10 -13q1 -5 1 -14q0 -75 -120 -199q-7 -15 -29 -41q-10 -10 -48 -26q-25 4 -25 24q0 7 4 14q6 14 40 39q43 35 60 52q35 38 48 79l-2 14q7 26 30 83q-1 21 11 41q13 19 13 34q0 12 -6 28q8 14 8 36
q0 19 -4 42q-5 33 -6 38q2 14 3 40q-12 12 -16 20q-2 23 -12 44q-2 2 -25 38q-1 16 -8 24l-14 16q-12 30 -23 50q-9 14 -47 39q-34 19 -34 32q0 12 13 23.5t23 8.5q5 -4 17 -9q6 1 21 -2l16 -31q24 -19 66 -63q1 -2 2.5 -10.5t6.5 -19t16 -21.5l2 -16q13 -17 28 -44
q2 -29 14 -71q17 -37 17 -78q0 -40 -21 -50q7 -4 16 -18q-5 -18 4 -40z" />
    <glyph glyph-name="asterisk" unicode="*" horiz-adv-x="460" 
d="M308 460q-30 -10 -35 -20q2 -12 10 -18q10 2 37.5 -1.5t33.5 -3.5q4 -13 25 -16q27 -5 31 -8q12 -11 12 -34q0 -30 -19 -30q-15 0 -44 9q-28 9 -33 16q-8 1 -17 6.5t-13.5 9.5t-14.5 14.5l-12 12.5q-7 -16 -6 -29q54 -67 54 -118q0 -32 -30 -42q-38 11 -47 50q0 11 -2 34
t-2 35q-2 38 -25 47l-8 -21q-13 -5 -20 -39q-7 -27 -7 -48q-2 -2 -17 -36q-10 -19 -31 -22q-13 11 -34 14q6 72 56 137q6 7 6 14q0 18 -15 18q-4 0 -7.5 -2t-6 -5.5t-8.5 -11l-12 -14.5l-18 -3q-35 -30 -69 -30q-29 0 -29 32q0 12 3 25q3 5 16 19l12 7q3 -3 8 -3q3 0 12.5 4
t11.5 4q31 -2 81 4q12 12 12 24q0 2 -2 4q-9 4 -68 13q-43 7 -63 24.5t-20 49.5t26 32q7 0 10 -1q24 -31 39 -30q8 2 11 3q8 2 11 -2q5 -6 29 -23.5t30 -25.5l11 11l-7 12q0 5 -5 12t-12 13t-8 7q-6 16 -12 34q-6 7 -23 35q-2 10 -2 14q0 21 12 36t30 15q6 0 9 -1
q13 -14 29 -39q4 -6 8 -32q3 -19 17 -28q2 -5 3 -41q2 -29 11 -36q13 3 26 61q3 13 8 38.5t8 37.5q23 16 45 16q7 0 10 -1q9 -13 9 -31q0 -26 -24 -66q-34 -61 -34 -62l-13 -6q-2 -4 1 -9.5t7 -5.5q3 0 8 7.5t6 7.5q110 68 116 69q14 1 29 -12t11 -23q0 -20 -36 -45
q-34 -24 -52 -24q-4 0 -15 5.5t-13 5.5z" />
    <glyph glyph-name="plus" unicode="+" horiz-adv-x="453" 
d="M162 290q0 3 -6 27t-6 42q0 48 28 63q7 3 21 1t20 0q26 -17 27 -23q2 -17 0 -59q-2 -41 0 -67l4 -5q4 -5 5 -5q8 -2 20 -6q5 0 27 6q24 6 42 6q48 0 63 -29q3 -6 1 -20t0 -20q-17 -26 -23 -27q-25 -3 -67 -2q-35 1 -67 -1q-1 -3 -6 -28q-4 -14 -2 -25q6 -27 6 -49
q0 -36 -16 -43q-13 -2 -39 -9q-14 -6 -18 -6q-7 0 -22 27q1 31 -9 86q5 9 11 29q0 4 -6 12t-6 10q-34 3 -41 2q-27 -6 -49 -6q-36 0 -43 16q-1 13 -9 39q-6 14 -6 18q0 8 27 21q30 0 86 9q10 -6 29 -10q21 11 24 26z" />
    <glyph glyph-name="comma" unicode="," horiz-adv-x="267" 
d="M72 -177q-9 -2 -32.5 3.5t-26.5 5.5q-4 7 -4 13q0 18 42 33q51 16 60 25q27 25 27 71q0 15 -5 30q2 7 -3 14t-14 7q-18 0 -29 -30q-11 -3 -19 -3q-23 0 -37.5 19t-14.5 47q0 33 21 52q5 10 18 33q4 -2 8 -2q5 0 30 5q24 6 39 6q36 0 54 -27q14 -17 33 -52q6 -24 6 -52
q0 -60 -23 -106q-14 -26 -78 -68q-17 -4 -52 -24z" />
    <glyph glyph-name="hyphen" unicode="-" horiz-adv-x="363" 
d="M321 170q3 -7 -7 -36q-11 -29 -17 -30q-48 0 -72 1q-67 -1 -77 -11q-15 8 -73 7q-4 8 -32 10q-23 2 -23 19q-1 43 5 48q4 1 9 2.5t8.5 3t5.5 1.5q8 -5 21 -6q97 9 121 -1q1 -1 39 4q45 5 60 5q13 0 19 -3q1 -7 13 -14z" />
    <glyph glyph-name="period" unicode="." horiz-adv-x="183" 
d="M130 110q7 -12 11 -23q10 -24 8 -33q-8 -26 -25 -45q-22 -24 -45 -25q-5 -1 -16 5l-16 9q-40 16 -40 53q0 16 11 49q28 33 63 33q26 0 49 -23z" />
    <glyph glyph-name="slash" unicode="/" horiz-adv-x="505" 
d="M286 353q-6 -2 -19 -28q-13 -27 -21 -33q-19 -15 -37 -49q-20 -36 -35 -48q-8 -6 -16 -28t-13 -27q-21 -16 -24 -36q0 -4 -9 -12q-11 -7 -13 -9q-5 -5 -54 -76q-5 -8 -14 -8q-25 0 -25 17q0 13 35 68l244 381q13 7 22 42l40 48q28 37 28 58q0 4 -2 10q9 13 19 38
q8 4 17 4q19 0 42 -36q-73 -111 -80 -141l-8 -5q-8 -5 -15.5 -14.5t-7.5 -21.5q-10 -6 -31 -44t-23 -50z" />
    <glyph glyph-name="zero" unicode="0" horiz-adv-x="582" 
d="M428 209q-4 -7 -3 -18q9 -43 -3 -76l-46 -65q-5 -5 -22 -20l-27 -24q-21 -8 -73 -20q-1 0 -5 -0.5t-13 -2t-18 -2.5q-23 -4 -41 -4l-23 12q-9 -1 -25 0q-3 0 -11 10.5t-11 11.5q-23 9 -39 31q-21 29 -29 35q-3 10 -11 28q-16 24 -22 63q-7 32 -7 56q0 36 17 65
q-1 13 8 41q7 3 28 17q7 16 26 43q32 24 60 43q1 0 10.5 2t17.5 3h35q22 6 31 5q12 -6 41 -13q21 -4 37 -8q10 -8 33 -18q17 3 50 -32q1 -4 6 -19q7 -5 23 -28l12 -42q6 -23 6 -36q0 -19 -12 -38zM376 184q6 16 6 22q0 4 -8 26q-14 40 -22 72q-2 4 -10 5q-15 21 -34 24
q-10 24 -33 27q-12 1 -35 1q-15 11 -31 8q-39 -8 -50 -14q-24 -12 -59 -40q-6 -15 -8 -21q-10 -11 -22 -31q-7 -27 -7 -49q0 -33 20 -65q-1 -12 11 -40l35 -18q3 -3 11 -9t11 -8q17 -4 23 -4q12 -2 28 -12q4 -3 14 -1q11 4 14 4q56 3 66 12q59 49 80 111z" />
    <glyph glyph-name="one" unicode="1" horiz-adv-x="417" 
d="M218 323q-2 -11 -3 -28q-5 -2 -5 -7q0 -2 2.5 -10t2.5 -10q-7 -20 -10 -40q-1 -5 3.5 -25.5t4.5 -22.5q-2 -48 2 -89q-7 -7 -7 -15q0 -11 19 -24q14 -7 29 -17q-1 -37 -36 -37q-7 0 -29 3t-26 3q-12 -4 -38 -7q-17 10 -40 10t-33 -12q-15 -3 -40 15q-2 27 5 37
q19 10 21 20q5 1 17 3q5 -5 13 -5q19 0 19 13q0 6 -4.5 28.5t-4.5 30.5v40l2 31q1 21 -2 28q0 8 10 69l-5 8q4 5 4 12q0 15 -18 26q-6 -2 -8 -2q-5 0 -16.5 7t-12.5 7q-6 -3 -20 -3q-17 11 -17 41q0 19 14 19q3 0 11.5 -2.5t11.5 -2.5q9 0 10 13h74q11 -8 28 -8
q6 0 27.5 3.5t25.5 3.5h50q2 -6 11 -19q10 -14 10 -23q0 -12 -11 -12q-1 0 -6 1.5t-9.5 2.5t-7.5 0q-27 -11 -27 -38q0 -10 9 -16z" />
    <glyph glyph-name="two" unicode="2" horiz-adv-x="541" 
d="M409 148q6 -12 6 -34q0 -33 -15 -74q-15 -39 -34 -51q-70 0 -120 9q-9 2 -13 -5q-11 1 -35 -5q-1 1 -17 7q-12 -5 -22 -5q-6 0 -21.5 3.5t-19.5 3.5q-5 0 -8 -1q-2 0 -11.5 -11t-12.5 -10q-21 -1 -62 5q-5 2 -10 21t-5 37q0 23 9 33.5t28 6.5q48 39 50 41q8 1 28 11
l36 23q12 15 19 22q10 9 19 23l10 15q19 19 19 42q0 26 -28 58q-5 0 -23 6t-28 6q-15 0 -22 -13q-4 -4 -31 -11q-19 -6 -20 -22q-34 -33 -73 -30q-5 5 -5 13q0 26 17 46q1 1 3 29q5 3 19 17q6 16 7 18q30 24 36 46q27 21 63 43q14 -3 40 4q2 0 13 -3.5t15 -3.5q6 0 16 2.5
t11 2.5q7 0 22 -9q11 0 20 -10q12 -15 18 -17t16 -9q4 -6 11 -31q9 -25 9 -31q1 -50 -2 -69q-4 -22 -25 -62q-11 -5 -19 -26q-8 -20 -17 -26q-4 -3 -31 -20q-24 -17 -24 -30q0 -6 6 -12q6 1 18 0l21 -9q5 -2 20 4q21 8 22 8q2 0 12 -1.5t23.5 -3t20.5 -1.5q12 0 23 3l8 24
q6 16 13 16q3 0 7 -3z" />
    <glyph glyph-name="three" unicode="3" horiz-adv-x="482" 
d="M298 217q-12 -5 -19 -29q-4 -5 -18 -19q-12 -2 -23 -8q-9 -16 -19 -28q-10 -4 -22 -12q-2 -8 -2 -10q11 -17 39 -24q33 -8 49 -17q27 -18 42 -63q12 -13 12 -24q0 -1 -4.5 -14t-3.5 -20q2 -27 0 -29q-2 -4 -9.5 -16t-12.5 -21q-3 -9 -12 -24q-10 -9 -33 -35
q-1 -6 -10 -22q-6 -2 -18 -3q-17 -23 -30 -23l-26 -11q-21 -10 -41 -10q-5 0 -26.5 2.5t-30.5 2.5q-6 -4 -18 -9q-16 5 -23 18q-3 6 -6 18q-6 26 7 41q17 -1 62 -11q11 -11 18 -17l28 -6q15 -3 28 7q6 13 20 29q4 7 9 14q19 16 22 36q2 8 0 43q0 4 -3.5 7.5t-8.5 7.5l-5 4
l-21 46q-10 15 -43 31l-3 -1q-3 -1 -6.5 -3t-7.5 -4q-2 1 -8 1.5t-9 0.5q-4 7 -11 7q-4 0 -19.5 -6t-20.5 -6q-17 7 -53 18q-6 6 -6 17q0 21 17 41q5 0 14 4q5 4 21 6t20 4q10 -2 27 0q13 2 30 6l26 14q10 9 30 74q3 54 -4 58q-6 21 -35 44q-28 22 -56 22q-20 0 -33 -15
q-19 -52 -44 -52q-11 0 -18.5 10t-5.5 20q18 15 28 50q11 36 24 50q3 2 29 28q12 16 18 22q4 4 25 17q3 0 8 -1l8 -1l12 7l27 3q5 0 40 -16q39 -18 42 -20l23 -23q5 4 10 1q6 -6 7 -20q3 -17 5 -24q20 -40 20 -69t-19 -66z" />
    <glyph glyph-name="four" unicode="4" horiz-adv-x="608" 
d="M474 -9q-6 -1 -22 -10q-25 -25 -37 -25q-5 0 -13 9q-8 10 -34 11q-1 0 -15 6.5t-19 6.5t-7 -1q-9 -27 -9 -34q0 -9 4 -13q-9 -36 4 -55q-4 -7 -4 -15q0 -3 2.5 -16.5t1.5 -18.5q12 -12 33 -21q22 -9 26 -16q11 -14 11 -42q-1 -5 -31 -7q-28 0 -35 4q-11 -1 -35 -1
q-13 -9 -28 -17q-46 3 -110 12q-8 3 -8 16v23q-1 2 4 6t17 10q23 11 25 16q6 24 7 61l5 3q0 62 -3 95q-3 5 -24 8l-1 -4q-11 0 -46 -3q-7 9 -29 9q-32 2 -33 2q-4 -5 -25 -10q-13 -3 -22 -6.5t-12.5 -5t-4.5 -1.5q-17 0 -24 49q-7 35 -5 65q25 15 52 56l21.5 33l16 24
t6.5 10q0 2 0.5 5.5t1 9t0.5 9.5q25 20 46 57q35 60 37 62q7 4 17 12l25 48q16 12 40 58q15 7 23 14q3 18 15 18t26.5 -16.5t14.5 -30.5q0 -4 -2 -8q0 -15 -1 -32v-35q0 -21 4 -33q-2 -2 -2 -9q0 -11 4 -44q4 -27 2 -44q-2 -10 -3 -16.5t-1.5 -11t-1.5 -5.5l-1 -2l9 -10
q0 -90 1 -91q3 -16 34 -16q21 0 27 9q17 10 22 43q1 25 19 27q16 1 25.5 -12.5t11.5 -42.5q1 -27 1 -80q1 -7 6 -15t5 -10q0 -6 -5 -21zM217 316q-13 -13 -20 -13q-3 0 -5.5 3.5t-3.5 6.5l-1 3q-10 -14 -34 -56q-13 -7 -19 -31t-15 -33q-3 1 -13 -10q-11 -14 -15 -35
q-1 -6 -15 -26q-13 -19 -13 -31q0 -5 1 -8l8 -6q18 6 38 5q35 -2 37 -1q3 -6 9 -6q5 0 18 7q19 -16 38 -9q15 107 5 240z" />
    <glyph glyph-name="five" unicode="5" horiz-adv-x="493" 
d="M388 460q16 -10 16 -33q0 -26 -19 -52q-10 -2 -35 -57q-60 -18 -94 -18q-7 0 -15 2q-5 1 -23 -7q-15 -7 -26 -5q-14 6 -22 8q-7 -2 -15 -7q0 1 -12 8h-34q-24 -11 -24 -21q0 -14 51 -34q59 -24 65 -30q0 -4 4.5 -8t10 -7.5t6.5 -4.5q15 -18 40 -93l1 -33q-6 -4 -3 -24
q4 -25 3 -28q-4 -4 -10 -27q-8 -29 -10 -31l4 -9q-3 -12 -28 -54q3 -4 0.5 -10t-2 -8.5t-4 -7.5t-6 -6.5t-7 -5.5t-7 -5t-7.5 -4.5t-8 -4.5q-4 -4 -5 -12q-1 -11 -3 -13q-3 -8 -16 -14l-20 -11q-8 -5 -19 -20q-11 -18 -20 -22q-5 -3 -13 0q-7 4 -11 2l-36 -18
q-26 -12 -41 -12q-18 0 -30 12q-2 2 -2 7q0 12 10.5 25t21.5 13q8 0 15 -7q10 15 23 16q24 4 31 6q7 4 30 14q13 13 22 27q1 9 9 21q23 15 26 28q1 7 2.5 21t1.5 20l6 35q-1 14 -1 63q0 5 0.5 10t0.5 8t0.5 5t0.5 3q-2 14 -14 21q3 12 -16 28q-20 17 -31 13q-2 16 -19 14
q-22 0 -26 2q-14 9 -28 12l-14 4t-11 3l-3 1q-4 24 38 89q2 10 16 47q20 38 25 80q12 19 19 45l8 29l45 6q9 -6 18 -10q10 -2 17 -2t36 3q20 3 36 1q12 0 97 -7q3 0 17 14q14 15 17 17z" />
    <glyph glyph-name="six" unicode="6" horiz-adv-x="641" 
d="M461 657q-1 -1 -7 -3.5t-14 -10t-15 -19.5l-60 -13q-7 -2 -43 -24q-11 -3 -47 -16q-4 -2 -8.5 -18.5t-7.5 -18.5q-15 -4 -40 -23q-41 -66 -40 -76q37 0 84 -4q47 -5 67 -3q22 -8 38 -16q1 -7 12 -19q7 -3 28 -9q11 -3 27 -20q1 -10 6 -25q11 -17 15 -30q8 -11 14 -28
q0 -8 -5 -53q-1 -8 0 -21q0 -4 0.5 -9.5t1 -8.5t0.5 -4q0 -5 -6.5 -17.5t-6.5 -13.5q-6 -17 -26 -51q-10 -17 -28 -30q-23 -16 -32 -26q-7 -8 -27 -16q-5 -1 -15 -4.5t-15 -5.5q-1 0 -12.5 -7.5t-16.5 -7.5h-56q-7 -7 -14 -7q-2 0 -11 3.5t-13 3.5q-8 -2 -33 -4q-13 9 -19 9
q-2 0 -8.5 -5.5t-10.5 -4.5q-5 0 -35 24q-27 23 -37 29q-21 10 -26 45q-1 7 -12 23t-11 20q-1 7 -1 23q0 20 4 51t4 51q0 21 -5 41q-2 5 7 23q3 6 5.5 12.5t3.5 9.5l2 3q1 3 11 49q7 7 16 8q5 2 8 12l93 121q4 -3 11 -3q13 0 29 22q20 25 21 27q17 1 40 9l22 33q17 24 33 24
q7 0 15 -5q4 1 15.5 8.5t23.5 9.5q28 5 33 7q20 6 24 19q27 8 30 8q6 0 12.5 0.5t11.5 2t9.5 3t6.5 2.5l2 1q1 0 1 -1q0 -3 -3 -13l-1 -2q-2 -3 -4.5 -8t-5.5 -10q-11 -17 -9 -23zM254 60l39 8q31 4 45 35q8 16 17 50q10 27 16 53q1 19 -19 68l-20 45q-16 24 -26 43
q-5 20 -49 20q-19 0 -88 -10q-45 -6 -45 -23q0 -1 3.5 -11.5t1.5 -12.5l-3 -3q-2 -3 -7 -8.5t-11 -11.5q-19 -19 -19 -23q3 -70 4 -74q4 -37 26 -69q7 -9 30 -27q22 -15 32 -25q5 -4 27 -15q22 -10 29 -12q7 3 17 3z" />
    <glyph glyph-name="seven" unicode="7" horiz-adv-x="562" 
d="M321 166q2 -5 -5 -15l-10 -14q-3 -17 -15 -48q-27 -42 -32 -49q-17 -30 -18 -54q-20 -28 -34 -56q0 -11 -7 -28l-47 -60q-28 -38 -28 -68l-13 -12q-14 -12 -18 -12q-7 0 -22 17q-11 11 -17 23q-3 4 9 21q24 26 29 47l9 27q5 10 33 38q22 23 26 70q14 12 47 74
q32 60 36 85q7 8 29.5 48.5t39.5 60.5q2 2 2 4q0 13 -42 35h-42q-11 -12 -20 -12q6 0 -27 9q-4 2 -12 -1.5t-10 -5.5q-16 1 -47 -8l-31 6q-6 3 -11 3q-27 0 -34 -34l-12 -7q-26 12 -29 23q-3 9 4 22q8 11 13 20q2 16 7 38q21 55 48 70q4 0 13 -1q11 0 25 9q1 1 5 1
q2 0 13.5 -4.5t15.5 -4.5q7 0 11 4q20 -2 41 -8q1 6 70 4q3 0 17 -2.5t19 -2.5q20 0 51 7q38 8 52 9q7 -6 22 -26q6 -14 6 -27q0 -27 -24 -61l-19 -28.5l-14 -20.5t-4 -7l-22 -54q-18 -43 -27 -44z" />
    <glyph glyph-name="eight" unicode="8" horiz-adv-x="603" 
d="M389 409q-17 5 -34 -20q-8 -2 -20 -7q-27 3 -27 -14q0 -11 12.5 -23.5t25.5 -12.5q3 -8 31 -27q28 -18 36 -29q2 -2 11 -12l15 -17q10 -14 10 -35q0 -20 -10 -46q-9 -26 -9 -29q3 -70 -49 -95q-4 -1 -20 -25q-3 1 -45 -19q-36 -18 -49 -28q-9 4 -103 19q-6 -6 -10 -15
q-7 2 -18 14t-13 12q-4 -1 -24 1q-37 15 -68 60q-31 46 -31 88q0 22 13 47l24 43q15 0 31 21q6 -2 7 -2q18 0 20 32l18 11q14 -3 17 14q8 2 8 8q0 8 -17 18.5t-30 10.5q-4 0 -8 -2q-6 7 -18 23q-13 13 -25 10q-18 45 -41 93q0 12 -10 55q1 8 13 27q11 18 16 27q1 11 12 34
q14 8 39 32q1 0 10.5 6t30 13.5t45.5 11.5q4 -2 7 -2t12.5 5.5t10.5 5.5q12 4 41 1q25 -3 40 -11q7 -4 17 -4q7 -1 18 0q9 1 18 1q7 -5 20 -2q47 -17 71 -51q3 -27 16 -71l2 -2q1 -2 3.5 -5t5.5 -6q6 -7 4 -15q-1 -1 -5.5 -8l-7.5 -12q0 -23 -7 -58q-5 -10 -15 -20
q-16 -16 -17 -19zM284 640q-5 4 -21 5q-17 1 -21 0l-8 6q-52 1 -66 -36q-5 -1 -8.5 -2.5t-6.5 -5t-5 -5.5t-3.5 -7t-2 -7.5t-2 -8.5t-1.5 -7q-11 -33 -11 -54q0 -35 26 -64q11 -11 64 -57q2 0 12 -3t14 -3q1 -1 6 -1q22 0 68 34t42 45q-5 3 -5 8q0 7 12 24t10 22
q-1 9 -24 59q2 8 2 12q0 25 -35 36q-6 2 -18 5.5t-18 4.5zM312 158q3 22 -14 51t-36 38q-7 9 -21 29q-15 19 -28 19q-3 0 -9 -2l-4 3q-3 3 -8 5.5t-8 2.5q-8 -2 -31 -26q-27 -27 -30 -32q0 -9 -16 -24q-15 -14 -14 -24q-16 -39 -16 -64q0 -42 40 -49q5 -9 17 -27
q15 -17 40 -17q12 0 25 3q13 -10 24 -10q4 0 20 4.5t24 5.5q44 36 45 52q16 19 16 30q0 16 -16 32z" />
    <glyph glyph-name="nine" unicode="9" horiz-adv-x="641" 
d="M479 194q-2 -21 -1 -30q5 -48 -23 -134q-31 -100 -71 -105l-7 -7q-8 -42 -40 -56q-1 -9 -15 -27.5t-15 -22.5q-9 -5 -27 -17q-18 -13 -20 -21q-29 -16 -43 -33l-107 -55q-4 -2 -6 -2q-21 0 -21 27q0 13 10 23q2 2 31 21l34 23q3 1 14 18q9 14 15 20q2 1 47 19q21 8 34 22
t17.5 24.5t17.5 43.5q7 4 24.5 24t29.5 30q-5 23 -32 23q-20 0 -58 -13l-44 -15q-5 2 -14 0q-12 -3 -13 -3q-2 3 -19 3h-22q-10 13 -38 22q-40 14 -43 16l-35 34q-29 41 -33 76q-2 17 -1 81q0 39 16 61q-5 26 8 33q24 11 35 33q17 34 21 38q3 5 38 25q33 19 44 31
q12 3 59 10q14 -1 35 -5q36 -6 46 -24q5 5 14 8q10 3 15 -2q16 -15 49 -32q38 -19 52 -30q1 -3 4.5 -10.5l9.5 -20t11 -24.5l1 -14q11 -24 11 -41q0 -5 -2 -15t-2 -12q0 -9 9 -18zM379 175q3 5 3 11q0 15 -16 51q-15 39 -14 49q-34 87 -97 87q-36 0 -79 -29q-32 -22 -55 -54
q-33 -44 -36 -111q0 -5 20 -42t20 -38q4 -14 17 -29q16 -18 36 -16q15 -20 45 -20q8 0 85 20l48 43q26 29 23 78z" />
    <glyph glyph-name="colon" unicode=":" horiz-adv-x="320" 
d="M258 133l21 -55q-7 -24 -25 -49q-21 -27 -45 -30q-4 0 -16 5l-16 9q-39 16 -39 53q0 20 10 50q20 30 63 30q37 0 47 -13zM174 294q-15 12 -29 35q-15 27 -11 43q9 34 23 48t44 14q32 0 55 -13q29 -15 29 -39q0 -9 -4 -16q-14 -39 -19 -45q-21 -28 -68 -28q-13 0 -20 1z
" />
    <glyph glyph-name="semicolon" unicode=";" horiz-adv-x="392" 
d="M174 294q-15 12 -29 35q-15 27 -11 43q9 34 23 48t44 14q32 0 55 -13q29 -15 29 -39q0 -9 -4 -16q-14 -39 -19 -45q-21 -28 -68 -28q-13 0 -20 1zM203 -188l-34 -2q-30 0 -43 28q5 21 26 22q34 3 35 4q12 11 45 44q12 5 19 36q14 16 14 49q0 15 -9 41q-11 29 -23 29
q-2 0 -8 -4.5t-12.5 -10.5t-7.5 -7q-15 4 -20 5q-14 3 -19 -2q-5 4 -34 21q-14 19 -14 40q0 11 5 24q14 10 37 24q6 3 39 -3q3 0 13.5 4t14.5 4q1 -1 33 -7q10 -2 32 -21q54 -46 54 -111q0 -33 -13 -68q-10 -12 -32 -53q-9 -24 -16 -27q-27 -10 -43 -34q-5 -8 -21.5 -16
t-17.5 -9z" />
    <glyph glyph-name="less" unicode="&#x3c;" horiz-adv-x="424" 
d="M268 21q-15 0 -33 26q-13 19 -66 48l-57 31q-22 26 -39 36q-26 16 -39 25q-34 24 -34 44q0 9 6 18l49 32q47 30 57 52q28 1 33 3q13 5 26 30l39 22q37 19 40 16q9 19 23 19q25 0 25 -32q0 -7 -3 -15t-43 -39q-36 -28 -44 -36q-25 -4 -52 -33q-28 -29 -45 -32l-3 -11
q2 -7 6 -17q27 -16 68 -50q30 -16 66 -39q39 -39 39 -71q0 -27 -19 -27z" />
    <glyph glyph-name="equal" unicode="=" horiz-adv-x="620" 
d="M547 273q-22 -20 -30 -20q-36 -3 -110 -2q-62 1 -110 -4q-5 0 -44 4q-52 5 -78 5q-14 0 -32 -2q-107 -12 -122 8q-1 10 -12 31q-8 11 -8 14q0 5 36 17q33 -1 114 7q11 -5 39 -9q11 0 18 1q10 1 19 1q8 1 32.5 -1.5t28.5 -2.5q7 1 27 1.5t29 0.5q2 0 11 -1.5t16 -2.5
q8 0 36 4q35 5 55 5q45 0 77 -17q10 -6 10 -14q0 -2 -1.5 -8.5t-1.5 -8.5q0 -4 1 -6zM550 157q-1 -2 -1 -6q0 -2 1 -8.5t1 -8.5q0 -8 -9 -14q-32 -17 -77 -17q-28 0 -56 4l-35 5q-7 0 -27 -4q-5 0 -13.5 0.5t-20.5 1t-22 0.5q-4 0 -28.5 -2.5t-32.5 -1.5q-9 0 -19 1
q-7 1 -18 1q-11 -5 -40 -9q-19 5 -54 6q-19 1 -59 1q-36 12 -36 17q0 3 8 14q2 12 12 31q15 20 122 8q18 -2 32 -2q26 0 78 5q39 4 44 4q48 -5 110 -4q75 1 109 -2q9 0 31 -20z" />
    <glyph glyph-name="greater" unicode="&#x3e;" horiz-adv-x="480" 
d="M155 21q-19 0 -19 27q0 31 38 71q36 23 66 39q41 34 68 50q4 10 6 17l-3 11q-17 3 -45 32q-27 29 -52 33q-8 8 -44 36q-39 31 -42 39t-3 15q0 32 24 32q14 0 23 -19q3 3 40 -16l39 -22q13 -26 27 -30q5 -2 32 -3q9 -20 58 -53l48 -31q7 -8 7 -18q0 -20 -35 -44
q-13 -9 -39 -25q-17 -10 -39 -36q-2 -2 -56 -31q-53 -28 -67 -48q-17 -26 -32 -26z" />
    <glyph glyph-name="question" unicode="?" horiz-adv-x="453" 
d="M348 328q-7 -2 -30.5 -9.5l-39.5 -12.5q-8 3 -15 3q-23 0 -23 -49q0 -12 1 -23v-23q0 -29 -8 -42l-37 -5q-11 8 -11 23q0 1 3 28q1 7 -3 28l-4 20q0 43 -8 134q4 22 25 22q5 0 24.5 -4.5t22.5 -4.5q9 4 30 4q10 -2 15 -2q24 0 40.5 20t16.5 47q0 36 -30 52q-11 14 -47 15
q-9 0 -26.5 -0.5t-26.5 -1.5l-44 20q-38 23 -38 57q0 27 23 64q4 19 12 19q3 0 14 -5l10 -6q7 4 20 10q24 -6 37 -6q6 -14 51 -46t54 -61q10 -10 20 -40q2 -7 15 -28q10 -16 10 -28q0 -7 -3 -13q-6 -14 -6 -28q0 -4 1 -14t1 -13q0 -19 -12 -41q-20 -38 -34 -60zM256 -14
q-44 4 -72.5 23t-28.5 48q0 30 31 62q9 9 26 12q4 0 14 1.5t15 2.5q12 3 36 -25q25 -28 25 -59q0 -40 -46 -65z" />
    <glyph glyph-name="at" unicode="@" horiz-adv-x="670" 
d="M518 206q-14 -17 -65 -21q-3 0 -27 -8q-6 4 -19 7q-13 -3 -24 11q-9 14 -17 14q-14 0 -40 -22q-26 -21 -31 -23q-7 -1 -23 -5q-24 -5 -47 0q-39 11 -39 73q0 19 5 41q4 15 32 29q7 -1 28 1q50 24 74 22q18 9 11 36q-1 7 0 14q0 3 0.5 6t1 4.5t0.5 2.5q0 16 -22 50
q-7 10 -45 13q-10 0 -10 -21q0 -2 0.5 -6.5t1 -12t0.5 -14.5q2 -22 1 -24q-18 -18 -37 -18q-33 0 -33 28q0 11 5 27t8 19q16 22 43 48q14 8 50 3q9 2 24 3q53 -3 72 -34q0 -4 8 -18q-3 -5 2 -19q8 -18 6 -23q0 -3 8 -21q-4 -5 -5.5 -15t-2 -19t-0.5 -10q-4 -9 -4 -42v-39
q0 -15 18 -22q15 -6 30 -3q13 1 48 7q9 5 19 20q15 24 25 36q-1 4 8 17q10 13 9 16q8 21 14 59q2 30 -4 82q-9 5 -11 25q-1 19 -7 25q-10 17 -17 26q-12 2 -24 19q-15 21 -15 22t-53 34q-57 6 -65 7q-7 1 -36 9q-22 6 -34 4q-69 -10 -151 -52q-14 -8 -15 -28q-1 -21 -20 -30
q-27 -12 -45 -53q-5 -23 -26 -80q-4 -8 -2 -38l3 -29q-4 -20 -4 -37q0 -31 20 -69q29 -54 38 -63q9 -7 27 -39q10 -3 24 -9l76 -47q41 -23 57 -23q7 0 18 1.5t19 3.5l8 1q40 -5 63 3q18 2 26 1q44 -3 52 4q29 25 51 25q10 0 14 -6q8 -26 -60 -45q-62 -18 -123 -19
q-35 -12 -74 -1q-39 2 -76 11l-37 36q-9 0 -16 1q-11 5 -23 18.5t-20 17.5q-13 7 -20 14q-11 10 -29 41l-27 51q-6 18 -8 25q-5 23 -5 28l-12 9q-2 3 -7 32q-2 21 -9 35t-7 16q0 4 12 19t14 23q0 4 5 26q-1 12 1 56q23 27 66 88l35 26q3 4 12 15q21 18 48 32q27 15 37 20
q12 1 45 8q3 0 24 10q15 7 27 6q19 0 60 -3q20 -3 49 -14q12 -1 47 -11q11 -10 31 -21q1 0 20 -11q1 -1 5.5 -6.5t8.5 -9.5l8.5 -13t11.5 -17q34 -48 38 -60l9 -39q4 -12 2 -33q0 -23 -3 -69q-4 -39 -24 -81q-25 -54 -64 -67zM335 295q-13 12 -27 1q-4 -2 -13.5 -7.5
t-14 -8.5l-11.5 -8t-10.5 -9t-6.5 -10t-3 -13q0 -8 3 -17q6 0 6 -3q0 -2 -1 -3v-3q0 -9 14 -14q15 -6 45 6q6 3 15 13.5t10 13.5q13 43 -6 62z" />
    <glyph glyph-name="A" unicode="A" horiz-adv-x="688" 
d="M641 6q-13 -3 -28 -8q-20 -7 -32 -7q-16 0 -25 11q-6 2 -26 0.5t-25 -0.5q-12 1 -36 1q-26 -2 -33 -11q-6 0 -20.5 4.5t-17.5 4.5q-10 0 -17 -9q-8 -2 -38 12q-1 11 7.5 18.5t26.5 12.5q43 11 54 36q5 12 -19 91q-26 87 -26 102q-5 11 -19 24q-21 -7 -23 -6q3 11 -5 13
q-82 5 -92 -11l-7 2q-6 2 -14.5 4.5t-13.5 2.5q-19 0 -29 -16q1 -4 -23 -78q-24 -73 -27 -78q-12 -19 -12 -34q0 -38 80 -52q14 -11 14 -21q0 -21 -45 -21q-6 0 -16 2q-5 8 -19 8q-7 0 -29 -4t-26 -4q-77 5 -96 4l-22 -7q-9 16 -10 28q1 0 8.5 3.5l24 11.5t35.5 16
q39 16 51 49q1 14 15 45q5 8 13 36q4 5 15 25q8 16 25 113q10 10 12 19q3 24 13 45q7 13 19 41q4 9 8 38q3 23 16 39q-7 23 42 117q43 8 78 96q4 4 10 4q27 0 45 -81q1 -8 6 -26l27 -72q3 -8 3 -16v-9q-1 -5 -1 -10q0 -12 10 -22q21 -86 32 -110q11 -7 13 -21v-25
q5 -8 15 -29q2 -15 9 -43q5 -7 17 -28q4 -39 10 -51q9 -15 23 -61q11 -35 24 -50q21 -22 67 -28q9 -15 9 -18q0 -4 -5 -12zM336 397q-1 13 -16 63q-12 40 -12 62q-1 4 -3.5 11l-6 16.5l-6.5 17.5l-13 -3q-10 -7 -22 -42q-5 -16 -17 -48q0 -17 -4 -34q-6 -6 -13 -17
q-1 -5 -3 -24q-2 -16 -11 -24q0 -3 -2 -10.5t-3.5 -14.5t-1.5 -9l8 -8q64 -3 69 1q8 0 16 -0.5t12.5 -1t6.5 -0.5q42 0 42 24t-20 41z" />
    <glyph glyph-name="B" unicode="B" horiz-adv-x="716" 
d="M463 4q-17 2 -24 -4q-3 1 -57 4q-41 1 -52 8q-15 -1 -103 -15q-10 4 -28 1q-27 -3 -28 -3l-12 10q-63 5 -100 -16q-6 -2 -9 -2q-18 0 -32 23q6 21 49 37t51 46q6 21 1 78q-4 49 9 77q2 7 -2 22l-5 23q2 26 -3 79q-2 11 1 38q4 32 4 45t-3 17q2 26 0 36q-2 15 2 39
q3 25 0 38q-1 9 -15 21t-22 10q-4 6 -8.5 10t-10.5 6t-10 3.5t-12.5 2.5t-11.5 2q-6 6 -14 10q4 27 33 27q11 0 45 -8q11 -4 21 -4q7 0 20 7.5t19 5.5q32 -7 54 -7q3 0 31 3.5t48 3.5q13 0 42 -3q29 -2 41 -3q6 0 28 -6q25 -5 32 -5q6 0 7 1q41 -2 64 -43q20 -14 21 -31
q0 -11 10 -21q1 -16 6 -25q16 -33 2 -74q-6 -6 -14 -17q-1 -4 -4.5 -14t-5.5 -15t-7 -13.5t-12 -15t-17 -13.5q-2 0 -6 -1.5t-9.5 -3t-9.5 -2.5q-15 -10 -28 -17l2 -5q2 -5 3 -9q3 0 7 -1.5t9.5 -3t10.5 -2.5q37 -13 93 -36q12 -7 35 -46q11 -19 12 -33t4 -29q3 -11 3 -23
q0 -44 -34 -91q-31 -43 -71 -63q-16 -2 -40 -10zM405 570q-12 31 -32 45q-8 6 -48 25q-10 0 -27 1q-16 0 -23 -10q-8 0 -20 -4q-12 -7 -12 -118v-88q0 -4 -1.5 -18.5t-1.5 -19.5q0 -20 15 -31q122 -6 166 72q2 3 7 9.5t6 8.5q5 33 5 49q0 48 -34 79zM280 322q-4 -4 -27 0
q-8 -11 -8 -29q0 -5 1.5 -20t1.5 -18q0 -15 -7 -19q-3 -10 -3 -19l6 -11q0 -12 -3 -40q-2 -38 -2 -45q0 -43 14 -66q9 -14 24 -14q4 0 16.5 2.5t14.5 2.5q9 0 14 -8q9 3 42 10q7 -4 15 -4q19 0 42 27q4 7 14 19t14 19q33 39 33 90q0 16 -5 43q-3 16 -19 33l-27 28
q-21 24 -59 24q-15 0 -38 -4q-26 -3 -36 -3q-8 0 -18 2z" />
    <glyph glyph-name="C" unicode="C" horiz-adv-x="770" 
d="M648 96q-9 -8 -44 -47q-29 -33 -46 -41q-14 -5 -46 -6h-16q-35 0 -50 -6q-39 -19 -45 -19q-4 0 -17.5 4.5t-17.5 4.5q-8 0 -22 -9q-4 -2 -6 -2q-3 0 -11.5 4t-10.5 4q-8 -5 -22 -6q-15 21 -25 21q-6 0 -11 -5q-100 29 -163 107l-12 1q-5 6 -11 10q-4 18 -36 57
q-29 35 -29 58q0 10 3 17q5 5 4 12l-2 10v3q-9 12 -14 54q-3 38 1 59q3 9 6 17q4 8 4 26q6 1 11 18q1 8 5 24q15 8 37 60q20 46 24 69q2 4 14 7.5t13 4.5q2 3 17 16q20 6 69 41q42 30 77 31q11 0 22 -1q15 -2 24 0q12 1 20 8l71 -3q41 -3 71 -12q1 0 5.5 -2t14 -5.5
t18.5 -7.5q27 -11 40 -11q6 0 9 1q2 1 13 13.5t17 12.5q4 0 6 -1q2 1 6 1q15 0 15 -13q0 -2 -0.5 -8t-1 -17.5t-0.5 -22.5q-2 -30 0 -48q0 -1 1 -7t2.5 -14t3.5 -16q5 -25 5 -36q0 -23 -10 -40q-3 -6 -9 -6q-19 0 -23 19q-7 34 -17 67q-2 6 -48 44q-42 36 -53 38
q-19 13 -32 13q-4 0 -12.5 -2t-10.5 -2q-12 0 -26 10q-4 0 -12.5 -6t-10.5 -6q-5 -1 -20 2.5t-18 3.5q-13 0 -24 -14l-10 2.5t-9 1.5q-15 2 -19 -1q-3 -2 -9.5 -16t-10.5 -16q-11 -4 -20.5 -10.5t-15.5 -11.5t-14 -15t-11 -14.5l-11 -16.5t-10 -16q-8 -15 -21 -45
q-22 -81 -22 -166q0 -41 10 -50l33 -90q7 -5 13 -12q25 -42 63 -66q44 -27 88 -23q23 -12 51 -13q31 -1 42 -6l41 10l54 34q38 27 38 45q9 10 19 19q11 14 10 23q-6 47 20 67h8q32 -23 32 -68q0 -7 -3 -39q-2 -24 0 -38z" />
    <glyph glyph-name="D" unicode="D" horiz-adv-x="803" 
d="M339 0h-51q-3 -7 -22 -7t-53 7q-35 6 -40 6q-29 0 -64 -5q-31 -6 -56 -8q-39 13 -39 30q0 7 6 14q35 -1 69 31q5 5 11 17q8 52 2 126q-1 9 2 27q3 26 4 28v12q-1 12 -2.5 40.5t-2.5 61.5q0 5 3 20.5t3 19.5t-2 10.5t-2 7.5q0 2 4 11.5t2 12.5q-7 22 -9 30q-1 6 2 31
q3 22 2 46l-2 3q-2 2 -5.5 8t-7.5 11q-11 16 -16 21q-14 0 -25 1q-6 2 -18.5 12.5t-15.5 11.5q-5 13 -5 18q0 8 7 8q2 0 11.5 -1.5t12.5 -1.5q9 0 14 5q18 0 68 -8q43 -7 68 -6q20 1 72 17q42 13 72 13q4 0 18.5 -1t18.5 -1l43 1q22 -1 47 -22q33 -9 71 -22q39 -16 56 -42
q10 0 40 -44q30 -43 28 -54q3 -1 16 -10q1 -17 9 -52q10 -20 8 -56q9 -17 8 -29q-2 -21 -1 -24l4 -11q3 -11 1 -14q-7 -29 -35 -100q-2 -15 -11 -35l-51 -69q-41 -48 -89 -63q-53 -15 -75 -25q-37 -17 -60 -17q-9 0 -12 1q-3 0 -10.5 2t-13.5 4zM575 340q0 63 -11 98l-39 88
q-5 12 -23 20q-20 8 -26 12q-8 11 -22 28q-6 2 -11 11q-23 25 -49 20q-28 16 -37 16q-2 0 -8 -2q-8 13 -67 2q-28 -6 -65 -49q-2 -26 -2 -170q0 -6 -2.5 -28.5t-2.5 -28.5v-79q0 -1 5 -9t4 -11q-3 -7 -8 -13q0 -14 4 -19l-3 -7q0 -25 4 -86l3 -59q7 -24 48 -33q8 -2 14 -1
q11 -6 22 -6q13 0 32 6q25 8 30 9q19 -4 52 10l31 14l10 9q10 10 13 10t5 -3q10 9 31 36q7 29 18 32l21 33q-2 5 0 14q9 17 20 49q12 38 11 50q0 2 -5.5 9t-4.5 9q2 8 8 19z" />
    <glyph glyph-name="E" unicode="E" horiz-adv-x="738" 
d="M386 -18q-25 5 -36 5q-6 0 -23 -3q-13 -2 -27 0q-4 0 -18.5 5t-20.5 5q-7 0 -15 -3q-16 6 -30 6q-4 0 -22 -2q-4 -1 -27 -4q-6 2 -9 2q-12 0 -35 -12q-22 -13 -31 -13q-7 0 -13 6q-12 12 -19 12l-12 -6q-12 -7 -22 -6q-15 22 -16 24q-3 10 0 28q4 6 36 3l27 12q5 0 14 11
t15 10q23 23 13 171q0 2 -4.5 21.5t-3.5 25.5q0 54 8 190q1 22 0 63q-2 50 -13 53q-34 40 -65 45q-24 5 -27 13q-1 3 -1 10q0 28 38 28q25 0 38 -12q19 0 60 11q5 3 8 3q5 0 16 -7.5t13 -7.5t14.5 4.5t16.5 4.5q2 0 8 -2q17 -11 21 -11l23 11q6 -3 19 -3q16 9 31 9
q5 0 17.5 -2.5t15.5 -2.5q6 0 14 3q23 -11 32 -6q12 5 19 5l1 -1l2.5 -0.5t5.5 -1.5t8 -2.5t11 -2.5q3 -1 24 4q20 5 23 9q8 9 16 9q14 0 28 -21q3 -6 12 -77q10 -68 8 -82q-3 -18 -24 -18q-18 0 -20 36q-11 7 -34 48q-27 48 -35 56l-42 -10q-53 17 -99 9q-18 10 -45 -3
q-14 -6 -17 -35q-1 -7 -1.5 -20.5t-0.5 -20.5q0 -11 -2 -31.5t-2 -30.5q-3 -60 -3 -94q0 -39 5 -46q3 0 14 8t16 8q3 0 17.5 -6t18.5 -4q26 11 52 9q37 -3 47 37q5 22 17 66q17 -5 20 -37q1 -16 1 -49q1 -11 3 -19q7 -20 -1 -32q-12 -16 -12 -31q0 -1 1.5 -16t1.5 -22
q6 -16 6 -32q0 -34 -32 -29q-4 47 -5 68q-4 37 -35 37q-12 0 -24 -4q-3 -1 -12.5 6t-10.5 7q-3 0 -17.5 -4t-18.5 -3q-2 0 -15.5 4.5t-17.5 4.5t-10 -2q-12 -7 -13 -16q1 -11 1.5 -35t0.5 -37l-1 -4q0 -4 -0.5 -11.5t-0.5 -16.5q-1 -17 -1 -45q0 -104 44 -106q18 -13 31 -3
q62 -14 93 -14q8 10 30 12q29 2 35 5q11 -9 23 -9q34 0 40 33q14 10 25 32t12 23q22 19 22 32q0 9 -4 18q23 54 42 54q12 0 23 -16.5t11 -32.5q0 -17 -12 -40q-14 -26 -14 -27q-2 -34 -9 -98q-4 -16 -30 -21q-3 -1 -40 3q-30 -2 -73 2q-5 1 -17 -4t-14 -5q-6 0 -17 1.5
t-12 1.5q-10 0 -25 -12z" />
    <glyph glyph-name="F" unicode="F" horiz-adv-x="663" 
d="M560 483q-10 -8 -16 -8q-16 0 -32 40q-22 53 -25 56q1 2 1 7q0 24 -34 31l-2 2q-1 2 -4.5 6t-6.5 8l-11 -1l-10 7l-48 3q-37 3 -44 9q-19 -17 -25 -15q-38 9 -56 9q-23 0 -36 -10q-8 -6 -8 -65q0 -50 3 -73q2 -15 -1 -32q-5 -25 -5 -31q0 -20 11 -40q-1 -3 -1 -8
q0 -28 46 -28q10 0 18 3q18 -7 39 -7q13 0 35 19q20 17 24 30t1 43q-2 36 -1 41q5 8 12 13q38 -3 38 -45l-3 -17q-3 -16 -2 -44q2 -38 0 -53q1 -8 1 -36q0 -44 1 -48q3 -13 13 -41q3 -7 1 -15q-4 -13 -23 -13q-20 0 -20 30q0 8 1 15v16q0 27 -11 38q-3 -1 -7 -1q-7 0 -14 9
q-8 11 -10 12q-5 3 -39 4q-8 6 -44 8q-16 -1 -48 -1q-14 -8 -14 -28q0 -5 2 -27q4 -19 4 -26q1 -2 -4 -46q1 -9 1.5 -35t0.5 -38l8 -8q-2 -23 27 -44q30 -21 52 -17q20 -12 20 -28q0 -6 -4 -10q-42 -5 -78 -5q-7 0 -25 4t-22 4q-13 0 -26 -10q-21 10 -35 -1q-125 2 -128 -3
q-6 6 -6 12q0 14 45 40q45 25 53 39q7 409 -2 417q7 40 -9 104l-82 49q-1 4 -1 10q0 16 25 19h37l14 2q14 3 18 3q14 -14 32 -14q7 0 31 6.5t30 6.5q4 -4 21.5 -4.5t20.5 -2.5q12 3 32 2q20 -2 21 -1q9 4 25 3q22 -5 27 -3q17 9 24 9q9 0 21 -9q8 0 27 4q20 4 31 4
q5 0 16.5 -4.5t15.5 -4.5q7 0 16 6q9 7 18 13q3 2 14 -3l10 -5q7 0 16 1q10 0 16 -6q12 -94 6 -202z" />
    <glyph glyph-name="G" unicode="G" horiz-adv-x="826" 
d="M685 264q-19 -3 -34.5 -18.5t-15.5 -33.5q0 -10 6 -19v-11q-7 -31 -8 -37q5 -5 5 -21q0 -30 -9 -54q-3 -12 -96 -58q-17 -8 -50 -15q-45 -11 -54 -12q-8 -2 -54 5q-47 8 -52 4q-18 -8 -29 -8q-4 0 -22 3.5t-26 3.5q-28 22 -35 23q-25 5 -26 6q-1 0 -9 7t-10 7
q-24 -2 -44 20l-34 38q-18 20 -39 54q-21 37 -30 46q-3 22 -13 49q-8 24 -8 58l-2 5q2 76 12 114q24 68 35 102l8 11.5t11 14.5q38 39 69 50q9 9 31 23l20 13.5t13 8.5q16 -2 35.5 9t24.5 11q12 0 39 8.5t34 8.5q8 0 16 -3l10 -2q13 11 22 11q8 0 27 -9q6 -2 22 2q18 5 24 3
q2 -2 21 -11q4 1 15.5 1.5t16.5 0.5q30 -30 76 -30q16 0 38 3q24 5 29 -22v-45v-68q-2 -29 -9 -41.5t-18 -8.5q-7 7 -21 29q-13 22 -24 30q-44 78 -79 90l-38 17q-27 13 -42 13q-3 0 -7 -2q-15 -5 -55 -7q-30 -1 -56 -18q-7 1 -35 -19q-10 -2 -40 -35q-2 -3 -14 -7t-14 -6
q-1 -3 -5.5 -13.5t-7.5 -18.5q-2 -5 -16.5 -11.5t-16.5 -10.5q-8 -12 -6 -38q2 -28 -2 -36q-7 -7 -16 -27q-2 -30 2 -70q4 -39 2 -67q0 -4 6 -11.5t6 -9.5q1 -11 1 -33q2 -23 13 -27q9 -17 26 -36q2 -13 24 -35q19 -19 35 -27q1 -2 2.5 -6t1.5 -5q1 -3 2 -4.5t2 -2t2 -0.5
q8 6 16 6q5 0 17.5 -7.5t15.5 -7.5q10 1 29 -3q12 -6 26 -9.5t23 -4.5t27 -2t24 -2q7 5 29 13t27 11q36 25 36 86q0 4 -2 38t-2 38q0 15 1 21q-17 20 -18 22q-12 10 -24 16q-60 -6 -60 17t16 24q16 2 25 2q14 0 52 -3q36 -3 52 -2q8 7 39 7q30 0 39 -6q9 1 16 0l6 -5
q6 2 15 0q14 -2 16 -1q3 0 17 6t18 6t8 -3q8 -5 10 -22q2 -16 -5 -23q-3 -3 -7 -3q-1 0 -11 3t-14 3q-10 0 -20 -8z" />
    <glyph glyph-name="H" unicode="H" horiz-adv-x="879" 
d="M676 613q-2 -41 3 -92q0 -11 -3 -24q-4 -15 -4 -23q-4 -68 6 -108q2 -10 -2 -25q-5 -22 -5 -26q0 -11 7 -18v-48q-4 -9 -4 -21q0 -5 4.5 -21.5t3.5 -23.5q0 -3 -3 -32q-2 -32 -2 -40q0 -72 49 -69q19 -15 19 -35q0 -16 -14 -16q-3 0 -12 4t-11 4q-7 -3 -21 -1
q-16 10 -29 10q-4 0 -46 -16q-4 -1 -21 5q-16 4 -23 3q-5 -4 -22 -10l-9 2q-6 1 -9 2q-9 2 -24 0q-20 -3 -24 -3q-12 0 -21 6q-8 27 -8 33q0 17 15 17q3 0 17 -6t21 -5q1 2 20 13q28 17 30 54q1 21 1 65q4 15 4 36q0 16 -3 45q-4 29 -4 46l-12 10q-4 -1 -27 -6
q-14 -4 -27 -2q-13 10 -28 10q-3 0 -26 -4.5t-30 -2.5q-40 8 -56 8q-22 0 -59 -9q-7 -1 -40 3q-33 6 -45 5q-10 -6 -10 -13l1 -4q1 -5 1 -7q0 -8 -11 -19l1 -6q0 -5 0.5 -17.5t0.5 -27.5q3 -50 4 -52q9 -20 9 -43q0 -36 1 -43q1 -9 20 -25q17 -14 28 -16q2 0 9 2t12 3
q11 -2 12 -14q2 -11 -3 -19q-2 -3 -26 -5q-4 0 -8 -2q-27 -8 -55 2q-15 6 -54 1q-10 -1 -30.5 -1.5t-30.5 -0.5q-39 -2 -57 -15l-13.5 10.5l-14.5 11.5q-5 8 -5 15q0 18 46 31t46 32q0 4 -6.5 18.5t-6.5 20.5q0 12 10 28q2 3 0 17l-3 20l5 24q0 4 1 10q1 5 -1.5 20.5
t-2.5 17.5q0 10 2 54q3 43 3 53q1 23 -2 71q-3 53 -3 70q5 15 5 36q0 32 -8.5 56t-22.5 24q-4 0 -11 -5q-12 0 -25 11.5t-13 23.5q0 6 5 11q21 8 22 8q6 0 10 -4q19 6 27 6q3 0 9 -4t13 -4q44 2 81 12q6 -6 45 -8q42 -1 53 -6q6 -6 6 -11q0 -7 -33 -20q-34 -14 -38 -33
q-1 -3 -1 -58q2 -58 2 -59q2 -6 2 -10q0 -6 -5 -19t-5 -17l1 -60q-3 -7 -3 -12q0 -20 28 -19q24 15 28 14h21q24 2 33 2q10 0 41 -4t46 -4q17 9 29 11q5 0 20 -7q16 -6 23 -6q11 -1 36 5q25 7 34 6q3 0 25 2q1 21 8 65q-1 6 0 18q3 11 1 18q-6 21 -4 68q2 49 -1 63q0 5 -2 7
q-13 21 -43 22q-46 1 -51 5q-5 5 -5 11q0 23 33 35q7 3 15 3q7 0 28.5 -6t26.5 -6q34 -3 104 2q19 4 59 9q15 0 25 -10t10 -24q0 -22 -14 -22q-2 0 -16 3t-19 3q-20 0 -30 -18z" />
    <glyph glyph-name="I" unicode="I" horiz-adv-x="439" 
d="M297 -11q-41 -1 -92 11q-5 1 -15 -2l-15 -5q-5 6 -14 6q-6 0 -17.5 -3t-22.5 -6.5t-12 -3.5q-5 0 -41 6q-6 2 -24 -2t-21 -4q-7 0 -13 3q-17 8 -17 26q0 5 3 6q16 10 42 18t40 16q4 4 17 24q14 24 15 26q-1 14 -1.5 46t-0.5 49q5 87 4 123q0 3 -5.5 13t-5.5 14q0 5 4 12
q10 22 6 61q-15 24 -15 42q0 5 5.5 26.5t5.5 30.5q0 19 -9 43q-2 5 -1.5 23t-0.5 21q-6 11 -16 12q-13 3 -14 4l-13 9q-9 -3 -16 -3q-27 0 -27 26q0 12 8 18q16 5 53 15q24 -13 62 -5q2 1 11 -4.5t10 -5.5q8 5 23 3q15 -9 28 -9q5 0 27.5 6.5t32.5 6.5q6 0 15 -4.5t11 -4.5
q12 14 25 14q22 0 22 -24q0 -12 -11 -21.5t-24 -9.5q-5 0 -27 5q-18 5 -24 1q-21 -9 -21 -35q0 -9 6.5 -30.5t6.5 -24.5q0 -4 -4 -15t-4 -17q3 -19 2 -48q-4 -14 -5 -76q-1 -64 3 -72q7 -13 7 -23q0 -4 -5.5 -20t-6.5 -23q5 -15 7 -80q0 -71 2 -93q6 -13 42 -38q3 -3 27 -6
q24 -2 26 -7q7 -18 7 -21q-11 -29 -31 -29q-8 0 -14 9z" />
    <glyph glyph-name="J" unicode="J" horiz-adv-x="447" 
d="M298 621q-12 -2 -15 1q-13 -6 -35 -26q-4 -7 -7 -50q-3 -46 -2 -55q0 -7 5 -28t5 -27q0 -16 -9 -29v-102l5 -9q5 -8 5 -11q0 -4 -4 -7q0 -9 8 -161q0 -13 -8 -27v-49q-7 -11 -8 -38q-2 -28 -18 -50q0 -28 -7 -38q-18 -18 -31 -33q-2 -3 -7 -21q-3 -13 -15 -21
q-20 -12 -31 -17q-20 -11 -25 -22q-16 1 -48 -17q-31 -18 -52 -15q-13 -1 -46 5q-49 19 -49 75q0 13 3 29q1 10 29 17q16 5 40 11q3 1 34 -31q30 -32 49 -32t31 29q8 11 14 28q4 15 4 50q0 12 -3 81q-2 47 2 57q1 3 3.5 8.5t3.5 8.5t2.5 8.5t-0.5 7.5l-9 55q0 10 -2 56
q-2 43 -3 56q6 21 9 63q-5 45 -5 110q0 77 -3 110q-2 24 -23 42t-44 14q-12 7 -12 30q0 21 11 29q3 3 18 -3l6 -2t5 -1.5t3.5 -1t2.5 -0.5h1q14 2 32 2l17 -6h-1q4 0 19 7q2 0 12 -6.5t14 -6.5q3 0 4 1q6 4 51 2q51 -3 59 -2q3 0 16.5 8t17.5 8q8 0 15 -10.5t7 -19.5
q0 -13 -12 -20q-10 -3 -29 -14z" />
    <glyph glyph-name="K" unicode="K" horiz-adv-x="766" 
d="M750 21q-7 -13 -38 -22q-2 -1 -32 7q-1 0 -7 3.5t-9 3.5q-10 0 -34 -7q-24 -6 -37 -6l-54 1q-4 -1 -34 1q-13 6 -26 10q-19 -7 -58 -10q-8 8 -20 32q5 11 22 27q59 29 57 41q-2 21 -33 48q-29 28 -34 45q-18 21 -28 31q-5 3 -44 34q-4 1 -16 18q-7 9 -30 32q-4 4 -5 16
q-2 10 -6 9q-7 -1 -12.5 0t-10 5.5t-6.5 7t-7 10t-6 9.5q-5 5 -5 16q0 14 13 18l76 74q17 17 21 28q9 7 30 26q43 60 63 76v20q-1 8 -11 13q-10 4 -16 10q-6 -7 -15 -7q-24 0 -24 20q0 14 22 18q6 -2 23 -4q17 4 21 4q6 -2 11 -4t8.5 -3t6 -2t3.5 -2h1q6 2 49 13q8 -1 35 -1
q1 0 3 0.5t6 1t8 0.5q13 2 18 1q10 -3 20 -3h13q6 0 14 -15q4 -9 3 -22q-3 -15 -11 -20q-17 2 -46 0q0 -1 -92 -40q-4 -6 -32 -33q-80 -63 -90 -99q-19 -16 -20 -17q-18 -18 -13 -32q1 -5 16 -13t18 -17q5 -3 17 -11q9 -5 25 -33q18 -26 36 -34q1 -6 10 -20q20 -13 43 -33
q3 -13 15 -37q5 -3 17 -11q6 -9 13 -18q41 -25 63 -48l24 -9q-4 -8 0 -12q29 -23 45 -23q11 0 23 6q20 2 33 -15t17 -53zM312 646q-2 -5 -8 -7.5t-11 -3.5t-13.5 -2t-12.5 -2q-11 -1 -26 -19.5t-21 -35.5q2 -35 -1 -148q0 -52 -1 -115q0 -8 1 -14.5t3 -9.5l1 -3v-40
q0 -11 -3.5 -27.5t-3.5 -21.5q0 -22 10 -63q1 -10 5 -30q4 -21 11.5 -28.5t27.5 -13.5q22 -6 24 -6q18 -28 18 -36t-4 -12q-12 0 -25 -3l-47 1q-8 0 -35 -10q-30 -4 -40 0q-20 11 -27 11q-9 0 -31 -19q-6 0 -10.5 0.5t-7.5 1.5t-6 2.5t-4.5 3t-5 4.5t-5.5 5q-10 2 -31 -1
q-20 -2 -27 2q-5 15 -8 27q2 5 6 21q1 8 13 20q16 0 41 9q9 5 16 14q9 13 13 16q-1 7 11 39q-1 13 -2 55t-2 71q-1 1 0 2t3.5 2.5t5.5 3.5v39l-5 5q-5 4 -5 6v37q0 2 7 11.5t7 13.5t-5 12q-2 2 -7 12q-1 4 3 47v9t-1 8.5t-1.5 6.5t-1.5 5v2v37q12 17 12 37q0 47 -42 59
q-18 -1 -55 4q-2 8 -2 12q0 18 15.5 32t33.5 14q10 0 18 -5l2 -2q1 -1 3.5 -3t5.5 -5q6 -6 10 -6q12 1 104 -1q26 -1 44 10q7 -4 20 -6q8 6 17 6q13 0 23.5 -9t10.5 -19q0 -3 -2 -9z" />
    <glyph glyph-name="L" unicode="L" horiz-adv-x="748" 
d="M683 223q9 -7 9 -18q0 -15 -15 -40q-5 -9 -4 -92q-4 -9 -4 -26q2 -17 0 -20q-13 -39 -58 -39q-15 0 -27 6q-3 -1 -11 -1.5t-12 -0.5q-9 2 -37 9q-4 1 -15 -2.5t-13 -3.5q-23 10 -48 10q-13 0 -36 -4q-27 -3 -41 -2q-4 9 -7.5 13t-5.5 2q-15 -19 -52 -19q-19 0 -39 4
q-11 8 -16 8q-2 0 -13 -4.5t-15 -4.5q-5 0 -13.5 3.5t-9.5 3.5q-4 0 -9 -6q-15 0 -44 -3q-25 -4 -43 -4q-17 0 -39 5q-6 1 -25 -2.5t-23 -3.5q-16 10 -7 46q5 2 23 11q5 5 12 14t13 9q8 0 12 -16q32 5 38 29q3 10 -6 67q-1 7 2 25q3 22 3 25l-1 169q0 4 -2 18t-2 18l1 62
q-5 16 -5 17q9 68 7 93q-1 15 -54 48q-10 -3 -33 4q-24 8 -26 17q-2 13 6.5 28.5t20.5 15.5q3 0 7 -2q5 -5 23 -3l26 3l6 -7h38q14 6 19 6q1 0 16.5 -11t27.5 -11q16 0 36 20q3 3 10 0q9 -4 11 -4q3 0 13 5t14 4q6 -1 31 1q23 3 30 3q39 0 41 -39q-11 -8 -73 -30
q-46 -16 -57 -46q4 -5 4 -57v-62q2 -19 3 -27q-4 -15 -4 -49q7 -29 3 -45q-4 -11 -4 -21q0 -3 4 -16t4 -20q-10 -21 -10 -51q0 -7 3 -40q1 -26 0 -42q0 -3 -5.5 -21t-5.5 -25q0 -10 5.5 -17t22.5 -22q114 -5 136 -2q2 -1 13 2q10 3 16 0q28 -10 66 -1q5 -5 8 -5
q4 0 13.5 7.5t11.5 7.5q73 27 98 84q2 18 11 43q6 10 24 17.5t28 4.5z" />
    <glyph glyph-name="M" unicode="M" horiz-adv-x="965" 
d="M851 637q-22 -3 -53 -25q-15 -34 -15 -45q0 -43 7 -114q2 -10 -1 -21q-1 -5 -2.5 -10.5t-2.5 -7.5v-3q-2 -16 2 -27q5 -18 5 -27q0 -12 -1 -19q-3 -20 6 -69q13 -71 13 -80q0 -10 -1 -14q-8 -39 8 -107q8 -9 25 -31q33 5 39 -23q2 -14 -17 -17q-5 -1 -14.5 -1.5
t-14.5 -0.5q-17 -7 -40 -7q-15 0 -58 8q-34 7 -59 5q-5 0 -21 -6.5t-22 -6.5q-8 0 -16 5q-14 8 -10 27q12 11 20 22q15 6 37 0q35 16 33 48v42q-1 27 -7 42q-1 4 0 15q3 12 2 16q-6 23 -6 24q9 46 -4 84q7 11 7 21q0 4 -7 23t-6 28q6 15 5 61q-2 49 -9 56q-6 -1 -8 -9
q-3 -11 -3 -12q-60 -79 -77 -179q-15 -12 -31 -58q0 -10 -6 -33l-15 -10q0 -1 -12 -26q-10 -24 -12 -26q-19 -25 -35 -74t-30 -63l-21 -6q-9 3 -12 15q0 3 -1.5 9l-2.5 10q-8 8 -13 15q-1 9 -6 28q-7 8 -16 23l-50 110q-13 20 -32 53q-2 10 -9 26q-8 7 -23 25q-3 15 -4 19
q-26 51 -59 134q-19 15 -22 15t-5 -6q-5 -32 -5 -132q0 -2 -8 -42t-8 -42q4 -19 -1 -76l9 -84q8 -37 59 -71q6 -4 21.5 -5.5t17.5 -3.5q4 -7 4 -12q0 -18 -39 -18q-22 0 -37 5q-14 -6 -24 -4q-19 4 -26 4q-2 0 -13.5 -3.5t-15.5 -3.5q-21 -3 -46 -3q-60 0 -66 42
q5 3 31 11.5t33 15.5q16 14 27 43t8 50q19 44 19 95q0 14 -3 23q2 42 5 63q4 13 1 25q-5 17 -7 22q-2 14 3 77q4 54 8 70q1 2 3 6.5t4 8.5q3 11 -14 46q-17 36 -30 40q-29 12 -37 21q-3 4 -3 8q0 12 33 16q14 2 26 -1q18 -3 24 -3q37 -1 89 6q24 -12 41 -53q24 -55 30 -64
q3 -4 4.5 -10.5t2.5 -14.5t1 -9q15 -34 35 -64q4 -6 8 -30q4 -20 20 -31q9 -17 34 -76q18 -23 35 -55q1 -11 9 -34q4 -4 18 -28q5 -10 10 -15t9 -4q18 16 22 54q23 24 27 37q8 24 11 36q7 7 12 13q6 20 8 30q6 8 15 24q0 3 2 29q4 2 26 42q24 41 27 48l27 108q20 71 69 64
q10 -7 15 -7l19 9q2 1 21 -4q21 -7 23 -7q1 0 15 2.5t21 2.5q29 0 24 -32z" />
    <glyph glyph-name="N" unicode="N" horiz-adv-x="887" 
d="M786 636q-34 -4 -67 -27q-32 -22 -34 -45q-1 -22 -3 -72q-3 -38 -3 -43v-58q0 -3 5 -30q3 -19 0 -39q-6 -40 -8 -59q13 -9 13 -45v-59q-2 -16 -8 -88q14 -40 14 -75q0 -18 -5 -36q-7 -25 -33 -25q-24 0 -36 22q-6 12 -12 51q-5 36 -16 47q-5 0 -12 6q-5 11 -18 34
q-12 12 -21 23q0 5 -6 14q-7 0 -13 1q-16 32 -47 75q-7 7 -37 27q-20 14 -26 36q-83 95 -116 125q-5 11 -20 28h-11q-14 23 -38 53q-12 11 -33 38q-2 -1 -9 1.5t-8 2.5q-3 0 -6 -3v-41q0 -90 -1 -100q0 -15 -6 -41q8 -32 9 -53l-3 -39v-46q0 -126 21 -116q17 -35 102 -35
q2 -2 16 -14q-3 -15 3 -18l-10 -24l-110 5q-23 -2 -33 0q-68 2 -85 0q-6 -2 -24.5 -6.5t-28.5 -7.5l-27 6q-10 10 -12 32q0 16 -1 24q1 0 8 3.5t10 2.5q5 -9 16 -17q10 -1 14 9q6 23 19 23q3 0 11.5 -2t10.5 -2q10 0 11 10q8 5 15 18q-2 17 0 47q5 15 9 42q3 59 1 93
q0 5 -6 11q-1 10 2 20q1 6 2.5 13.5t1.5 9.5q1 3 7 95q-4 26 -2 100q0 2 -2.5 8.5t-2.5 8.5q3 9 -6 43q-7 17 -27.5 33t-39.5 17q-8 8 -25 10q-19 1 -35 11q0 3 6 32q26 -2 48 -2q26 6 33 6q21 0 37 -18q2 -3 5 -3t11 6t9 6t13.5 -2t17.5 -2q12 0 18 6q22 4 43 -21
q3 -5 29 -44q7 -5 16 -13q9 -13 28 -33q4 -1 12 -6q3 -11 17 -16q1 -2 6 -9t7 -9.5l6.5 -8.5t8 -9t8 -7.5t9.5 -7.5t11 -6q31 -47 49 -66q27 -32 51 -54q8 -15 19 -30q21 -16 46 -39q14 -14 25 -27q1 -2 4.5 -11.5t6.5 -15.5l1 -1q1 -1 2.5 -3t4 -4t5.5 -5.5t7 -6.5
q3 -5 10 -14q7 -10 13 -10q3 0 4 1q6 4 6 7q2 50 1 106q-2 65 0 83q5 38 0 59q-1 3 -7 58v47q0 14 -14 33q-7 9 -16 13l-13 6q-4 -3 -6 -3t-9 9.5t-11 9.5t-6 -1q-8 7 -31 8q-3 5 -3 13q0 38 21 38q8 0 17 -12q4 1 19 6q2 0 6.5 -1.5t8.5 -3.5l3 -2q2 -1 14.5 2.5t15.5 3.5
q7 0 11 -3q4 -10 14 -10t30 15q2 2 6 2q6 0 24 -7.5t21 -7.5q7 0 29 9q19 7 26 6q17 -3 17 -24q0 -16 -9 -25z" />
    <glyph glyph-name="O" unicode="O" horiz-adv-x="842" 
d="M697 184q-18 -5 -20 -13q-2 -31 -9 -39q-9 -2 -11 -10q-5 -12 -6 -15q-24 -32 -92 -74q-8 0 -14 -1q-16 -16 -27 -26q-9 -6 -43 -15q-35 -11 -37 -14q-15 -4 -97 0q-11 12 -19 12q-4 0 -20 -6q-6 6 -17 13q-17 2 -43 10q-27 18 -82 49q-13 16 -19 16q-2 0 -6.5 -2.5
t-7.5 -1.5q-27 11 -71 82q-43 72 -60 200q7 22 11 54q-1 16 17 51q0 14 9 46l27 33q3 12 13 27l38 39q21 21 45 32q20 19 30 18l12 18q8 -2 23 0q6 7 21 15l21 6q5 2 18 13q1 1 20 -2l49 6q3 0 15 -6t16 -5q13 3 27 3q22 0 88 -20l24 -22q26 -23 48 -30q-1 -2 2 -4t9 -4
q5 -3 15 -7q7 -16 14 -21q5 -2 13.5 -6t9.5 -4q0 -3 1.5 -7t3 -9.5t2.5 -10.5q4 -3 16 -15q7 -18 16 -22q13 -6 16.5 -10t4.5 -15q1 -15 3 -18q7 -4 11 -8.5t7 -14l3.5 -11t3.5 -14.5q14 -45 14 -87q0 -69 -36 -153zM287 653l-12 -9q-30 -2 -40 -30q-9 -4 -37 -34
q-2 -11 -14 -30q-13 -22 -19 -26q-18 -117 -22 -126q-3 -7 -10 -28q-3 -18 -1 -57q4 -43 4 -57q0 -4 8 -15t8 -13q26 -66 39 -84q13 -16 69 -63q8 -11 23 -26q22 -14 56 -22l20 -12q6 -2 22.5 3.5t20.5 4.5q5 0 9.5 -1.5l7.5 -2.5l3 -1q2 0 20 9q5 -3 11 -3q11 0 25 14
q6 6 11 10.5t8 7.5l3 2q12 -2 25 5q0 3 4 19q30 31 40 82q7 14 18 39q3 11 5 50q2 32 6 47q5 18 5 52q0 37 -8 47q-5 7 -7 32.5t-3 29.5q-24 54 -48 85q-20 28 -70 65q-6 11 -16 19q-40 21 -104 21q-29 0 -60 -4z" />
    <glyph glyph-name="P" unicode="P" horiz-adv-x="656" 
d="M560 540q-1 -16 2 -38q4 -20 4 -31q0 -22 -12 -49q-9 -22 -33 -57q-24 -13 -63 -42q-4 -5 -12 -11h-18q-4 -4 -18 -9q-14 2 -18 2q-8 0 -29.5 -6.5t-28.5 -6.5q-11 0 -26 5q-21 -9 -30 8l-27 -3q-17 -3 -22 -12q-2 -21 1 -33q1 -1 -1 -34q-3 -35 -3 -36q4 -7 4 -21
q0 -4 -1 -18.5t-1 -17.5q0 -15 6 -21q2 -27 22 -37q11 -6 43 -11q30 -5 39 -11q3 -10 3 -18q0 -26 -36 -26q-9 0 -33 3q-20 1 -27 0q-9 -9 -15 -9q-2 0 -9 1t-21.5 2.5t-27.5 3.5q-29 4 -60 2q-12 -5 -37 -9q-16 -1 -39 4t-32 13q-2 6 -2 9q0 26 22 33q2 0 10.5 -5t12.5 -5
q14 0 33 13q20 14 21 25q4 33 5 38q3 19 3 33q0 21 -7 41q0 5 6 29.5t6 31.5q0 22 -16 37q-1 5 6 25q-3 16 -3 40q5 5 9 14q1 4 -6 26q-7 21 -7 28q-2 27 -3 82q0 6 1 28.5t1 26.5q0 52 -43 62q-9 -3 -35 2q-17 8 -17 25q0 12 10 16q24 -1 57 -2.5t41 -1.5q16 -11 33 -11
q12 0 39 8q25 9 38 7q16 5 40 4l40 -2l10 6q13 -2 37 -1q17 1 39 -13q1 -1 4 -1q2 0 11 4t12 3q1 -1 4.5 -5t6.5 -7q31 -2 50 -31q4 -2 13 -8q17 -3 31 -26q14 -2 24 -23q16 -30 19 -32zM446 505q1 5 1 14q0 24 -34 73q-2 1 -8.5 8t-15.5 14t-20 8q-13 2 -35 10
q-23 10 -36 10q-14 0 -28 -12q-5 1 -13 1q-29 0 -29 -29q0 -10 4 -19q-11 -14 -11 -31q0 -4 7 -45l-1 -33q-6 -8 -6 -35q1 -13 1 -39q4 -5 5 -29q2 -17 13 -21q1 -10 17 -15q11 -3 24 -1q4 4 16 2q15 -3 17 -2q4 0 24.5 8t34.5 8q33 18 69 90q0 6 5.5 24.5t5.5 23.5
q0 10 -7 17z" />
    <glyph glyph-name="Q" unicode="Q" horiz-adv-x="836" 
d="M939 -225q-27 0 -58 -4q-27 -4 -45 -4q-31 0 -75 14l-6 1q-6 1 -20 4l-29 6q-29 6 -52 24q-21 -2 -52 4q-40 7 -45 20q-17 10 -54 18q-33 7 -51 16q-10 5 -78 43q-9 11 -32 29q-11 1 -34 6q-4 6 -12 26q-12 2 -22 8q-6 -2 -10 -2q-9 0 -27 8q-19 10 -27 12q-16 5 -26 22
q-10 18 -18 18q-3 0 -9 -2q-47 26 -59 56q-5 11 -21 21.5t-19 14.5q-14 20 -36 60q0 6 -3 20q-6 11 -14 34q1 13 0 38q-8 72 -8 78q0 29 11 62l3.5 21t4.5 22.5t6 19t11 20t18 15.5q6 19 13 36q34 56 87 87q6 -1 23 8q23 12 26 13l9 -1q41 32 138 32q58 0 99 -10
q2 -11 22 -15q11 -1 31 -5q43 -13 82 -43l69 -61l7 -11q0 -8 6 -16q8 -7 13 -12l10 -3q19 -37 39 -95v-14q2 -10 6 -14q-3 -22 5 -36q-2 -16 -1 -43q1 -25 -6 -42q-7 -29 -33 -85q-14 -18 -15 -22q-4 -9 -5 -25q-6 0 -25 -25q-18 -26 -28 -32l-9 3q-6 2 -7 -1
q-6 -12 -16 -22.5t-14.5 -14.5t-23 -16t-19.5 -13q-13 2 -19.5 -4.5t-6.5 -22.5q0 -26 28 -23q8 -10 68 -25q66 -17 79 -24q11 -22 22 -23q18 4 22 4q1 0 6.5 -5t10.5 -8.5t7 -2.5q11 3 20 3q16 0 37 -10t28 -10q3 0 7 2q13 -7 41 -15q13 3 42 -4q28 -21 37 -21q7 0 14 4
q8 0 23 -17q15 -18 14 -24q-10 -3 -22 -7l-28 -9.5zM438 601q2 6 -36 26q-37 21 -42 20q-67 -1 -73 -18q-38 -4 -69.5 -32.5t-40.5 -65.5q-2 -9 -12 -22q-5 -6 -7.5 -12t-3 -10t-1 -12t-1.5 -13q-1 -1 -3 -5t-4.5 -7.5t-4.5 -7.5q-3 -22 -5 -30q-15 -45 -15 -89
q0 -43 15 -79q4 -6 10 -33q5 -15 18 -34q11 -15 9 -44q0 -2 28 -31q23 -26 23 -28q19 -21 24 -22q21 -7 23 -7q64 -32 82 -32q15 0 28 7q5 -5 13 -5q10 0 29 11q4 -2 7 -2q9 0 28 12t26 13q79 79 91 115q1 11 3 29q18 45 19 102q1 8 -1 105q-1 26 -36 84q-35 54 -55 76
q-6 5 -32 18.5t-34 22.5z" />
    <glyph glyph-name="R" unicode="R" horiz-adv-x="838" 
d="M821 5l-4 -6q-11 -10 -29 -20q-2 -1 -12.5 4.5t-11.5 5.5q-19 2 -70 1q-48 -2 -65 9q-17 0 -26 -1q-29 2 -47 11l-4 3q-3 3 -10 9t-15 12q-20 19 -31 16q-14 17 -34 50q-2 13 -11 27q-15 13 -45 60q-6 4 -19 15q-15 15 -33 45q-19 32 -27 41l-17.5 3.5t-18.5 3.5
q-7 4 -24 12q-38 -6 -38 -49q0 -11 5 -28q-4 -25 -3 -60q0 -12 0.5 -22.5t0.5 -17.5t0.5 -12t0.5 -7v-2q0 -9 6.5 -22.5t12.5 -14.5q34 -5 57 -24q19 -16 19 -33q0 -6 -3 -9q-6 -6 -43 -6q-35 0 -46 4q-8 3 -14 0l-12 -6q-5 0 -29 3.5t-32 1.5l-19 -15q-6 0 -20 5t-18 5
q-12 0 -25 -10q-14 3 -41 13q-14 8 -14 18q0 14 23 26q21 13 47 11q9 1 17 15l12 24v56q0 51 -7 78v4q1 3 2.5 11.5t2.5 16.5q5 33 5 37q0 179 -3 256q-1 25 -12 33q-17 26 -51 27q-38 2 -50 15q-6 8 -6 15q0 24 22 34q18 -10 38 -4q12 2 16 2q5 0 17.5 -2.5t16.5 -2.5
q14 0 28 10q6 2 36 -5q29 -7 43 -5q3 3 19 12q17 2 41 -2q35 -5 42 -5q20 9 30 5q24 -8 32 -10q6 -1 34 4q8 2 17 -1q13 -4 17 -4q8 2 31 4q2 -1 17.5 -7t27.5 -12q5 -3 11 -11.5t15 -10.5q60 -67 60 -119q0 -11 -3 -22q3 -12 -5 -42q-5 -7 -11.5 -27t-8.5 -23
q-8 -13 -32 -31q-23 -17 -38 -24l-36 -12q-27 -10 -29 -17q-2 -11 11 -21q12 -7 22 -14q11 -7 42 -47q27 -33 46 -37q-2 -21 11 -29q9 -6 31 -10q24 -26 62 -62q37 -28 73 -31q50 -4 68 -11q20 -19 15 -48zM460 412q0 1 -6 70q-3 44 -21 66q-4 28 -41 55q-11 22 -66 26
q-4 0 -12 -5t-13 -5t-13 3q-26 -2 -40 -5q-24 -17 -24 -162q0 -33 3 -45q5 -8 12 -24q0 -3 -2.5 -18t-2.5 -19q0 -9 5 -12q5 -1 29 -10q26 10 37 13q9 2 22 -1q13 -2 25 5q24 11 53 16l23 17q8 7 15 27q3 6 17 8z" />
    <glyph glyph-name="S" unicode="S" horiz-adv-x="581" 
d="M311 -6l-41 -6q-17 -4 -46 -2q-10 19 -32 7q-5 -2 -26 4q-8 2 -12 2t-15.5 -1.5t-14.5 -1.5q-10 0 -25.5 12.5t-24.5 12.5q-22 1 -27 3q-6 7 -16.5 9.5t-15 9.5t-4.5 30q0 57 15 63q-1 2 -11 12q-6 54 -6 58q0 26 13 38q3 0 9 -4.5t11.5 -8t7.5 -1.5q3 -12 17 -42
q3 -31 26 -57q6 -31 60 -61q55 -30 88 -27q10 5 18 8q23 6 42 20.5t20 31.5q16 9 17 22q3 21 6 25q0 5 2.5 17.5t2.5 15.5q0 32 -71 80q-63 43 -102 51q-20 20 -93 44q-23 26 -33 25q-36 43 -42 107l4 6q-3 8 -3 19t10 61q13 18 50 74q8 2 29 13.5t26 12.5q3 2 8 0
q8 -2 9 -2q9 0 22 8q17 0 30 1q19 6 42 10q12 1 34 -8t24 -9q29 -14 44 -8q7 -4 25 -9q14 -2 21 -2q6 0 10 1h6q7 0 8 -7q0 -1 3 -33q13 -19 14 -41q0 -16 -1 -44q0 -3 3.5 -15t3.5 -16q0 -6 -5 -13q-11 -5 -42 1l-10 27q-8 27 -23 43q-1 10 -11 18q-14 11 -15 13
q-3 10 -20 30q-2 -1 -17 1q-27 15 -42 15q-7 0 -29 -5l-9 4q-1 -4 -13 -7q-3 -1 -8.5 -1t-7.5 -1q-1 0 -8.5 -6t-9.5 -6q-4 0 -5 1l-7 -5q-7 -5 -12 -9v-12q-20 -27 -20 -46q-1 -41 5 -57q5 -11 38 -46q1 1 4 1q9 0 25 -12q17 -11 22 -13q5 -1 18 -4.5t19.5 -5.5t16 -7
t15.5 -12q3 1 11 -3t10 -4q6 3 19 3q16 -16 39 -35q8 0 20 -4q50 -31 78 -114q1 -16 3 -44q4 -25 -13 -66q-13 -33 -35 -58q-17 -13 -37 -32q-1 -6 -12 -17q-25 -8 -51 -20z" />
    <glyph glyph-name="T" unicode="T" horiz-adv-x="752" 
d="M608 561q-8 24 -32 42t-48 18l-20 -3q-7 -1 -41 0q-24 0 -42 -9q-22 -10 -27 -40q0 -9 -1 -26t-1 -25q0 -9 0.5 -23.5t1 -36t0.5 -38.5q-4 -81 -5 -282q-1 -57 35 -81q8 -5 36 -13q27 -6 38 -14q2 -6 2 -10q0 -23 -15 -23q-5 0 -9 3q-12 -3 -77 5q-6 1 -27 -4.5t-26 -5.5
q-15 0 -26 11q-20 -2 -31 -3q-20 -5 -26 -12q-13 -1 -18 0q-18 1 -54 5q-32 6 -32 29q0 7 1 11q48 14 51 14q6 0 9 -1q41 25 43 75l3 65q1 34 -4 64q0 4 5.5 19t3.5 21q-3 15 -12 123q0 5 3 18.5t3 17.5q2 101 -9 134q5 23 -21 23q-8 0 -15 -4q-6 -2 -19 4q-5 2 -9.5 4t-7 3
t-3.5 1q-7 1 -21 1q-39 0 -86 -16q-28 -28 -41 -62l-14.5 -35l-10.5 -25l-3 -7q-34 -19 -34 11q0 22 14 45q-1 5 -1 14q0 17 4 37q2 8 3.5 16l2.5 13.5t1 6.5q7 7 7 21q0 4 -2 19.5t-2 19.5q0 24 26 26q6 0 13 -24q21 -16 73 -15l12 5q6 0 34 -3q19 -3 34 -1q1 4 8 4l17 -4
q17 -3 25 -2q15 -10 28 -9q14 11 36 3q16 8 36 3q16 -2 93 4q80 6 83 9q5 -2 15 -4t15 -4q16 -3 31 1q10 -2 22 -2q12 4 19 22q8 23 12 27q24 0 35 -26q10 -20 7 -46q0 -6 4.5 -21t4.5 -18q-2 -12 -2 -28q1 -4 4.5 -14.5l5.5 -16.5q9 -33 9 -54q0 -26 -16 -26q-6 0 -9 1
q-5 2 -12 30q-16 14 -31 31q-3 3 -9 19q-5 11 -17 18z" />
    <glyph glyph-name="U" unicode="U" horiz-adv-x="823" 
d="M723 647q0 -5 -18 -10q-17 -5 -23 -14q-1 -5 -10 -21q0 -51 -5 -131q-2 -23 3 -58v-35q0 -21 -10 -34q7 -3 7 -48q0 -100 -13 -152q-5 -3 -31 -40q-20 -27 -35 -30q-40 -41 -113 -84q-18 3 -64 -5q-48 -9 -69 -8q-20 11 -33 11q-3 0 -11 -1.5t-11 -1.5t-11 2q-4 6 -19 18
q-5 3 -30 5q-22 1 -31 5q-15 5 -33 24q-23 23 -31 28q-1 5 -9.5 10.5t-9.5 6.5q-7 21 -25 53q0 10 -5 43q-5 31 -4 41q-10 11 -10 20q-3 56 0 136q5 18 5 37q0 13 -5 55t-5 57q0 9 3.5 30.5t3.5 26.5q0 26 -34 38q-43 13 -51 26q4 33 43 33l48 -1q13 9 20 9t20 -10
q4 0 19 -2.5t18 -2.5q8 0 15 5q18 4 29 -4l88 7q19 -15 19 -25q0 -12 -35 -23q-39 -14 -43 -22q-10 0 -22 -15q-1 0 -3 -168l-3 -24q0 -7 11 -24q2 -4 -3 -18l-9 -18q6 -15 4 -67q-2 -46 7 -62q-3 -19 17 -63q-2 -8 -2 -11q0 -27 33 -34q3 -19 42 -37q35 -16 64 -16
q7 0 13 2q15 -20 32 -3q3 -1 12 -1q1 0 52 9q10 8 27.5 11t18.5 3q19 8 42 44q25 37 22 56q9 14 10 108q2 93 -3 110q4 26 1 44l5 8v1l0.5 2t0.5 5t0.5 7t0.5 9q1 21 0 33q-1 18 -6 21q9 35 -4 79q-3 0 -13 15t-15 18q-6 3 -37 5q-15 2 -25 14q-6 29 24 34q33 -11 75 5
l86 -3q75 -3 75 -18q0 -10 -34 -25z" />
    <glyph glyph-name="V" unicode="V" horiz-adv-x="749" 
d="M230 87q3 28 -19 68t-22 62q2 21 -12 41q-19 32 -21 36q-2 20 -3 51q-2 9 -10.5 23.5t-8.5 15.5q-2 32 -10 82q-19 39 -45 100q-2 2 -6 29q-1 12 -21 21q-51 27 -60 21q-19 7 -19 24q0 26 29 26q6 0 20 -5.5t17 -5.5q5 0 34 17q2 0 17.5 -6t17.5 -6q9 9 19 9q8 0 18 -8
q8 5 49 3q47 -2 55 0q10 2 14 3q9 -12 9 -20q0 -30 -59 -22l-24 -39q9 -34 28 -87q18 -51 24 -89q18 -21 34 -120q18 -98 41 -121q5 -20 8 -29q6 -13 19 -23q19 38 43 78l3 43q0 4 3.5 8.5t8 8.5t5.5 5q2 13 9 35l17 25q2 17 13 47q8 13 16 40q8 30 13 39q6 7 12 19
q0 12 9 38q4 6 9.5 23t9.5 21q15 22 15 26q0 6 -8 19q-18 27 -55 27q-11 0 -21 10t-10 22q0 10 10 16q16 2 36 -1q32 -5 39 -5q15 0 24 4q2 -3 17 -16q4 -1 40 8q34 9 52 9q13 0 25 -7t12 -18t-23 -19q-17 -13 -45 -27q-7 0 -13 -2.5t-10 -5t-9 -9.5t-6.5 -9.5t-6 -12
t-5.5 -10.5q-13 -17 -31 -43q-13 -23 -25 -69q-14 -50 -23 -64q-7 -7 -18 -24q-1 -7 -3 -19q0 -5 -9 -18.5t-7 -21.5q2 -14 0 -18t-15 -22q-1 -9 -9 -32q-17 -15 -32 -37q1 -16 -3 -47q-9 -7 -22 -29q-10 -49 -59 -146q-4 -7 -17 -8t-20 3q-26 15 -27 58q0 44 -22 57z" />
    <glyph glyph-name="W" unicode="W" horiz-adv-x="984" 
d="M466 675l31 -1q28 7 39 7q33 7 44 -2q16 -10 16 -21t-22 -18q-15 -14 -42 -27q-24 0 -36 -25q-1 -13 6 -23q15 -22 19 -41q7 -34 12 -45q16 -37 33 -83q3 -8 19 -80q11 -48 27 -79q5 -29 13 -53q7 -21 13.5 -31.5t13.5 -9.5q12 0 10 18q10 10 7 19q5 -1 12.5 14t18.5 46
q19 54 22 77q18 25 44 112q24 77 30 119q17 14 17 36q0 28 -20 43q-13 10 -31 11q-18 3 -23 7.5t-5 13.5q0 21 18 30q19 -11 32 -11q4 0 13 2t11 2q4 -2 8.5 -5.5l7.5 -6t4 -2.5q4 0 17 8q7 -4 21 -4q10 0 34 3q21 4 35 4q33 0 34 -24q-3 -4 -19 -13q-10 -4 -18 -22
q-13 6 -47 -30q-34 -34 -34 -52q-10 -4 -16 -29q-8 -32 -11 -36q-6 -27 -9 -52q-9 -20 -8 -29q-13 -14 -13 -19q-8 -2 -12 -19q-4 -24 -6 -26q-9 -6 -20 -29q-2 -36 -10 -56q-3 -7 -7 -15l-8.5 -17.5t-6.5 -14.5q2 -21 -2 -29q-2 -6 -17 -23.5t-18 -24.5q-37 -95 -40 -132
q-1 -27 -33 -27q-4 0 -10 2q-5 2 -9.5 5.5t-7.5 7t-5.5 9l-4 9t-3.5 11t-2.5 10.5l-2 11.5t-1.5 10.5q-3 12 -30 81q-26 66 -26 71q0 32 -84 252q-11 -38 -19 -52q-6 -6 -17 -25q0 -10 -11 -37q-9 -10 -7 -21q2 -13 0 -18q-1 -2 -6 -9t-8 -13q-1 -9 -9 -32q-15 -15 -30 -38
q1 -15 -3 -46q-8 -7 -21 -29q-11 -54 -56 -146q-3 -7 -16 -8q-14 -2 -19 2q-25 16 -26 59q0 43 -21 57q3 28 -18 68q-21 41 -20 61q1 23 -12 42q-17 28 -20 36q-1 19 -3 51q-2 10 -10 24t-8 15q-2 33 -10 81l-42 100l-5 29q-3 13 -21 22q-49 25 -56 21q-19 7 -19 24
q0 25 28 25q6 0 18.5 -5t15.5 -5q5 0 33 17q1 0 16 -6t17 -6q9 9 18 9t17 -8q8 5 47 3q44 -2 53 0q5 1 13 3q8 -13 8 -21q0 -29 -56 -21l-22 -39q5 -25 26 -88q17 -51 23 -88q15 -18 32 -120q16 -98 39 -121q5 -20 8 -29q6 -14 17 -23q16 33 42 78q0 9 2 43q0 4 3.5 8.5
t8 8.5t5.5 5q2 18 8 35q5 7 16 25q1 15 12 47q9 14 15 40q8 30 13 39q4 23 10 45q-2 17 -6 43q-14 17 -15 26q-30 39 -36 43l-51 14q-2 9 -8 16q6 19 32 21q11 5 38 2q18 -2 41 0q12 1 34 0q21 -3 36 1z" />
    <glyph glyph-name="X" unicode="X" horiz-adv-x="781" 
d="M708 40l9 -9q2 -8 2 -12q0 -17 -18.5 -27.5t-38.5 -8.5q-10 0 -17 6q-8 6 -15 8q-6 2 -14 0q-9 -2 -12 -1q-16 4 -34 4q-12 0 -46 -8t-46 -8q-6 0 -24 2q-11 8 -19 6q-35 -5 -36 -5q-21 0 -32 26q-3 11 3.5 17.5t19.5 9t24 3t23 0.5q28 1 37 34q-18 30 -41 51
q-1 5 -23 41q-16 29 -23 40q-8 4 -24 20q-3 4 -7 17q-2 9 -11 14q-13 7 -48 -44q-27 -40 -41 -69v-10q-8 -9 -14 -31.5t-5 -37.5q17 -23 53 -16q8 -10 8 -22q0 -18 -15 -26q-10 -6 -46 -3q-37 3 -45 -1q-18 -8 -25 -7q-20 1 -38 13q-22 -17 -29 -16q-5 0 -19 7q-11 5 -20 3
q-25 -5 -35 -5q-29 0 -39 22q0 13 12 32q39 4 61 7q39 8 52 27q23 9 48 34q26 27 34 49q4 1 34 45l36 56l16 16q11 12 9 20q13 18 9 27q-5 9 -32 39q-27 31 -35 35q1 12 -25 52q-25 40 -37 40q-6 4 -3 21q-5 6 -14.5 19t-11.5 16q-22 28 -28 26q-11 26 -39 35q-50 15 -51 16
l-9 -3q-9 -3 -12 -3q-14 0 -14 20q0 17 23 28q20 9 42 9q9 0 13 -1l15 9l14.5 -3.5l11 -2.5t7.5 -1.5t4 -0.5l1 -1q11 0 22 7q39 -13 78 -13q24 0 64 8q30 7 43 5q12 -10 12 -24q0 -18 -18 -18q-7 0 -14 3q-13 -7 -18 -19q-4 -16 -9 -22q-6 -19 -3 -32q2 -9 19 -26
q18 -16 21 -24l28 -58q18 -34 39 -50q1 0 2 -1l2 -1q4 0 12 15q7 16 13 20q7 4 12 9t8 11.5l5 10.5t4.5 13t3.5 12q11 8 21 29q27 21 27 52q0 38 -39 52q-7 -4 -16 -4q-25 0 -25 17q0 5 3 10q7 7 26 17q14 2 26 2q3 0 35 -2q34 -2 37 -2q9 0 63 12q5 1 22.5 -2t20.5 -3
q8 0 11 3l35 -6q5 -15 5 -22q0 -18 -40 -25q-48 -11 -69 -42q-42 -16 -50 -43q-8 -9 -23 -39.5t-22 -38.5q-12 -9 -30 -27q0 -3 -1.5 -7t-3 -9.5t-2.5 -10.5q-10 -10 -25 -18q-10 -6 -10 -11q0 -7 15 -31q3 -18 12 -26q12 -8 16 -14q5 -20 29 -61q56 -64 123 -176
q15 -9 45 -25q29 -15 48 -14z" />
    <glyph glyph-name="Y" unicode="Y" horiz-adv-x="677" 
d="M668 665q4 -7 4 -15q0 -3 -1.5 -6t-5.5 -5t-7 -3t-9 -2.5t-9 -2t-10.5 -1.5t-9.5 -1q-25 -6 -50 -33q-31 -33 -43 -40q-6 -28 -38 -69q-37 -49 -46 -67q-12 -9 -41 -47q-30 -41 -32 -52q4 -10 2 -37q-1 -24 3 -37q-2 -12 -4 -82q-1 -71 3 -75q4 -7 23.5 -18.5t21.5 -12.5
l49 -13q13 -12 13 -28q0 -13 -10 -20q-50 7 -98 11q-16 -12 -25 -10l-14.5 7t-15.5 7q-5 3 -42 -8q-20 -6 -38.5 -7t-24 0.5t-11.5 -1.5q-20 -1 -30 0q-16 7 -14 29q10 10 51 29q34 15 40 33q10 4 10 23q0 9 -5 34q-4 20 -4 27q0 10 4 22q4 17 4 23q-1 8 -1.5 32.5
t-0.5 35.5l-6 9q4 16 -9 19l-28 47q-19 29 -37 41l-100 139q-5 33 -40 52q-17 9 -64 26q-34 12 -34 25q0 8 10 18l10 1l9 9l69 2q46 1 71 -3q8 -3 21 -11q14 -8 19 -5q37 18 73 18q26 0 56 -9q-1 -40 -23 -40q-9 0 -22 7q-7 4 -23 -14q-10 -12 -18 -25q-5 -9 18 -44
q23 -33 36 -41q5 -16 25 -36q22 -21 28 -34q19 -41 45 -49q7 -1 37 36.5t85 117.5q7 5 12 11t8.5 14t5.5 13.5t4.5 16l3.5 14.5q-8 21 -27 21q-7 0 -20.5 -5.5t-15.5 -5.5q-18 0 -18 25q0 14 8 22q13 0 28 4q18 5 29 7q9 1 15.5 -0.5t9.5 -3.5t4 -2q119 0 157 -7z" />
    <glyph glyph-name="Z" unicode="Z" horiz-adv-x="699" 
d="M602 204q2 -10 2 -15q0 -15 -9 -44q-8 -30 -8 -44q-7 -45 -13 -74q-11 -51 -36 -61q-47 24 -124 23q-75 -1 -82 1q-16 8 -31 8q-7 0 -32 -6t-32 -6q-10 0 -15 1q-10 -1 -30 0q-16 5 -39 3q-26 -4 -39 -5q-21 -1 -37 6q-22 8 -23 8q-16 0 -41 5q-8 11 -8 25q0 40 46 77
q23 20 33 42q2 3 5.5 10.5t4.5 11.5q35 34 41 66q38 35 32 49l5 8q14 10 29 36q0 11 13 27q17 24 19 26q1 6 10 24q5 4 19 18l2 17q1 2 16 21q23 9 26 15q1 7 5 26q7 11 14 27q0 8 4 19q7 1 18 9q8 6 8 22q-2 24 0 26q-11 9 -49 9l-55 -2l-9 7q-4 0 -54 3q-34 2 -54 -5
l-13 -21q-9 -13 -17 -15l-4 -9q-15 -10 -49 -41q-5 -7 -17 -33q-10 -21 -27 -25q-1 1 -5 2.5t-5.5 3t-3 4t-1.5 6.5q0 14 14 59q15 52 16 52q-6 23 -5 27q8 5 19 22q9 31 25 31q4 0 16.5 -5t13.5 -5q7 1 24 -3q18 -2 50 3q7 0 30 -4q20 -2 31 2q15 -8 23 -6q4 1 11 4t10 4
q1 -4 34 -6q13 -1 39 -1l8 7q12 2 27 -1l12.5 -2t10.5 -2t5 -1q18 0 55 6q35 7 54 7q7 0 17 -2q18 -3 18 -20q0 -22 -16 -34q-15 -10 -30 -36t-27 -38q-1 -12 -20 -45q-20 -34 -25 -46q-2 -1 -4.5 -3.5t-6.5 -6t-7 -6.5q1 -5 -0.5 -10t-3 -8.5t-6 -10t-5.5 -8.5
q-7 3 -27 -23q2 -9 -6 -26q-22 -21 -46 -61q-27 -46 -42 -64l-1 -11q-13 -14 -33 -50q-19 -36 -30 -50q-11 -1 -19 -13t-8 -26q0 -11 5 -16q13 -11 54 -11q19 0 26 5q12 0 15 1q16 -16 44 -8q34 -7 73 3q5 -5 9 -5q6 0 15 10q19 -1 54 20q31 19 46 37l49 96l14 6
q2 -5 11 -14z" />
    <glyph glyph-name="bracketleft" unicode="[" horiz-adv-x="470" 
d="M376 -249q-2 0 -9 2.5t-10 2.5t-23.5 -7t-28.5 -7q-14 0 -22 7l-20 5l-10 -6l-21 1q-7 10 -29 9l-8 14q-9 3 -34 -5l-20 10q-5 -5 -42 -9q-40 -5 -56 -5q-8 0 -10 2q-6 3 -6 20t-3 92q-2 94 -2 112q0 80 8 115q-2 8 -7 20q0 7 0.5 18t1.5 20.5t1 10.5q0 21 -21 43
q-3 3 1 21q1 8 5 24q6 4 16 20q4 64 3 188q-4 173 -4 196q10 3 26 16q25 4 35 4q22 0 35 -13q12 0 36 3.5t28 3.5q15 0 36 -8l17 14q10 2 20 1q4 0 9 -0.5t8 -1t4 -0.5l11 6q11 6 15 5q22 -7 30 -6q11 11 21 11q12 0 21.5 -15.5t9.5 -33.5q0 -17 -8 -27q-6 -6 -29 -12.5
t-27 -9.5q-4 8 -21 19q-49 4 -62 4q-44 0 -61 -14q-14 12 -64 12q-25 0 -28 -6q-1 -7 0 -26q2 -15 -7 -31q-1 -9 4 -37t5 -35t-8.5 -25.5t-8.5 -22.5q-10 -87 11 -186q3 -13 -4 -40q-8 -37 -8 -53q0 -31 15 -63q-13 -20 -14 -132q-2 -95 3 -143l16 -12q25 3 36 5l16 -4
q15 7 30 7q24 0 28 -21q22 5 42 2q11 3 29 3q5 0 26 -1t26 -1q33 0 37 15q14 2 24 -9.5t10 -27.5q0 -28 -20 -28z" />
    <glyph glyph-name="backslash" unicode="\" horiz-adv-x="548" 
d="M154 353q-1 9 -24 50q-22 39 -30 44q0 12 -7.5 21.5t-15.5 14.5l-8 5q-9 30 -80 141q23 36 42 36q9 0 17 -4q10 -25 19 -38q-2 -6 -2 -10q0 -21 28 -58l40 -48q9 -35 22 -42l244 -381q35 -55 35 -68q0 -17 -25 -17q-10 0 -15 8q-51 74 -53 76l-4 3q-4 2 -7.5 5t-7 7
t-3.5 6q-1 13 -7 23q-2 2 -8 6t-9 7q-6 5 -14 27t-15 28q-18 15 -37 48q-20 37 -35 49q-8 6 -21 33q-13 26 -19 28z" />
    <glyph glyph-name="bracketright" unicode="]" horiz-adv-x="502" 
d="M453 108q-19 -19 -19 -31q0 -2 4.5 -17t4.5 -22q0 -6 -4 -18.5t-4 -13.5q0 -4 4 -12.5t4 -10.5q-13 -104 -13 -109q0 -32 9 -48l13 -21q2 -16 -12 -33.5t-30 -17.5q-5 0 -25 5t-28 5q-26 0 -59 -13q-10 10 -19 10q-7 0 -21 -8l-47 -3q-49 -5 -67 -13q-23 0 -66 5
q-15 22 -15 39t18 28q4 2 20 -5.5t21 -7.5q9 0 16 7q24 -3 75 5q56 9 70 9q8 0 20 -2q12 5 18 5q3 0 12.5 -4.5t13.5 -4.5q12 0 29 10q15 9 15 25q0 3 -2 16.5t-2 17.5q-3 184 -2 306l2 140q0 32 -3 47.5t-10 14.5q-2 10 6 54q9 45 9 67q0 35 -18 47q2 6 2 11q0 21 -13.5 40
t-30.5 19q-9 0 -19 -7q-11 5 -41 0l-9 5q-59 -6 -79 8q-15 -5 -31 -5h-31q-13 -9 -23 -7q-15 20 -15 50q0 25 18 25q2 0 11.5 -2.5t13.5 -2.5q6 0 13 4q23 -9 42 -10q26 -1 39 -5q8 5 24 6q9 -10 19 -10q7 0 11 6q22 1 55 -3q15 -1 28.5 -2.5t19.5 -2t7 -0.5q5 -1 15 -1
t15 -1q19 -3 21 -17q3 -17 1 -75q-2 -48 6 -75q-4 -20 -3 -33l6 -30q0 -1 -5 -15.5t-5 -19.5q0 -10 11 -18q0 -10 -3 -46q-3 -32 -2 -45q9 -16 11 -89q2 -93 3 -100z" />
    <glyph glyph-name="asciicircum" unicode="^" horiz-adv-x="375" 
d="M163 584l-10 -3q-3 -19 -31 -45q-27 -27 -30 -52q-18 -21 -43 -42q-7 -4 -15 -4q-30 0 -30 25q0 14 18 23q-1 1 -1 4q0 10 10 31q22 13 27 26q2 5 3 33q20 10 37 50l17 40q13 10 34 10q35 0 49 -21q11 -16 24 -40q12 -17 34 -39q3 -3 14 -38q13 -37 30 -49q25 -18 25 -33
q0 -12 -19 -18q-14 -5 -33 20l-24 34q-14 7 -23 14q-10 8 -27 37q-17 27 -20 31q-5 0 -16 6z" />
    <glyph glyph-name="underscore" unicode="_" horiz-adv-x="701" 
d="M663 -172q-26 -33 -37 -35q-43 -3 -133 -2q-85 1 -134 -6q-1 -1 -53 6q-62 8 -95 8q-23 0 -39 -3q-44 -6 -79 -6q-58 0 -69 20q-2 4 -6 23.5t-8 25.5q-10 17 -10 23q0 10 44 28l71 3q43 1 66 9q7 -1 23.5 -7.5t24.5 -6.5q7 -1 25 1t20 2q14 2 38 -3q23 -4 37 -4
q53 4 67 4q5 -1 33 -7q4 -1 42 7q43 8 68 8q56 0 94 -29q12 -9 12 -22q0 -4 -1.5 -14.5t-1.5 -12.5q0 -7 1 -10z" />
    <glyph glyph-name="grave" unicode="`" horiz-adv-x="396" 
d="M272 463l-78 63l-6 11q-21 27 -81 76q-1 1 -13 30q-3 4 -12 12t-13 13.5t-1 9.5q0 10 24 44q13 -2 26 -8q4 -2 62 -84q61 -82 62 -86q14 -33 36 -50q8 -8 8 -19q0 -17 -14 -12z" />
    <glyph glyph-name="a" unicode="a" horiz-adv-x="391" 
d="M355 36q-1 -1 -4.5 -6.5l-4.5 -7t-5 -5.5t-6.5 -5.5t-6.5 -3t-9 -1.5q-19 -17 -26 -17q-51 0 -69 19q-4 5 -6 33q0 25 -14 28q-10 -3 -53 -40q-36 -31 -46 -30q-39 0 -58 12t-33 48q-4 8 -4 19q0 25 45 99q11 4 30 12q8 -1 27 2q3 2 21 24q36 -2 78 29q6 4 8 41t-5 42
q-1 26 -21 43t-47 17q-41 0 -53 -37l3 -7q0 -16 -10 -46q-28 -27 -40 -27q-13 0 -31 19q-1 1 -5 4.5t-6 5.5t-3.5 5.5t-1.5 7.5q0 32 50 68q48 35 103 46q3 -1 18 1q16 9 25 9q1 0 27 -9q9 -2 19 -1t18 -7q28 -28 40 -91q0 -2 -4 -17t-4 -18q3 -25 2 -65q-4 -6 -15 -31
q0 -6 3 -16q4 -12 4 -16q1 -19 1 -56q2 -34 18 -51q19 1 33 20q22 28 28 32q11 -11 11 -24q0 -17 -21 -51zM218 211l-12 6q-15 -11 -49 -27l-40 -36q-24 -26 -21 -45q2 -15 13.5 -30.5t22.5 -15.5q8 0 14 7q73 7 73 107q0 19 -1 34z" />
    <glyph glyph-name="b" unicode="b" horiz-adv-x="475" 
d="M422 114q-16 -23 -56 -71q-8 1 -20.5 -8.5t-16.5 -17.5q-4 1 -17 -6l-18 -10q-8 3 -23 0q-25 -18 -53 -18q-22 0 -60 16q-39 15 -62 17q-16 -12 -27 -12q-21 0 -15 22q7 30 6 52l-6 50q4 35 4 45q0 6 -4 38q-3 31 -3 48q0 23 5 30q5 24 -7 143l6 7q2 37 4 51q1 5 -2 15
q-3 9 -6 79q0 16 -32 22t-32 17q0 6 5.5 13.5t14.5 10.5q4 1 9 2t8 2l2 1l84 53l14 -4q5 -5 14 -26q-5 -40 -10 -112q4 -4 9 -17q2 -10 2 -19q0 -17 -4 -48q-3 -35 -3 -51q0 -32 10 -45q29 4 69 38l8 2q4 -7 8 -7q3 0 11 5.5t10 5.5q7 -1 32 -1q10 -10 24 -11q19 -3 25 -5
q1 -1 49 -29q9 -9 19 -17q6 -17 32 -60q18 -31 16 -80q0 -31 -1 -46q-2 -23 -12 -42t-10 -22zM356 270q-18 4 -21 34q-4 32 -10 40q-14 9 -32 29q-4 0 -31 3q-23 4 -40 4q-20 0 -26 -6q-14 -1 -35 -22q-16 3 -23 -31q-1 -6 -3.5 -19.5t-4.5 -20.5l1 -1q2 -47 7 -74
q-8 -8 2 -17q-4 -17 -7 -77q0 -2 4 -11.5t4 -12.5t-2 -5q9 -9 37 -44q4 0 27.5 -6t30.5 -6q12 0 20 6q6 -3 13 -3q25 0 50 31q24 28 21 41l13 40q8 29 8 44q0 17 -7 27q5 9 4 27q-2 26 0 30z" />
    <glyph glyph-name="c" unicode="c" horiz-adv-x="408" 
d="M374 84q-14 -24 -42 -51l-49 -45q-5 3 -12 3q-4 0 -25.5 -4.5t-28.5 -4.5q-6 -2 -17 4t-15 7q-69 -1 -86 28q-13 -4 -36 16l-30 30q-1 6 -19 30q-16 19 -15 28l-1 11q0 11 -0.5 35t-0.5 52q-8 11 -5 19q14 30 36 88q14 14 42 39q24 19 59 43q1 0 16.5 4t20.5 11q8 1 21 6
q23 -7 37 2q3 0 13 -2t17 -3q3 -5 8 -5q2 0 10 2.5t11 2.5t13.5 -1.5t18.5 -2.5q28 -17 53 -38q5 -12 5 -22q0 -36 -27 -56q-10 -6 -54 24q0 2 -16 27q-13 22 -34 30q-8 -2 -22 -3q-1 0 -16 3q-9 3 -16 -1q-24 -11 -48 -35q-31 -29 -29 -49q-10 -24 -6 -34q-12 -22 -12 -29
t6 -22q5 -11 3 -36q-3 -27 -1 -38q4 -43 46 -75q43 -32 87 -32t70 32q8 3 18 19q7 13 40 16q14 -6 12 -23z" />
    <glyph glyph-name="d" unicode="d" horiz-adv-x="461" 
d="M319 -10q-12 10 -14 37q-2 13 -5 18q-4 1 -24 -15q-26 -20 -27 -21q-5 -3 -21 -5h-2q-19 0 -35 -6q-5 -3 -23 8q-8 2 -24 -4q-11 -2 -31 11q-19 12 -29 12q-2 4 -7.5 7t-11.5 5.5t-7 3.5t-22 26q-18 25 -18 27q-5 19 -8 48q-1 33 -5 49q-1 4 3 23q-2 18 -2 38q9 32 27 51
q1 9 14 30q7 8 50 49q4 1 38 23q25 17 40 17q4 0 10 -2q15 4 53 17q9 -3 39 -10q4 -10 18 -10q10 0 17.5 7.5t5.5 18.5q4 7 4 26q0 11 -3 43q-3 31 -3 47q0 12 2 24q3 11 -26 31q-6 3 -18.5 11t-19.5 11q-8 6 0 17q14 4 44 20q6 5 19 13q6 -1 23 2q3 1 14 15t16 14q3 0 6 -3
q20 -18 17 -61q-4 -52 1 -68q1 -7 0 -17q-3 -15 -3 -17q1 -60 -3 -178q-4 -9 -8 -25q-1 -9 1 -43q3 -35 3 -45q1 -1 -1 -43q-3 -53 -3 -82q0 -62 11 -79q4 -5 18 -14q23 -13 23 -27q0 -27 -27 -27q-3 0 -7.5 2t-14.5 3.5t-26 0.5q-29 -2 -38 -4zM305 362q-19 19 -88 39
q-10 2 -14 2q-17 0 -34 -13q-21 -16 -34 -24q-15 -11 -39 -61q-6 -13 -6 -27q2 -20 0 -25q-6 -24 -6 -25l9 -39q-2 -8 -2 -15q0 -42 30 -73q-2 -18 17 -27q24 -10 28 -16q19 -8 49 -8q17 0 21 6q21 -1 44 26q6 2 12 7q18 24 22 175q1 46 -9 98z" />
    <glyph glyph-name="e" unicode="e" horiz-adv-x="419" 
d="M86 160l1 -3q1 -3 3 -11t4 -15q4 -16 17 -24q5 -34 68 -56q7 -3 24 0t26 1q12 5 72 34q8 6 20 29q12 22 23 22q23 0 23 -26q0 -30 -35 -74q-14 0 -23 -10t-16 -17q-7 3 -13 3q-12 0 -28 -21q-2 -4 -16 -8.5t-15 -5.5q-10 2 -15 2q-4 0 -19 -3.5t-22 -2.5q-7 0 -33 8
q-20 8 -32 6q-12 -1 -25 12q-12 16 -19 24q-5 19 -36 59q-26 36 -27 63q-5 117 8 137q2 4 7 29q1 13 12 40q13 8 27 29q4 -2 5 -2q5 0 13 11l10 16q5 4 24 6q19 1 28 21q30 11 55 11q40 0 80 -26q16 3 18 3q58 -30 75 -101l8 -29q0 -22 -52 -16q-5 1 -16.5 -3.5t-14.5 -4.5
q-6 3 -18 3q-31 -10 -46 -10q-17 0 -35 7q-10 -1 -42 -1q-27 9 -45 9t-18 -15q1 -1 -1 -32q-2 -26 0 -41q3 -21 11 -27zM117 298q6 8 54 5q5 -3 16 -1q3 0 5.5 0.5t4.5 1t3.5 0.5h2.5q12 -2 15 -2q28 0 28 21t-24 46q-22 25 -45 25q-27 0 -56 -29q-4 -11 -10 -21
q-21 -32 -21 -38q0 -9 14 -9q8 0 13 1z" />
    <glyph glyph-name="f" unicode="f" horiz-adv-x="271" 
d="M344 619q-14 0 -31 12q-26 20 -27 20q-6 14 -18 20q-16 8 -18 11q-37 3 -77 -17q-27 -14 -31 -59v-71q0 -10 -4 -35t-4 -44q0 -51 35 -48q5 7 21 8q12 2 32 0q6 0 11 -0.5t9.5 -0.5t3.5 0q3 -4 6 -4q2 0 10 6t11 6q13 0 14 -25q1 -16 -4 -22.5t-25 -11.5l-30 -6l-8 2
q-8 3 -15 5q-11 4 -22 4q-3 0 -11 -2q-10 5 -16 5q-20 0 -20 -34q0 -8 2 -27t2 -20q1 -150 6 -224q4 -11 18 -27q13 3 29 -6.5t16 -21.5q0 -21 -16 -21q-9 0 -19 9q-1 -1 -5 -1q-6 0 -33 7q-25 7 -44 7q-13 0 -42 -11q-19 -8 -28 -8q-21 0 -21 20q0 24 31 34q3 3 23 18l4 12
q-2 53 -3 46q5 85 5 109q0 66 -11 82q-1 4 4.5 19t5.5 19q0 10 -11 16l-2 -1q-2 -1 -5.5 -3t-7.5 -4q-9 -6 -15 -6q-22 0 -22 34q0 33 20 33q3 0 16.5 -5.5t17.5 -4.5l8 10q1 18 1 54t1 54q5 62 32 102q32 47 68 68q27 15 89 30q18 -9 34 -9q1 0 3.5 0.5t7 1t9.5 0.5
q14 2 25 0q23 -3 38.5 -21.5t15.5 -40.5q0 -15 -8 -29q-2 -2 -31 -13z" />
    <glyph glyph-name="g" unicode="g" horiz-adv-x="465" 
d="M466 -79q1 -5 4 -16.5t3 -13.5q0 -8 -7 -15q4 -9 4 -21q0 -50 -68 -106q-5 -5 -14 -5q-2 0 -12 1.5t-14 1.5q-18 0 -28 -15q-7 -4 -29 2q-7 -4 -24 -12q-3 -1 -18 1q-17 3 -19 3q-26 -2 -65 3q-5 -5 -17 -5q-10 0 -42 6q-33 5 -42 5t-15 -2q-8 4 -26 18l-28 40
q-17 26 -17 44q0 15 11 26q0 15 36 41q47 34 49 37q8 3 17.5 10t9.5 13q0 12 -27 12h-9q-4 -1 -9 -1q-19 0 -40 15t-25 32q-5 26 -10 33q-5 37 38 60q5 1 30 3q20 2 20 13q0 2 -2 10q-23 8 -51 47q-27 40 -27 63q0 7 3 11q0 6 4 34q-3 8 -3 20q10 19 22 59q3 3 35 31
q14 -2 27 12q13 13 21.5 16.5t23.5 3.5q41 0 119 -23q8 -11 39 -29q3 2 32 7q20 3 32 24q59 2 59 -38q0 -17 -11 -30t-22 -9l-26 11q-8 0 -16 -7v-24q0 -15 7 -22q4 -11 4 -23q0 -5 -4.5 -27t-3.5 -33q-15 -17 -8 -26q-6 -3 -17 -19t-14 -18q-43 -19 -84 -41q-83 11 -128 -6
l-21 -28q-15 -21 -15 -32q0 -5 1 -6q53 -6 71 -3q20 -5 37 -5q10 0 45 5q36 5 53 4q13 -10 25 -10q2 0 10 1.5t11 1.5q9 0 18 -6q10 -7 30 -8q21 -1 30 -5q23 -11 44 -39zM241 154q17 48 32 82q2 10 -4 34q-7 28 -7 52q0 11 -16 26l-16 16q0 8 -6 22q-14 11 -54 11
q-44 0 -52 -14q-14 -29 -26 -75q-2 -4 3 -23t5 -25l-4 -8q-3 -9 -1 -12q3 -27 16 -64q23 -35 74 -35q31 0 56 13zM299 -32q-44 -6 -106 -11q-10 2 -23 2q-11 -8 -40 -20q-4 -1 -9.5 -11.5t-6.5 -11.5q-5 -5 -11 -9.5l-8.5 -6.5t-3.5 -3q-11 -13 -10 -29q0 -3 -5 -12t-5 -11
q0 -5 16 -18q17 -13 18 -15q5 -8 15 -21q13 -6 38 -22q3 0 20 -2t30 -3q14 -11 32 -4q38 6 92 12q18 14 48 50q1 10 8 34q-2 56 -20 74q-10 10 -69 38z" />
    <glyph glyph-name="h" unicode="h" horiz-adv-x="478" 
d="M256 31q39 2 56 41l-3 84q-1 43 5 83q2 16 2 27q0 65 -31 89q-16 3 -22 5q-18 9 -37 9q-32 0 -63 -19q-1 -1 -22 -40q0 -5 -0.5 -18t-1 -38.5t-0.5 -50.5q3 -23 3 -62q0 -5 -4 -22.5t-4 -22.5q0 -20 24 -36l2 -3q1 -3 2.5 -7t3 -6.5t2.5 -2.5q7 4 15 4q17 0 17 -21
q0 -22 -16 -26q-1 0 -8.5 1t-17.5 2.5t-16 1.5q-7 0 -17 -2q-15 4 -31 4q-10 0 -32.5 -5.5t-27.5 -5.5q-12 0 -22 6q-13 14 -11 25q6 19 24 27q12 4 19 6q14 14 14 38q0 2 -2 28q-2 21 -1 26q0 6 4.5 16.5t4.5 13.5t-4 15t-4 17q0 16 12 31q-4 8 -7 38q-3 28 -1 41q0 3 4 17
t4 20l-1 68q0 7 -3 28.5t-3 27.5q3 12 6 37q-2 46 -5 56q-9 31 -38 31q-12 1 -24 8.5t-12 16.5q0 1 2 7q13 1 26 4t22 6t23.5 9l20.5 8.5t22.5 11l20.5 10.5q18 -16 22 -25q0 -1 2 -31q0 -12 -5 -80q-4 -55 -4 -92q0 -58 12 -81q11 -4 31 -2q5 10 17 22q6 0 18 3q3 2 18 15
q11 10 19 10q3 0 14.5 -4t15.5 -4q6 0 11 4q56 -15 81 -63q1 -25 4 -46q3 -22 11 -44q-7 -15 7 -189q3 -12 12 -29l14 -15q42 -5 42 -19q0 -11 -19 -24q-14 2 -33 0q-19 -4 -26 -3q-5 1 -23 11q-1 1 -7 -1t-12 -5l-6 -2q-4 -1 -28 10q-3 2 -16.5 -5t-16.5 -7q-32 2 -32 24
q0 7 8 15z" />
    <glyph glyph-name="i" unicode="i" horiz-adv-x="238" 
d="M183 659q0 -16 -12 -34q-13 -21 -28 -21q-5 0 -12 5q-18 -12 -30 -12q-25 0 -25 37q0 25 13 48t28 22q35 0 49 -10q4 -8 10 -18q7 -10 7 -17zM174 -6q-4 0 -29.5 4.5t-36.5 4.5q-22 -3 -67 -8q-6 -4 -14 -8q-10 -4 -21 5q-6 4 -6 16q0 13 7 24.5t16 11.5q5 0 9 -4
q39 9 39 40q0 4 -2.5 22t-2.5 24q0 12 3 19l1 44q5 15 5 26q0 7 -3.5 26t-3.5 24q0 13 4 22q3 7 3 15q0 23 -38 40q-37 18 -33 39q2 11 42 14l43 21q6 -2 10 -5q3 -1 7 0q19 25 32 25q16 0 16 -35q0 -39 -15 -58q-2 -2 1.5 -11t3.5 -11q-4 -43 -3 -69q2 -29 0 -53
q-2 -23 1 -36l3 -18q0 -7 -6 -21q-5 -11 10 -23q-5 -8 -5 -16q0 -12 13 -20.5t29 -8.5q7 0 10 1q15 -11 15 -33q0 -14 -11 -22t-26 -8z" />
    <glyph glyph-name="j" unicode="j" horiz-adv-x="232" 
d="M26 573l-3 1q1 0 -13 29q-2 26 0 49q16 21 49 29q12 -12 22 -12q2 0 8.5 1t7.5 1q6 0 13 -5q10 -45 6 -63q-10 -36 -51 -36q-11 0 -39 6zM-20 -256q-5 -1 -15 -1q-26 0 -45.5 15.5t-17.5 38.5q1 15 14 25.5t29 10.5q14 0 25 -8q4 -9 13 -26q11 -20 31 -20q18 0 33.5 14
t15.5 32q0 1 0.5 5.5t1 12.5t0.5 16q2 29 1 32q2 7 -2 160q-3 144 -5 182q1 12 2 37q0 22 -5 34q-3 7 -31 30q-23 20 -23 37q0 7 3 14q11 3 50 19q24 16 37 24q26 15 40 12q12 -4 12 -20q0 -4 -1.5 -16t-1.5 -14l2 -69q0 -11 4 -71q4 -55 4 -93q0 -33 -4 -42q-3 -10 0 -29
q1 -9 5 -29q0 -6 -4 -28.5t-2 -29.5q7 -39 2 -51q-3 -9 -3 -16q0 -4 2.5 -16.5t2.5 -16.5q0 -27 -19 -75q-6 -6 -13 -17q-2 -11 -9 -26l-21 -9q-12 -12 -32 -24q-2 0 -12.5 -1.5t-18.5 -2.5q-25 -8 -45 0z" />
    <glyph glyph-name="k" unicode="k" horiz-adv-x="495" 
d="M191 249q24 3 54 28t45 53q2 4 12 9t12 8q4 7 -11 23q-5 5 -19 8q-19 4 -19 21q0 12 7.5 20.5t18.5 8.5q10 0 19 -9q14 7 36 6q24 -2 37 -3q4 0 23 5t25 5q18 0 27 -19q10 -21 1 -41l-16 6q-20 16 -35 16q-19 0 -50 -37q-73 -87 -92 -106q-5 -7 -5 -11t6 -12
q9 -10 12 -15q8 -18 20 -35q11 -9 50 -63q36 -50 52 -59q19 -3 45 -14q0 -1 3.5 -6t6.5 -11t3 -9q0 -17 -40 -17q-9 0 -36 4q-15 1 -26.5 0t-19.5 -3l-8 -1q-1 1 -17 11q-2 0 -11 -10l-9 -9q-5 2 -19 9q-23 9 -23 25q0 10 8.5 16.5t19.5 4.5h4q-5 2 -5 7q0 4 3 7q5 7 4 11
q-2 6 -8 4q-1 6 -9 18.5t-13 14.5q-4 14 -23 38l-24 27l-25 37q-3 3 -17 3q-1 0 -4 -9.5t-5 -9.5q3 -25 1 -38q-6 -1 -5 -17l3 -22q2 -6 4 -29q0 -8 2.5 -13.5t5 -7.5t9.5 -5.5t8 -4.5q10 -7 18 -25q16 -34 -9 -34q-11 0 -53 13q-4 -2 -9 -4l-6 -3q-3 1 -8.5 3.5t-7.5 4.5
l-23 -9q-7 -2 -24.5 -5.5l-27.5 -5.5q-30 21 -30 37q0 7 4 12q17 -2 31 12q6 6 25 29q5 28 5 63q0 6 -2 44q-1 20 -1 43q0 47 10 71q-1 3 1 32q-6 12 -6 20q0 4 3 15.5t3 15.5q1 5 -1 18q-3 15 -3 19q-2 12 0 41q2 46 2 48q0 42 -11 62q-9 14 -43 33q-24 14 -21 35l52 9
q20 4 49 18q15 7 35 25q12 2 29 -17q-7 -48 -3 -162l-6 -44q0 -18 4 -41q2 -8 -1 -16q-4 -11 -4 -16q0 -3 5 -16t5 -17q0 -8 -8 -14q6 -33 2 -86q16 -13 32 -16z" />
    <glyph glyph-name="l" unicode="l" horiz-adv-x="255" 
d="M187 -2q-8 -4 -20 -4q-4 0 -58 18l-23 -9q-7 -2 -24.5 -5.5l-27.5 -5.5q-30 21 -30 37q0 7 4 12q40 -1 60 23q6 30 1 125q-5 84 7 114q-1 3 1 32q-6 12 -6 20q0 4 3 15.5t3 15.5q1 5 -1 18q-3 15 -3 19q-2 12 0 41q2 46 2 48q0 42 -11 62q-10 12 -43 41q-25 22 -22 43
l52 9q16 3 49 19h16q12 0 20 8q4 0 7 -3t8.5 -11t6.5 -9q-5 -34 -2 -80q1 -27 5 -81q-10 -34 -15 -53l14 -27q2 -8 -1 -16q-4 -11 -4 -16q0 -3 5 -16t5 -17q0 -8 -8 -14q5 -27 2 -65q-4 -57 -4 -66q0 -4 5.5 -26.5t3.5 -38.5q-8 -2 -9 -16v-22q5 -16 20 -47q13 -22 36 -24
q22 -1 27 -14q7 -14 7 -25q0 -17 -20 -17q-12 0 -38 8z" />
    <glyph glyph-name="m" unicode="m" horiz-adv-x="724" 
d="M680 6h-2q-2 -1 -7 -2.5t-9 -2.5q-3 -1 -13 1q-12 3 -14 3q-6 8 -14 8q-10 0 -23 -11q-56 0 -101 -1q-1 6 1 11q7 9 8 12q6 17 33 17l6 4t5 3l2 2q8 8 8 14q1 96 1 146q-1 114 -19 135q-15 6 -23 10q-25 14 -83 16l-37 -37q-19 -21 -17 -47q6 -18 6 -49q0 -18 -3 -56
q-2 -50 -2 -56q0 -24 1 -35q14 -21 10 -36q5 -11 29 -21q25 -10 25 -18t-18 -18l-53 9q-11 0 -23 -5q-3 -2 -14 1.5t-13 3.5q-8 -1 -31 -3.5t-34 -3.5l-22 3q-6 9 -6 17q0 13 22 20q24 6 35 9q9 21 11 25q6 10 6 22q0 -8 -9 39q1 14 1 63q-1 8 1 43q3 29 3 42q0 54 -32 81
q-8 -2 -15 0q-13 10 -24 10q-3 0 -19 -6.5t-24 -7.5q-58 -9 -62 -79q-1 -12 8 -48q9 -33 7 -52q-7 -8 -2 -39q1 -6 -3.5 -25.5t-4.5 -23.5q2 -14 7 -30q8 -23 13 -23q3 0 17 3.5t19 2.5q15 -2 15 -20q0 -8 -5 -15q-12 -16 -31 -15q-9 2 -34.5 5.5t-37.5 5.5q-32 3 -62 -9
q-8 -3 -16 -3q-28 0 -28 22q0 10 10 19q18 0 38 16t24 33v1q0 2 -0.5 6.5t-1.5 10t-1.5 14t-1.5 17.5q-1 7 1.5 26.5t2.5 22.5q0 12 -2 74q-1 31 -1 72q-3 2 -12.5 6.5t-14 7.5t-10.5 7.5t-9 9.5t-3 10q0 3 2 9q108 65 112 62q22 -10 10 -42q-12 -30 5 -38q6 10 17 21
q53 38 78 36q23 10 33 10l34 -6q9 0 18 -4q8 -8 42 -63q4 -3 9 -3q11 0 20 18q14 23 16 24q1 -1 4 -1q4 0 19 15q23 10 54 16q17 0 31 1q1 0 5.5 2t9 3t6.5 1t9.5 -10t10.5 -11h15q22 1 57 -44q9 -10 9 -24q0 -5 -1.5 -12t-3.5 -12l-1 -6q13 -34 15 -46v-2v-4v-6v-8.5
t-0.5 -10.5t-0.5 -12q-1 -97 0 -158q2 -16 8 -17q37 -12 37 -16l-1 -3q-1 -3 -3 -9.5z" />
    <glyph glyph-name="n" unicode="n" horiz-adv-x="478" 
d="M422 -13l-8 1q-6 6 -16 13q-6 2 -13 2q-10 0 -38 -5q-8 -2 -17 -4t-12.5 -3t-4.5 -1q-11 9 -34 7q-21 -1 -22 0q-8 8 -8 18q0 23 23 23q9 0 17 -5q2 -1 5 2.5t7 10.5q3 7 9 19q11 17 11 32q0 3 -2 19t-2 23q4 17 1 53q-2 6 1 51q4 48 4 55q-10 24 -15 35q-9 22 -26 25
q-5 8 -23 8q-19 -2 -24 -8q-8 2 -13 2q-28 0 -59 -22q-4 -3 -10.5 -16.5t-11.5 -16.5q-1 -17 -6 -40q3 -5 5 -51q1 -32 -1 -54q0 -1 -7.5 -16t-5.5 -21q6 -15 19 -21q5 -57 33 -57q7 0 17 5q14 -10 4 -50q-5 0 -28 4t-31 2t-33 -12q-20 -9 -33 -7q-22 15 -35 15
q-4 0 -12.5 -3.5t-12.5 -2.5q-13 3 -13 23q0 29 28 29h8q17 13 22 26q2 10 2 33q0 24 1 47q1 24 1 56q0 99 -28 130q-7 0 -13.5 -0.5t-10.5 -0.5h-7h-4h-1q-3 5 -3 10q0 19 39 45l53 38q8 8 19 21q8 2 12 2q19 0 19 -30l-6 -49q-2 -8 9 -9q10 -2 14 2q3 2 15.5 13l16 14
t15 12t16.5 12.5t15 9.5t17 8.5t15.5 4.5t16.5 2q24 0 51 -10q19 -7 32 -34q12 -30 19 -45q8 -18 8 -87q0 -58 -3 -92q-1 -6 2.5 -23.5t3.5 -20.5q0 -6 -4 -23t-4 -30q0 -10 3.5 -13.5t10.5 -1.5l32 -26q18 -10 18 -22q0 -15 -29 -30z" />
    <glyph glyph-name="o" unicode="o" 
d="M412 172q-14 -10 -15 -21q-1 -5 -2 -11t-2 -8.5t-1 -3.5q-7 -10 -13 -20q1 -8 -3 -21q-13 -18 -22 -29q-14 -14 -66 -33q-51 -18 -73 -23q-14 2 -41 5q-16 14 -48 14q-22 8 -54.5 40t-51.5 67q-4 25 -20 64q-3 28 3 70q8 51 23 62q12 9 29 37q17 8 26 9q13 30 51 44
q22 5 66 17q10 2 12 2q4 0 10 -2.5t7 -2.5t5 2q8 -9 15 -9q3 1 9 2t9 2q19 -3 50 -15q105 -74 105 -177q0 -27 -8 -61zM289 354q-24 36 -81 54q-15 -15 -27 -17q-34 -1 -54 -41q-23 -43 -29 -45q-10 -30 -10 -70q0 -126 83 -164q19 -24 49 -24q18 0 50 12q30 11 33 10
q3 26 18 70q11 38 11 84v47q0 5 -8.5 17t-8.5 13q-2 10 -7 30q-3 17 -19 24z" />
    <glyph glyph-name="p" unicode="p" horiz-adv-x="475" 
d="M350 52q-13 3 -38 -19q-28 -25 -44 -28q-3 -1 -41 1q-28 1 -37 -4q-13 7 -23 7q-19 0 -19 -34q0 -7 1.5 -28t1.5 -25q11 -17 11 -23l-4 -7q-3 -6 -2 -13q-6 -9 -7 -22q2 -8 11 -34q3 -4 11 -30q5 -17 12 -17q5 0 14 10q34 -4 34 -27q0 -10 -13 -17q-5 -3 -20.5 -5.5
t-18.5 -3.5q-32 8 -48 13q-25 7 -46 7q-20 0 -38 -7q-4 2 -21 2t-22 4q-3 6 -3 14q0 14 9.5 24t23.5 10q3 0 11 -2q16 14 17 24v29q0 -1 0 9v20v26.5t0.5 38t0.5 45.5q2 167 1 213q-2 113 -7 120q-10 16 -38 16q-20 0 -20 24q0 16 10 23q20 -3 60 19l59 31q15 -8 17 -36
q1 -34 5 -43h7q5 9 17 22q8 1 14 6.5t10 12t5 7.5q33 21 81 21t80 -21q10 -4 22 -12q8 -11 11 -30q5 -26 8 -31q27 -16 28 -36v-41q0 -1 3 -8t3 -9q-2 -42 -29 -104q-30 -68 -60 -82zM340 296q-2 31 -9 38q-10 -2 -16 -4q-46 34 -70 34q-17 0 -33 -10q-10 3 -16 5
q-22 -15 -46 -40q-3 -3 -2 -46q3 -52 2 -54q-7 -106 -2 -117q2 -5 6.5 -15t7.5 -15q10 -20 21 -21q17 -11 42 -11q32 0 60 16t35 39q31 30 36 59q0 8 2 23t2 22q5 15 5 21q0 4 -2 10l-4.5 14t-3.5 12q-3 33 -15 40z" />
    <glyph glyph-name="q" unicode="q" horiz-adv-x="474" 
d="M302 315q-2 9 -7 34q-8 20 -23 21q-19 17 -48 22q-7 -3 -20 -13q-10 -2 -27 -14t-28 -11q-13 -27 -45 -72q-5 -32 -7 -46q-4 -24 -4 -44q0 -30 12 -54q25 -46 45 -66q30 -30 72 -25q101 12 106 74q0 4 -8 16t-9 18q3 14 5 50q-2 9 -4 59q-2 41 -10 51zM435 -235
q26 -5 26 -18q0 -21 -34 -31q-41 16 -83 13q-3 -2 -13 -7q-3 -2 -12 0l-9 3q-3 0 -22 -2t-26 -1q-8 8 -15 6q-15 -2 -24.5 6t-9.5 20q0 11 9 19l44 15q39 13 39 34q0 10 -7 17l-1 71v-3q2 35 11 68q3 15 -1 51q-4 4 -11 4q-12 0 -47 -24l-33 -8q-2 1 -11 1q-15 0 -46 -6
q-32 -6 -34 -6q-11 5 -22 17q-17 20 -18 21q-17 2 -21 7q-69 76 -69 175q0 58 27 112q4 11 21 28l12.5 13l9 10t4.5 5q6 6 44 28q29 18 35 18t17 -3q10 4 33 5.5t27 2.5q2 0 13 6q9 5 12 4q12 -3 35 -23q20 -17 29 -17q4 0 18.5 5t17.5 5q7 16 26 16q28 0 28 -24
q0 -7 -4 -14q-19 -31 -19 -69q0 -5 2 -35q1 -8 2 -21t2 -17q0 -48 6 -144q1 -10 -3 -23l-6 -23q-3 -22 -2 -61q2 -46 -5 -66q-2 -5 3.5 -17t5.5 -18q0 -3 -2 -13q-6 -20 2 -37q1 -5 1 -25q-3 -12 2 -15.5t25 -5.5q1 1 3.5 -2t6.5 -12q4 -8 6.5 -12t4.5 -3z" />
    <glyph glyph-name="r" unicode="r" horiz-adv-x="344" 
d="M215 1l-12 -10q-12 0 -42 -5l-19 13q-32 -1 -54 0q-7 -4 -26 -7q-1 0 -8.5 4.5t-9.5 2.5q-10 -5 -17 -5q-20 0 -20 21q0 13 11 21q19 5 45 23q12 13 12 31q0 7 -3 23q-2 16 -1 20q1 9 3 92q3 84 2 86q-5 14 -41 34q-35 21 -35 31q0 6 6 11q7 5 30 10q16 3 28 7
q16 11 59 32q3 1 8 1q12 0 12 -19q0 -5 -2.5 -28t-2.5 -29q0 -12 4 -18t12 -5q46 59 50 62q36 36 67 37q23 -7 48 -24q8 -21 8 -44q0 -25 -9 -45q-4 -8 -24 -11q-2 0 -13.5 -5.5t-16.5 -3.5q-23 8 -31 17q-17 16 -29 16q-19 0 -40 -10q-4 -2 -11 -22q-12 -28 -4 -70v-1
q0 -1 -0.5 -4t-0.5 -7.5t-0.5 -11t-1.5 -14.5q-1 -6 3 -23.5t4 -20.5q-1 -9 -1 -26t-1 -25q2 -38 11 -45q12 -10 45 -29q11 -3 11 -9q0 -1 -1.5 -8t-1.5 -10z" />
    <glyph glyph-name="s" unicode="s" horiz-adv-x="327" 
d="M256 59q-6 0 -13 -10q-8 -12 -11 -15q-4 0 -7 -1t-6 -3.5t-5 -4.5t-5 -6.5t-4 -5.5q-5 -6 -47 -17q-40 -10 -42 -17q-32 7 -56 25q-20 2 -43 19q-24 19 -28 36q-1 4 0.5 10t6 16.5t5.5 12.5q2 22 3 34q2 19 22 17q23 -26 23 -50q0 -9 -3 -17l4 -4q-1 -3 -1 -8
q0 -15 18.5 -28.5t37.5 -13.5q14 0 19 8q48 2 59 55q0 8 1 21q-11 26 -21 26l-10 -5l-33 41q-44 4 -73 43l-9 1q-17 15 -38 40q-1 9 -1 27q0 84 84 147q8 -1 30.5 4t26.5 5q21 1 54 -11q32 -12 44 -29q7 -10 1 -52q-2 -37 -13 -46q-5 3 -17 7q-4 13 -12 37q-9 24 -22 28
q-8 23 -28 23q-1 0 -38 -8l-13 -9q-15 -2 -25 -15t-10 -29q0 -31 33 -36q8 -14 38 -29q31 -15 48 -14q7 -8 33.5 -32.5t36.5 -37.5q-1 -9 10 -36q12 -24 12 -42q0 -25 -16 -51z" />
    <glyph glyph-name="t" unicode="t" horiz-adv-x="314" 
d="M273 70q-2 -24 -40 -45q-5 -3 -62 -25q-17 -7 -37 -7q-37 0 -63 22.5t-26 56.5q0 17 7 34q-5 13 -5 53q0 27 5 119q4 64 2 71q-6 5 -25 6q-17 1 -22 6q-7 7 -7 17q0 19 19 31q19 3 51 48l43 63q8 2 13 -5t6 -24q0 -29 1 -44q-7 -4 -7 -23q0 -16 11 -18q2 0 9.5 2.5
t8.5 2.5q12 -2 28 1q5 -3 14 -3q12 0 33 4q23 4 35 4q21 0 21 -13q0 -12 -17 -38q-38 -4 -81 7q-8 2 -12 -4q-39 -2 -44 -14q-5 -16 -4 -49l3 -47q-7 -18 -8 -34q-2 -12 0 -32q2 -32 2 -34l-3 -36q-2 -25 2 -36q5 -21 27.5 -36t44.5 -12q13 5 32 18q4 0 17.5 11t17.5 11
q5 0 10 -9z" />
    <glyph glyph-name="u" unicode="u" horiz-adv-x="484" 
d="M124 10q-44 8 -66 53q-9 16 -9 109v118q-11 23 0 35q-2 5 -3 31q0 10 -7 17q-46 13 -46 43q0 26 45 21q21 -1 84 3q13 -7 13 -29q0 -17 -7 -28q0 -3 -2 -89q-2 -74 -2 -88q1 -49 9 -88q5 -20 26 -41q24 -26 44 -26q10 0 18 8q30 -1 45 24q17 0 31 21t12 43q0 9 -1.5 34
t-1.5 31v95q-7 15 -7 26q0 2 1.5 7t1.5 7q0 5 -1 8q-7 21 -30 29q-27 8 -34 24q-13 25 9 26q5 1 17.5 -3.5t14.5 -4.5q7 0 13 6q4 -4 13 -2l10 2h3q3 0 13 -6q7 -4 10 -1q18 15 30 15q26 0 29 -26v-25q0 -15 7 -25q1 -1 1 -4q0 -2 -7 -14t-8 -16q-4 -196 -5 -249
q-1 -18 13 -18q1 0 13.5 1.5t15.5 0.5q11 -3 18 -15t4 -22q-6 -20 -33 -24l-43 -3q-2 0 -20 -7t-24 -7q-24 0 -24 29v14q1 6 1 13q0 18 -10 24q-7 4 -31 -24q-22 -28 -31 -30q-4 0 -28 -7q-22 -5 -29 -5q-2 0 -9.5 3t-10.5 3q-2 0 -9.5 -6t-11.5 -6q-5 2 -14 15z" />
    <glyph glyph-name="v" unicode="v" horiz-adv-x="465" 
d="M329 222q-6 -2 -15 -9q-7 -5 -7 -34q-7 -7 -16 -22q-2 -6 -17 -33q-1 -6 -8 -25q-7 -7 -15 -19q1 -8 3 -21q0 -5 -9.5 -14t-9.5 -10q-3 -17 -19 -57q-8 -2 -11 -2q-17 0 -21 22l-6 36q0 1 -16 39q-13 31 -19 31q-2 48 -25 102l-46 96q-3 8 -7.5 23l-6.5 22q-10 31 -29 31
q-7 0 -14 -3q-13 9 -13 36q0 18 8 24q2 1 8 -2t12 -7.5t7 -4.5q12 -2 49 2q42 5 46 9q9 -5 32 -3t37 -6q1 -3 1 -8q0 -11 -41 -28q-5 -2 -9.5 -13t-6.5 -12q13 -28 19 -45q2 -19 6 -53l16 -32q2 -7 5.5 -25t5.5 -27q7 -15 32 -50q11 2 24 18q19 62 28 83q13 19 15 30
q1 11 5 28l21 39q4 8 2 38q-16 8 -35 24q-24 20 -24 29q0 4 8 6q38 -3 121 -5q2 1 19 14q17 -6 17 -29q0 -30 -14 -30q-2 0 -12 4.5t-13 3.5q-16 -6 -28 -43q-2 -9 -7 -27t-7 -27q-6 -6 -16 -26q-4 -34 -4 -38z" />
    <glyph glyph-name="w" unicode="w" horiz-adv-x="726" 
d="M464 420q-10 -24 -10 -26l-26 -21q-13 -16 -21 -25q8 -24 13 -43q1 -6 10.5 -20t11.5 -19q1 -9 8 -37q6 -11 19 -45q6 -10 10 -29t13 -28q11 1 25 18q0 3 7 28q5 19 23 45q11 17 13 35q1 18 4 33l21 39q4 10 3 38l-20 8.5t-17 7.5q-25 12 -25 25q0 9 10 18q16 0 44 -3
q29 -3 41 -3q33 0 55 15q18 -6 18 -19q0 -21 -40 -32q-15 -5 -38 -73q-21 -62 -24 -88l-5 -16q-4 -5 -17 -27l-56 -99q-9 -5 -17 -16q3 -9 1 -29q-3 -23 -19 -57q-6 -2 -8 -2q-20 0 -34 62q-13 63 -31 66q-2 44 -22 94l-42 88q-8 -12 -20 -64l-15 -9q-4 -1 -6 -16
q-1 -6 -1 -18l-57 -99q2 -6 4 -21q0 -5 -9.5 -14t-9.5 -10q-5 -25 -20 -57q-4 -2 -7 -2q-20 0 -34 62q-13 63 -31 66q-2 49 -26 102l-46 96q-2 8 -6.5 23t-7.5 22q-10 31 -28 31q-7 0 -14 -3q-13 9 -13 37q0 17 8 23q5 2 13 -5q11 -6 14 -9q12 -2 49 2q40 4 46 9q9 -5 32 -3
t37 -6q6 -20 6 -24q0 -5 -10 -6q-14 -4 -32 -17q-12 -15 -22 -25q10 -11 21 -34q2 -19 6 -53q2 -3 4 -7.5l5.5 -12t6.5 -12.5q1 -6 11 -52q7 -18 32 -50q12 1 24 18l8 28q5 23 20 55q14 20 15 30l5 28q6 8 22 43q3 10 2 22q-3 7 -9 15l-21 9l-10 -3q-6 6 -9 13q-13 9 -13 19
q0 9 10 18h1l6 10q14 -6 22 -11q47 -3 100 8l19 -3q38 2 50 -6z" />
    <glyph glyph-name="x" unicode="x" horiz-adv-x="508" 
d="M297 60q0 6 -5.5 15t-10.5 11q-4 14 -23 35l-23 23q-2 4 -6 16q-2 8 -14 14q-6 1 -10.5 -1t-7.5 -7t-5 -9.5t-4.5 -12l-3.5 -10.5q-27 -35 -29 -38q-20 -29 -20 -43q0 -21 36 -22q18 0 18 -25q0 -15 -20 -15q-11 0 -38 11q-14 -5 -22 -2q-11 3 -23 3q-6 0 -26 -2.5
t-25 -2.5q-12 0 -20 4q-17 6 -17 21q0 14 15 20q79 12 92 64q10 9 25 37q12 24 23 37q6 3 19 12q7 12 0 25q-10 7 -23 21q-3 9 -12 27q-3 2 -12 11q-2 10 -11 20q-20 8 -30 31q-8 21 -12 21q-2 0 -7 -3q-5 3 -42 21q-28 13 -28 31q0 8 4 15q14 6 23 11q47 1 56 -2
q13 -6 22 -6q10 0 35 16q6 -2 13 -2t25 2.5t21 2.5q16 0 16 -19q0 -12 -10 -22q-10 -9 -25 -9q-7 1 -11 -4t-4 -16q0 -8 5 -13q20 -24 70 -77q18 1 48 57q5 6 19 27q6 13 -6 26q-2 2 -34 9q-17 3 -17 15q0 9 8.5 16t18.5 7q12 0 23 -11q15 8 36 7q6 0 19 -1.5t19 -2.5
q6 0 27 6t32 6q12 0 21.5 -6.5t9.5 -17.5q0 -2 -9 -7.5t-11 -9.5l-15 -10q-43 -8 -80 -49l-54 -74q-3 -4 -3 -13q0 -21 23 -65l18 -14q12 -9 50 -59q34 -48 49 -56q13 -7 36 -18q23 -9 23 -23q0 -22 -44 -22q-6 0 -26 2.5t-26 2.5q-8 0 -20 -2q-16 -4 -17 -3t-17 11
q-19 -7 -61 -19q-5 2 -19 9q-18 7 -18 22q0 13 12 23.5t24 8.5q1 0 7.5 -3t13.5 -5.5t11 -2.5q13 0 13 9q0 5 -8.5 10.5t-13.5 4.5z" />
    <glyph glyph-name="y" unicode="y" 
d="M434 435h25l-6 -28q-4 -9 -21 -20q-17 3 -33.5 -14t-30.5 -53q-11 -32 -35 -96q-7 -12 -12 -29q-4 -17 -8 -27q-5 -10 -19 -29q-10 -16 -13 -34q-17 -20 -17 -35q-2 -32 -3 -36q-5 -7 -16 -28q-1 -12 -6 -37q-1 -2 -6 -9t-8 -13q-10 -21 -20 -64q-11 -43 -21 -66
q0 -15 -6 -44q-16 -33 -49 -40l-6 3q-12 -9 -28 -9q-27 0 -50 21q-24 20 -19 43q26 31 35 32q11 11 23 11q15 0 27 -16q0 -4 5 -16q33 5 40 39l12 62q2 16 7 38q23 63 23 75q0 26 -19 48q-2 5 -8 16q0 1 -9 30.5l-14 45.5q-5 10 -16.5 36.5l-18.5 41.5q-9 33 -11 39
q-7 13 -17.5 45t-15.5 42q-19 27 -35 22q-3 -1 -8 -1q-13 0 -22 11.5t-9 25.5q0 20 17 28q10 -18 42 -18q20 0 55 7t51 7q14 0 21 -4q29 3 29 -19q0 -16 -22 -15q-10 -7 -29 -11q-10 -9 -10 -21q0 -10 10 -31q11 -24 11 -33q11 -5 15 -28q1 -13 5 -37q23 -14 26 -56
q5 -41 32 -54q4 0 16 46q12 47 16 55q8 10 18 30q2 22 10 53q2 6 15.5 20t13.5 18q0 9 -32 18q-2 1 -9.5 13.5t-9.5 12.5q-14 -11 -21 -6q-7 4 -7 19q0 22 12 30q16 -8 40 -8q19 0 47 4t43 4q3 6 7 6q1 0 11.5 -7t15.5 -6z" />
    <glyph glyph-name="z" unicode="z" horiz-adv-x="399" 
d="M173 12q-14 -20 -27 -20q-4 0 -29 7q-5 2 -37 0q-7 1 -25 3q-36 -10 -38 -10q-10 10 -10 25q0 12 8 28l6 2q14 15 31 64q17 47 36 65q29 27 45 64q27 65 30 70q7 7 12 14q3 14 13 33l5 2.5l8 4l9 4.5q1 2 1 5q0 5 -6 5q-13 0 -21 -11q-7 7 -24 5q-19 -1 -33 7
q-5 3 -13 -2q-14 6 -39 -7l-16 -10q-2 -7 -8 -19.5t-8 -18.5q-12 -27 -25 -27q-17 0 -17 38q0 6 2 34q0 6 0.5 12t1 9t0.5 4q0 75 34 75q8 0 16 -4q1 -5 -4 -16t-5 -12q0 -4 8 -9h26q6 0 56 -3q36 -3 57 1q9 -4 26 -5q5 3 16 8q9 -3 27 -3q9 4 18 4q10 0 29 -14q8 -7 7 -19
q-2 -13 -7 -20q-16 -16 -37 -47l-2 -24q-21 -11 -44 -64q-10 -24 -29 -53t-29 -55q-4 -10 -18 -30q-15 -21 -18 -29q-23 -12 -23 -23q0 -6 9 -14q4 -1 14 3l11 4q7 -1 22 -2q13 -1 21 5q7 0 24.5 -2.5t20.5 -2.5q12 0 24 6q36 18 49 55q4 13 12 35.5t10 29.5q3 6 18 2
q11 -11 15 -28q3 -14 -1 -34q-5 -32 -5 -33t0.5 -4.5t1 -9.5t0.5 -11q3 -20 3 -29q0 -18 -7 -22q-3 -3 -18 2q-15 6 -18 6q-11 2 -44 -3q-29 -4 -49 -4q-35 0 -49 13z" />
    <glyph glyph-name="braceleft" unicode="{" horiz-adv-x="356" 
d="M215 -254q-16 -10 -38 -10q-37 0 -68 27q-29 7 -57 33q-32 29 -28 56l-9 10q-1 4 -1 15q0 50 29 135q30 86 58 114l-1 7h4l8 15q-2 17 10 21l-5 6q17 23 17 54q0 16 -5 36q-12 16 -24 28q-28 6 -37 22q-20 -3 -35.5 5t-15.5 18q0 17 32 15q5 0 18 4q10 3 16 -2
q38 29 38 69q0 23 -15 70l-10 11q-5 18 -44 124q-31 80 -31 130q0 39 17 73q9 4 16.5 10.5t12.5 13.5t6 8q15 12 47 21.5t58 9.5q19 0 28 -6l3 -18l-11 -10q-19 -1 -28 1l-79 -38q-17 -13 -19 -93q14 -33 16 -57l15 -20q2 -16 13 -47q12 -32 19 -48q13 -10 28 -74
q17 -62 12 -82q-5 -26 -32 -42q-43 -27 -45 -29q17 -13 51 -37q38 -29 38 -59q0 -14 -7 -27q3 -8 -10 -40q-13 -36 -15 -44q-13 -17 -17 -42q-8 -41 -9 -45l-6 1q-10 -21 -20 -64q-26 -21 -22 -64q-4 -2 -8.5 -16t-9.5 -17q2 -4 2 -18.5t1 -17.5q6 -6 16 -26l55 -32
q0 -2 48 -9q30 -6 30 -29z" />
    <glyph glyph-name="bar" unicode="|" horiz-adv-x="131" 
d="M83 389q-2 -2 -2 -11q0 -4 1.5 -23.5t1.5 -24.5q0 -10 -1 -13q-5 -17 -5 -35q0 -6 1 -26t1 -26t-3.5 -24t-3.5 -22q0 -3 5.5 -21.5t3.5 -24.5l-8 -28q0 -7 7 -20q2 -5 -2 -14l-5 -15q-3 -19 -4 -93q0 -11 -13 -17q-11 -5 -21 0q-12 5 -12 79q0 441 -3 453q7 13 -4 47
l4 43t3 29.5t1 9.5q0 41 -16 51q1 10 -4 42q10 18 28 18q13 0 38 -12q0 -133 10 -162q0 -2 -5 -13.5t-5 -17.5q0 -10 6 -21q-4 -7 -1 -53q3 -47 7 -55z" />
    <glyph glyph-name="braceright" unicode="}" horiz-adv-x="391" 
d="M341 -138l-9 -10q4 -27 -28 -56q-28 -26 -57 -33q-31 -27 -68 -27q-21 0 -38 10q0 23 30 29q47 7 49 9l54 32q3 4 16 26q-2 12 3 36q-5 3 -9.5 17t-8.5 16q4 43 -22 64q0 12 -8 33q-9 21 -12 31l-6 -1q-1 4 -9 45q-4 25 -17 42q-2 8 -15 44q-13 32 -10 40q-7 13 -7 27
q0 30 38 59q34 24 51 37q-4 3 -44 29q-28 17 -33 42q-4 19 11 82q17 64 30 74q13 31 31 95l15 20q1 19 16 57q-2 80 -19 93l-79 38q-9 -2 -28 -1l-11 10l3 18q11 6 28 6q26 0 58 -9.5t47 -21.5q4 -3 13 -16q6 -10 22 -16q17 -34 17 -73q0 -50 -31 -130q-39 -106 -44 -124
l-10 -11q-15 -47 -15 -70q0 -40 38 -69q6 5 16 2q15 -4 18 -4q33 1 33 -15q0 -10 -15.5 -18t-36.5 -5q-9 -16 -37 -22q-8 -8 -23 -28q-5 -20 -5 -36q0 -32 16 -54l-5 -6q12 -4 10 -21l8 -15h5l-2 -7q29 -28 57 -114q30 -84 30 -135q0 -11 -1 -15z" />
    <glyph glyph-name="asciitilde" unicode="~" horiz-adv-x="0" 
d="M-60 579q-14 -32 -19 -33q-10 -2 -32 -21q-20 -17 -54 -17q-21 0 -42 4q-1 1 -50 30q-28 17 -46 17q-24 0 -53 -29q-28 -28 -39 -28l-22 14q-6 4 -6 19q0 41 16 57q9 9 26 19q23 12 34 22q5 -4 30 4h28q3 -1 15 -12q7 -6 11.5 -8t11 -2.5t12.5 -2.5q11 -4 18 -4
q5 0 22 -11q16 -10 22 -10q12 -6 22 -6q28 0 49 52q18 12 20 12q1 0 2.5 -0.5t3.5 -1t5 -1t6.5 -1t7.5 -0.5h8q8 0 8 -7q0 -4 -8 -26q-8 -23 -7 -29z" />
    <glyph glyph-name="nbspace" unicode="&#xa0;" horiz-adv-x="150" 
 />
    <glyph glyph-name="exclamdown" unicode="&#xa1;" horiz-adv-x="247" 
d="M138 515q-28 -33 -63 -33q-27 0 -49 22q-8 16 -11 23q-10 25 -8 34q7 26 26.5 46.5t43.5 23.5q5 1 16 -5l16 -9q39 -17 39 -53q0 -19 -10 -49zM112 195q-6 -65 -3 -105q0 -1 0.5 -4t1 -9.5t0.5 -12.5q3 -26 3 -44q0 -73 -34 -89q-6 -4 -20 -2t-20 0q-25 16 -26 23
q-3 25 -9 97q6 27 13 73q9 42 12 57t2 15q5 40 1 58q-4 25 -4 34q0 15 12 24q-3 19 -3 44q1 3 3 8t2 6v2l-2 -2q0 2 5 17l9 38q5 23 21 23q6 0 13 -3l6 -62q0 -39 4 -83q15 -85 13 -103z" />
    <glyph glyph-name="cent" unicode="&#xa2;" horiz-adv-x="381" 
d="M164 66q2 224 -3 237q6 10 -4 32l1 4q-44 -35 -50 -76q0 -1 -1.5 -7l-2.5 -10q-7 -7 -5 -22q3 -22 2 -23q-1 -8 -1 -22q0 -24 27 -78q17 -32 37 -35zM218 239q-3 -1 -3 -7q0 -2 2 -15.5t2 -17.5t-3 -16.5t-3 -16.5t1 -17.5t1 -17.5q0 -5 -3 -17t-3 -14t4.5 -14.5
t2.5 -17.5q-3 -7 -6 -16q8 2 13 8q20 -2 46 26q25 28 36 30q11 -8 11 -27t-9.5 -36.5t-24.5 -22.5q-1 0 -5 -1t-7.5 -1.5t-7.5 -1.5q-14 -8 -55 -24q-1 -11 -1 -49q-1 -8 -11.5 -11.5t-20.5 -0.5t-10 54v5q-10 0 -29 11q-4 -1 -11 -1l-11 -2q-5 2 -18 13q-11 9 -18 7
q1 16 -22 24q-6 15 -11 23q-7 11 -20 16q-4 23 -21 69l-2 64q23 76 51 114q8 2 15 6.5t18 14t13 11.5q8 2 21 6q3 4 19 13q2 1 26 1q0 29 -14 35q0 12 -4 29q10 12 26 12q11 0 35 -8q0 -50 1 -67h3q8 0 23 7q18 8 23 6q19 -8 30 -15l19 -13l12 -2q18 -14 18 -43
q0 -40 -32 -45q-30 -5 -50 23q-29 38 -40 42q1 -1 1 -3q2 -2 -3 -10t-5 -11q0 -6 5 -14q-3 -4 -1 -37q3 -32 7 -37z" />
    <glyph glyph-name="sterling" unicode="&#xa3;" horiz-adv-x="507" 
d="M192 37q9 2 25 -2q24 -13 56 -11q5 -5 9 -5q3 0 10.5 5t8.5 5q28 6 51 23q26 19 28 46q-1 9 3 25q5 6 20 11q15 4 24 0q9 -8 9 -20q0 -10 -10 -29q-3 -8 1 -50q-4 -21 -5 -24q1 3 1 7q0 3 -11 -11q-2 -2 -4 -5q-20 -26 -36 -30q-11 -3 -29 0q-12 -5 -34 -6q-6 0 -52 5
q-16 10 -25 12q-6 1 -13 0t-18 -1q-5 -3 -25 6t-27 18q-4 -3 -25 -1q-24 1 -46 -2q-1 0 -5 -1t-10 -3t-13 -4q-18 -7 -28 -7q-20 0 -20 18q0 26 37 36q2 2 25 16l6 12q0 18 4 46q3 14 12 30q8 14 8 21q0 8 -6 17q0 3 8 19t8 21q0 8 -9 13q-45 -16 -64 -16q-15 0 -15 18
q0 17 12 32.5t27 15.5q5 0 25 -4t24 -3l10 10l9 72q5 26 39 66q39 45 79 65q28 13 94 27q21 -11 40 -10q31 2 39 0q20 -4 33 -19.5t13 -35.5t-14 -37l-33 -12q-17 2 -29 14q-23 20 -24 20q-2 8 -9.5 15t-14.5 11t-8 6q-40 5 -80 -14q-28 -12 -42 -72q-1 -1 -13 -86
q0 -5 -2.5 -11.5t-4.5 -10.5l-2 -4v-1q2 -3 38 -2q8 9 39 8l40 -3q1 -4 6 -4q2 0 10.5 5t11.5 5q4 0 7 -3q4 -7 3 -22t-6.5 -21.5t-26.5 -10.5q-9 -1 -32 -5q-37 15 -54 11q-12 5 -17 5q-20 0 -24 -31l-3 -48q-2 -19 -10 -49t-11 -52q4 -3 10 -19q12 1 27 0z" />
    <glyph glyph-name="currency" unicode="&#xa4;" horiz-adv-x="318" 
d="M226 200q-5 -13 -26 -41q-5 -2 -16 -11q-10 -3 -23 -12q-36 -4 -42 -4q-27 0 -42 18q-6 1 -20 9q-5 3 -23 34q-14 29 -16 39q-1 9 -6 28q1 3 1.5 12.5t0.5 13.5q6 7 11 21q2 10 17 24q16 17 15 21q5 4 51 30q2 0 7 -1l10 -2l5 -1q23 -1 34 -6q15 -8 28 -17q4 0 14 -5
q29 -26 29 -80q0 -20 -5 -48zM189 267q-2 11 -7 15q-2 8 -6 18q-12 26 -50 26q-16 0 -23 -7q0 -1 -0.5 -2t-1.5 -3.5t-2 -4.5q-1 -1 -3.5 -2.5t-5.5 -3.5l-6 -4q-26 -26 -26 -53q0 -11 5 -26q3 -10 22 -20q26 -12 29 -15q30 11 36 12q24 11 28 24l7 4q0 1 2.5 7.5t4.5 12.5
t2 10q0 7 -5 12z" />
    <glyph glyph-name="yen" unicode="&#xa5;" horiz-adv-x="522" 
d="M404 239q-1 -1 1 -12q1 -7 -6 -12q-20 -11 -47 -11q-11 0 -33 3l-22 3q-5 -2 -14 -3l1 -1q-2 -12 -3 -67q-1 -56 2 -63q2 -5 15 -14t14 -10l31 -11q9 -11 9 -23q0 -10 -7 -16q-21 4 -63 9q-10 -10 -16 -8q-2 2 -19 11q-5 2 -27 -7q-13 -5 -25 -5.5t-15.5 1t-7.5 -1.5
q-12 -1 -19 0q-11 8 -10 24q4 6 33 23q21 13 26 28q6 3 6 19q0 7 -2.5 27.5t-2.5 21.5q0 5 2.5 20.5t2.5 17.5q2 9 0 24q-4 0 -7 0.5t-5.5 0.5h-4h-2.5h-1l-24 -6l-8 1q-7 0 -24 1.5t-37 2.5q-22 7 -22 11q0 2 5 10q2 8 8 19q8 14 73 6q16 -1 44 0q-1 6 -6 8l-22 45
q-13 0 -18 -1q-64 -7 -74 6q-2 10 -7 20q-5 8 -5 9q0 4 22 11q7 1 24.5 1.5t26.5 0.5q-47 85 -54 94q-3 36 -46 55q-42 19 -42 30q0 5 5 15h7l6 8l45 2q30 2 45 -3q1 0 12 -7.5t14 -5.5q24 15 47 15q16 0 37 -8q-2 -32 -15 -32q-6 0 -14 5q-5 4 -12 -4t-15 -28q-3 -7 12 -35
q13 -25 23 -35q2 -9 17 -29.5t17 -27.5q5 -12 5 -13h7q7 1 34 1l6 -1l56 99q13 12 22 57q-5 17 -17 17q-5 0 -14 -4.5t-10 -4.5q-11 0 -11 21q0 10 5 17q5 0 20 5l16 5q4 0 7 -0.5t5 -1t3.5 -1.5t2.5 -1l1 -1q77 0 102 -6q3 -7 3 -12q0 -14 -34 -17q-14 -4 -32 -28
q-19 -27 -28 -32q-5 -25 -24 -56q-26 -44 -29 -53q55 7 72 -13q3 -5 2 -11q-2 -9 -1 -10q-12 -12 -18 -14h-87q-15 -26 -17 -36q2 -8 2 -13q22 1 103 -1q5 0 19 -14z" />
    <glyph glyph-name="brokenbar" unicode="&#xa6;" horiz-adv-x="172" 
d="M120 574q-6 -10 -10 -29l2 -28q1 -7 -2.5 -26t-3.5 -21l4 -42q-2 -8 -6 -20q0 -3 6 -27t6 -42q0 -48 -29 -63q-6 -3 -20 -1t-20 0q-26 17 -27 23q-3 19 -1 83q2 53 -6 83l6 34q6 34 6 58q0 10 -2 24q-6 27 -6 49q0 36 16 43q13 2 39 9q14 6 17 6q9 0 22 -27q0 -30 9 -86z
M120 -163q-6 -19 -7 -41q-1 -7 -1 -22t-1 -23q-13 -27 -22 -27q-3 0 -17 6q-14 2 -39 9q-16 7 -16 43q0 22 6 49q2 14 2 24q0 23 -6 58l-6 35q7 30 6 82q-2 64 1 83q2 7 27 24q5 -1 24 0q15 2 22 -7q23 -23 23 -58q0 -18 -6 -42q-6 -22 -6 -27q1 -1 6 -20l-4 -42q0 -3 2 -13
t3 -19.5t1 -14.5l-2 -27q4 -6 10 -30z" />
    <glyph glyph-name="section" unicode="&#xa7;" horiz-adv-x="515" 
d="M52 -25q6 -3 16 -3q4 0 19 2t19 2q8 0 12 -1.5t10.5 -11t15.5 -30.5q12 -26 29 -31q22 -6 37 27l18 51q2 8 -1 14q-7 18 -52 57q-39 33 -47 63q-3 14 -21 30q-20 19 -27 29q-11 21 -25 44q-19 34 -26 36q-7 20 -10 49q-1 12 -8 34.5t-7 29.5q0 17 7 39q0 1 1 6t2 17t2 22
q3 24 28 55q16 14 39 40q3 4 6.5 20.5t8.5 20.5q4 4 27 9q16 4 22 22q14 3 49 32q34 30 68 39q11 2 39 4q29 0 35 -8q6 1 17.5 -5.5t15.5 -11.5q36 -15 36 -66q0 -27 -13 -43q-14 -20 -40 -20q-1 0 -12.5 -6.5t-15.5 -5.5q-5 1 -40 38q-2 9 3 28.5t5 21.5q0 14 -14 23
q-21 4 -52 -18t-31 -47q0 -20 22 -33q11 -41 24 -60q13 -18 49 -50q1 -8 3 -14.5t7 -12.5l7 -8.5t10.5 -9.5t9.5 -8q0 -10 24 -49q25 -39 29 -40q-2 -19 15 -57q1 -4 0 -23q-3 -24 -3 -25q2 -28 0 -87q-6 -36 -28 -74q-3 -2 -16 -17q-4 -6 -9 -27q-3 -17 -15 -27
q-1 0 -75 -68q-56 -53 -71 -57q-17 -5 -25 -5q-7 0 -49 16q-6 -3 -23 -5q-20 4 -49 33q-26 26 -28 48q0 15 14.5 34t31.5 29zM168 234q8 -13 15 -31q12 -2 22 -25q9 -21 16 -35l58 -68q7 -11 28 -16q19 9 19 31q0 20 -15 48l-15 30q-8 40 -46 91q-3 4 0 11q3 10 2 12
q-1 4 -6.5 10l-11 12t-6.5 7q-1 7 -8 22l-57 79q-3 4 -6 16.5t-4 14.5q-8 5 -16 19q1 11 1 31q-2 18 -18 14q-20 -5 -23 -12q-7 -15 -7 -41q0 -71 31 -117q2 -2 16 -18q2 -22 8 -44q1 -2 16 -17q10 -10 7 -24z" />
    <glyph glyph-name="dieresis" unicode="&#xa8;" horiz-adv-x="256" 
d="M175 510q-4 8 -24 35q-15 19 -15 38q0 43 32 45q11 8 23 8q20 0 35 -25q16 -23 16 -47q-2 -15 -18 -26t-22 -22q-4 -7 -15 -7q-7 0 -12 1zM45 539q-23 -17 -39 -24q-4 -9 -14 -9q-18 0 -32 23q-6 8 -3 19q0 7 2 53q1 29 31 37q9 3 16 3q28 0 34 -39q1 -21 5 -63z" />
    <glyph glyph-name="copyright" unicode="&#xa9;" horiz-adv-x="680" 
d="M634 327q0 -1 4 -23q5 -25 5 -40q0 -24 -18 -74q-11 -11 -35 -48t-32 -45l-73 -63q-77 -28 -107 -30q-2 0 -53 -8q-43 -5 -60 -4q-5 3 -35 16q-12 -2 -36 0q-4 1 -16.5 15.5t-16.5 16.5q-33 14 -57 45q-32 43 -43 51q-5 17 -15 41q-25 33 -33 90q-11 52 -11 81
q0 55 25 95q1 1 3 25t10 34q4 5 20.5 13.5t19.5 11.5q14 29 39 63q7 6 19.5 14.5l32.5 22.5l36 25q15 2 41 6h52q30 9 45 7q21 -11 60 -18q45 -9 55 -12q17 -11 49 -26q23 4 73 -46q1 -8 9 -28q15 -12 34 -40q1 -8 17 -62q10 -30 10 -51q0 -28 -18 -55zM614 276q10 29 10 64
q0 86 -55 162q-5 8 -18 9q-27 41 -62 47q-18 44 -54 50q-12 0 -35 1t-35 1q-27 19 -55 15q-63 -13 -92 -26q-42 -21 -107 -76q-5 -5 -10 -20l-5 -20q-17 -20 -40 -59q-12 -56 -12 -91q0 -63 35 -125q6 -9 7 -34q1 -26 14 -42q21 -10 57 -41q16 -22 44 -33l19.5 -8t18.5 -8
q17 -6 58 -7h56q37 1 115 30q60 21 96 85q22 40 50 126zM491 205q-16 -19 -48 -44q-54 -6 -114 -15l-15 3l-12 -3q-7 10 -14 10q-2 0 -5 -3q-53 13 -87 54h-6l-6 5q-5 14 -21 32q-13 13 -11 46q-9 10 -9 27q0 6 3.5 26.5t3.5 24.5l8 21l8 6q14 26 25 59l15 6l9 8q11 3 37 20
q22 15 41 16q12 -1 34 3q29 0 77 -7q7 -3 23 -9q15 -6 23 -4q2 1 7 7t8 6q5 0 15 -6v-3q1 -3 1.5 -9.5t0.5 -13.5q2 -34 2 -41q0 -38 -10 -38q-4 0 -11 7q-1 10 -9 33q-58 45 -76 45h-6q-6 0 -15 6q-8 -5 -17 -5q-5 0 -8 1h-7q-9 0 -13 -6l-20 1q-7 -5 -11 -16
q-19 -7 -44 -41q-25 -74 -25 -106q0 -17 8 -25q36 -101 105 -95q8 -1 49 -10q21 5 41 16q30 16 30 29q9 9 14.5 29.5t11.5 24.5h5q16 -10 16 -34z" />
    <glyph glyph-name="ordfeminine" unicode="&#xaa;" horiz-adv-x="365" 
d="M211 687q0 -2 16 -5q8 -2 12.5 -4t3.5 -4q0 -5 5 -16t3 -19q-4 -8 -13 -30q1 4 4 -17q1 -6 2 -14q1 -18 1 -55q0 -33 16 -50q16 2 27 5q7 4 23 18q2 -2 4 -4.5t3 -4t2 -2.5l2 -2v-1l-17 -30q-1 -1 -4 -6.5t-4 -7t-4 -5.5t-5.5 -5.5t-6 -3t-7.5 -1.5l-16 -12q-6 -5 -7 -5
q-45 0 -61 19q-3 3 -5 33q0 22 -12 27q-13 -7 -47 -39q-32 -30 -40 -30q-37 2 -50 11q-17 12 -31 48q-3 7 -3 18q0 26 40 97q6 4 26 12l31 23q9 5 21 23q49 -2 59 7q3 -4 7 -4q6 0 14 21q7 22 8 22q2 -2 3 -7zM185 622l-10 6q-17 -14 -43 -26q-24 -24 -36 -35
q-21 -25 -18 -45q3 -15 12.5 -29.5t19.5 -14.5q6 0 12 7q45 4 58 50q7 22 5 87zM307 313q-13 -18 -21 -20q-20 0 -82 -5q-5 0 -30 4q-29 4 -55 4q-16 0 -22 -1q-75 -12 -85 7q-2 13 -8 28q-5 12 -5 13q0 6 25 16q28 0 78 6q3 -1 28 -7l25 2q5 0 13.5 -1t17.5 -2.5t12 -1.5
q12 1 38 3q14 -3 19 -4q3 -1 8.5 3.5t7.5 4.5q9 0 31 -16q7 -6 6 -16q-2 -16 -1 -17z" />
    <glyph glyph-name="guillemotleft" unicode="&#xab;" horiz-adv-x="393" 
d="M163 342l-52 -62q-14 -3 -19 -23q-5 -21 -14 -22l-2 -9q1 -4 3 -14q6 -25 17 -50q18 -14 39 -33q28 -38 23 -64q-5 -17 -11 -17q-10 0 -20 22q-8 16 -40 39l-17 13.5t-12 9.5l-4 3q-14 20 -22 23q-15 4 -22.5 13.5t-7.5 32.5q0 31 9 49q10 9 19 19q16 16 24 36q17 0 19 2
q9 5 16 24q8 7 24 19q4 3 7 5t5.5 3.5t4.5 2.5t3 2t2 0h1q6 16 14 16q15 0 15 -26q0 -4 -2 -14zM288 341l-52 -62q-14 -4 -19 -24q-4 -19 -15 -22l-2 -9q0 -1 1.5 -6t2.5 -8q6 -25 17 -50q24 -18 39 -32q28 -38 23 -65q-4 -16 -11 -16q-10 0 -20 21q-7 16 -40 40t-33 25
q-14 20 -22 23q-32 9 -32 43q0 17 7 31q20 25 47 76q18 2 19 2q9 5 16 25l24 18q21 16 23 14q6 15 14 15q15 0 15 -26q0 -5 -2 -13z" />
    <glyph glyph-name="logicalnot" unicode="&#xac;" horiz-adv-x="511" 
d="M425 277q-2 -3 -27 -2q-8 0 -15 0.5t-11 0.5l-3 1q-15 -3 -17 21q-4 40 -6 45q-9 25 -39 25q-21 0 -55 -12q-3 0 -34 7q-35 7 -63 7q-10 0 -24 -2q-73 -18 -77 -18q-20 0 -24 13q-2 6 -8.5 9t-8.5 8q-7 15 -7 23q0 9 29 27l46 3q27 1 44 9q5 -1 15.5 -7t15.5 -7
q-10 1 26 3h3q7 1 26 -3t22 -4q11 2 44 4l10.5 -3.5t11.5 -3.5q2 -1 40 7q41 9 61 9q33 0 33 -20q0 -6 -1 -9q-5 -19 -8 -67q-3 -52 1 -64z" />
    <glyph glyph-name="uni00AD" unicode="&#xad;" horiz-adv-x="363" 
d="M321 170q3 -7 -7 -36q-11 -29 -17 -30q-48 0 -72 1q-67 -1 -77 -11q-15 8 -73 7q-4 8 -32 10q-23 2 -23 19q-1 43 5 48q4 1 9 2.5t8.5 3t5.5 1.5q8 -5 21 -6q97 9 121 -1q1 -1 39 4q45 5 60 5q13 0 19 -3q1 -7 13 -14z" />
    <glyph glyph-name="registered" unicode="&#xae;" horiz-adv-x="680" 
d="M634 327q0 -1 4 -23q5 -25 5 -40q0 -24 -18 -74q-11 -11 -35 -48t-32 -45l-73 -63q-77 -28 -107 -30q-2 0 -53 -8q-43 -5 -60 -4q-5 3 -35 16q-12 -2 -36 0q-4 1 -16.5 15.5t-16.5 16.5q-33 14 -57 45q-32 43 -43 51q-5 17 -15 41q-25 33 -33 90q-11 52 -11 81
q0 55 25 95q1 1 3 25t10 34q4 5 20.5 13.5t19.5 11.5q14 29 39 63q7 6 19.5 14.5l32.5 22.5l36 25q15 2 41 6h52q30 9 45 7q21 -11 60 -18q45 -9 55 -12q17 -11 49 -26q23 4 73 -46q1 -8 9 -28q15 -12 34 -40q1 -8 17 -62q10 -30 10 -51q0 -28 -18 -55zM544 146q-11 2 -36 1
q-24 0 -34 6q-26 -4 -46 11q-19 16 -23 15l-23 40q-14 13 -33 40l-30 43q-19 1 -31 9q-27 -5 -17 -39v-63l10 -19q10 -1 25 -10.5t15 -17.5q0 -3 -4 -7q-4 -3 -29 -2q-25 3 -29 -1q-11 2 -31 3l-10 -8q-3 0 -16 4q-8 2 -16 -4q-28 7 -28 17q0 14 36 18q3 0 5.5 2.5t5.5 9.5
l3 8q2 22 -3 69q3 16 5 85q2 71 -2 83q-6 20 -12.5 24.5t-28.5 5.5q-11 1 -16.5 7.5t-1.5 14.5q3 8 10 11l19 -2q14 -3 40 4q26 -7 41 -5l9 6q17 -3 58 -1q17 -8 34 -3q18 -5 33 -1l36 -21q33 -37 33 -70q0 -53 -85 -93q-1 -4 17 -18q6 -4 21 -24q11 -15 24 -20
q-1 -8 4.5 -13t16.5 -7q30 -30 69 -43q17 -7 38 -13q57 88 57 162q0 86 -55 162q-5 8 -18 9q-27 41 -62 47q-18 44 -54 50q-12 0 -35 1t-35 1q-27 19 -55 15q-63 -13 -92 -26q-42 -21 -107 -76q-5 -5 -10 -20l-5 -20q-17 -20 -40 -59q-12 -56 -12 -91q0 -63 35 -125
q6 -9 7 -34q1 -26 14 -42q21 -10 57 -41q16 -22 44 -33l19.5 -8t18.5 -8q17 -6 58 -7q34 -1 56 0q21 0 59 9q44 11 56 21q43 37 76 81zM379 361l8 5l-3 36q-2 23 -10 34q-3 15 -22 28q-6 13 -21 13q-2 0 -15.5 -2t-16.5 -1l-21 -2q-11 -9 -11 -59q0 -46 7 -61q-5 -11 0 -25
l15 -5q11 4 70 17q4 2 20 22z" />
    <glyph glyph-name="overscore" unicode="&#xaf;" horiz-adv-x="453" 
d="M428 506q-16 -16 -23 -17q-24 -1 -85 0q-57 0 -84 -4q-11 1 -34 4q-32 4 -60 4q-10 0 -24 -2q-27 -3 -50 -3q-36 0 -43 9q-2 9 -10 24q-6 7 -6 12q0 4 28 13q31 -2 87 6q5 -2 30 -7l28 2q6 0 25 -2t23 -2t10 0.5t15.5 1t16.5 0.5q1 0 8.5 -1.5l12.5 -2.5q7 0 28 4t42 4
q49 0 64 -18q3 -4 1 -13q-2 -8 0 -12z" />
    <glyph glyph-name="degree" unicode="&#xb0;" horiz-adv-x="295" 
d="M220 492q-5 -15 -27 -41q-4 -1 -16 -12q-8 -2 -23 -12q-4 0 -20.5 -1.5t-21.5 -1.5q-26 0 -42 18q-6 1 -20 9q-4 3 -22 34q-16 31 -17 39q-3 19 -5 28q0 4 2 26q3 5 10 21q2 10 17 24q17 17 15 21q4 4 51 30q2 1 12 -1.5t11 -2.5q22 -2 33 -6q13 -9 28 -17q1 0 3.5 -1
t5.5 -2l6 -2q28 -25 28 -81q0 -24 -4 -47zM182 559q-2 11 -7 15q-2 12 -5 18q-12 26 -51 26q-15 0 -23 -7l-4 -10l-14 -10q-27 -25 -27 -53q0 -31 28 -46q7 -4 14 -7.5t10 -5.5t4 -2q30 11 36 12q24 11 29 23l7 4q0 2 4.5 14t4.5 16q0 8 -6 13z" />
    <glyph glyph-name="plusminus" unicode="&#xb1;" horiz-adv-x="453" 
d="M162 356q0 2 -4.5 17t-4.5 23q0 22 24 48q9 8 22 7q22 -2 24 -1q26 -17 27 -23q2 -18 -1 -33q-4 -19 -4 -33t1 -21q2 0 6 -5l3 -5q9 -4 20 -6q2 0 13 3t25.5 6t23.5 3q45 0 60 -29q3 -8 2 -20q-2 -18 -1 -20q-17 -26 -23 -27q-41 2 -124 -3q-1 -3 -6 -28q-3 -18 -2 -25
q6 -25 6 -31q0 -13 -16 -20q-13 -1 -39 -9q-14 -6 -18 -6q-8 0 -22 27q0 7 -8 44q4 6 10 30q1 3 -5 11.5t-6 10.5q-31 3 -42 1q-30 -5 -49 -5q-36 0 -43 16q-2 13 -9 38q-6 13 -6 18q0 9 27 22q30 0 86 9q9 -5 30 -11q20 11 23 27zM386 28q-15 -23 -22 -24q-18 -3 -77 -1
q-47 1 -77 -5q-1 -1 -31 4q-33 6 -55 6q-10 0 -22 -2q-28 -5 -46 -5q-34 0 -40 14q-2 17 -8 36q-6 12 -6 16q0 6 26 20q25 0 79 8q5 -3 28 -10q-9 1 26 3q6 0 22.5 -2.5t20.5 -2.5q14 1 39 3q4 -1 19 -6l25 5q23 6 39 6q44 0 58 -26q4 -5 2 -18q-2 -14 0 -19z" />
    <glyph glyph-name="twosuperior" unicode="&#xb2;" horiz-adv-x="289" 
d="M255 504q-9 -1 -11 -19q-2 -19 -9 -24q6 -22 -8 -30l-85 9q-30 0 -49 -10q-6 6 -16 6q-1 0 -18 -3t-22 -1l-7 5l-16 2q1 4 -3 14q2 6 5 10q19 22 55 35q5 4 14 13q13 6 13 10q0 1 -1 2l-2 2q0 1 6.5 10.5t6.5 13.5q0 3 -1 5q4 30 3 31q3 1 1 6t-5 6q2 2 2 4q0 11 -15 14
q-1 7 -13 7q-10 0 -20.5 -5t-10.5 -10q-19 -31 -36 -26l-3 5q-1 15 10 23q-3 5 -2 15q10 13 30.5 28.5t32.5 17.5q3 -1 26 8q5 -5 18 1q7 4 14 4q13 0 28 -18q12 -8 23 -24q3 -7 9 -24q1 -9 0 -18l-4 -16l-32 -32q-2 -7 -10 -14q-15 -3 -25 -12q-4 -12 -19 -15q-8 -2 -5 -6
q7 -11 35 -7q29 5 36 -1l6 6q2 2 9 -1l8 -3q2 -1 4.5 2.5t6.5 12.5q8 18 8 22q11 14 19 14q9 0 15.5 -10.5t6.5 -22.5q0 -8 -3 -12z" />
    <glyph glyph-name="threesuperior" unicode="&#xb3;" horiz-adv-x="277" 
d="M213 550q-7 -1 -13 -15q-2 -1 -28 -13q-9 -12 -27 -20l-2 -5q8 -8 44 -15q32 -8 45 -37q8 -8 8 -12q0 -1 -3 -7t-3 -10q0 -7 -2 -13.5t-8 -14.5t-9.5 -11.5t-13.5 -12.5t-12 -11q0 -1 -7 -10l-12 -2q-12 -12 -21 -12l-4 -5q-33 -12 -81 -10q-7 -5 -11 -5q-22 0 -22 30
q0 12 7 16q43 -2 54 -14l23 2q11 11 29 14l6 7l14 16q4 7 1 23q-2 1 -6 5q-3 2 -5 4q-3 5 -16 23q-4 6 -28 16q-4 0 -11 -4l-12 1q-3 3 -8 3q-2 0 -13 -3t-14 -2q-20 5 -36 8q-4 4 -4 9q0 11 11 20q5 0 22 8.5t18 8.5q5 -2 13 -3q11 9 31 15q17 5 31 26q2 26 -3 28
q-4 12 -20.5 20t-33.5 8q-12 0 -17 -4q-12 -25 -35 -25q-11 0 -18.5 5t-6.5 11q4 1 27 35q24 33 58 48h10q9 5 27 4q47 -13 72 -29h7q2 -2 4.5 -11t3.5 -11q13 -22 13 -35q0 -15 -13 -32z" />
    <glyph glyph-name="acute" unicode="&#xb4;" horiz-adv-x="405" 
d="M223 690q5 -1 20 8t16 9q6 1 27 -6q14 -5 20 -10t6 -6.5v-7.5q0 -21 -29 -41q-30 -20 -149 -150q-15 -16 -24 -16q-14 0 -8 29q4 29 21 40q18 11 20 17q1 4 3.5 12t4.5 12q14 15 49 67q4 13 23 43z" />
    <glyph glyph-name="mu" unicode="&#xb5;" horiz-adv-x="625" 
d="M561 114q11 -13 11 -27q0 -17 -18 -43l-9.5 -13.5l-7.5 -10.5l-5.5 -7.5t-3.5 -5.5l-2 -2q-6 -11 -27 -15q-3 0 -14 -8.5t-16 -7.5q-48 29 -64 79l-26 92q-9 -2 -11 -17q-1 -23 -3 -25q-11 -31 -35 -58q-29 -32 -50 -27l-39 -10q-9 0 -19 6q-33 20 -103 113
q-10 -2 -11 -7q-31 -75 -31 -121q0 -29 11 -62l23 -42q19 -34 19 -56q0 -12 -5 -22q-7 -1 -21 -17q-14 -15 -19 -18q-10 -2 -41 28t-33 41q-10 71 -13 121q-1 11 16 63q3 15 10 69q8 9 22 28q2 16 7 37q9 9 16 18q-1 11 2 36l5 7q4 7 8 15t4 12q0 82 46 146q8 -1 26 -3
q2 0 17 4t21 4q5 0 11 -2q20 -23 20 -50q0 -19 -17 -61q-19 -42 -22 -65q-4 -4 -15 -18q-4 -4 -5.5 -18.5t-2.5 -16.5q-14 -33 -14 -37q0 -10 9 -17q23 -22 52 -22q9 0 13 6q72 22 100 85q18 8 27 28q25 49 54 115q0 24 1 36q1 24 17 25q13 1 31.5 9t20.5 8q7 0 17 -8
q20 -20 20 -39t-22 -56q-1 -14 -9 -42q-10 -8 -28 -31q0 -4 -2 -26q-25 -51 -25 -85q0 -6 2 -10q27 -43 64 -43q34 0 57 38q4 5 9 3z" />
    <glyph glyph-name="mu" unicode="&#x3bc;" horiz-adv-x="625" 
d="M561 114q11 -13 11 -27q0 -17 -18 -43l-9.5 -13.5l-7.5 -10.5l-5.5 -7.5t-3.5 -5.5l-2 -2q-6 -11 -27 -15q-3 0 -14 -8.5t-16 -7.5q-48 29 -64 79l-26 92q-9 -2 -11 -17q-1 -23 -3 -25q-11 -31 -35 -58q-29 -32 -50 -27l-39 -10q-9 0 -19 6q-33 20 -103 113
q-10 -2 -11 -7q-31 -75 -31 -121q0 -29 11 -62l23 -42q19 -34 19 -56q0 -12 -5 -22q-7 -1 -21 -17q-14 -15 -19 -18q-10 -2 -41 28t-33 41q-10 71 -13 121q-1 11 16 63q3 15 10 69q8 9 22 28q2 16 7 37q9 9 16 18q-1 11 2 36l5 7q4 7 8 15t4 12q0 82 46 146q8 -1 26 -3
q2 0 17 4t21 4q5 0 11 -2q20 -23 20 -50q0 -19 -17 -61q-19 -42 -22 -65q-4 -4 -15 -18q-4 -4 -5.5 -18.5t-2.5 -16.5q-14 -33 -14 -37q0 -10 9 -17q23 -22 52 -22q9 0 13 6q72 22 100 85q18 8 27 28q25 49 54 115q0 24 1 36q1 24 17 25q13 1 31.5 9t20.5 8q7 0 17 -8
q20 -20 20 -39t-22 -56q-1 -14 -9 -42q-10 -8 -28 -31q0 -4 -2 -26q-25 -51 -25 -85q0 -6 2 -10q27 -43 64 -43q34 0 57 38q4 5 9 3z" />
    <glyph glyph-name="paragraph" unicode="&#xb6;" horiz-adv-x="535" 
d="M484 605q-7 -7 -14 -5q-8 0 -12 9q-7 13 -53 12q-9 -3 -16 -6h-1l-4 -17q-3 -23 -1 -154q2 -31 -2 -71l-2 -32.5t-2 -25.5t-1 -13q-2 -15 -3 -38q0 -17 5.5 -56.5t4.5 -60.5q2 -5 -1 -38q0 -7 -1 -20t-1 -19l-4 -37q0 -10 1 -32t1 -34q0 -16 1 -32q1 -19 0 -31
q-1 -16 -6 -30l-19 -45q-12 -18 -46 -28q-30 -9 -55 -8q-12 0 -69 22q-41 33 -41 54q0 5 3 10.5t5.5 9.5t2.5 5q-4 8 -4 18q0 20 16 34.5t33 14.5q30 17 48 16q46 -2 44 -61q0 -27 -37 -31q-4 3 -17 6l-23 18q-8 -10 -9 -19q-1 -5 4 -12l10 2q4 -13 14 -18q1 0 3.5 -1t8 -2
l10.5 -2q12 4 35 4q13 -1 21 7t7 20q1 3 1 9q0 4 -4 11.5t-4 8.5q4 8 4 38l1 192q0 7 -7 18.5t-13 11.5q-2 0 -18 1.5l-27 2.5q-16 -2 -22 -2q-22 0 -46 7q-9 2 -21 5t-18.5 4.5l-10.5 2.5q0 2 -1 2l-1 1h-2q-27 15 -27 17q0 4 -24 23h-12q-7 1 -11 8q1 2 1 6q1 3 1 5
q-1 2 -8 9q-49 57 -48 88q0 16 -4 40t-4 41q2 44 13 83l-1 8q2 13 20 30q15 -2 17 11q3 16 7 20q18 16 63 44q53 32 71 29q65 11 198 6q4 0 6 -1l40 4l39 -2q11 0 20 -22q8 -18 6 -30q0 -5 -8 -13z" />
    <glyph glyph-name="middot" unicode="&#xb7;" horiz-adv-x="183" 
d="M130 282q7 -12 11 -23q10 -24 8 -33q-8 -26 -25 -45q-22 -24 -45 -25q-5 -1 -16 5l-16 9q-40 16 -40 53q0 16 11 49q28 33 63 33q26 0 49 -23z" />
    <glyph glyph-name="cedilla" unicode="&#xb8;" horiz-adv-x="434" 
d="M276 -244q-18 -1 -30 -20q-12 -18 -31 -18q-9 0 -14 1q-8 -2 -14 -2q-13 0 -28 7q-6 3 -12.5 5t-9.5 3.5t-4 1.5q-9 2 -18 -1q-12 -4 -19 -4q-16 0 -29 21q-14 20 -14 36q0 27 31 37q6 -1 21 -1.5t22 -0.5q12 -13 62 -58q1 -1 4 -1q9 0 26 11q18 11 18 16v43q0 6 -29 21
q-28 15 -28 23q0 4 3 5q-4 18 20 42q29 30 34 39q-2 7 6 23.5t8 18.5q18 16 49 8l4 -13l-6.5 -13t-7.5 -16q-13 -7 -34 -37t-21 -41q0 -4 6 -3q25 9 43 9q22 0 36 -29q18 -41 15 -46l-14 -23q-6 -9 -22.5 -23t-22.5 -21z" />
    <glyph glyph-name="onesuperior" unicode="&#xb9;" horiz-adv-x="204" 
d="M136 596q0 -1 -0.5 -3t-1 -5t-0.5 -5q-8 -2 0 -13q3 -6 6 -19q0 -1 -5 -23t-5 -29q0 -10 4 -14q-4 -4 -4 -8q0 -6 13 -12q3 -2 9 -4.5t8 -3.5q0 -18 -24 -18q-5 0 -19 1.5t-15 1.5q-2 0 -11.5 -1.5t-13.5 -1.5q-28 13 -46 -1q-8 -1 -26 7q-1 12 3 18q3 1 14 10l11 1
q3 -4 11 -2q9 2 9 6q1 5 -2.5 24t-3.5 24v28q1 2 7 34l-3 3q9 12 -9 19q-6 -2 -13 1l-11 5q-6 -2 -7 -2q-17 0 -17 19q0 7 5 9q2 2 15 -1q9 -1 10 6h48q4 -3 24 -3q19 0 34 1t25 1q14 -14 14 -20q0 -4 -3 -5q-8 2 -19 2q-17 -5 -17 -19q0 -5 6 -8z" />
    <glyph glyph-name="ordmasculine" unicode="&#xba;" horiz-adv-x="365" 
d="M267 313q-13 -18 -21 -20q-20 0 -82 -5q-5 0 -30 4q-29 4 -55 4q-16 0 -22 -1q-23 -4 -29 -4q-11 2 -16 11q-2 13 -8 28q-5 12 -5 13q0 6 25 16q8 0 38 6q3 -1 28 -7l25 2q5 0 13.5 -1t17.5 -2.5t12 -1.5q12 1 38 3q14 -3 19 -4q3 -1 8.5 3.5t7.5 4.5q9 0 31 -16
q7 -6 6 -16q-2 -16 -1 -17zM256 531q-8 -6 -9 -12q-2 -10 -11 -24q1 -3 -1 -12q-2 -2 -7 -7.5t-7 -8.5q-23 -20 -86 -32l-12 1q-8 1 -13 2q-10 8 -30 8q-3 2 -10 5t-11 6q-9 6 -44 49q-3 14 -12 36q-2 20 2 39q5 30 14 35q5 3 18 21q6 2 16 5q10 18 31 25q28 6 41 9
q7 2 13 0.5t8 -0.5q5 -5 20 -3q12 -2 31 -9q65 -41 65 -99q0 -17 -6 -34zM171 622q-12 16 -42 24q-7 -6 -15 -8q-19 0 -29 -19q-10 -17 -14 -19q-5 -15 -5 -31q0 -57 43 -73q10 -10 26 -10q8 0 25.5 5t18.5 5q2 12 9 31q6 17 6 37v21q0 2 -5 7q-4 6 -8 19q-1 6 -10 11z" />
    <glyph glyph-name="guillemotright" unicode="&#xbb;" horiz-adv-x="463" 
d="M422 260q11 -19 11 -42q0 -27 -17 -47q-11 -13 -19 -14q-7 -1 -21 -21q-1 -1 -37 -25q-36 -25 -43 -40q-12 -21 -22 -21q-8 0 -12 16q-6 26 25 65q30 21 43 32q16 21 23 31q0 5 4 14l-2 9q-11 1 -19 31t-23 33q-27 26 -56 62q-3 6 -3 13q0 26 16 26q8 0 16 -15
q2 2 26 -14l26 -18q9 -20 17 -25q1 0 21 -2q8 -19 26 -33zM272 260q11 -19 11 -42q0 -27 -17 -47q-11 -13 -19 -14q-7 -1 -21 -21q-1 -1 -37 -25q-36 -25 -43 -40q-12 -21 -22 -21q-8 0 -12 16q-6 26 25 65q30 21 43 32q16 21 23 31q0 5 4 14l-2 9q-11 1 -19 31
q-6 30 -23 33q-26 26 -56 62q-2 8 -2 13q0 26 16 26q7 0 15 -15q2 2 26 -14l26 -18q9 -20 17 -25q1 0 21 -2q8 -19 26 -33z" />
    <glyph glyph-name="onequarter" unicode="&#xbc;" horiz-adv-x="553" 
d="M259 367q-6 -2 -19 -28q-6 -12 -11.5 -21t-8.5 -11.5t-6 -5.5l-4 -3q-5 -5 -13 -11q-12 -9 -30 -46q-17 -34 -29 -46q-22 -16 -23 -36q-2 -6 -10 -11q-12 -9 -12 -10q-9 -9 -54 -76q-4 -7 -15 -7q-24 0 -24 17q0 14 34 67q80 114 184 278q13 7 22 42l49 57q36 46 36 68
q0 5 -1 8q10 16 19 38q8 4 17 4q19 0 42 -35l-54 -80q-40 -61 -44 -79l-8 -5q-8 -5 -15.5 -14.5t-7.5 -21.5q-11 -6 -14 -32zM136 596q0 -1 -0.5 -3t-1 -5t-0.5 -5q-8 -2 0 -13q3 -6 6 -19q0 -1 -5 -23t-5 -29q0 -10 4 -14q-4 -4 -4 -8q0 -6 13 -12q3 -2 9 -4.5t8 -3.5
q0 -18 -24 -18q-5 0 -19 1.5t-15 1.5q-2 0 -11.5 -1.5t-13.5 -1.5q-28 13 -46 -1q-8 -1 -26 7q-1 12 3 18q3 1 14 10l11 1q3 -4 11 -2q9 2 9 6q1 5 -2.5 24t-3.5 24v28q1 2 7 34l-3 3q9 12 -9 19q-6 -2 -13 1l-11 5q-6 -2 -7 -2q-17 0 -17 19q0 7 5 9q2 2 15 -1q9 -1 10 6
h48q4 -3 24 -3q19 0 34 1t25 1q14 -14 14 -20q0 -4 -3 -5q-8 2 -19 2q-17 -5 -17 -19q0 -5 6 -8zM478 91q-1 0 -5.5 -1.5l-7.5 -2.5q-17 -11 -24 -11q-1 0 -11 5t-18 4q-1 0 -13 3q-9 3 -13 2q-8 -16 -3 -21q-6 -15 2 -23q-3 -5 -2 -11q3 -9 3 -11q7 -6 16 -11v-21
q-5 -8 -14 -4h-22q-3 -2 -9 -4t-9 -4q-3 0 -35 2q-16 3 -17 21l6 13q3 7 5 27l3 1q0 22 -2 42q-4 2 -15 3v-2q-15 0 -29 -1q-5 4 -19 4h-20h-3q-2 -1 -6.5 -2.5t-10.5 -2.5q-16 -4 -21 -4q-12 0 -16 22q-3 18 -2 27q14 5 32 24l29 29q0 6 1 11q16 10 29 24q20 24 24 28
q7 2 25 25q12 6 26 26q10 3 14 6q2 8 9 8q6 0 13.5 -4.5t11 -10.5t0.5 -9q0 -38 2 -44q2 -20 2 -42l-4 -15l6 -4v-40q1 -5 18 -7q16 -1 21 4q12 5 14 19q1 10 12 12q21 0 23 -24q1 -12 1 -35q0 -3 5 -8q3 -3 -2 -12zM309 222q-4 2 -9 1q-3 -3 -21 -25q-7 -2 -16.5 -13.5
t-12.5 -13.5q-7 3 -11 -3l-2 -8q0 -1 -5.5 -6.5t-9.5 -11.5t-2 -10l5 -3q4 0 11 0.5t18 1t19 0.5q1 -4 17 1q12 -8 23 -4q4 14 -4 94z" />
    <glyph glyph-name="onehalf" unicode="&#xbd;" horiz-adv-x="494" 
d="M259 367q-6 -2 -19 -28q-6 -12 -11.5 -21t-8.5 -11.5t-6 -5.5l-4 -3q-5 -5 -13 -11q-12 -9 -30 -46q-17 -34 -29 -46q-22 -16 -23 -36q-2 -6 -10 -11q-12 -9 -12 -10q-9 -9 -54 -76q-4 -7 -15 -7q-24 0 -24 17q0 14 34 67q80 114 184 278q13 7 22 42l49 57q36 46 36 68
q0 5 -1 8q10 16 19 38q8 4 17 4q19 0 42 -35l-54 -80q-40 -61 -44 -79l-8 -5q-8 -5 -15.5 -14.5t-7.5 -21.5q-11 -6 -14 -32zM136 596q0 -1 -0.5 -3t-1 -5t-0.5 -5q-8 -2 0 -13q3 -6 6 -19q0 -1 -5 -23t-5 -29q0 -10 4 -14q-4 -4 -4 -8q0 -6 13 -12q3 -2 9 -4.5t8 -3.5
q0 -18 -24 -18q-5 0 -19 1.5t-15 1.5q-2 0 -11.5 -1.5t-13.5 -1.5q-28 13 -46 -1q-8 -1 -26 7q-1 12 3 18q3 1 14 10l11 1q3 -4 11 -2q9 2 9 6q1 5 -2.5 24t-3.5 24v28q1 2 7 34l-3 3q9 12 -9 19q-6 -2 -13 1l-11 5q-6 -2 -7 -2q-17 0 -17 19q0 7 5 9q2 2 15 -1q9 -1 10 6
h48q4 -3 24 -3q19 0 34 1t25 1q14 -14 14 -20q0 -4 -3 -5q-8 2 -19 2q-17 -5 -17 -19q0 -5 6 -8zM430 73q-9 -1 -11 -19q-1 -20 -9 -24q6 -22 -8 -30l-85 9q-30 0 -49 -10q-6 6 -16 6q-1 0 -18 -3t-22 -1l-7 5l-16 2q1 4 -3 14q2 6 4 10q21 22 56 35q5 4 14 13q12 6 12 10
q0 2 -2 4q0 1 6.5 10.5t6.5 13.5q0 3 -1 5q4 29 2 31q4 1 2 6q-1 4 -5 6q2 2 2 4q0 11 -15 14q-2 6 -13 6q-10 0 -20.5 -4.5t-10.5 -9.5q-19 -31 -36 -26l-4 5q0 15 11 23q-3 5 -2 15q10 13 30.5 28.5t32.5 17.5q3 -1 26 8q5 -5 18 1q7 4 14 4q13 0 28 -18q12 -8 23 -24
l9 -24q2 -9 0 -18q-4 -11 -4 -16l-32 -32q-2 -7 -10 -14q-15 -3 -25 -12q-4 -12 -19 -15q-8 -2 -5 -6q7 -11 35 -7q29 5 36 -1l6 6q3 1 5.5 0.5t6.5 -3t5 -2.5q4 0 11 16q8 18 8 22q11 14 19 14q9 0 15.5 -10.5t6.5 -22.5q0 -7 -3 -12z" />
    <glyph glyph-name="threequarters" unicode="&#xbe;" horiz-adv-x="571" 
d="M308 342q-4 -2 -18 -27q-7 -13 -13 -22t-9 -12t-6 -5t-4 -3l1 -1q-18 -6 -43 -57q-19 -37 -28 -44q-1 -1 -5 -4.5t-5 -4.5t-4 -3.5t-4 -4.5t-3 -5t-2.5 -7t-1.5 -8q0 -5 -9 -11q-12 -9 -13 -10q-5 -5 -54 -76q-5 -8 -14 -8q-25 0 -25 17q0 13 35 68q80 114 184 278
q13 7 22 42l48 56q37 46 37 68q0 3 -2 9q10 11 20 38q8 4 17 4q19 0 41 -36l-53 -79q-39 -60 -45 -79q0 -1 -15 -12q-13 -9 -15 -30q-11 -5 -14 -31zM506 91q-1 0 -6 -1.5t-8 -2.5q-16 -12 -23 -12q-2 0 -8 4.5t-8 4.5h-14q-1 0 -11 3.5t-14 1.5q-7 -16 -3 -20q-6 -15 2 -24
q-4 -4 -2 -10q3 -10 2 -11q8 -7 17 -11v-21q-5 -8 -14 -4q-21 0 -40 -8q-4 0 -36 2q-15 3 -16 21l6 13q3 7 5 27l3 1q0 23 -2 41q-1 0 -6 1.5t-9 2.5l-1 -2q-14 0 -29 -1q-4 2 -18 4h-21h-2q-2 -1 -7 -2.5t-10 -2.5q-20 -5 -21 -5q-11 0 -16 23q-3 18 -2 27q14 5 32 24
q25 25 27 29q2 6 3 11q14 8 28 24l23 27q5 1 27 26q12 6 25 25q13 5 15 7q1 7 9 7q10 0 19.5 -9t5.5 -14q0 -38 2 -44q2 -20 2 -42q-1 -5 -2 -9t-2 -5v-1l6 -5v-39q1 -5 18 -7q16 -1 21 4q11 5 13 19q2 11 13 11q10 1 16 -5t7 -19v-34q1 -3 6 -8q3 -3 -2 -12zM336 222
q-2 2 -8 1l-22 -25q-6 -2 -16 -14t-12 -13q-10 4 -13 -10l-9 -12q-10 -12 -8 -17l5 -3q4 0 11 0.5t17.5 1t18.5 0.5q3 -4 17 1q13 -8 24 -4q3 15 -5 94zM213 550q-7 -1 -13 -15q-2 -1 -28 -13q-9 -12 -27 -20l-2 -5q8 -8 44 -15q32 -8 45 -37q8 -8 8 -12q0 -1 -3 -7t-3 -10
q0 -7 -2 -13.5t-8 -14.5t-9.5 -11.5t-13.5 -12.5t-12 -11q0 -1 -7 -10l-12 -2q-12 -12 -21 -12l-4 -5q-33 -12 -81 -10q-7 -5 -11 -5q-22 0 -22 30q0 12 7 16q43 -2 54 -14l23 2q11 11 29 14l6 7l14 16q4 7 1 23q-2 1 -6 5q-3 2 -5 4q-3 5 -16 23q-4 6 -28 16q-4 0 -11 -4
l-12 1q-3 3 -8 3q-2 0 -13 -3t-14 -2q-20 5 -36 8q-4 4 -4 9q0 11 11 20q5 0 22 8.5t18 8.5q5 -2 13 -3q11 9 31 15q17 5 31 26q2 26 -3 28q-4 12 -20.5 20t-33.5 8q-12 0 -17 -4q-12 -25 -35 -25q-11 0 -18.5 5t-6.5 11q4 1 27 35q24 33 58 48h10q9 5 27 4q47 -13 72 -29h7
q2 -2 4.5 -11t3.5 -11q13 -22 13 -35q0 -15 -13 -32z" />
    <glyph glyph-name="questiondown" unicode="&#xbf;" horiz-adv-x="379" 
d="M221 519q-4 -4 -11.5 -7t-13 -4.5t-16 -3t-14.5 -2.5q-13 -3 -34 23q-24 27 -24 57q0 41 49 69q43 -3 70.5 -21t27.5 -45q0 -31 -34 -66zM225 -49q-4 -19 -13 -19q-3 0 -13 5t-11 5q-2 -1 -4.5 -2.5t-7.5 -4t-8 -4.5q-22 6 -37 6q-4 14 -49 45q-44 30 -51 60q-8 8 -19 39
q-2 7 -13 28q-9 17 -9 27q0 7 4 14q7 15 7 32v9q-1 5 -1 10q0 20 14 45q20 37 37 61l70 24q7 -3 14 -3q25 0 26 57q1 66 10 80l38 7q11 -8 10 -24q0 -4 -4 -28q2 -13 4 -47q-1 -48 3 -135q-6 -21 -26 -21q-4 0 -22.5 3.5t-24.5 3.5q-7 -3 -29 -5q-10 2 -14 2
q-26 0 -44 -21.5t-18 -49.5q0 -34 29 -48q9 -14 45 -14q8 0 30 1.5t24 1.5q14 -7 42 -19q37 -19 37 -54q0 -27 -26 -67z" />
    <glyph glyph-name="Agrave" unicode="&#xc0;" horiz-adv-x="688" 
d="M641 6q-13 -3 -28 -8q-20 -7 -32 -7q-16 0 -25 11q-6 2 -26 0.5t-25 -0.5q-12 1 -36 1q-26 -2 -33 -11q-6 0 -20.5 4.5t-17.5 4.5q-10 0 -17 -9q-8 -2 -38 12q-1 11 7.5 18.5t26.5 12.5q43 11 54 36q5 12 -19 91q-26 87 -26 102q-5 11 -19 24q-21 -7 -23 -6q3 11 -5 13
q-82 5 -92 -11l-7 2q-6 2 -14.5 4.5t-13.5 2.5q-19 0 -29 -16q1 -4 -23 -78q-24 -73 -27 -78q-12 -19 -12 -34q0 -38 80 -52q14 -11 14 -21q0 -21 -45 -21q-6 0 -16 2q-5 8 -19 8q-7 0 -29 -4t-26 -4q-77 5 -96 4l-22 -7q-9 16 -10 28q1 0 8.5 3.5l24 11.5t35.5 16
q39 16 51 49q1 14 15 45q5 8 13 36q4 5 15 25q8 16 25 113q10 10 12 19q3 24 13 45q7 13 19 41q4 9 8 38q3 23 16 39q-7 23 42 117q43 8 78 96q4 4 10 4q27 0 45 -81q1 -8 6 -26l27 -72q3 -8 3 -16v-9q-1 -5 -1 -10q0 -12 10 -22q21 -86 32 -110q11 -7 13 -21v-25
q5 -8 15 -29q2 -15 9 -43q5 -7 17 -28q4 -39 10 -51q9 -15 23 -61q11 -35 24 -50q21 -22 67 -28q9 -15 9 -18q0 -4 -5 -12zM336 397q-1 13 -16 63q-12 40 -12 62q-1 4 -3.5 11l-6 16.5l-6.5 17.5l-13 -3q-10 -7 -22 -42q-5 -16 -17 -48q0 -17 -4 -34q-6 -6 -13 -17
q-1 -5 -3 -24q-2 -16 -11 -24q0 -3 -2 -10.5t-3.5 -14.5t-1.5 -9l8 -8q64 -3 69 1q8 0 16 -0.5t12.5 -1t6.5 -0.5q42 0 42 24t-20 41zM441 659l-78 63l-6 12q-23 27 -81 75q-1 1 -13 30q-3 4 -11.5 11.5t-13 13t-1.5 9.5q0 9 9 18q10 11 16 17q2 -2 11 1l9 3q3 0 5 -2
q4 -2 62 -84q61 -82 62 -86q17 -34 37 -50q7 -6 7 -19q0 -17 -14 -12z" />
    <glyph glyph-name="Aacute" unicode="&#xc1;" horiz-adv-x="688" 
d="M641 6q-13 -3 -28 -8q-20 -7 -32 -7q-16 0 -25 11q-6 2 -26 0.5t-25 -0.5q-12 1 -36 1q-26 -2 -33 -11q-6 0 -20.5 4.5t-17.5 4.5q-10 0 -17 -9q-8 -2 -38 12q-1 11 7.5 18.5t26.5 12.5q43 11 54 36q5 12 -19 91q-26 87 -26 102q-5 11 -19 24q-21 -7 -23 -6q3 11 -5 13
q-82 5 -92 -11l-7 2q-6 2 -14.5 4.5t-13.5 2.5q-19 0 -29 -16q1 -4 -23 -78q-24 -73 -27 -78q-12 -19 -12 -34q0 -38 80 -52q14 -11 14 -21q0 -21 -45 -21q-6 0 -16 2q-5 8 -19 8q-7 0 -29 -4t-26 -4q-77 5 -96 4l-22 -7q-9 16 -10 28q1 0 8.5 3.5l24 11.5t35.5 16
q39 16 51 49q1 14 15 45q5 8 13 36q4 5 15 25q8 16 25 113q10 10 12 19q3 24 13 45q7 13 19 41q4 9 8 38q3 23 16 39q-7 23 42 117q43 8 78 96q4 4 10 4q27 0 45 -81q1 -8 6 -26l27 -72q3 -8 3 -16v-9q-1 -5 -1 -10q0 -12 10 -22q21 -86 32 -110q11 -7 13 -21v-25
q5 -8 15 -29q2 -15 9 -43q5 -7 17 -28q4 -39 10 -51q9 -15 23 -61q11 -35 24 -50q21 -22 67 -28q9 -15 9 -18q0 -4 -5 -12zM336 397q-1 13 -16 63q-12 40 -12 62q-1 4 -3.5 11l-6 16.5l-6.5 17.5l-13 -3q-10 -7 -22 -42q-5 -16 -17 -48q0 -17 -4 -34q-6 -6 -13 -17
q-1 -5 -3 -24q-2 -16 -11 -24q0 -3 -2 -10.5t-3.5 -14.5t-1.5 -9l8 -8q64 -3 69 1q8 0 16 -0.5t12.5 -1t6.5 -0.5q42 0 42 24t-20 41zM322 894q4 -1 18 8q9 6 17 10q4 1 27 -7q13 -4 19.5 -9t6.5 -6.5v-7.5q0 -22 -29 -42q-30 -20 -149 -150q-15 -16 -24 -16q-14 0 -8 30
q6 29 22 39q5 3 9 6.5t6 6t4.5 7t3 6t2.5 8t2 7.5q17 20 49 67q4 16 24 43z" />
    <glyph glyph-name="Acircumflex" unicode="&#xc2;" horiz-adv-x="688" 
d="M641 6q-13 -3 -28 -8q-20 -7 -32 -7q-16 0 -25 11q-6 2 -26 0.5t-25 -0.5q-12 1 -36 1q-26 -2 -33 -11q-6 0 -20.5 4.5t-17.5 4.5q-10 0 -17 -9q-8 -2 -38 12q-1 11 7.5 18.5t26.5 12.5q43 11 54 36q5 12 -19 91q-26 87 -26 102q-5 11 -19 24q-21 -7 -23 -6q3 11 -5 13
q-82 5 -92 -11l-7 2q-6 2 -14.5 4.5t-13.5 2.5q-19 0 -29 -16q1 -4 -23 -78q-24 -73 -27 -78q-12 -19 -12 -34q0 -38 80 -52q14 -11 14 -21q0 -21 -45 -21q-6 0 -16 2q-5 8 -19 8q-7 0 -29 -4t-26 -4q-77 5 -96 4l-22 -7q-9 16 -10 28q1 0 8.5 3.5l24 11.5t35.5 16
q39 16 51 49q1 14 15 45q5 8 13 36q4 5 15 25q8 16 25 113q10 10 12 19q3 24 13 45q7 13 19 41q4 9 8 38q3 23 16 39q-7 23 42 117q43 8 78 96q4 4 10 4q27 0 45 -81q1 -8 6 -26l27 -72q3 -8 3 -16v-9q-1 -5 -1 -10q0 -12 10 -22q21 -86 32 -110q11 -7 13 -21v-25
q5 -8 15 -29q2 -15 9 -43q5 -7 17 -28q4 -39 10 -51q9 -15 23 -61q11 -35 24 -50q21 -22 67 -28q9 -15 9 -18q0 -4 -5 -12zM336 397q-1 13 -16 63q-12 40 -12 62q-1 4 -3.5 11l-6 16.5l-6.5 17.5l-13 -3q-10 -7 -22 -42q-5 -16 -17 -48q0 -17 -4 -34q-6 -6 -13 -17
q-1 -5 -3 -24q-2 -16 -11 -24q0 -3 -2 -10.5t-3.5 -14.5t-1.5 -9l8 -8q64 -3 69 1q8 0 16 -0.5t12.5 -1t6.5 -0.5q42 0 42 24t-20 41zM323 817l-7 -3q-1 -17 -21 -46q-19 -26 -22 -52q-10 -18 -30 -43q-5 -3 -10 -3q-21 0 -21 25q0 13 12 23q-3 5 6 35q17 16 20 27q0 1 2 33
q15 13 25 51q12 40 13 41q7 10 23 10q25 0 34 -21q12 -28 17 -41q7 -15 24 -40q2 -2 9 -38q9 -36 21 -50q17 -19 17 -34q0 -12 -13 -18q-9 -5 -23 21q-5 11 -17 35q-6 3 -16 13q-11 28 -32 69q-2 1 -11 6z" />
    <glyph glyph-name="Atilde" unicode="&#xc3;" horiz-adv-x="688" 
d="M641 6q-13 -3 -28 -8q-20 -7 -32 -7q-16 0 -25 11q-6 2 -26 0.5t-25 -0.5q-12 1 -36 1q-26 -2 -33 -11q-6 0 -20.5 4.5t-17.5 4.5q-10 0 -17 -9q-8 -2 -38 12q-1 11 7.5 18.5t26.5 12.5q43 11 54 36q5 12 -19 91q-26 87 -26 102q-5 11 -19 24q-21 -7 -23 -6q3 11 -5 13
q-82 5 -92 -11l-7 2q-6 2 -14.5 4.5t-13.5 2.5q-19 0 -29 -16q1 -4 -23 -78q-24 -73 -27 -78q-12 -19 -12 -34q0 -38 80 -52q14 -11 14 -21q0 -21 -45 -21q-6 0 -16 2q-5 8 -19 8q-7 0 -29 -4t-26 -4q-77 5 -96 4l-22 -7q-9 16 -10 28q1 0 8.5 3.5l24 11.5t35.5 16
q39 16 51 49q1 14 15 45q5 8 13 36q4 5 15 25q8 16 25 113q10 10 12 19q3 24 13 45q7 13 19 41q4 9 8 38q3 23 16 39q-7 23 42 117q43 8 78 96q4 4 10 4q27 0 45 -81q1 -8 6 -26l27 -72q3 -8 3 -16v-9q-1 -5 -1 -10q0 -12 10 -22q21 -86 32 -110q11 -7 13 -21v-25
q5 -8 15 -29q2 -15 9 -43q5 -7 17 -28q4 -39 10 -51q9 -15 23 -61q11 -35 24 -50q21 -22 67 -28q9 -15 9 -18q0 -4 -5 -12zM336 397q-1 13 -16 63q-12 40 -12 62q-1 4 -3.5 11l-6 16.5l-6.5 17.5l-13 -3q-10 -7 -22 -42q-5 -16 -17 -48q0 -17 -4 -34q-6 -6 -13 -17
q-1 -5 -3 -24q-2 -16 -11 -24q0 -3 -2 -10.5t-3.5 -14.5t-1.5 -9l8 -8q64 -3 69 1q8 0 16 -0.5t12.5 -1t6.5 -0.5q42 0 42 24t-20 41zM497 843q-1 -3 -21 -23q-16 -18 -21 -20l-32 -7q-16 0 -79 10q-4 1 -47 29q-25 16 -43 16q-26 0 -54 -31q-38 -42 -47 -42q-19 0 -19 24
q0 41 16 57q6 7 26 19q23 12 34 22q7 -3 30 4q8 1 27 0q4 0 15 -11q7 -7 11.5 -9t11.5 -2.5t12 -2.5q5 -1 11 -2.5t8 -1.5q5 0 31 -14t31 -15q9 -4 18 -4q7 0 12 4t10 15.5t6.5 17t6.5 21.5q18 12 20 12h1l1.5 -0.5t4 -1l5 -1t6 -0.5h7.5h8q8 0 8 -7q0 -5 -8 -27
q-8 -23 -7 -29z" />
    <glyph glyph-name="Adieresis" unicode="&#xc4;" horiz-adv-x="688" 
d="M641 6q-13 -3 -28 -8q-20 -7 -32 -7q-16 0 -25 11q-6 2 -26 0.5t-25 -0.5q-12 1 -36 1q-26 -2 -33 -11q-6 0 -20.5 4.5t-17.5 4.5q-10 0 -17 -9q-8 -2 -38 12q-1 11 7.5 18.5t26.5 12.5q43 11 54 36q5 12 -19 91q-26 87 -26 102q-5 11 -19 24q-21 -7 -23 -6q3 11 -5 13
q-82 5 -92 -11l-7 2q-6 2 -14.5 4.5t-13.5 2.5q-19 0 -29 -16q1 -4 -23 -78q-24 -73 -27 -78q-12 -19 -12 -34q0 -38 80 -52q14 -11 14 -21q0 -21 -45 -21q-6 0 -16 2q-5 8 -19 8q-7 0 -29 -4t-26 -4q-77 5 -96 4l-22 -7q-9 16 -10 28q1 0 8.5 3.5l24 11.5t35.5 16
q39 16 51 49q1 14 15 45q5 8 13 36q4 5 15 25q8 16 25 113q10 10 12 19q3 24 13 45q7 13 19 41q4 9 8 38q3 23 16 39q-7 23 42 117q43 8 78 96q4 4 10 4q27 0 45 -81q1 -8 6 -26l27 -72q3 -8 3 -16v-9q-1 -5 -1 -10q0 -12 10 -22q21 -86 32 -110q11 -7 13 -21v-25
q5 -8 15 -29q2 -15 9 -43q5 -7 17 -28q4 -39 10 -51q9 -15 23 -61q11 -35 24 -50q21 -22 67 -28q9 -15 9 -18q0 -4 -5 -12zM336 397q-1 13 -16 63q-12 40 -12 62q-1 4 -3.5 11l-6 16.5l-6.5 17.5l-13 -3q-10 -7 -22 -42q-5 -16 -17 -48q0 -17 -4 -34q-6 -6 -13 -17
q-1 -5 -3 -24q-2 -16 -11 -24q0 -3 -2 -10.5t-3.5 -14.5t-1.5 -9l8 -8q64 -3 69 1q8 0 16 -0.5t12.5 -1t6.5 -0.5q42 0 42 24t-20 41zM392 769q-2 4 -24 34q-15 21 -15 39q0 42 33 44q11 9 22 9q21 0 36 -25q15 -24 15 -47q0 -5 -1 -9.5t-4.5 -7.5t-5.5 -5t-7 -5t-7 -4
q-8 -8 -15 -17q-4 -7 -15 -7q-7 0 -12 1zM262 798q-24 -18 -38 -24q-6 -9 -15 -9q-17 0 -32 22q-5 9 -3 20q0 7 2 53q3 30 31 37q12 2 16 2q28 0 34 -38q4 -42 5 -63z" />
    <glyph glyph-name="Aring" unicode="&#xc5;" horiz-adv-x="688" 
d="M641 6q-13 -3 -28 -8q-20 -7 -32 -7q-16 0 -25 11q-6 2 -26 0.5t-25 -0.5q-12 1 -36 1q-26 -2 -33 -11q-6 0 -20.5 4.5t-17.5 4.5q-10 0 -17 -9q-8 -2 -38 12q-1 11 7.5 18.5t26.5 12.5q43 11 54 36q5 12 -19 91q-26 87 -26 102q-5 11 -19 24q-21 -7 -23 -6q3 11 -5 13
q-82 5 -92 -11l-7 2q-6 2 -14.5 4.5t-13.5 2.5q-19 0 -29 -16q1 -4 -23 -78q-24 -73 -27 -78q-12 -19 -12 -34q0 -38 80 -52q14 -11 14 -21q0 -21 -45 -21q-6 0 -16 2q-5 8 -19 8q-7 0 -29 -4t-26 -4q-77 5 -96 4l-22 -7q-9 16 -10 28q1 0 8.5 3.5l24 11.5t35.5 16
q39 16 51 49q1 14 15 45q5 8 13 36q4 5 15 25q8 16 25 113q10 10 12 19q3 24 13 45q7 13 19 41q4 9 8 38q3 23 16 39q-7 23 42 117q43 8 78 96q4 4 10 4q27 0 45 -81q1 -8 6 -26l27 -72q3 -8 3 -16v-9q-1 -5 -1 -10q0 -12 10 -22q21 -86 32 -110q11 -7 13 -21v-25
q5 -8 15 -29q2 -15 9 -43q5 -7 17 -28q4 -39 10 -51q9 -15 23 -61q11 -35 24 -50q21 -22 67 -28q9 -15 9 -18q0 -4 -5 -12zM336 397q-1 13 -16 63q-12 40 -12 62q-1 4 -3.5 11l-6 16.5l-6.5 17.5l-13 -3q-10 -7 -22 -42q-5 -16 -17 -48q0 -17 -4 -34q-6 -6 -13 -17
q-1 -5 -3 -24q-2 -16 -11 -24q0 -3 -2 -10.5t-3.5 -14.5t-1.5 -9l8 -8q64 -3 69 1q8 0 16 -0.5t12.5 -1t6.5 -0.5q42 0 42 24t-20 41zM378 786q-2 -5 -17 -20q-9 -2 -19 -8q-5 -1 -17 -8q-4 0 -18 -4t-18 -4q-11 0 -18 9q-6 2 -14 6q-7 7 -16 25q-9 16 -16 47q1 2 1.5 8.5
t0.5 9.5q0 1 7 16q2 7 12 17q12 11 11 15q6 6 13 9q3 1 6.5 2t5.5 2t3 1q9 5 24 4q18 0 44 -16q6 -2 10 -4q21 -18 21 -57q0 -17 -4 -34zM346 835q-1 4 -4 10t-4 10q-7 16 -32 16q-10 0 -14 -4q-1 -4 -12 -13q-17 -15 -17 -32q0 -19 18 -28q15 -7 17 -9q5 2 10.5 3.5
t8.5 2.5t4 1q15 6 18 14l5 3q0 2 1.5 6t2.5 7q3 8 -2 13z" />
    <glyph glyph-name="AE" unicode="&#xc6;" horiz-adv-x="949" 
d="M385 333q1 76 7 137q4 31 0 74q-10 -4 -15 -17q-6 -17 -12 -25q-10 -24 -30 -61q-7 -6 -18 -18q-4 -6 -11 -24q-4 -15 -18 -24q-3 -4 -17 -33l6 -8q62 -3 70 0q35 -2 38 -1zM524 -9q-16 6 -31 6q-6 0 -24.5 -3t-23.5 -3q-6 2 -10 2q-11 0 -34 -12q-22 -13 -31 -13
q-8 0 -13 6q-12 12 -19 12l-12 -6q-12 -7 -22 -6q-15 22 -16 24q-3 9 -1 28q6 6 36 3l27 12q6 0 15 11t15 10q22 22 12 171q0 4 -4 22.5t-4 24.5v3q-5 -2 -8 0q7 11 -1 13q-61 3 -75 -11l-6 3q-5 2 -13 4t-13 2q-18 0 -34 -16q0 -5 -46 -78q-48 -76 -50 -78q-24 -26 -24 -43
q0 -32 67 -42q8 -10 8 -17q0 -25 -52 -25q-11 0 -15 1q-2 8 -17 8q-11 0 -30 -4t-27 -4q-76 5 -95 4q-2 -1 -10.5 -3t-14.5 -4q-3 13 -1 28q4 3 77 31q46 18 65 49q11 20 29 45q8 10 24 37l24 24q13 19 56 113q14 11 18 19q5 13 13 25.5t25 35.5t19 25q4 5 19 37
q11 23 28 39q-1 18 52 90q-18 20 -27 29q-18 10 -72 12q-23 0 -26 13q-5 19 10 28t50 9q37 0 52 -12q18 0 60 11q5 3 8 3q5 0 16 -7.5t12 -7.5t18 6l2 2l-1 -2q15 5 21 1q17 -11 20 -11l23 11q35 -3 69 -2q12 6 19 6q-2 0 28 -9q4 -1 25 4q20 5 23 9q8 9 16 9q14 0 28 -21
q3 -6 12 -77q10 -68 8 -82q-4 -18 -24 -18q-18 0 -20 36q-11 7 -34 48q-25 45 -35 56l-42 -10q-13 5 -19 10q-2 2 -20 -1q-18 10 -45 -3q-13 -6 -18 -35q0 -27 -1 -41q0 -10 -1.5 -31t-2.5 -31q-4 -53 -4 -94q0 -39 5 -46q17 -3 57 12q36 -3 48 38q13 51 17 68q18 -5 21 -37
q0 -32 1 -49q0 -9 2 -19q7 -20 -1 -32q-11 -17 -11 -31q0 -1 0.5 -3.5t1 -6t0.5 -7.5q1 -10 0 -21q6 -16 6 -32q0 -34 -32 -29q-2 13 -5 37.5t-5 36.5q-10 43 -45 43q-10 0 -21 -3q-22 3 -29 0q-12 -7 -13 -16q1 -11 1.5 -35t0.5 -37l-1 -4q0 -4 -0.5 -11.5t-0.5 -16.5
q-1 -17 -1 -45q0 -104 44 -106q18 -13 31 -3q13 -3 63 -3q4 7 10 7q1 0 7 -2t8 -2q5 0 10 3q11 -9 23 -9q32 0 40 33q13 10 24 31.5t13 23.5q22 19 22 32q0 9 -4 18q23 54 41 54q12 0 23.5 -16.5t11.5 -32.5q0 -18 -13 -40q-2 -5 -4.5 -9.5t-4 -7.5l-2.5 -5t-2 -3l-1 -2
q-2 -34 -9 -98q-3 -16 -29 -21q-4 -1 -40 3q-32 -2 -74 2q-17 3 -53 0q-19 2 -54 0q-41 -2 -57 -9z" />
    <glyph glyph-name="Ccedilla" unicode="&#xc7;" horiz-adv-x="759" 
d="M440 -30q-12 -7 -25 -34q-14 -30 -14 -44q0 -10 8 -7q15 5 23 5q16 0 24 -17l6 -15q5 -15 7 -27.5t2 -30.5q-6 -11 -16.5 -20.5t-19.5 -15.5t-10 -8q-19 -1 -31 -20q-10 -18 -29 -18q-9 0 -14 1q-8 -2 -14 -2q-13 0 -28 7q-6 3 -12.5 5t-9.5 3.5t-4 1.5q-9 2 -18 -1
q-12 -4 -19 -4q-16 0 -29 21q-14 20 -14 36q0 27 31 37q6 -1 20.5 -1.5t22.5 -0.5q12 -13 62 -58q1 -1 4 -1q9 0 26 11q18 11 18 16v43q0 4 -14 18t-14 20q0 4 5 9q-1 5 -1 13q0 20 24 70q-1 4 -5.5 12.5t-4.5 10.5q0 4 1 5q-25 2 -61 17q-9 -2 -36 -4l-33 21q-10 3 -18 3
h-6q-3 -1 -6 -1q-10 0 -27 16q-1 0 -3.5 -0.5t-6.5 -1t-7 -0.5q-1 1 -7 8t-9 11q-8 5 -23 5q-1 1 -15 19q-4 6 -16 12t-14 10q-7 12 -22 29q-17 17 -23 26q-49 67 -49 169q0 38 7 109l28 70q23 53 31 60q11 -2 34 33q22 34 44 34q5 0 11 -2q23 24 43 24q7 0 16 -3q3 4 20 17
q9 -4 22 -5q6 8 23 17q50 10 98 10q67 0 144 -24q12 0 40 -5q3 0 17 4t17 4q10 0 14 -7q1 -11 4 -35t4 -35q4 -20 10 -44q7 -25 7 -45q0 -8 -2 -22q-3 -14 -12 -14q-10 0 -32 22q-10 57 -52 111q-15 -2 -44 19q-30 21 -37 21q-3 0 -5 -2q-6 6 -42 9q-8 5 -15 5t-20 -5
q-17 -7 -19 -7q-7 1 -35 -1q-6 -5 -27 -11.5t-24 -12.5q-21 -4 -33 -5l-10 -22q-2 -1 -8.5 -4.5t-9 -5.5t-6.5 -5.5t-5.5 -7t-0.5 -6.5q-6 -4 -10.5 -8t-7.5 -10.5t-4 -9.5t-3.5 -11.5t-2.5 -9.5q-10 -7 -23 -26q2 -10 2 -23q0 -4 -7 -15.5t-7 -15.5q0 -3 3.5 -13.5
t2.5 -14.5q-3 -15 -5 -29t-3.5 -23t-3 -15.5t-2.5 -9.5v-2q0 -19 23 -76q2 -15 6 -38q8 -6 17 -15q1 -11 11 -35q-2 -11 15 -34q13 -19 26 -29q15 -2 38 -13q26 -12 36 -15q13 -12 39 -16q33 -4 43 -8q12 5 24 5h12q5 -1 13 -1q20 0 39 13q2 -1 7 -1q18 0 40 19q23 19 31 33
q4 0 12 -3.5t12 -3.5q18 0 18 20q0 7 -4 22q-2 16 -1 19q1 6 9 24q7 13 7 23q0 6 -1 9q7 25 23 25q15 0 26 -21.5t11 -51.5q0 -47 -25 -91q-5 -10 -15 -14q-16 -7 -17 -8q-7 -8 -24 -21q-45 -24 -74 -37q-5 -2 -14 0q-11 3 -14 2q-13 -14 -29 -38z" />
    <glyph glyph-name="Egrave" unicode="&#xc8;" horiz-adv-x="738" 
d="M386 -18q-25 5 -36 5q-6 0 -23 -3q-13 -2 -27 0q-4 0 -18.5 5t-20.5 5q-7 0 -15 -3q-16 6 -30 6q-4 0 -22 -2q-4 -1 -27 -4q-6 2 -9 2q-12 0 -35 -12q-22 -13 -31 -13q-7 0 -13 6q-12 12 -19 12l-12 -6q-12 -7 -22 -6q-15 22 -16 24q-3 10 0 28q4 6 36 3l27 12q5 0 14 11
t15 10q23 23 13 171q0 2 -4.5 21.5t-3.5 25.5q0 54 8 190q1 22 0 63q-2 50 -13 53q-34 40 -65 45q-24 5 -27 13q-1 3 -1 10q0 28 38 28q25 0 38 -12q19 0 60 11q5 3 8 3q5 0 16 -7.5t13 -7.5t14.5 4.5t16.5 4.5q2 0 8 -2q17 -11 21 -11l23 11q6 -3 19 -3q14 7 27 9l-48 40
l-6 12q-23 27 -81 75q-1 1 -13 30q-3 4 -11.5 11.5t-13 13t-1.5 9.5q0 9 9 18q10 11 16 17q2 -2 11 1l9 3q3 0 5 -2q4 -2 62 -84q61 -82 62 -86q17 -34 37 -50q6 -6 7 -12q1 1 3.5 1.5t3.5 0.5q23 -11 32 -6q12 5 19 5l1 -1l2.5 -0.5t5.5 -1.5t8 -2.5t11 -2.5q3 -1 24 4
q20 5 23 9q8 9 16 9q14 0 28 -21q3 -6 12 -77q10 -68 8 -82q-3 -18 -24 -18q-18 0 -20 36q-11 7 -34 48q-27 48 -35 56l-42 -10q-53 17 -99 9q-18 10 -45 -3q-14 -6 -17 -35q-1 -7 -1.5 -20.5t-0.5 -20.5q0 -11 -2 -31.5t-2 -30.5q-3 -60 -3 -94q0 -39 5 -46q3 0 14 8t16 8
q3 0 17.5 -6t18.5 -4q26 11 52 9q37 -3 47 37q5 22 17 66q17 -5 20 -37q1 -16 1 -49q1 -11 3 -19q7 -20 -1 -32q-12 -16 -12 -31q0 -1 1.5 -16t1.5 -22q6 -16 6 -32q0 -34 -32 -29q-4 47 -5 68q-4 37 -35 37q-12 0 -24 -4q-3 -1 -12.5 6t-10.5 7q-3 0 -17.5 -4t-18.5 -3
q-2 0 -15.5 4.5t-17.5 4.5t-10 -2q-12 -7 -13 -16q1 -11 1.5 -35t0.5 -37l-1 -4q0 -4 -0.5 -11.5t-0.5 -16.5q-1 -17 -1 -45q0 -104 44 -106q18 -13 31 -3q62 -14 93 -14q8 10 30 12q29 2 35 5q11 -9 23 -9q34 0 40 33q14 10 25 32t12 23q22 19 22 32q0 9 -4 18q23 54 42 54
q12 0 23 -16.5t11 -32.5q0 -17 -12 -40q-14 -26 -14 -27q-2 -34 -9 -98q-4 -16 -30 -21q-3 -1 -40 3q-30 -2 -73 2q-5 1 -17 -4t-14 -5q-6 0 -17 1.5t-12 1.5q-10 0 -25 -12z" />
    <glyph glyph-name="Eacute" unicode="&#xc9;" horiz-adv-x="738" 
d="M284 673q16 9 31 9q5 0 17.5 -2.5t15.5 -2.5q6 0 14 3q23 -11 32 -6q12 5 19 5l1 -1l2.5 -0.5t5.5 -1.5t8 -2.5t11 -2.5q3 -1 24 4q20 5 23 9q8 9 16 9q14 0 28 -21q3 -6 12 -77q10 -68 8 -82q-3 -18 -24 -18q-18 0 -20 36q-11 7 -34 48q-27 48 -35 56l-42 -10
q-53 17 -99 9q-18 10 -45 -3q-14 -6 -17 -35q-1 -7 -1.5 -20.5t-0.5 -20.5q0 -11 -2 -31.5t-2 -30.5q-3 -60 -3 -94q0 -39 5 -46q3 0 14 8t16 8q3 0 17.5 -6t18.5 -4q26 11 52 9q37 -3 47 37q5 22 17 66q17 -5 20 -37q1 -16 1 -49q1 -11 3 -19q7 -20 -1 -32q-12 -16 -12 -31
q0 -1 1.5 -16t1.5 -22q6 -16 6 -32q0 -34 -32 -29q-4 47 -5 68q-4 37 -35 37q-12 0 -24 -4q-3 -1 -12.5 6t-10.5 7q-3 0 -17.5 -4t-18.5 -3q-2 0 -15.5 4.5t-17.5 4.5t-10 -2q-12 -7 -13 -16q1 -11 1.5 -35t0.5 -37l-1 -4q0 -4 -0.5 -11.5t-0.5 -16.5q-1 -17 -1 -45
q0 -104 44 -106q18 -13 31 -3q62 -14 93 -14q8 10 30 12q29 2 35 5q11 -9 23 -9q34 0 40 33q14 10 25 32t12 23q22 19 22 32q0 9 -4 18q23 54 42 54q12 0 23 -16.5t11 -32.5q0 -17 -12 -40q-14 -26 -14 -27q-2 -34 -9 -98q-4 -16 -30 -21q-3 -1 -40 3q-30 -2 -73 2
q-5 1 -17 -4t-14 -5q-6 0 -17 1.5t-12 1.5q-10 0 -25 -12q-25 5 -36 5q-6 0 -23 -3q-13 -2 -27 0q-4 0 -18.5 5t-20.5 5q-7 0 -15 -3q-16 6 -30 6q-4 0 -22 -2q-4 -1 -27 -4q-6 2 -9 2q-12 0 -35 -12q-22 -13 -31 -13q-7 0 -13 6q-12 12 -19 12l-12 -6q-12 -7 -22 -6
q-15 22 -16 24q-3 10 0 28q4 6 36 3l27 12q5 0 14 11t15 10q23 23 13 171q0 2 -4.5 21.5t-3.5 25.5q0 54 8 190q1 22 0 63q-2 50 -13 53q-34 40 -65 45q-24 5 -27 13q-1 3 -1 10q0 28 38 28q25 0 38 -12q19 0 60 11q5 3 8 3q5 0 16 -7.5t13 -7.5q2 -1 21 12t27 9q3 35 23 49
q18 11 20 17q2 4 4.5 12t3.5 12q17 20 49 67q4 13 23 43q5 -1 20 8t16 9q6 1 27 -6q14 -5 20 -10t6 -6.5v-7.5q0 -21 -29 -41q-30 -20 -149 -150q1 0 9 -7.5t11 -5.5z" />
    <glyph glyph-name="Ecircumflex" unicode="&#xca;" horiz-adv-x="738" 
d="M190 753q17 16 20 27q0 1 2 33q15 13 25 51q12 40 13 41q7 10 23 10q25 0 34 -21q12 -28 17 -41q7 -15 24 -40q2 -2 9 -38q9 -36 21 -50q6 -6 8 -15q2 -14 6 -24q3 -1 49 -15q3 -1 24 4q20 5 23 9q8 9 16 9q14 0 28 -21q3 -6 12 -77q10 -68 8 -82q-3 -18 -24 -18
q-18 0 -20 36q-11 7 -34 48q-27 48 -35 56l-42 -10q-53 17 -99 9q-18 10 -45 -3q-14 -6 -17 -35q-1 -7 -1.5 -20.5t-0.5 -20.5q0 -11 -2 -31.5t-2 -30.5q-3 -60 -3 -94q0 -39 5 -46q3 0 14 8t16 8q3 0 17.5 -6t18.5 -4q26 11 52 9q37 -3 47 37q5 22 17 66q17 -5 20 -37
q1 -16 1 -49q1 -11 3 -19q7 -20 -1 -32q-12 -16 -12 -31q0 -1 1.5 -16t1.5 -22q6 -16 6 -32q0 -34 -32 -29q-4 47 -5 68q-4 37 -35 37q-12 0 -24 -4q-3 -1 -12.5 6t-10.5 7q-3 0 -17.5 -4t-18.5 -3q-2 0 -15.5 4.5t-17.5 4.5t-10 -2q-12 -7 -13 -16q1 -11 1.5 -35t0.5 -37
l-1 -4q0 -4 -0.5 -11.5t-0.5 -16.5q-1 -17 -1 -45q0 -104 44 -106q18 -13 31 -3q62 -14 93 -14q8 10 30 12q29 2 35 5q11 -9 23 -9q34 0 40 33q14 10 25 32t12 23q22 19 22 32q0 9 -4 18q23 54 42 54q12 0 23 -16.5t11 -32.5q0 -17 -12 -40q-14 -26 -14 -27q-2 -34 -9 -98
q-4 -16 -30 -21q-3 -1 -40 3q-30 -2 -73 2q-5 1 -17 -4t-14 -5q-6 0 -17 1.5t-12 1.5q-10 0 -25 -12q-25 5 -36 5q-6 0 -23 -3q-13 -2 -27 0q-4 0 -18.5 5t-20.5 5q-7 0 -15 -3q-16 6 -30 6q-4 0 -22 -2q-4 -1 -27 -4q-6 2 -9 2q-12 0 -35 -12q-22 -13 -31 -13q-7 0 -13 6
q-12 12 -19 12l-12 -6q-12 -7 -22 -6q-15 22 -16 24q-3 10 0 28q4 6 36 3l27 12q5 0 14 11t15 10q23 23 13 171q0 2 -4.5 21.5t-3.5 25.5q0 54 8 190q1 22 0 63q-2 50 -13 53q-34 40 -65 45q-24 5 -27 13q-1 3 -1 10q0 28 38 28q25 0 38 -12q19 0 60 11q6 2 9 2h12
q16 0 18 35q-3 5 6 35zM283 817l-7 -3q-1 -17 -21 -46q-19 -26 -22 -52q-4 -7 -19 -25q2 0 3 -3.5t2 -7.5t2 -4q17 -11 21 -11l23 11q6 -3 19 -3q16 9 31 9q5 0 17.5 -2.5t15.5 -2.5q6 0 14 3q-1 6 2 11q-7 7 -13 20l-9 18q-6 3 -16 13q-11 28 -32 69q-2 1 -11 6z" />
    <glyph glyph-name="Edieresis" unicode="&#xcb;" horiz-adv-x="738" 
d="M386 -18q-25 5 -36 5q-6 0 -23 -3q-13 -2 -27 0q-4 0 -18.5 5t-20.5 5q-7 0 -15 -3q-16 6 -30 6q-4 0 -22 -2q-4 -1 -27 -4q-6 2 -9 2q-12 0 -35 -12q-22 -13 -31 -13q-7 0 -13 6q-12 12 -19 12l-12 -6q-12 -7 -22 -6q-15 22 -16 24q-3 10 0 28q4 6 36 3l27 12q5 0 14 11
t15 10q23 23 13 171q0 2 -4.5 21.5t-3.5 25.5q0 54 8 190q1 22 0 63q-2 50 -13 53q-34 40 -65 45q-24 5 -27 13q-1 3 -1 10q0 28 38 28q25 0 38 -12q19 0 60 11q5 3 8 3q5 0 16 -7.5t13 -7.5t14.5 4.5t16.5 4.5q2 0 8 -2q17 -11 21 -11l23 11q6 -3 19 -3q16 9 31 9
q5 0 17.5 -2.5t15.5 -2.5q6 0 14 3q23 -11 32 -6q12 5 19 5l1 -1l2.5 -0.5t5.5 -1.5t8 -2.5t11 -2.5q3 -1 24 4q20 5 23 9q8 9 16 9q14 0 28 -21q3 -6 12 -77q10 -68 8 -82q-3 -18 -24 -18q-18 0 -20 36q-11 7 -34 48q-27 48 -35 56l-42 -10q-53 17 -99 9q-18 10 -45 -3
q-14 -6 -17 -35q-1 -7 -1.5 -20.5t-0.5 -20.5q0 -11 -2 -31.5t-2 -30.5q-3 -60 -3 -94q0 -39 5 -46q3 0 14 8t16 8q3 0 17.5 -6t18.5 -4q26 11 52 9q37 -3 47 37q5 22 17 66q17 -5 20 -37q1 -16 1 -49q1 -11 3 -19q7 -20 -1 -32q-12 -16 -12 -31q0 -1 1.5 -16t1.5 -22
q6 -16 6 -32q0 -34 -32 -29q-4 47 -5 68q-4 37 -35 37q-12 0 -24 -4q-3 -1 -12.5 6t-10.5 7q-3 0 -17.5 -4t-18.5 -3q-2 0 -15.5 4.5t-17.5 4.5t-10 -2q-12 -7 -13 -16q1 -11 1.5 -35t0.5 -37l-1 -4q0 -4 -0.5 -11.5t-0.5 -16.5q-1 -17 -1 -45q0 -104 44 -106q18 -13 31 -3
q62 -14 93 -14q8 10 30 12q29 2 35 5q11 -9 23 -9q34 0 40 33q14 10 25 32t12 23q22 19 22 32q0 9 -4 18q23 54 42 54q12 0 23 -16.5t11 -32.5q0 -17 -12 -40q-14 -26 -14 -27q-2 -34 -9 -98q-4 -16 -30 -21q-3 -1 -40 3q-30 -2 -73 2q-5 1 -17 -4t-14 -5q-6 0 -17 1.5
t-12 1.5q-10 0 -25 -12zM367 772q-4 8 -24 35q-15 21 -15 38q0 43 32 45q11 8 22 8q21 0 36 -25q16 -23 16 -47q0 -4 -0.5 -7t-2.5 -5.5t-3 -4t-4.5 -4t-4.5 -3.5t-5.5 -3.5t-5.5 -2.5q-6 -6 -14 -18q-4 -7 -15 -7q-7 0 -12 1zM237 801q-23 -17 -39 -24q-6 -9 -14 -9
q-18 0 -32 23q-6 9 -3 19q0 30 1 53q3 30 32 38q12 2 15 2q29 0 35 -39q1 -21 5 -63z" />
    <glyph glyph-name="Igrave" unicode="&#xcc;" horiz-adv-x="439" 
d="M223 672l-60 50l-6 12q-23 27 -81 75q-1 1 -13 30q-3 4 -11.5 11.5t-13 13t-1.5 9.5q0 9 9 18q10 11 16 17q2 -2 11 1l9 3q3 0 5 -2q4 -2 62 -84q61 -82 62 -86q17 -34 37 -50q4 -4 5 -9q4 1 12 1q6 0 15 -4.5t11 -4.5q12 14 25 14q22 0 22 -24q0 -12 -11 -21.5t-24 -9.5
q-5 0 -27 5q-18 5 -24 1q-21 -9 -21 -35q0 -9 6.5 -30.5t6.5 -24.5q0 -4 -4 -15t-4 -17q3 -19 2 -48q-4 -14 -5 -76q-1 -64 3 -72q7 -13 7 -23q0 -4 -5.5 -20t-6.5 -23q5 -15 7 -80q0 -71 2 -93q6 -13 42 -38q3 -3 27 -6q24 -2 26 -7q7 -18 7 -21q-11 -29 -31 -29
q-8 0 -14 9q-41 -1 -92 11q-5 1 -15 -2l-15 -5q-5 6 -14 6q-6 0 -17.5 -3t-22.5 -6.5t-12 -3.5q-5 0 -41 6q-6 2 -24 -2t-21 -4q-7 0 -13 3q-17 8 -17 26q0 5 3 6q16 10 42 18t40 16q4 4 17 24q14 24 15 26q-1 14 -1.5 46t-0.5 49q5 87 4 123q0 3 -5.5 13t-5.5 14q0 5 4 12
q10 22 6 61q-15 24 -15 42q0 5 5.5 26.5t5.5 30.5q0 19 -9 43q-2 5 -1.5 23t-0.5 21q-6 11 -16 12q-13 3 -14 4l-13 9q-9 -3 -16 -3q-27 0 -27 26q0 12 8 18q16 5 53 15q24 -13 62 -5q2 1 11 -4.5t10 -5.5q8 5 23 3q22 -13 46 -6z" />
    <glyph glyph-name="Iacute" unicode="&#xcd;" horiz-adv-x="439" 
d="M223 890q5 -1 20 8t16 9q6 1 27 -6q14 -5 20 -10t6 -6.5v-7.5q0 -21 -29 -41q-32 -22 -77 -71l-73 -79q3 0 11.5 -5.5t9.5 -5.5q8 5 23 3q15 -9 28 -9q5 0 27.5 6.5t32.5 6.5q6 0 15 -4.5t11 -4.5q12 14 25 14q22 0 22 -24q0 -12 -11 -21.5t-24 -9.5q-5 0 -27 5
q-18 5 -24 1q-21 -9 -21 -35q0 -9 6.5 -30.5t6.5 -24.5q0 -4 -4 -15t-4 -17q3 -19 2 -48q-4 -14 -5 -76q-1 -64 3 -72q7 -13 7 -23q0 -4 -5.5 -20t-6.5 -23q5 -15 7 -80q0 -71 2 -93q6 -13 42 -38q3 -3 27 -6q24 -2 26 -7q7 -18 7 -21q-11 -29 -31 -29q-8 0 -14 9
q-41 -1 -92 11q-5 1 -15 -2l-15 -5q-5 6 -14 6q-6 0 -17.5 -3t-22.5 -6.5t-12 -3.5q-5 0 -41 6q-6 2 -24 -2t-21 -4q-7 0 -13 3q-17 8 -17 26q0 5 3 6q16 10 42 18t40 16q4 4 17 24q14 24 15 26q-1 14 -1.5 46t-0.5 49q5 87 4 123q0 3 -5.5 13t-5.5 14q0 5 4 12q10 22 6 61
q-15 24 -15 42q0 5 5.5 26.5t5.5 30.5q0 19 -9 43q-2 5 -1.5 23t-0.5 21q-6 11 -16 12q-13 3 -14 4l-13 9q-9 -3 -16 -3q-27 0 -27 26q0 12 8 18q16 5 53 15q17 -8 30 -9q-2 14 5 32.5t17 25.5q18 11 20 17q1 4 3.5 12t4.5 12q17 20 49 67q4 13 23 43z" />
    <glyph glyph-name="Icircumflex" unicode="&#xce;" horiz-adv-x="439" 
d="M53 686q-6 18 11 32q-3 5 6 35q17 16 20 27q0 1 2 33q15 13 25 51q12 40 13 41q7 10 23 10q25 0 34 -21q12 -28 17 -41q7 -15 24 -40q2 -2 9 -38q9 -36 21 -50q17 -19 17 -34q0 -5 -3 -10q3 0 10 -4.5t9 -3.5q12 14 25 14q22 0 22 -24q0 -12 -11 -21.5t-24 -9.5
q-5 0 -27 5q-18 5 -24 1q-21 -9 -21 -35q0 -9 6.5 -30.5t6.5 -24.5q0 -4 -4 -15t-4 -17q3 -19 2 -48q-4 -14 -5 -76q-1 -64 3 -72q7 -13 7 -23q0 -4 -5.5 -20t-6.5 -23q5 -15 7 -80q0 -71 2 -93q6 -13 42 -38q3 -3 27 -6q24 -2 26 -7q7 -18 7 -21q-11 -29 -31 -29
q-8 0 -14 9q-41 -1 -92 11q-5 1 -15 -2l-15 -5q-5 6 -14 6q-6 0 -17.5 -3t-22.5 -6.5t-12 -3.5q-5 0 -41 6q-6 2 -24 -2t-21 -4q-7 0 -13 3q-17 8 -17 26q0 5 3 6q16 10 42 18t40 16q4 4 17 24q14 24 15 26q-1 14 -1.5 46t-0.5 49q5 87 4 123q0 3 -5.5 13t-5.5 14q0 5 4 12
q10 22 6 61q-15 24 -15 42q0 5 5.5 26.5t5.5 30.5q0 19 -9 43q-2 5 -1.5 23t-0.5 21q-6 11 -16 12q-13 3 -14 4l-13 9q-9 -3 -16 -3q-27 0 -27 26q0 12 8 18q3 3 35 11zM163 817l-7 -3q-1 -17 -21 -46q-19 -26 -22 -52l-22 -34q13 -3 42 3q2 1 11 -4.5t10 -5.5q8 5 23 3
q15 -9 28 -9q10 0 21 4q5 2 9.5 3.5t8 2.5t4.5 1l-10 20t-16 29q-6 3 -16 13q-11 28 -32 69q-2 1 -11 6z" />
    <glyph glyph-name="Idieresis" unicode="&#xcf;" horiz-adv-x="439" 
d="M297 -11q-41 -1 -92 11q-5 1 -15 -2l-15 -5q-5 6 -14 6q-6 0 -17.5 -3t-22.5 -6.5t-12 -3.5q-5 0 -41 6q-6 2 -24 -2t-21 -4q-7 0 -13 3q-17 8 -17 26q0 5 3 6q16 10 42 18t40 16q4 4 17 24q14 24 15 26q-1 14 -1.5 46t-0.5 49q5 87 4 123q0 3 -5.5 13t-5.5 14q0 5 4 12
q10 22 6 61q-15 24 -15 42q0 5 5.5 26.5t5.5 30.5q0 19 -9 43q-2 5 -1.5 23t-0.5 21q-6 11 -16 12q-13 3 -14 4l-13 9q-9 -3 -16 -3q-27 0 -27 26q0 12 8 18q16 5 53 15q24 -13 62 -5q2 1 11 -4.5t10 -5.5q8 5 23 3q15 -9 28 -9q5 0 27.5 6.5t32.5 6.5q6 0 15 -4.5t11 -4.5
q12 14 25 14q22 0 22 -24q0 -12 -11 -21.5t-24 -9.5q-5 0 -27 5q-18 5 -24 1q-21 -9 -21 -35q0 -9 6.5 -30.5t6.5 -24.5q0 -4 -4 -15t-4 -17q3 -19 2 -48q-4 -14 -5 -76q-1 -64 3 -72q7 -13 7 -23q0 -4 -5.5 -20t-6.5 -23q5 -15 7 -80q0 -71 2 -93q6 -13 42 -38q3 -3 27 -6
q24 -2 26 -7q7 -18 7 -21q-11 -29 -31 -29q-8 0 -14 9zM249 779q-4 8 -24 35q-16 19 -16 38q0 44 33 45q11 8 22 8q21 0 36 -25q16 -23 16 -47q0 -4 -0.5 -7t-2.5 -5.5t-3 -4t-4.5 -4t-4.5 -3.5t-5.5 -3.5t-5.5 -2.5q-6 -6 -14 -18q-4 -7 -16 -7q-6 0 -11 1zM119 808
q-23 -16 -39 -24q-6 -9 -15 -9q-17 0 -31 23q-6 8 -4 19q1 7 1.5 25.5t0.5 27.5q3 29 32 37q8 3 15 3q29 0 35 -39q1 -21 5 -63z" />
    <glyph glyph-name="Eth" unicode="&#xd0;" horiz-adv-x="803" 
d="M100 282q1 0 -10 -0.5t-23 -0.5q-5 8 -15 8q-3 0 -11 -1t-10 -1q-19 0 -19 23q-1 43 5 48q5 1 13 3.5l11 3.5q6 -3 20 -6l34 5q2 2 8 16q0 5 3 20.5t3 19.5t-2 10.5t-2 7.5q0 2 4 11.5t2 12.5q-7 22 -9 30q-1 6 2 31q3 22 2 46l-2 3q-2 2 -5.5 8t-7.5 11q-11 16 -16 21
q-14 0 -25 1q-6 2 -18.5 12.5t-15.5 11.5q-5 13 -5 18q0 8 7 8q2 0 11.5 -1.5t12.5 -1.5q9 0 14 5q18 0 68 -8q43 -7 68 -6q20 1 72 17q42 13 72 13q4 0 18.5 -1t18.5 -1l43 1q22 -1 47 -22q33 -9 71 -22q39 -16 56 -42q10 0 40 -44q30 -43 28 -54q3 -1 16 -10q1 -17 9 -52
q10 -20 8 -56q9 -17 8 -29q-2 -21 -1 -24l4 -11q3 -11 1 -14q-7 -29 -35 -100q-2 -15 -11 -35l-51 -69q-41 -48 -89 -63q-53 -15 -75 -25q-37 -17 -60 -17q-9 0 -12 1q-3 0 -10.5 2t-13.5 4l-7 2h-51q-3 -7 -22 -7t-53 7q-35 6 -40 6q-29 0 -64 -5q-31 -6 -56 -8
q-39 13 -39 30q0 7 6 14q35 -1 69 31q5 5 11 17q8 52 2 126q-1 9 2 27q3 26 4 28q-2 2 -8 16zM313 351q3 -7 0 -33q-5 -27 -10 -27q-40 -3 -74 -4q-11 -5 -18 -9q0 -2 4.5 -9.5t3.5 -10.5q-3 -7 -8 -13q0 -14 4 -19l-3 -7q0 -25 4 -86l3 -59q7 -24 48 -33q8 -2 14 -1
q11 -6 22 -6q13 0 32 6q25 8 30 9q19 -4 52 10l31 14l10 9q10 10 13 10t5 -3q10 9 31 36q7 29 18 32l21 33q-2 5 0 14q9 17 20 49q12 38 11 50q0 2 -5.5 9t-4.5 9q2 8 8 19q0 63 -11 98l-39 88q-5 12 -23 20q-20 8 -26 12q-8 11 -22 28q-6 2 -11 11q-23 25 -49 20
q-28 16 -37 16q-2 0 -8 -2q-8 13 -67 2q-28 -6 -65 -49q-2 -26 -2 -170q0 -6 -2.5 -22t-2.5 -21q16 -6 49 -5q36 2 41 -1q1 -7 13 -14z" />
    <glyph glyph-name="Ntilde" unicode="&#xd1;" horiz-adv-x="887" 
d="M786 636q-34 -4 -67 -27q-32 -22 -34 -45q-1 -22 -3 -72q-3 -38 -3 -43v-58q0 -3 5 -30q3 -19 0 -39q-6 -40 -8 -59q13 -9 13 -45v-59q-2 -16 -8 -88q14 -40 14 -75q0 -18 -5 -36q-7 -25 -33 -25q-24 0 -36 22q-6 12 -12 51q-5 36 -16 47q-5 0 -12 6q-5 11 -18 34
q-12 12 -21 23q0 5 -6 14q-7 0 -13 1q-16 32 -47 75q-7 7 -37 27q-20 14 -26 36q-83 95 -116 125q-5 11 -20 28h-11q-14 23 -38 53q-12 11 -33 38q-2 -1 -9 1.5t-8 2.5q-3 0 -6 -3v-41q0 -90 -1 -100q0 -15 -6 -41q8 -32 9 -53l-3 -39v-46q0 -126 21 -116q17 -35 102 -35
q2 -2 16 -14q-3 -15 3 -18l-10 -24l-110 5q-23 -2 -33 0q-68 2 -85 0q-6 -2 -24.5 -6.5t-28.5 -7.5l-27 6q-10 10 -12 32q0 16 -1 24q1 0 8 3.5t10 2.5q5 -9 16 -17q10 -1 14 9q6 23 19 23q3 0 11.5 -2t10.5 -2q10 0 11 10q8 5 15 18q-2 17 0 47q5 15 9 42q3 59 1 93
q0 5 -6 11q-1 10 2 20q1 6 2.5 13.5t1.5 9.5q1 3 7 95q-4 26 -2 100q0 2 -2.5 8.5t-2.5 8.5q3 9 -6 43q-7 17 -27.5 33t-39.5 17q-8 8 -25 10q-19 1 -35 11q0 3 6 32q26 -2 48 -2q26 6 33 6q21 0 37 -18q2 -3 5 -3t11 6t9 6t13.5 -2t17.5 -2q12 0 18 6q22 4 43 -21
q3 -5 29 -44q7 -5 16 -13q9 -13 28 -33q4 -1 12 -6q3 -11 17 -16q1 -2 6 -9t7 -9.5l6.5 -8.5t8 -9t8 -7.5t9.5 -7.5t11 -6q31 -47 49 -66q27 -32 51 -54q8 -15 19 -30q21 -16 46 -39q14 -14 25 -27q1 -2 4.5 -11.5t6.5 -15.5l1 -1q1 -1 2.5 -3t4 -4t5.5 -5.5t7 -6.5
q3 -5 10 -14q7 -10 13 -10q3 0 4 1q6 4 6 7q2 50 1 106q-2 65 0 83q5 38 0 59q-1 3 -7 58v47q0 14 -14 33q-7 9 -16 13l-13 6q-4 -3 -6 -3t-9 9.5t-11 9.5t-6 -1q-8 7 -31 8q-3 5 -3 13q0 38 21 38q8 0 17 -12q4 1 19 6q2 0 6.5 -1.5t8.5 -3.5l3 -2q2 -1 14.5 2.5t15.5 3.5
q7 0 11 -3q4 -10 14 -10t30 15q2 2 6 2q6 0 24 -7.5t21 -7.5q7 0 29 9q19 7 26 6q17 -3 17 -24q0 -16 -9 -25zM567 843q-1 -3 -21 -23q-16 -18 -21 -20l-32 -7q-16 0 -79 10q-4 1 -47 29q-25 16 -43 16q-26 0 -54 -31q-37 -42 -47 -42q-19 0 -19 24q0 41 16 57q6 7 26 19
q23 12 34 22q7 -3 30 4q8 1 27 0q4 0 15 -11q7 -7 11.5 -9t11.5 -2.5t12 -2.5l10.5 -2.5t8.5 -1.5q5 0 31 -14t31 -15q9 -4 18 -4q7 0 12 4t10 15.5t6.5 17t6.5 21.5q18 12 20 12h1l1.5 -0.5t4 -1l5 -1t6 -0.5h7.5h8q8 0 8 -7q0 -5 -8 -27q-8 -23 -7 -29z" />
    <glyph glyph-name="Ograve" unicode="&#xd2;" horiz-adv-x="842" 
d="M697 184q-18 -5 -20 -13q-2 -31 -9 -39q-9 -2 -11 -10q-5 -12 -6 -15q-24 -32 -92 -74q-8 0 -14 -1q-16 -16 -27 -26q-9 -6 -43 -15q-35 -11 -37 -14q-15 -4 -97 0q-11 12 -19 12q-4 0 -20 -6q-6 6 -17 13q-17 2 -43 10q-27 18 -82 49q-13 16 -19 16q-2 0 -6.5 -2.5
t-7.5 -1.5q-27 11 -71 82q-43 72 -60 200q7 22 11 54q-1 16 17 51q0 14 9 46l27 33q3 12 13 27l38 39q21 21 45 32q20 19 30 18l12 18q8 -2 23 0q6 7 21 15l21 6q5 2 18 13q1 1 20 -2l49 6q3 0 15 -6t16 -5q13 3 27 3q22 0 88 -20l24 -22q26 -23 48 -30q-1 -2 2 -4t9 -4
q5 -3 15 -7q7 -16 14 -21q5 -2 13.5 -6t9.5 -4q0 -3 1.5 -7t3 -9.5t2.5 -10.5q4 -3 16 -15q7 -18 16 -22q13 -6 16.5 -10t4.5 -15q1 -15 3 -18q7 -4 11 -8.5t7 -14l3.5 -11t3.5 -14.5q14 -45 14 -87q0 -69 -36 -153zM287 653l-12 -9q-30 -2 -40 -30q-9 -4 -37 -34
q-2 -11 -14 -30q-13 -22 -19 -26q-18 -117 -22 -126q-3 -7 -10 -28q-3 -18 -1 -57q4 -43 4 -57q0 -4 8 -15t8 -13q26 -66 39 -84q13 -16 69 -63q8 -11 23 -26q22 -14 56 -22l20 -12q6 -2 22.5 3.5t20.5 4.5q5 0 9.5 -1.5l7.5 -2.5l3 -1q2 0 20 9q5 -3 11 -3q11 0 25 14
q6 6 11 10.5t8 7.5l3 2q12 -2 25 5q0 3 4 19q30 31 40 82q7 14 18 39q3 11 5 50q2 32 6 47q5 18 5 52q0 37 -8 47q-5 7 -7 32.5t-3 29.5q-24 54 -48 85q-20 28 -70 65q-6 11 -16 19q-40 21 -104 21q-29 0 -60 -4zM521 659l-78 63l-6 12q-23 27 -81 75q-1 1 -13 30
q-3 4 -11.5 11.5t-13 13t-1.5 9.5q0 9 9 18q10 11 16 17q2 -2 11 1l9 3q3 0 5 -2q4 -2 62 -84q61 -82 62 -86q17 -34 37 -50q7 -6 7 -19q0 -17 -14 -12z" />
    <glyph glyph-name="Oacute" unicode="&#xd3;" horiz-adv-x="842" 
d="M287 653l-12 -9q-30 -2 -40 -30q-9 -4 -37 -34q-2 -11 -14 -30q-13 -22 -19 -26q-18 -117 -22 -126q-3 -7 -10 -28q-3 -18 -1 -57q4 -43 4 -57q0 -4 8 -15t8 -13q26 -66 39 -84q13 -16 69 -63q8 -11 23 -26q22 -14 56 -22l20 -12q6 -2 22.5 3.5t20.5 4.5q5 0 9.5 -1.5
l7.5 -2.5l3 -1q2 0 20 9q5 -3 11 -3q11 0 25 14q6 6 11 10.5t8 7.5l3 2q12 -2 25 5q0 3 4 19q30 31 40 82q7 14 18 39q3 11 5 50q2 32 6 47q5 18 5 52q0 37 -8 47q-5 7 -7 32.5t-3 29.5q-24 54 -48 85q-20 28 -70 65q-6 11 -16 19q-40 21 -104 21q-29 0 -60 -4zM353 890
q5 -1 20 8t16 9q6 1 27 -6q14 -5 20 -10t6 -6.5v-7.5q0 -21 -29 -41q-35 -23 -145 -145q2 1 13 10q1 1 20 -2l49 6q3 0 15 -6t16 -5q13 3 27 3q22 0 88 -20l24 -22q26 -23 48 -30q-1 -2 2 -4t9 -4q5 -3 15 -7q7 -16 14 -21q5 -2 13.5 -6t9.5 -4q0 -3 1.5 -7t3 -9.5
t2.5 -10.5q4 -3 16 -15q7 -18 16 -22q13 -6 16.5 -10t4.5 -15q1 -15 3 -18q7 -4 11 -8.5t7 -14l3.5 -11t3.5 -14.5q14 -45 14 -87q0 -69 -36 -153q-18 -5 -20 -13q-2 -31 -9 -39q-9 -2 -11 -10q-5 -12 -6 -15q-24 -32 -92 -74q-8 0 -14 -1q-16 -16 -27 -26q-9 -6 -43 -15
q-35 -11 -37 -14q-15 -4 -97 0q-11 12 -19 12q-4 0 -20 -6q-6 6 -17 13q-17 2 -43 10q-27 18 -82 49q-13 16 -19 16q-2 0 -6.5 -2.5t-7.5 -1.5q-27 11 -71 82q-43 72 -60 200q7 22 11 54q-1 16 17 51q0 14 9 46l27 33q3 12 13 27l38 39q21 21 45 32q20 19 30 18l12 18
q8 -2 23 0q4 2 11 9q-2 6 -2 10q0 38 23 53q18 11 20 17q2 4 4.5 12t3.5 12q17 20 49 67q4 13 23 43z" />
    <glyph glyph-name="Ocircumflex" unicode="&#xd4;" horiz-adv-x="842" 
d="M287 653l-12 -9q-30 -2 -40 -30q-9 -4 -37 -34q-2 -11 -14 -30q-13 -22 -19 -26q-18 -117 -22 -126q-3 -7 -10 -28q-3 -18 -1 -57q4 -43 4 -57q0 -4 8 -15t8 -13q26 -66 39 -84q13 -16 69 -63q8 -11 23 -26q22 -14 56 -22l20 -12q6 -2 22.5 3.5t20.5 4.5q5 0 9.5 -1.5
l7.5 -2.5l3 -1q2 0 20 9q5 -3 11 -3q11 0 25 14q6 6 11 10.5t8 7.5l3 2q12 -2 25 5q0 3 4 19q30 31 40 82q7 14 18 39q3 11 5 50q2 32 6 47q5 18 5 52q0 37 -8 47q-5 7 -7 32.5t-3 29.5q-24 54 -48 85q-20 28 -70 65q-6 11 -16 19q-40 21 -104 21q-29 0 -60 -4zM244 683
q-9 20 10 35q-3 5 6 35q17 16 20 27q0 1 2 33q15 13 25 51q12 40 13 41q7 10 23 10q25 0 34 -21q12 -28 17 -41q7 -15 24 -40q2 -2 9 -38q9 -36 21 -50q20 -23 17 -38q8 -3 31 -10l24 -22q26 -23 48 -30q-1 -2 2 -4t9 -4q5 -3 15 -7q7 -16 14 -21q5 -2 13.5 -6t9.5 -4
q0 -3 1.5 -7t3 -9.5t2.5 -10.5q4 -3 16 -15q7 -18 16 -22q13 -6 16.5 -10t4.5 -15q1 -15 3 -18q7 -4 11 -8.5t7 -14l3.5 -11t3.5 -14.5q14 -45 14 -87q0 -69 -36 -153q-18 -5 -20 -13q-2 -31 -9 -39q-9 -2 -11 -10q-5 -12 -6 -15q-24 -32 -92 -74q-8 0 -14 -1
q-16 -16 -27 -26q-9 -6 -43 -15q-35 -11 -37 -14q-15 -4 -97 0q-11 12 -19 12q-4 0 -20 -6q-6 6 -17 13q-17 2 -43 10q-27 18 -82 49q-13 16 -19 16q-2 0 -6.5 -2.5t-7.5 -1.5q-27 11 -71 82q-43 72 -60 200q7 22 11 54q-1 16 17 51q0 14 9 46l27 33q3 12 13 27l38 39
q21 21 45 32q20 19 30 18l12 18q8 -2 23 0q5 6 23 16zM353 817l-7 -3q-1 -17 -21 -46q-19 -26 -22 -52l-10 -16q5 0 8 -1l49 6q3 0 15 -6t16 -5q24 5 47 2q-8 19 -16 33q-6 3 -16 13q-11 28 -32 69q-2 1 -11 6z" />
    <glyph glyph-name="Otilde" unicode="&#xd5;" horiz-adv-x="842" 
d="M697 184q-18 -5 -20 -13q-2 -31 -9 -39q-9 -2 -11 -10q-5 -12 -6 -15q-24 -32 -92 -74q-8 0 -14 -1q-16 -16 -27 -26q-9 -6 -43 -15q-35 -11 -37 -14q-15 -4 -97 0q-11 12 -19 12q-4 0 -20 -6q-6 6 -17 13q-17 2 -43 10q-27 18 -82 49q-13 16 -19 16q-2 0 -6.5 -2.5
t-7.5 -1.5q-27 11 -71 82q-43 72 -60 200q7 22 11 54q-1 16 17 51q0 14 9 46l27 33q3 12 13 27l38 39q21 21 45 32q20 19 30 18l12 18q8 -2 23 0q6 7 21 15l21 6q5 2 18 13q1 1 20 -2l49 6q3 0 15 -6t16 -5q13 3 27 3q22 0 88 -20l24 -22q26 -23 48 -30q-1 -2 2 -4t9 -4
q5 -3 15 -7q7 -16 14 -21q5 -2 13.5 -6t9.5 -4q0 -3 1.5 -7t3 -9.5t2.5 -10.5q4 -3 16 -15q7 -18 16 -22q13 -6 16.5 -10t4.5 -15q1 -15 3 -18q7 -4 11 -8.5t7 -14l3.5 -11t3.5 -14.5q14 -45 14 -87q0 -69 -36 -153zM287 653l-12 -9q-30 -2 -40 -30q-9 -4 -37 -34
q-2 -11 -14 -30q-13 -22 -19 -26q-18 -117 -22 -126q-3 -7 -10 -28q-3 -18 -1 -57q4 -43 4 -57q0 -4 8 -15t8 -13q26 -66 39 -84q13 -16 69 -63q8 -11 23 -26q22 -14 56 -22l20 -12q6 -2 22.5 3.5t20.5 4.5q5 0 9.5 -1.5l7.5 -2.5l3 -1q2 0 20 9q5 -3 11 -3q11 0 25 14
q6 6 11 10.5t8 7.5l3 2q12 -2 25 5q0 3 4 19q30 31 40 82q7 14 18 39q3 11 5 50q2 32 6 47q5 18 5 52q0 37 -8 47q-5 7 -7 32.5t-3 29.5q-24 54 -48 85q-20 28 -70 65q-6 11 -16 19q-40 21 -104 21q-29 0 -60 -4zM547 843q-1 -3 -21 -23q-16 -18 -21 -20l-32 -7
q-16 0 -79 10q-4 1 -47 29q-25 16 -43 16q-26 0 -54 -31q-38 -42 -47 -42q-19 0 -19 24q0 41 16 57q6 7 26 19q23 12 34 22q7 -3 30 4q8 1 27 0q4 0 15 -11q7 -7 11.5 -9t11.5 -2.5t12 -2.5l10.5 -2.5t8.5 -1.5q5 0 31 -14t31 -15q9 -4 18 -4q7 0 12 4t10 15.5t6.5 17
t6.5 21.5q18 12 20 12h1l1.5 -0.5t4 -1l5 -1t6 -0.5h7.5h8q8 0 8 -7q0 -5 -8 -27q-8 -23 -7 -29z" />
    <glyph glyph-name="Odieresis" unicode="&#xd6;" horiz-adv-x="842" 
d="M697 184q-18 -5 -20 -13q-2 -31 -9 -39q-9 -2 -11 -10q-5 -12 -6 -15q-24 -32 -92 -74q-8 0 -14 -1q-16 -16 -27 -26q-9 -6 -43 -15q-35 -11 -37 -14q-15 -4 -97 0q-11 12 -19 12q-4 0 -20 -6q-6 6 -17 13q-17 2 -43 10q-27 18 -82 49q-13 16 -19 16q-2 0 -6.5 -2.5
t-7.5 -1.5q-27 11 -71 82q-43 72 -60 200q7 22 11 54q-1 16 17 51q0 14 9 46l27 33q3 12 13 27l38 39q21 21 45 32q20 19 30 18l12 18q8 -2 23 0q6 7 21 15l21 6q5 2 18 13q1 1 20 -2l49 6q3 0 15 -6t16 -5q13 3 27 3q22 0 88 -20l24 -22q26 -23 48 -30q-1 -2 2 -4t9 -4
q5 -3 15 -7q7 -16 14 -21q5 -2 13.5 -6t9.5 -4q0 -3 1.5 -7t3 -9.5t2.5 -10.5q4 -3 16 -15q7 -18 16 -22q13 -6 16.5 -10t4.5 -15q1 -15 3 -18q7 -4 11 -8.5t7 -14l3.5 -11t3.5 -14.5q14 -45 14 -87q0 -69 -36 -153zM287 653l-12 -9q-30 -2 -40 -30q-9 -4 -37 -34
q-2 -11 -14 -30q-13 -22 -19 -26q-18 -117 -22 -126q-3 -7 -10 -28q-3 -18 -1 -57q4 -43 4 -57q0 -4 8 -15t8 -13q26 -66 39 -84q13 -16 69 -63q8 -11 23 -26q22 -14 56 -22l20 -12q6 -2 22.5 3.5t20.5 4.5q5 0 9.5 -1.5l7.5 -2.5l3 -1q2 0 20 9q5 -3 11 -3q11 0 25 14
q6 6 11 10.5t8 7.5l3 2q12 -2 25 5q0 3 4 19q30 31 40 82q7 14 18 39q3 11 5 50q2 32 6 47q5 18 5 52q0 37 -8 47q-5 7 -7 32.5t-3 29.5q-24 54 -48 85q-20 28 -70 65q-6 11 -16 19q-40 21 -104 21q-29 0 -60 -4zM429 774q-4 8 -24 35q-15 21 -15 38q0 43 32 45q11 8 23 8
q20 0 35 -25q16 -23 16 -47q0 -4 -0.5 -7t-2.5 -5.5t-3 -4t-4.5 -4t-4.5 -3.5t-5.5 -3.5t-5.5 -2.5q-6 -6 -14 -18q-4 -7 -15 -7q-7 0 -12 1zM299 803q-23 -17 -39 -24q-4 -9 -14 -9q-18 0 -32 23q-6 9 -3 19q0 7 2 53q2 30 31 38q12 2 16 2q28 0 34 -39q1 -21 5 -63z" />
    <glyph glyph-name="multiply" unicode="&#xd7;" horiz-adv-x="453" 
d="M182 293l14 23q37 63 77 63q11 0 24.5 -13.5t18.5 -16.5q5 -22 5 -27q0 -7 -45 -51t-45 -59v-2l10 -18q3 -3 27 -18.5t41 -33.5t17 -38q0 -18 -15 -29l-14 -15q-22 -5 -27 -5q-7 0 -28.5 19t-46.5 44t-31 30l-24 -16q-18 -12 -42 -44.5t-42 -32.5q-54 26 -57 30
q-3 1 -3 8q0 9 5.5 20t11.5 19.5t19.5 26l22.5 29.5q5 1 28 13q2 2 3.5 12t2.5 12q-18 21 -37 37.5t-29 23t-16 15t-6 19.5q26 54 30 57q2 2 7 2q10 0 21 -5t19.5 -12l25 -20t29.5 -22q0 -9 8 -19.5t23 -10.5q11 0 18 5z" />
    <glyph glyph-name="Oslash" unicode="&#xd8;" horiz-adv-x="842" 
d="M219 168q201 323 209 349q15 11 27 54q8 12 19 25q-2 11 -7 21q-6 11 -16 19q-40 21 -104 21q-29 0 -60 -4l-12 -9q-30 -2 -40 -30q-9 -4 -37 -34q-2 -11 -14 -30q-13 -22 -19 -26q-18 -117 -22 -126q-3 -7 -10 -28q-3 -18 -1 -57q4 -43 4 -57q0 -4 8 -15t8 -13
q18 -46 21 -51q10 -22 23 -22q10 0 23 13zM194 13q-20 -24 -55 -79q-6 -9 -17 -9q-10 0 -20 6t-10 15q0 19 42 86l19 31q-8 8 -12 8q-1 0 -6 -3t-8 -1q-27 11 -71 82q-43 72 -60 200q7 22 11 54q-1 16 17 51q0 14 9 46l27 33q3 12 13 27l38 39q21 21 45 32q20 19 30 18
l12 18q8 -2 23 0q6 7 21 15l21 6q5 2 18 13q1 1 20 -2l49 6q3 0 15 -6t16 -5q13 3 27 3q22 0 88 -20l3 1q3 1 7 2t6 1q6 0 10 -4q15 25 15 29q0 5 -3 11q9 12 23 49q12 5 20 5q24 0 51 -45q-10 -15 -51 -85q1 -25 7 -29q3 -6 6.5 -10.5t10 -8t8.5 -5t11.5 -5.5t10.5 -4
q0 -3 1.5 -7t3 -9.5t2.5 -10.5q4 -3 16 -15q7 -18 16 -22q13 -6 16.5 -10t4.5 -15q1 -15 3 -18q7 -4 11 -8.5t7 -14l3.5 -11t3.5 -14.5q14 -45 14 -87q0 -69 -36 -153q-18 -5 -20 -13q-2 -31 -9 -39q-9 -2 -11 -10q-5 -12 -6 -15q-24 -32 -92 -74q-8 0 -14 -1
q-16 -16 -27 -26q-9 -6 -43 -15q-35 -11 -37 -14q-15 -4 -97 0q-11 12 -19 12q-4 0 -20 -6q-6 6 -17 13q-17 2 -43 10q-20 13 -31 13q-9 0 -17 -6zM429 374q-5 0 -22 -33q-16 -35 -26 -44q-21 -18 -44 -62q-22 -44 -43 -62q-14 -11 -18 -34t-13 -32q0 -1 -1 -2.5t-2 -3.5
l-2 -4l2 -16q1 -13 24 -27t55 -21l20 -12q6 -2 22.5 3.5t20.5 4.5q5 0 9.5 -1.5l7.5 -2.5l3 -1q2 0 20 9q5 -3 11 -3q11 0 25 14q6 6 11 10.5t8 7.5l3 2q12 -2 25 5q0 3 4 19q30 31 40 82q7 14 18 39q3 11 5 50q2 32 6 47q5 18 5 52q0 37 -8 47q-5 7 -7 32.5t-3 29.5
q-21 47 -42 74q-7 0 -25 -2l-6 -5q-6 -4 -12 -14.5t-6 -26.5q-9 -5 -36 -55q-28 -52 -29 -64z" />
    <glyph glyph-name="Ugrave" unicode="&#xd9;" horiz-adv-x="823" 
d="M723 647q0 -5 -18 -10q-17 -5 -23 -14q-1 -5 -10 -21q0 -51 -5 -131q-2 -23 3 -58v-35q0 -21 -10 -34q7 -3 7 -48q0 -100 -13 -152q-5 -3 -31 -40q-20 -27 -35 -30q-40 -41 -113 -84q-18 3 -64 -5q-48 -9 -69 -8q-20 11 -33 11q-3 0 -11 -1.5t-11 -1.5t-11 2q-4 6 -19 18
q-5 3 -30 5q-22 1 -31 5q-15 5 -33 24q-23 23 -31 28q-1 5 -9.5 10.5t-9.5 6.5q-7 21 -25 53q0 10 -5 43q-5 31 -4 41q-10 11 -10 20q-3 56 0 136q5 18 5 37q0 13 -5 55t-5 57q0 9 3.5 30.5t3.5 26.5q0 26 -34 38q-43 13 -51 26q4 33 43 33l48 -1q13 9 20 9t20 -10
q4 0 19 -2.5t18 -2.5q8 0 15 5q18 4 29 -4l88 7q19 -15 19 -25q0 -12 -35 -23q-39 -14 -43 -22q-10 0 -22 -15q-1 0 -3 -168l-3 -24q0 -7 11 -24q2 -4 -3 -18l-9 -18q6 -15 4 -67q-2 -46 7 -62q-3 -19 17 -63q-2 -8 -2 -11q0 -27 33 -34q3 -19 42 -37q35 -16 64 -16
q7 0 13 2q15 -20 32 -3q3 -1 12 -1q1 0 52 9q10 8 27.5 11t18.5 3q19 8 42 44q25 37 22 56q9 14 10 108q2 93 -3 110q4 26 1 44l5 8v1l0.5 2t0.5 5t0.5 7t0.5 9q1 21 0 33q-1 18 -6 21q9 35 -4 79q-3 0 -13 15t-15 18q-6 3 -37 5q-15 2 -25 14q-6 29 24 34q33 -11 75 5
l86 -3q75 -3 75 -18q0 -10 -34 -25zM441 659l-78 63l-6 12q-23 27 -81 75q-1 1 -13 30q-3 4 -11.5 11.5t-13 13t-1.5 9.5q0 9 9 18q10 11 16 17q2 -2 11 1l9 3q3 0 5 -2q4 -2 62 -84q61 -82 62 -86q17 -34 37 -50q7 -6 7 -19q0 -17 -14 -12z" />
    <glyph glyph-name="Uacute" unicode="&#xda;" horiz-adv-x="823" 
d="M383 890q5 -1 20 8t16 9q6 1 27 -6q14 -5 20 -10t6 -6.5v-7.5q0 -21 -29 -41q-36 -24 -81 -75q-56 -65 -75 -82q18 -13 18 -23q0 -12 -35 -23q-39 -14 -43 -22q-10 0 -22 -15q-1 0 -3 -168l-3 -24q0 -7 11 -24q2 -4 -3 -18l-9 -18q6 -15 4 -67q-2 -46 7 -62
q-3 -19 17 -63q-2 -8 -2 -11q0 -27 33 -34q3 -19 42 -37q35 -16 64 -16q7 0 13 2q15 -20 32 -3q3 -1 12 -1q1 0 52 9q10 8 27.5 11t18.5 3q19 8 42 44q25 37 22 56q9 14 10 108q2 93 -3 110q4 26 1 44l5 8v1l0.5 2t0.5 5t0.5 7t0.5 9q1 21 0 33q-1 18 -6 21q9 35 -4 79
q-3 0 -13 15t-15 18q-6 3 -37 5q-15 2 -25 14q-6 29 24 34q33 -11 75 5l86 -3q75 -3 75 -18q0 -10 -34 -25q0 -5 -18 -10q-17 -5 -23 -14q-1 -5 -10 -21q0 -51 -5 -131q-2 -23 3 -58v-35q0 -21 -10 -34q7 -3 7 -48q0 -100 -13 -152q-5 -3 -31 -40q-20 -27 -35 -30
q-40 -41 -113 -84q-18 3 -64 -5q-48 -9 -69 -8q-20 11 -33 11q-3 0 -11 -1.5t-11 -1.5t-11 2q-4 6 -19 18q-5 3 -30 5q-22 1 -31 5q-15 5 -33 24q-23 23 -31 28q-1 5 -9.5 10.5t-9.5 6.5q-7 21 -25 53q0 10 -5 43q-5 31 -4 41q-10 11 -10 20q-3 56 0 136q5 18 5 37
q0 13 -5 55t-5 57q0 9 3.5 30.5t3.5 26.5q0 26 -34 38q-43 13 -51 26q4 33 43 33l48 -1q13 9 20 9t20 -10q4 0 19 -2.5t18 -2.5q8 0 15 5q18 4 29 -4l63 5q-3 13 4 33t18 27q18 11 20 17q2 4 4.5 12t3.5 12q17 20 49 67q4 13 23 43z" />
    <glyph glyph-name="Ucircumflex" unicode="&#xdb;" horiz-adv-x="823" 
d="M383 817l-7 -3q-1 -17 -21 -46q-19 -26 -22 -52q-10 -18 -30 -43q-6 -12 -10 -19q-2 -18 -31 -26q-30 -8 -35 -17q-10 0 -22 -15q-1 0 -3 -168l-3 -24q0 -7 11 -24q2 -4 -3 -18l-9 -18q6 -15 4 -67q-2 -46 7 -62q-3 -19 17 -63q-2 -8 -2 -11q0 -27 33 -34q3 -19 42 -37
q35 -16 64 -16q7 0 13 2q15 -20 32 -3q3 -1 12 -1q1 0 52 9q10 8 27.5 11t18.5 3q19 8 42 44q25 37 22 56q9 14 10 108q2 93 -3 110q4 26 1 44l5 8v1l0.5 2t0.5 5t0.5 7t0.5 9q1 21 0 33q-1 18 -6 21q9 35 -4 79q-3 0 -13 15t-15 18q-6 3 -37 5q-15 2 -25 14q-6 29 24 34
q33 -11 75 5l86 -3q75 -3 75 -18q0 -10 -34 -25q0 -5 -18 -10q-17 -5 -23 -14q-1 -5 -10 -21q0 -51 -5 -131q-2 -23 3 -58v-35q0 -21 -10 -34q7 -3 7 -48q0 -100 -13 -152q-5 -3 -31 -40q-20 -27 -35 -30q-40 -41 -113 -84q-18 3 -64 -5q-48 -9 -69 -8q-20 11 -33 11
q-3 0 -11 -1.5t-11 -1.5t-11 2q-4 6 -19 18q-5 3 -30 5q-22 1 -31 5q-15 5 -33 24q-23 23 -31 28q-1 5 -9.5 10.5t-9.5 6.5q-7 21 -25 53q0 10 -5 43q-5 31 -4 41q-10 11 -10 20q-3 56 0 136q5 18 5 37q0 13 -5 55t-5 57q0 9 3.5 30.5t3.5 26.5q0 26 -34 38q-43 13 -51 26
q4 33 43 33l48 -1q13 9 20 9t20 -10q4 0 19 -2.5t18 -2.5q8 0 15 5q18 4 29 -4l58 3q20 0 21 16q3 22 7 25q-3 5 6 35q17 16 20 27q0 1 2 33q15 13 25 51q12 40 13 41q7 10 23 10q25 0 34 -21q12 -28 17 -41q7 -15 24 -40q2 -2 9 -38q9 -36 21 -50q17 -19 17 -34
q0 -12 -13 -18q-9 -5 -23 21q-5 11 -17 35q-6 3 -16 13q-11 28 -32 69q-2 1 -11 6z" />
    <glyph glyph-name="Udieresis" unicode="&#xdc;" horiz-adv-x="823" 
d="M723 647q0 -5 -18 -10q-17 -5 -23 -14q-1 -5 -10 -21q0 -51 -5 -131q-2 -23 3 -58v-35q0 -21 -10 -34q7 -3 7 -48q0 -100 -13 -152q-5 -3 -31 -40q-20 -27 -35 -30q-40 -41 -113 -84q-18 3 -64 -5q-48 -9 -69 -8q-20 11 -33 11q-3 0 -11 -1.5t-11 -1.5t-11 2q-4 6 -19 18
q-5 3 -30 5q-22 1 -31 5q-15 5 -33 24q-23 23 -31 28q-1 5 -9.5 10.5t-9.5 6.5q-7 21 -25 53q0 10 -5 43q-5 31 -4 41q-10 11 -10 20q-3 56 0 136q5 18 5 37q0 13 -5 55t-5 57q0 9 3.5 30.5t3.5 26.5q0 26 -34 38q-43 13 -51 26q4 33 43 33l48 -1q13 9 20 9t20 -10
q4 0 19 -2.5t18 -2.5q8 0 15 5q18 4 29 -4l88 7q19 -15 19 -25q0 -12 -35 -23q-39 -14 -43 -22q-10 0 -22 -15q-1 0 -3 -168l-3 -24q0 -7 11 -24q2 -4 -3 -18l-9 -18q6 -15 4 -67q-2 -46 7 -62q-3 -19 17 -63q-2 -8 -2 -11q0 -27 33 -34q3 -19 42 -37q35 -16 64 -16
q7 0 13 2q15 -20 32 -3q3 -1 12 -1q1 0 52 9q10 8 27.5 11t18.5 3q19 8 42 44q25 37 22 56q9 14 10 108q2 93 -3 110q4 26 1 44l5 8v1l0.5 2t0.5 5t0.5 7t0.5 9q1 21 0 33q-1 18 -6 21q9 35 -4 79q-3 0 -13 15t-15 18q-6 3 -37 5q-15 2 -25 14q-6 29 24 34q33 -11 75 5
l86 -3q75 -3 75 -18q0 -10 -34 -25zM446 774q-4 8 -24 35q-16 20 -16 38q0 43 33 45q11 8 22 8q21 0 36 -25q16 -23 16 -47q0 -4 -0.5 -7t-2.5 -5.5t-3 -4t-4.5 -4t-4.5 -3.5t-5.5 -3.5t-5.5 -2.5q-6 -6 -14 -18q-4 -7 -16 -7q-6 0 -11 1zM340 798q-22 -16 -39 -24
q-5 -9 -14 -9q-17 0 -32 23q-4 9 -3 19q0 7 2 53q3 31 31 38q12 2 16 2q28 0 34 -39q4 -42 5 -63z" />
    <glyph glyph-name="Yacute" unicode="&#xdd;" horiz-adv-x="677" 
d="M668 665q4 -7 4 -15q0 -3 -1.5 -6t-5.5 -5t-7 -3t-9 -2.5t-9 -2t-10.5 -1.5t-9.5 -1q-25 -6 -50 -33q-31 -33 -43 -40q-6 -28 -38 -69q-37 -49 -46 -67q-12 -9 -41 -47q-30 -41 -32 -52q4 -10 2 -37q-1 -24 3 -37q-2 -12 -4 -82q-1 -71 3 -75q4 -7 23.5 -18.5t21.5 -12.5
l49 -13q13 -12 13 -28q0 -13 -10 -20q-50 7 -98 11q-16 -12 -25 -10l-14.5 7t-15.5 7q-5 3 -42 -8q-20 -6 -38.5 -7t-24 0.5t-11.5 -1.5q-20 -1 -30 0q-16 7 -14 29q10 10 51 29q34 15 40 33q10 4 10 23q0 9 -5 34q-4 20 -4 27q0 10 4 22q4 17 4 23q-1 8 -1.5 32.5
t-0.5 35.5l-6 9q4 16 -9 19l-28 47q-19 29 -37 41l-100 139q-5 33 -40 52q-17 9 -64 26q-34 12 -34 25q0 8 10 18l10 1l9 9l69 2q46 1 71 -3q8 -3 21 -11q14 -8 19 -5q37 18 73 18q26 0 56 -9q-1 -40 -23 -40q-9 0 -22 7q-7 4 -23 -14q-10 -12 -18 -25q-5 -9 18 -44
q23 -33 36 -41q5 -16 25 -36q22 -21 28 -34q19 -41 45 -49q7 -1 37 36.5t85 117.5q7 5 12 11t8.5 14t5.5 13.5t4.5 16l3.5 14.5q-8 21 -27 21q-7 0 -20.5 -5.5t-15.5 -5.5q-18 0 -18 25q0 14 8 22q13 0 28 4q18 5 29 7q9 1 15.5 -0.5t9.5 -3.5t4 -2q119 0 157 -7zM435 886
q5 -1 20 8t16 9q6 1 27 -6q14 -5 20 -10t6 -6.5v-7.5q0 -21 -29 -41q-30 -20 -149 -150q-16 -16 -24 -16q-14 0 -9 29q6 30 22 40q18 11 20 17q2 4 4.5 12t3.5 12q17 20 49 67q4 13 23 43z" />
    <glyph glyph-name="Thorn" unicode="&#xde;" horiz-adv-x="656" 
d="M226 173q0 -12 -1 -35q-2 -26 5 -31q2 -25 21 -36q9 -5 43 -10q28 -3 39 -11q3 -9 3 -17q0 -27 -40 -27l-57 2q-9 -10 -15 -10q-3 0 -58 5q-31 3 -59 1q-11 -4 -38 -10q-16 -2 -38.5 2.5t-31.5 12.5q-2 6 -2 9q0 27 22 34q2 0 10.5 -5t12.5 -5q14 0 34 14t21 27l1 13
q2 14 4 25q4 19 4 34q0 19 -6 39q4 20 7 32q5 22 5 30q0 21 -15 36q-1 4 2 12q4 9 4 13q-2 22 -2 40q5 5 10 14q1 4 -6 25t-7 28q0 46 -1 82q0 7 1.5 31.5t1.5 30.5q0 55 -42 64q-11 -3 -35 1q-16 7 -16 25q0 11 10 17q86 -2 98 -2q17 -12 45 -12q39 0 110 25q22 -6 22 -18
t-30 -44t-26 -43q-16 -19 -10 -52q14 3 37 3l36 -1l10 6q9 -1 36 0q18 1 40 -12q3 -2 13.5 2.5t13.5 4.5q4 -6 10 -12q30 0 50 -29q8 -4 13 -9q17 -2 30 -24q14 -2 24 -23q16 -30 18 -32q-1 -13 2 -38.5t3 -28.5q0 -22 -12 -51q-12 -25 -35 -58q-25 -14 -64 -43
q-2 -3 -11 -12q-6 2 -18 0q-3 -3 -19 -10q-9 3 -17 3q-7 0 -29.5 -8t-30.5 -8q-11 0 -25 6q-21 -11 -30 7q-1 -1 -45 11zM229 255q2 -2 -3 -44q3 -4 8 -6q1 -9 17 -14q12 -3 23 0q6 5 17 3q16 -3 17 -3q5 0 25.5 8.5t33.5 9.5q33 17 71 91q0 6 6 25.5t6 23.5q0 10 -7 17
q1 5 1 15q0 6 -1.5 12.5t-3.5 11.5t-6 12.5t-6.5 11t-8 12l-7.5 11.5q-2 1 -8 8t-15 13.5t-20 7.5q-11 0 -35 9q-22 9 -34 9q-17 0 -30 -13q-4 1 -12 1q-30 0 -30 -31q0 -8 3 -18q-6 -6 -7 -11v-30q2 -66 6 -142z" />
    <glyph glyph-name="germandbls" unicode="&#xdf;" horiz-adv-x="439" 
d="M228 139q30 -3 40 -5l12 -12l22 4l13 18l24 32l12 70q2 14 2 19q0 48 -61 76l-11 -7l-11 1q-3 4 -7 4q-3 0 -13.5 -4.5t-12.5 -4.5q-6 2 -35 10q-5 5 -5 14q0 13 11 29l9 3q9 9 27 23l13 -4q9 14 28 24q15 7 29 38q1 10 2.5 28t1.5 27q3 48 0 51l-29 42l-26 12l-64 -9
q-51 -44 -51 -135q0 -27 4 -66q4 -37 4 -59q0 -32 -9 -48q9 -52 8 -120l-3 -121l13 -18q47 -14 47 -41q0 -22 -24 -22q-15 0 -30 15h-19q-7 -6 -18 -6q-4 0 -20.5 4t-22.5 3q-2 0 -32 -5q-19 -4 -32 0q-17 5 -17 20q0 22 22 29q48 15 49 57v48q2 31 7 45l-7 25q5 23 4 53
q-1 35 -9 52q-37 3 -37 35q0 13 8 29q32 2 35 14q2 12 -1 36q-3 25 1 37q6 17 16 65q21 21 51 68q34 54 76 70q24 8 96 13q0 -1 1 -3t2.5 -4t3.5 -5.5t4 -7.5q26 -10 47 -28h6q4 -3 6 -14q2 -14 3 -17q14 -31 14 -68q0 -59 -33 -95l-15 -7q-6 -15 -9.5 -19t-15.5 -11l-1 -8
q8 -10 31 -25q21 -17 43 -61q16 -32 16 -69q0 -55 -31 -80l-26 -47q-5 -8 -19 -18l-4 -8l-36 -22q-28 -14 -46 -14q-24 0 -33 24q-4 30 12 51z" />
    <glyph glyph-name="agrave" unicode="&#xe0;" horiz-adv-x="396" 
d="M272 463l-78 63l-6 11q-21 27 -81 76q-1 1 -13 30q-3 4 -12 12t-13 13.5t-1 9.5q0 10 24 44q13 -2 26 -8q4 -2 62 -84q61 -82 62 -86q14 -33 36 -50q8 -8 8 -19q0 -17 -14 -12zM365 23q-26 -29 -62 -29q-53 0 -105 51v13q-2 8 -7 9q-3 1 -11 -8q-7 -11 -9 -13
q-4 -1 -20 -8q-9 -10 -30 -30q-5 -1 -20 -3.5t-25 -4.5q-10 -3 -17 -3q-14 0 -38 34q-24 30 -24 61q0 24 18 70q52 31 68 27q15 19 60 30q41 10 49 27q14 3 14 21q0 9 -4 14q1 4 1 12q0 29 -19 51q-1 7 -3.5 11.5t-8 7t-8.5 3.5t-12 2t-11 1t-12 7q-7 4 -29 -9t-26 -20
q6 -23 9 -57q-3 -9 -20 -14l-16.5 -5t-8.5 -3.5t-3.5 -2t-3.5 -0.5q-3 0 -11 4.5t-10 4.5q-4 0 -7 -5q-6 24 -6 36q0 23 22 55q24 22 58 46q10 -3 17 -2l8 8q17 7 56 18q3 0 21 2q23 -3 63 -18q12 -7 29 -61q6 -9 15 -30q8 -39 7 -86q0 -2 -4 -49q-3 -36 -3 -57
q0 -47 13 -73q5 -9 11 -9q10 0 36 48l14 2q12 -15 12 -33zM180 211q-15 -15 -47 -33q-34 -20 -47 -36q-5 -8 -5 -15q0 -10 11 -32q12 -20 14 -28h13q38 1 64 37q20 32 20 67q0 40 -23 40z" />
    <glyph glyph-name="aacute" unicode="&#xe1;" horiz-adv-x="391" 
d="M355 36q-1 -1 -4.5 -6.5l-4.5 -7t-5 -5.5t-6.5 -5.5t-6.5 -3t-9 -1.5q-19 -17 -26 -17q-51 0 -69 19q-4 5 -6 33q0 25 -14 28q-10 -3 -53 -40q-36 -31 -46 -30q-39 0 -58 12t-33 48q-4 8 -4 19q0 25 45 99q11 4 30 12q8 -1 27 2q3 2 21 24q36 -2 78 29q6 4 8 41t-5 42
q-1 26 -21 43t-47 17q-41 0 -53 -37l3 -7q0 -16 -10 -46q-28 -27 -40 -27q-13 0 -31 19q-1 1 -5 4.5t-6 5.5t-3.5 5.5t-1.5 7.5q0 32 50 68q48 35 103 46q3 -1 18 1q16 9 25 9q1 0 27 -9q9 -2 19 -1t18 -7q28 -28 40 -91q0 -2 -4 -17t-4 -18q3 -25 2 -65q-4 -6 -15 -31
q0 -6 3 -16q4 -12 4 -16q1 -19 1 -56q2 -34 18 -51q19 1 33 20q22 28 28 32q11 -11 11 -24q0 -17 -21 -51zM218 211l-12 6q-15 -11 -49 -27l-40 -36q-24 -26 -21 -45q2 -15 13.5 -30.5t22.5 -15.5q8 0 14 7q73 7 73 107q0 19 -1 34zM223 690q5 -1 20 8t16 9q6 1 27 -6
q14 -5 20 -10t6 -6.5v-7.5q0 -21 -29 -41q-30 -20 -149 -150q-15 -16 -24 -16q-14 0 -8 29q4 29 21 40q18 11 20 17q1 4 3.5 12t4.5 12q17 20 49 67q4 13 23 43z" />
    <glyph glyph-name="acircumflex" unicode="&#xe2;" horiz-adv-x="391" 
d="M355 36q-1 -1 -4.5 -6.5l-4.5 -7t-5 -5.5t-6.5 -5.5t-6.5 -3t-9 -1.5q-19 -17 -26 -17q-51 0 -69 19q-4 5 -6 33q0 25 -14 28q-10 -3 -53 -40q-36 -31 -46 -30q-39 0 -58 12t-33 48q-4 8 -4 19q0 25 45 99q11 4 30 12q8 -1 27 2q3 2 21 24q36 -2 78 29q6 4 8 41t-5 42
q-1 26 -21 43t-47 17q-41 0 -53 -37l3 -7q0 -16 -10 -46q-28 -27 -40 -27q-13 0 -31 19q-1 1 -5 4.5t-6 5.5t-3.5 5.5t-1.5 7.5q0 32 50 68q48 35 103 46q3 -1 18 1q16 9 25 9q1 0 27 -9q9 -2 19 -1t18 -7q28 -28 40 -91q0 -2 -4 -17t-4 -18q3 -25 2 -65q-4 -6 -15 -31
q0 -6 3 -16q4 -12 4 -16q1 -19 1 -56q2 -34 18 -51q19 1 33 20q22 28 28 32q11 -11 11 -24q0 -17 -21 -51zM218 211l-12 6q-15 -11 -49 -27l-40 -36q-24 -26 -21 -45q2 -15 13.5 -30.5t22.5 -15.5q8 0 14 7q73 7 73 107q0 19 -1 34zM166 598l-8 -3q-1 -17 -21 -46
q-20 -27 -21 -52q-10 -18 -30 -43q-4 -3 -10 -3q-21 0 -21 25q0 14 12 23q-3 6 6 36q15 12 20 26q1 3 1 33q16 13 26 52l12 40q9 10 23 10q26 0 35 -21q12 -28 17 -41q5 -14 23 -40q1 -1 10 -38q9 -36 21 -50q17 -19 17 -33q0 -13 -13 -19q-9 -5 -23 21q-10 19 -17 35
q-6 3 -16 13q-9 23 -32 70q-3 0 -11 5z" />
    <glyph glyph-name="atilde" unicode="&#xe3;" horiz-adv-x="391" 
d="M355 36q-1 -1 -4.5 -6.5l-4.5 -7t-5 -5.5t-6.5 -5.5t-6.5 -3t-9 -1.5q-19 -17 -26 -17q-51 0 -69 19q-4 5 -6 33q0 25 -14 28q-10 -3 -53 -40q-36 -31 -46 -30q-39 0 -58 12t-33 48q-4 8 -4 19q0 25 45 99q11 4 30 12q8 -1 27 2q3 2 21 24q36 -2 78 29q6 4 8 41t-5 42
q-1 26 -21 43t-47 17q-41 0 -53 -37l3 -7q0 -16 -10 -46q-28 -27 -40 -27q-13 0 -31 19q-1 1 -5 4.5t-6 5.5t-3.5 5.5t-1.5 7.5q0 32 50 68q48 35 103 46q3 -1 18 1q16 9 25 9q1 0 27 -9q9 -2 19 -1t18 -7q28 -28 40 -91q0 -2 -4 -17t-4 -18q3 -25 2 -65q-4 -6 -15 -31
q0 -6 3 -16q4 -12 4 -16q1 -19 1 -56q2 -34 18 -51q19 1 33 20q22 28 28 32q11 -11 11 -24q0 -17 -21 -51zM218 211l-12 6q-15 -11 -49 -27l-40 -36q-24 -26 -21 -45q2 -15 13.5 -30.5t22.5 -15.5q8 0 14 7q73 7 73 107q0 19 -1 34zM331 568q-1 -3 -18 -23q-15 -18 -19 -20
q-19 -4 -24.5 -5.5t-3.5 -1.5q-14 0 -70 10q-1 1 -6 4.5l-14.5 10.5t-20.5 14q-23 15 -38 15q-21 0 -47 -30q-33 -41 -42 -41q-16 0 -16 24q0 41 13 55q25 18 53 41q4 -4 27 4q7 1 24 0q2 0 13 -11q6 -6 9.5 -8t10.5 -3.5t11 -2.5q11 -3 16 -3q6 0 27 -15q23 -14 28 -14
q10 -5 15 -5q3 0 5.5 1t4.5 3.5t4 4.5t4 6.5t3 7.5t3 8.5t3 8.5t2.5 9t2.5 9q15 12 17 12l1 -1q1 0 3.5 -0.5t6.5 -1t8.5 -0.5h9.5q7 0 7 -7t-7 -27q-8 -20 -6 -28z" />
    <glyph glyph-name="adieresis" unicode="&#xe4;" horiz-adv-x="391" 
d="M355 36q-1 -1 -4.5 -6.5l-4.5 -7t-5 -5.5t-6.5 -5.5t-6.5 -3t-9 -1.5q-19 -17 -26 -17q-51 0 -69 19q-4 5 -6 33q0 25 -14 28q-10 -3 -53 -40q-36 -31 -46 -30q-39 0 -58 12t-33 48q-4 8 -4 19q0 25 45 99q11 4 30 12q8 -1 27 2q3 2 21 24q36 -2 78 29q6 4 8 41t-5 42
q-1 26 -21 43t-47 17q-41 0 -53 -37l3 -7q0 -16 -10 -46q-28 -27 -40 -27q-13 0 -31 19q-1 1 -5 4.5t-6 5.5t-3.5 5.5t-1.5 7.5q0 32 50 68q48 35 103 46q3 -1 18 1q16 9 25 9q1 0 27 -9q9 -2 19 -1t18 -7q28 -28 40 -91q0 -2 -4 -17t-4 -18q3 -25 2 -65q-4 -6 -15 -31
q0 -6 3 -16q4 -12 4 -16q1 -19 1 -56q2 -34 18 -51q19 1 33 20q22 28 28 32q11 -11 11 -24q0 -17 -21 -51zM218 211l-12 6q-15 -11 -49 -27l-40 -36q-24 -26 -21 -45q2 -15 13.5 -30.5t22.5 -15.5q8 0 14 7q73 7 73 107q0 19 -1 34zM265 510q-4 8 -24 35q-15 19 -15 38
q0 43 32 45q11 8 23 8q20 0 35 -25q16 -23 16 -47q-2 -15 -18 -26t-22 -22q-4 -7 -15 -7q-7 0 -12 1zM135 539q-23 -17 -39 -24q-4 -9 -14 -9q-18 0 -32 23q-6 8 -3 19q0 7 2 53q1 29 31 37q9 3 16 3q28 0 34 -39q1 -21 5 -63z" />
    <glyph glyph-name="aring" unicode="&#xe5;" horiz-adv-x="391" 
d="M355 36q-1 -1 -4.5 -6.5l-4.5 -7t-5 -5.5t-6.5 -5.5t-6.5 -3t-9 -1.5q-19 -17 -26 -17q-51 0 -69 19q-4 5 -6 33q0 25 -14 28q-10 -3 -53 -40q-36 -31 -46 -30q-39 0 -58 12t-33 48q-4 8 -4 19q0 25 45 99q11 4 30 12q8 -1 27 2q3 2 21 24q36 -2 78 29q6 4 8 41t-5 42
q-1 26 -21 43t-47 17q-41 0 -53 -37l3 -7q0 -16 -10 -46q-28 -27 -40 -27q-13 0 -31 19q-1 1 -5 4.5t-6 5.5t-3.5 5.5t-1.5 7.5q0 32 50 68q48 35 103 46q3 -1 18 1q16 9 25 9q1 0 27 -9q9 -2 19 -1t18 -7q28 -28 40 -91q0 -2 -4 -17t-4 -18q3 -25 2 -65q-4 -6 -15 -31
q0 -6 3 -16q4 -12 4 -16q1 -19 1 -56q2 -34 18 -51q19 1 33 20q22 28 28 32q11 -11 11 -24q0 -17 -21 -51zM218 211l-12 6q-15 -11 -49 -27l-40 -36q-24 -26 -21 -45q2 -15 13.5 -30.5t22.5 -15.5q8 0 14 7q73 7 73 107q0 19 -1 34zM231 542q-4 -11 -19 -29q-6 -2 -12 -8
q-5 -1 -16 -9l-33 -2h1q-18 0 -28 12q-1 0 -3 1t-5.5 3t-5.5 3q-6 4 -16 24q-5 10 -8 17t-4 10.5t-2 10t-2 10.5q1 2 1.5 8.5t0.5 9.5q2 2 7 15q2 7 12 17q12 11 11 15q3 4 36 21q2 2 8 0l6 -2h2q18 -2 24 -4q11 -8 20 -13q4 0 10 -3q21 -19 21 -58zM199 590q0 3 -1.5 6.5
t-3.5 7.5t-3 7q-7 15 -32 15q-10 0 -14 -4q-2 -6 -12 -12q-17 -15 -17 -33q0 -19 18 -28q15 -7 17 -9q6 2 11 3.5t8 3t4 1.5q15 6 18 14l5 2q1 2 2 7t2 7q3 7 -2 12z" />
    <glyph glyph-name="ae" unicode="&#xe6;" horiz-adv-x="623" 
d="M569 112q-4 -17 -11 -41t-21 -35q-14 -10 -60 -32q-50 -23 -56 -22l-62 9q-38 8 -54 25q-3 -1 -8 -1q-20 0 -47 54l-9 3q-3 -2 -7.5 -11t-6.5 -10l-14 -2q-20 -23 -73 -44q-54 -20 -89 -20q-8 0 -18 2q-22 4 -39 38q-17 36 -17 67q0 19 7 32q23 38 92 69l69 27q37 8 42 9
q25 9 30 26q-2 13 -4.5 40t-3.5 40q-10 38 -60 43q-8 5 -15 5q-28 0 -50 -39q-2 -4 -2 -8q0 -3 2.5 -17t2.5 -19q0 -21 -19 -30q-1 0 -38 -11q-36 5 -36 45q0 3 2 25l91 84q10 -1 36 11q37 18 52 18q7 0 25 -5q12 -4 21 -2q23 -16 41 -24q20 -42 33 -42q11 0 18 16
q12 6 24.5 24t19.5 21q21 10 75 11q26 0 61 -18q34 -18 52 -40q5 -7 12 -33q7 -24 7 -41q0 -9 -3 -13q-19 -27 -42 -16t-33 -4q-71 -2 -102 -25q-5 -1 -15 -2.5t-15 -1.5q-28 -4 -53 -28q-2 -2 -2 -4t6.5 -14.5t6.5 -15.5q0 -38 19 -70q3 -27 8.5 -35t28.5 -16
q63 -20 71 -20q5 0 18 9q17 13 51 22q9 20 38 63q7 4 13 -3t10 -23zM428 314q28 1 28 36q0 11 -7 17q-23 22 -52 22q-38 0 -73 -38q-30 -35 -30 -64q0 -15 9 -19q3 -2 53 12q49 13 55 17zM226 110l1 15q-4 28 -5 42q-3 26 -25 30q-8 1 -16 -7q-12 -11 -16 -12
q-13 -1 -43 -11q-41 -17 -41 -59q0 -19 14.5 -37t31.5 -18q12 0 40 20q26 20 39 22z" />
    <glyph glyph-name="ccedilla" unicode="&#xe7;" horiz-adv-x="382" 
d="M276 -248q-19 -1 -31 -18q-10 -16 -29 -16q-10 0 -15 1q-8 -2 -14 -2q-13 0 -28 7q-6 3 -12.5 5t-9.5 3.5t-4 1.5q-9 2 -18 -1q-12 -4 -19 -4q-16 0 -29 21q-14 20 -14 36q0 27 31 37q6 -1 21 -1.5t22 -0.5q12 -13 62 -58q1 -1 4 -1q9 0 26 11q18 11 18 16v43q0 6 -24 25
q-23 20 -23 29q0 4 4 7q-4 16 14 36q23 23 29 33q0 2 -0.5 7.5t-0.5 7.5t-1 6.5t-2.5 6.5t-4.5 5t-7 5q-51 -9 -91 2q-28 9 -36 6l-12 6q-2 4 -65 84q-1 13 -9 37q-4 5 -15 25q-1 7 6 21t7 16q-1 21 7 75q12 33 59 89q4 19 12 30q50 15 63 30q16 2 27 -5l7 1q17 15 31 15
q6 0 23 -6.5t20 -6.5l32 4q19 -1 42 -24q24 -23 24 -45q0 -4 -2 -10q-5 -14 -29 -28q-4 -2 -7 -2q-12 0 -53 41q-39 41 -64 41q-15 0 -31 -14q-33 -6 -56 -59q-20 -48 -20 -105q0 -64 25 -85q9 -29 33 -50q41 -37 41 -38q2 -1 10.5 3.5t10.5 4.5q10 -13 29 -13q7 0 14 4
q21 7 55 22q7 4 9 21q6 6 20 15q18 -2 19 -2q3 -15 3 -26q0 -38 -31 -39q-3 -2 -5.5 -4t-3.5 -3l-2 -1q-11 -1 -13 -6q-6 -6 -6 -8q0 -1 1 -1l4 -13l-6.5 -13t-7.5 -16q-12 -7 -35 -40q-21 -33 -21 -45q0 -5 6 -4q9 4 21 4q32 0 50 -39q10 -21 10 -46q-6 -9 -23 -24.5
t-22 -23.5z" />
    <glyph glyph-name="egrave" unicode="&#xe8;" horiz-adv-x="419" 
d="M86 160l1 -3q1 -3 3 -11t4 -15q4 -16 17 -24q5 -34 68 -56q7 -3 24 0t26 1q12 5 72 34q8 6 20 29q12 22 23 22q23 0 23 -26q0 -30 -35 -74q-14 0 -23 -10t-16 -17q-7 3 -13 3q-12 0 -28 -21q-2 -4 -16 -8.5t-15 -5.5q-10 2 -15 2q-4 0 -19 -3.5t-22 -2.5q-7 0 -33 8
q-20 8 -32 6q-12 -1 -25 12q-12 16 -19 24q-5 19 -36 59q-26 36 -27 63q-5 117 8 137q2 4 7 29q1 13 12 40q13 8 27 29q4 -2 5 -2q5 0 13 11l10 16q5 4 24 6q19 1 28 21q30 11 55 11q40 0 80 -26q16 3 18 3q58 -30 75 -101l8 -29q0 -22 -52 -16q-5 1 -16.5 -3.5t-14.5 -4.5
q-6 3 -18 3q-31 -10 -46 -10q-17 0 -35 7q-10 -1 -42 -1q-27 9 -45 9t-18 -15q1 -1 -1 -32q-2 -26 0 -41q3 -21 11 -27zM117 298q6 8 54 5q5 -3 16 -1q3 0 5.5 0.5t4.5 1t3.5 0.5h2.5q12 -2 15 -2q28 0 28 21t-24 46q-22 25 -45 25q-27 0 -56 -29q-4 -11 -10 -21
q-21 -32 -21 -38q0 -9 14 -9q8 0 13 1zM322 463l-78 63l-6 11q-21 27 -81 76q-1 1 -13 30q-3 4 -12 12t-13 13.5t-1 9.5q0 10 24 44q13 -2 26 -8q4 -2 62 -84q61 -82 62 -86q14 -33 36 -50q8 -8 8 -19q0 -17 -14 -12z" />
    <glyph glyph-name="eacute" unicode="&#xe9;" horiz-adv-x="405" 
d="M223 690q5 -1 20 8t16 9q6 1 27 -6q14 -5 20 -10t6 -6.5v-7.5q0 -21 -29 -41q-30 -20 -149 -150q-15 -16 -24 -16q-14 0 -8 29q4 29 21 40q18 11 20 17q1 4 3.5 12t4.5 12q14 15 49 67q4 13 23 43zM358 300q-13 -34 -26 -34q-3 0 -15 5l-21 11q-6 2 -31 -9q-12 -2 -29 -6
q-2 0 -15.5 1.5t-25.5 3.5q-24 4 -41 2l-12 -4q-12 -4 -17 -2q-1 0 -10.5 9.5t-13.5 9.5q-3 0 -7 -4q-4 -3 -4 -41q0 -75 20 -86q3 -10 7 -21.5t5 -16.5l2 -4q12 -27 29 -29q6 -7 26 -18t27 -8l9 -13q5 -3 11 4q1 2 3.5 5t4.5 4q4 3 15 0q7 -1 18 15q18 1 38 34t37 31
q6 -11 6 -24q0 -24 -41 -82q-5 -1 -42 -22q-31 -19 -54 -20l-7 3q-7 2 -14 5t-9 3q-8 -5 -47 -3q-7 14 -49 29q-11 10 -14 13q-7 0 -18 6q-13 14 -31 52q-9 7 -18 19q0 8 -3 21q-5 7 -13 32q12 7 12 18q0 3 -4 14.5t-4 14.5q5 9 7 30q0 8 0.5 13t2.5 10t2.5 6.5t5 7t6.5 7.5
q2 17 13 46q9 17 29 47q17 7 38 19q26 15 40 16q0 1 36 10q6 -1 13 2q10 7 11 7q8 -3 21 -6q2 0 9 1.5t10 1.5q6 0 14.5 -9.5t15.5 -8.5q6 1 12 1q3 -3 23 -17q29 -13 43 -42q10 -21 14 -60zM216 404q-34 3 -68 -20q-29 -22 -47 -54l1 -12q5 0 35 -2q4 -1 12.5 -5.5
t9.5 -4.5q2 0 11.5 4.5t13.5 4.5q6 0 26.5 -4t26.5 -4q33 0 33 39q0 18 -10 29q-2 4 -20 13t-24 16z" />
    <glyph glyph-name="ecircumflex" unicode="&#xea;" horiz-adv-x="419" 
d="M86 160l1 -3q1 -3 3 -11t4 -15q4 -16 17 -24q5 -34 68 -56q7 -3 24 0t26 1q12 5 72 34q8 6 20 29q12 22 23 22q23 0 23 -26q0 -30 -35 -74q-14 0 -23 -10t-16 -17q-7 3 -13 3q-12 0 -28 -21q-2 -4 -16 -8.5t-15 -5.5q-10 2 -15 2q-4 0 -19 -3.5t-22 -2.5q-7 0 -33 8
q-20 8 -32 6q-12 -1 -25 12q-12 16 -19 24q-5 19 -36 59q-26 36 -27 63q-5 117 8 137q2 4 7 29q1 13 12 40q13 8 27 29q4 -2 5 -2q5 0 13 11l10 16q5 4 24 6q19 1 28 21q30 11 55 11q40 0 80 -26q16 3 18 3q58 -30 75 -101l8 -29q0 -22 -52 -16q-5 1 -16.5 -3.5t-14.5 -4.5
q-6 3 -18 3q-31 -10 -46 -10q-17 0 -35 7q-10 -1 -42 -1q-27 9 -45 9t-18 -15q1 -1 -1 -32q-2 -26 0 -41q3 -21 11 -27zM117 298q6 8 54 5q5 -3 16 -1q3 0 5.5 0.5t4.5 1t3.5 0.5h2.5q12 -2 15 -2q28 0 28 21t-24 46q-22 25 -45 25q-27 0 -56 -29q-4 -11 -10 -21
q-21 -32 -21 -38q0 -9 14 -9q8 0 13 1zM186 598l-8 -3q-1 -17 -21 -46q-20 -27 -21 -52q-10 -18 -30 -43q-4 -3 -10 -3q-21 0 -21 25q0 14 12 23q-3 6 6 36q15 12 20 26q1 3 1 33q16 13 26 52l12 40q9 10 23 10q26 0 35 -21q12 -28 17 -41q5 -14 23 -40q1 -1 10 -38
q9 -36 21 -50q17 -19 17 -33q0 -13 -13 -19q-9 -5 -23 21q-10 19 -17 35q-6 3 -16 13q-9 23 -32 70q-3 0 -11 5z" />
    <glyph glyph-name="edieresis" unicode="&#xeb;" horiz-adv-x="419" 
d="M86 160l1 -3q1 -3 3 -11t4 -15q4 -16 17 -24q5 -34 68 -56q7 -3 24 0t26 1q12 5 72 34q8 6 20 29q12 22 23 22q23 0 23 -26q0 -30 -35 -74q-14 0 -23 -10t-16 -17q-7 3 -13 3q-12 0 -28 -21q-2 -4 -16 -8.5t-15 -5.5q-10 2 -15 2q-4 0 -19 -3.5t-22 -2.5q-7 0 -33 8
q-20 8 -32 6q-12 -1 -25 12q-12 16 -19 24q-5 19 -36 59q-26 36 -27 63q-5 117 8 137q2 4 7 29q1 13 12 40q13 8 27 29q4 -2 5 -2q5 0 13 11l10 16q5 4 24 6q19 1 28 21q30 11 55 11q40 0 80 -26q16 3 18 3q58 -30 75 -101l8 -29q0 -22 -52 -16q-5 1 -16.5 -3.5t-14.5 -4.5
q-6 3 -18 3q-31 -10 -46 -10q-17 0 -35 7q-10 -1 -42 -1q-27 9 -45 9t-18 -15q1 -1 -1 -32q-2 -26 0 -41q3 -21 11 -27zM117 298q6 8 54 5q5 -3 16 -1q3 0 5.5 0.5t4.5 1t3.5 0.5h2.5q12 -2 15 -2q28 0 28 21t-24 46q-22 25 -45 25q-27 0 -56 -29q-4 -11 -10 -21
q-21 -32 -21 -38q0 -9 14 -9q8 0 13 1zM285 510q-4 8 -24 35q-15 19 -15 38q0 43 32 45q11 8 23 8q20 0 35 -25q16 -23 16 -47q-2 -15 -18 -26t-22 -22q-4 -7 -15 -7q-7 0 -12 1zM155 539q-23 -17 -39 -24q-4 -9 -14 -9q-18 0 -32 23q-6 8 -3 19q0 7 2 53q1 29 31 37
q9 3 16 3q28 0 34 -39q1 -21 5 -63z" />
    <glyph glyph-name="igrave" unicode="&#xec;" horiz-adv-x="238" 
d="M197 -4q-4 -1 -12 4.5t-9 5.5q-30 -4 -60 -5q-4 0 -21 8.5t-22 8.5t-8 -3q-23 -23 -35 -23q-7 0 -15 5q-12 6 -4 36q5 6 37 8q24 16 26 46q1 17 1 53q-1 17 -1.5 55t-0.5 57l1 4v8.5t0.5 11.5l1 12.5t0.5 10.5q0 37 -15 35q-15 9 -39 31q-6 23 23 32q8 2 23 6.5t22 7.5
l30 11q22 9 25 6q9 -8 9 -22q0 -5 -3.5 -24.5t-3.5 -25.5q3 -35 1 -140q-1 -86 5 -141q27 -40 42 -40q3 0 7 2q10 -7 10 -15q0 -10 -15 -26zM172 433l-78 63l-6 11q-21 27 -81 76q-1 1 -13 30q-3 4 -12 12t-13 13.5t-1 9.5q0 10 24 44q13 -2 26 -8q4 -2 62 -84
q61 -82 62 -86q14 -33 36 -50q8 -8 8 -19q0 -17 -14 -12z" />
    </font>
</defs>
</svg>
