<?xml version="1.0" encoding="utf-8"?>
<!-- Generator: Adobe Illustrator 15.1.0, SVG Export Plug-In . SVG Version: 6.00 Build 0)  -->
<svg version="1.2" baseProfile="tiny" id="Шар_1"
	 xmlns="http://www.w3.org/2000/svg" xmlns:xlink="http://www.w3.org/1999/xlink" x="0px" y="0px" width="24px" height="24px"
	 viewBox="0 0 24 24" xml:space="preserve">
<g>
	<path fill="none" d="M16.389,13.781c-0.096-0.214-0.242-0.39-0.434-0.508c-0.076-0.046-0.17-0.087-0.268-0.11
		c-0.057-0.004-0.113-0.008-0.168-0.012c-0.025,0-0.051,0-0.074,0c-0.055-0.013-0.131,0.005-0.188-0.008
		c-0.034-0.007-0.084,0.006-0.123-0.003c-0.031-0.006-0.078-0.003-0.115-0.003c-0.063,0-0.144-0.001-0.205-0.006
		c-0.147-0.002-0.296-0.002-0.443-0.004c-0.057-0.012-0.138-0.004-0.201-0.004c-0.116-0.001-0.231-0.002-0.348-0.003
		c-0.055,0-0.11,0-0.165,0c-0.046-0.009-0.108-0.003-0.159-0.003c-0.104,0-0.207,0-0.311,0c-0.045,0-0.09,0-0.135,0
		c-0.043-0.01-0.107-0.003-0.156-0.003c-0.1,0-0.201,0-0.301,0c-0.316,0-0.632,0-0.949,0c-0.403,0-0.81,0.003-1.209,0.003
		c-0.133,0-0.266,0-0.397,0c-0.064,0-0.144-0.01-0.202,0.003c-0.156,0-0.313,0-0.469,0c-0.191,0.011-0.395,0-0.585,0.011
		c-0.069,0.003-0.143,0.003-0.208,0.003c-0.035,0-0.081-0.003-0.109,0.003c-0.027,0-0.054,0-0.08,0c-0.063,0-0.154-0.003-0.212,0.01
		c-0.072,0.004-0.143,0.007-0.215,0.01c-0.045,0.01-0.096,0.005-0.142,0.017c-0.081,0.019-0.156,0.04-0.218,0.077
		c-0.238,0.143-0.405,0.334-0.516,0.602c-0.043,0.104-0.052,0.222-0.079,0.344c-0.006,0.024-0.001,0.065,0.003,0.084
		c0.008,0.037,0.005,0.064,0.017,0.098c0.015,0.049,0.039,0.098,0.06,0.143c0.098,0.224,0.242,0.37,0.489,0.448
		c0.09,0.028,0.251,0.04,0.354,0.009c0.065-0.019,0.132-0.039,0.186-0.071c0.181-0.107,0.28-0.246,0.34-0.473
		c0.023-0.087,0.031-0.228-0.003-0.309c-0.046-0.109-0.125-0.202-0.223-0.26c-0.208-0.126-0.422,0.04-0.518,0.175
		c-0.026,0.037-0.104,0.197-0.033,0.243c0.024,0.019,0.142-0.008,0.175-0.016c0.03-0.006,0.082-0.002,0.106,0.003
		c0.027,0.002,0.054,0.002,0.082,0.004c0.055,0.012,0.114,0.018,0.163,0.033c0.036,0.01,0.093,0.017,0.105,0.051
		c0.004,0.006,0.004,0.014,0.004,0.022c-0.009,0.01-0.01,0.022-0.016,0.033c-0.017,0.025-0.038,0.05-0.057,0.074
		c-0.024,0.03-0.06,0.055-0.083,0.084c-0.08,0.104-0.202,0.175-0.348,0.214c-0.083,0.022-0.199,0.002-0.257-0.022
		c-0.174-0.071-0.284-0.208-0.344-0.389c-0.014-0.041-0.034-0.168-0.021-0.228c0.013-0.057,0.017-0.113,0.033-0.166
		c0.045-0.133,0.115-0.236,0.192-0.338c0.016-0.014,0.031-0.027,0.046-0.041c0.082-0.081,0.173-0.146,0.297-0.186
		c0.052-0.016,0.11-0.015,0.166-0.026c0.013,0,0.027,0,0.042,0c0.067-0.013,0.199-0.006,0.258,0.007
		c0.02,0.001,0.039,0.002,0.06,0.004c0.06,0.012,0.123,0.017,0.175,0.038c0.083,0.035,0.158,0.103,0.208,0.169
		c0.017,0.021,0.043,0.037,0.06,0.059c0.045,0.059,0.093,0.115,0.133,0.179c0.049,0.078,0.068,0.173,0.093,0.276
		c0.004,0.037,0.008,0.074,0.014,0.113c0.012,0.053,0.022,0.117,0.025,0.176c1.848,0,3.697,0,5.545,0
		c-0.004-0.295,0.039-0.46,0.152-0.637c0.029-0.046,0.07-0.085,0.103-0.127c0.062-0.08,0.151-0.158,0.251-0.201
		c0.053-0.022,0.117-0.028,0.179-0.042c0.021-0.001,0.042-0.002,0.063-0.003c0.026-0.006,0.065-0.004,0.093-0.011
		c0.021,0,0.041,0,0.063,0c0.076-0.015,0.236-0.002,0.295,0.017c0.227,0.072,0.416,0.277,0.506,0.484
		c0.025,0.057,0.041,0.118,0.055,0.181c0.023,0.083,0.02,0.205-0.002,0.283c-0.012,0.043-0.018,0.079-0.033,0.116
		c-0.057,0.128-0.168,0.235-0.301,0.289c-0.053,0.021-0.109,0.021-0.172,0.032c-0.039,0.008-0.135-0.014-0.166-0.021
		c-0.041-0.013-0.078-0.018-0.115-0.033c-0.086-0.036-0.168-0.137-0.219-0.208c-0.028-0.041-0.059-0.095-0.074-0.146
		c-0.008-0.021-0.008-0.059,0.009-0.067c0.027-0.019,0.071-0.012,0.108-0.02c0.113-0.026,0.26-0.007,0.373-0.032
		c0.039-0.009,0.127-0.007,0.141-0.036c0.016-0.024-0.008-0.069-0.014-0.084c-0.031-0.076-0.066-0.132-0.109-0.191
		c-0.025-0.036-0.055-0.074-0.094-0.099c-0.072-0.043-0.236-0.043-0.318-0.009c-0.141,0.056-0.218,0.157-0.259,0.312
		c-0.01,0.037-0.021,0.125-0.01,0.172c0.016,0.072,0.021,0.143,0.047,0.204c0.067,0.166,0.173,0.292,0.319,0.38
		c0.057,0.032,0.125,0.057,0.191,0.075c0.141,0.038,0.311,0.004,0.414-0.039c0.201-0.084,0.334-0.22,0.416-0.419
		c0.023-0.056,0.033-0.119,0.047-0.182c0.025-0.111,0-0.303-0.027-0.39C16.424,13.895,16.414,13.838,16.389,13.781z"/>
	<path fill="#51639b" d="M7.794,22.971c0.078,0.019,0.176,0.004,0.259,0.023c0.027,0,0.055,0,0.082,0
		c0.091,0.012,0.208,0.01,0.305,0.01c0.044,0,0.088,0,0.131,0c0.061,0.013,0.146,0.002,0.212,0.002c0.02,0,0.04,0,0.06,0
		c0.066,0.015,0.159,0.003,0.231,0.003c0.141,0.001,0.282,0.003,0.423,0.005c0.998,0,1.996,0.002,2.993,0.003
		c0.313-0.001,0.625-0.003,0.938-0.003c0.104,0,0.207,0,0.311,0c0.051,0,0.114,0.006,0.159-0.005c0.092,0,0.183,0,0.274,0
		c0.09,0,0.179-0.001,0.268-0.003c0.053,0,0.119,0.008,0.166-0.002c0.059-0.014,0.13,0.008,0.185-0.004c0.021,0,0.041,0,0.063,0
		c0.058,0,0.133,0.005,0.185-0.006c0.027,0,0.055,0,0.083,0c0.018-0.005,0.048,0,0.069-0.005c0.098-0.02,0.209-0.004,0.281-0.044
		c0-0.01,0.004-0.014,0-0.02c-0.012-0.025-0.049-0.022-0.08-0.029c-0.051-0.013-0.116-0.008-0.172-0.02c-0.02,0-0.039,0-0.059,0
		c-0.059-0.013-0.149-0.01-0.212-0.01c-0.026,0-0.053,0-0.079,0c-0.047-0.011-0.109,0.008-0.159-0.004
		c-0.034-0.007-0.085-0.003-0.125-0.003c-0.058-0.001-0.115-0.003-0.172-0.004c-0.086,0-0.17,0-0.256,0
		c-0.046-0.009-0.112-0.003-0.165-0.003c-0.106,0-0.213,0-0.32,0c-0.319,0-0.648-0.002-0.973-0.002c-1.028,0-2.056,0-3.084,0
		c-0.018,0.01-0.105,0.002-0.133,0.002c-0.116,0-0.234,0-0.35,0c-0.094,0.002-0.187,0.003-0.281,0.003
		c-0.054,0-0.119-0.005-0.166,0.004c-0.067,0.015-0.158-0.011-0.221,0.003c-0.032,0-0.064,0-0.097,0
		c-0.058,0-0.131-0.004-0.185,0.008c-0.03,0.006-0.068-0.003-0.092,0.002c-0.026,0-0.052,0-0.076,0
		c-0.109,0.023-0.236,0.002-0.315,0.049C7.704,22.97,7.754,22.961,7.794,22.971z"/>
	<path fill="#51639b" d="M16.855,13.647c-0.1-0.232-0.27-0.448-0.447-0.604c-0.037-0.033-0.07-0.072-0.109-0.101
		c-0.059-0.044-0.117-0.081-0.182-0.12c-0.033-0.021-0.07-0.054-0.109-0.065c0.004-0.022,0.02-0.035,0.029-0.052
		c0.029-0.044,0.055-0.09,0.082-0.133c0.037-0.056,0.064-0.113,0.102-0.169c0.049-0.079,0.104-0.161,0.141-0.253
		c0.023-0.058,0.027-0.125,0.043-0.191c0.002-0.038,0.002-0.074,0.004-0.111c0.014-0.061,0.004-0.147,0.004-0.213
		c0-0.141,0-0.28,0-0.419c-3.068,0-6.138,0-9.205,0c0,0.135,0,0.271,0,0.405c0,0.063-0.01,0.144,0.003,0.201
		c0,0.024,0,0.046,0,0.069c0.004,0.041,0.008,0.083,0.014,0.123c0.05,0.196,0.127,0.336,0.221,0.487
		c0.026,0.043,0.051,0.104,0.073,0.149c0.007,0.019,0.008,0.04,0.02,0.055c-0.008,0.044-0.064,0.069-0.096,0.091
		c-0.088,0.058-0.191,0.104-0.275,0.166c-0.05,0.035-0.093,0.08-0.136,0.124c-0.159,0.154-0.297,0.341-0.394,0.557
		c-0.027,0.062-0.044,0.129-0.063,0.198c-0.009,0.036-0.008,0.074-0.017,0.108c-0.002,0.035-0.004,0.072-0.007,0.109
		c-0.006,0.028-0.003,0.07-0.003,0.104c0,0.075-0.004,0.154,0.01,0.217c0.002,0.028,0.004,0.057,0.006,0.085
		c0.022,0.085,0.028,0.175,0.06,0.249c0.126,0.302,0.343,0.514,0.645,0.644c0.081,0.034,0.17,0.06,0.265,0.085
		c0.05,0.012,0.1,0.003,0.156,0.016c0.029,0.007,0.129,0.011,0.164,0.004c0.052-0.008,0.102-0.014,0.152-0.02
		c0.139-0.037,0.264-0.076,0.371-0.144c0.072-0.045,0.136-0.099,0.208-0.146c0.036-0.024,0.073-0.057,0.133-0.057
		c0.003,0.042,0.006,0.083,0.009,0.124c0.007,0.028-0.002,0.067,0.004,0.091c0.007,0.037-0.004,0.084,0.003,0.117
		c0.01,0.047-0.006,0.104,0.003,0.146c0.001,0.14,0.002,0.278,0.003,0.418c0.004,0.074,0.004,0.161,0.004,0.24
		c0,0.036,0,0.071,0,0.106c0.008,0.041,0.003,0.101,0.003,0.146c0,0.094,0,0.187,0,0.28c0,0.82,0,1.641,0,2.461
		c0.313,0,0.628,0,0.941,0c0-0.432,0-0.861,0-1.293c0-0.095,0-0.19,0-0.285c0-0.048-0.005-0.106,0.004-0.146
		c0.013-0.063-0.01-0.141,0.003-0.199c0.001-0.066,0.002-0.132,0.003-0.197c0.007-0.034-0.001-0.074,0.006-0.11
		c0.027-0.12,0.016-0.229,0.076-0.312c0.05-0.066,0.128-0.087,0.225-0.107c0.055-0.013,0.12,0.01,0.156,0.022
		c0.066,0.022,0.125,0.05,0.159,0.104c0.047,0.078,0.026,0.207,0.049,0.311c0.005,0.021,0,0.051,0.003,0.068c0,0.03,0,0.062,0,0.091
		c0.007,0.032-0.004,0.079,0.004,0.113c0.009,0.044-0.008,0.103,0.003,0.15c0.012,0.056,0.006,0.166,0.006,0.227
		c0,0.057,0,0.113,0,0.169c0.01,0.041,0.004,0.1,0.004,0.146c0.001,0.074,0.002,0.148,0.003,0.224c0,0.039,0,0.078,0,0.116
		c0.012,0.056,0.003,0.134,0.003,0.195c0,0.019,0,0.037,0,0.055c0.012,0.056,0.003,0.134,0.003,0.196c0,0.018,0,0.035,0,0.054
		c0.01,0.044,0.003,0.106,0.003,0.157c0.001,0.083,0.003,0.166,0.004,0.25c0.312,0,0.624,0,0.936,0c0-0.32,0-0.64,0-0.959
		c0-0.081,0-0.162,0-0.244c0-0.038-0.004-0.088,0.003-0.122c0.007-0.033-0.003-0.078,0.003-0.107c0-0.034,0-0.069,0-0.104
		c0.006-0.025,0.002-0.063,0.003-0.094c0.002-0.032,0-0.086,0.007-0.117c0.007-0.033-0.003-0.076,0.003-0.104
		c0.007-0.034-0.003-0.078,0.003-0.108c0.005-0.175,0.009-0.35,0.013-0.526c0.01-0.041,0.033-0.078,0.049-0.115
		c0.011-0.022,0.014-0.045,0.027-0.063c0.007-0.01,0.023-0.016,0.033-0.022c0.088-0.062,0.162-0.062,0.285-0.087
		c0.048-0.011,0.135,0,0.172,0.009c0.034,0.009,0.061,0.006,0.092,0.017c0.099,0.031,0.188,0.084,0.241,0.159
		c0.04,0.056,0.055,0.127,0.073,0.204c0.009,0.038,0.005,0.078,0.013,0.114c0.01,0.05,0,0.104,0.009,0.152
		c0.012,0.056-0.005,0.131,0.007,0.185c0,0.057,0,0.115,0,0.172c0.012,0.055,0.003,0.131,0.003,0.191c0,0.126,0,0.252,0,0.377
		c0,0.397,0,0.795,0,1.192c0.313,0,0.627,0,0.942,0c0-0.444,0-0.889,0-1.332c0-0.092,0.004-0.189,0.004-0.276
		c0-0.054-0.008-0.123,0.004-0.172c0-0.02,0-0.041,0-0.062c0-0.056-0.006-0.123,0.006-0.175c0-0.029,0-0.057,0-0.084
		c0.018-0.082,0.002-0.182,0.02-0.261c0.011-0.05,0-0.103,0.023-0.139c0.039-0.062,0.115-0.075,0.198-0.095
		c0.032-0.008,0.1-0.016,0.142-0.006c0.069,0.014,0.139,0.026,0.169,0.078c0.026,0.043,0.005,0.129,0.017,0.188
		c0.012,0.054-0.005,0.127,0.006,0.182c0.008,0.031,0.004,0.075,0.004,0.11c0,0.036,0.004,0.08,0.004,0.12
		c0.001,0.059,0.002,0.117,0.003,0.176c0,0.041-0.004,0.092,0.003,0.127c0,0.539,0,1.079,0,1.62c0.313,0,0.627,0,0.939,0
		c0-0.828,0.004-1.659,0.004-2.48c0-0.159,0.003-0.321,0.003-0.475c0-0.078-0.013-0.189,0.003-0.26
		c0.016-0.067-0.012-0.164,0.004-0.23c0-0.059,0-0.119,0-0.179c0.008-0.039-0.007-0.096,0.004-0.139
		c0.006-0.031-0.005-0.076,0.002-0.111c0.013-0.057,0.008-0.129,0.014-0.185c0.068,0.018,0.121,0.072,0.176,0.107
		c0.078,0.051,0.17,0.095,0.268,0.127c0.068,0.022,0.145,0.03,0.221,0.048c0.09,0.021,0.293,0.017,0.377-0.003
		c0.086-0.02,0.164-0.022,0.238-0.053c0.092-0.037,0.17-0.081,0.244-0.136c0.029-0.021,0.061-0.05,0.086-0.075
		c0.01-0.01,0.021-0.021,0.029-0.031c0.029-0.021,0.051-0.042,0.07-0.068c0.014-0.013,0.027-0.025,0.039-0.036
		c0.033-0.043,0.072-0.082,0.104-0.126c0.082-0.113,0.139-0.244,0.182-0.394c0.043-0.148,0.041-0.406,0.004-0.558
		C16.908,13.857,16.896,13.748,16.855,13.647z M16.471,14.349c-0.014,0.063-0.023,0.126-0.047,0.182
		c-0.082,0.199-0.215,0.335-0.416,0.419c-0.104,0.043-0.273,0.077-0.414,0.039c-0.066-0.019-0.135-0.043-0.191-0.075
		c-0.146-0.088-0.252-0.214-0.319-0.38c-0.026-0.062-0.031-0.132-0.047-0.204c-0.011-0.047,0-0.135,0.01-0.172
		c0.041-0.154,0.118-0.256,0.259-0.312c0.082-0.034,0.246-0.034,0.318,0.009c0.039,0.024,0.068,0.063,0.094,0.099
		c0.043,0.06,0.078,0.115,0.109,0.191c0.006,0.015,0.029,0.06,0.014,0.084c-0.014,0.029-0.102,0.027-0.141,0.036
		c-0.113,0.025-0.26,0.006-0.373,0.032c-0.037,0.008-0.081,0.001-0.108,0.02c-0.017,0.009-0.017,0.046-0.009,0.067
		c0.016,0.052,0.046,0.105,0.074,0.146c0.051,0.071,0.133,0.172,0.219,0.208c0.037,0.016,0.074,0.021,0.115,0.033
		c0.031,0.008,0.127,0.029,0.166,0.021c0.063-0.012,0.119-0.012,0.172-0.032c0.133-0.054,0.244-0.161,0.301-0.289
		c0.016-0.037,0.021-0.073,0.033-0.116c0.021-0.078,0.025-0.2,0.002-0.283c-0.014-0.063-0.029-0.124-0.055-0.181
		c-0.09-0.207-0.279-0.412-0.506-0.484c-0.059-0.019-0.219-0.031-0.295-0.017c-0.021,0-0.041,0-0.063,0
		c-0.027,0.007-0.066,0.005-0.093,0.011c-0.021,0.001-0.041,0.002-0.063,0.003c-0.062,0.014-0.126,0.02-0.179,0.042
		c-0.1,0.043-0.189,0.121-0.251,0.201c-0.032,0.042-0.073,0.081-0.103,0.127c-0.113,0.177-0.156,0.342-0.152,0.637
		c-1.848,0-3.697,0-5.545,0c-0.003-0.059-0.013-0.123-0.025-0.176c-0.005-0.039-0.01-0.076-0.014-0.113
		c-0.024-0.104-0.044-0.198-0.093-0.276c-0.04-0.063-0.087-0.12-0.133-0.179c-0.016-0.021-0.043-0.037-0.06-0.059
		c-0.05-0.066-0.125-0.134-0.208-0.169c-0.052-0.021-0.115-0.026-0.175-0.038c-0.021-0.002-0.04-0.003-0.06-0.004
		c-0.06-0.013-0.191-0.02-0.258-0.007c-0.015,0-0.029,0-0.042,0c-0.056,0.012-0.114,0.011-0.166,0.026
		c-0.125,0.039-0.216,0.104-0.297,0.186c-0.015,0.014-0.031,0.027-0.046,0.041c-0.077,0.102-0.147,0.205-0.192,0.338
		c-0.016,0.053-0.02,0.109-0.033,0.166c-0.014,0.06,0.007,0.187,0.021,0.228c0.06,0.181,0.169,0.317,0.344,0.389
		c0.059,0.024,0.174,0.045,0.257,0.022c0.146-0.039,0.268-0.11,0.348-0.214c0.022-0.029,0.059-0.054,0.083-0.084
		c0.019-0.024,0.04-0.049,0.057-0.074c0.006-0.011,0.007-0.023,0.016-0.033c0-0.009,0-0.017-0.004-0.022
		c-0.012-0.034-0.069-0.041-0.105-0.051c-0.048-0.016-0.108-0.021-0.163-0.033c-0.028-0.002-0.055-0.002-0.082-0.004
		c-0.025-0.005-0.076-0.009-0.106-0.003c-0.033,0.008-0.15,0.034-0.175,0.016c-0.071-0.046,0.007-0.206,0.033-0.243
		c0.096-0.135,0.31-0.301,0.518-0.175c0.098,0.058,0.176,0.15,0.223,0.26c0.034,0.081,0.026,0.222,0.003,0.309
		c-0.061,0.227-0.159,0.365-0.34,0.473c-0.054,0.032-0.121,0.053-0.186,0.071c-0.103,0.031-0.264,0.02-0.354-0.009
		c-0.247-0.078-0.391-0.225-0.489-0.448c-0.021-0.045-0.044-0.094-0.06-0.143c-0.011-0.033-0.008-0.061-0.017-0.098
		c-0.004-0.019-0.009-0.06-0.003-0.084c0.027-0.122,0.036-0.24,0.079-0.344c0.11-0.268,0.278-0.459,0.516-0.602
		c0.063-0.037,0.138-0.059,0.218-0.077c0.046-0.012,0.097-0.007,0.142-0.017c0.072-0.003,0.143-0.006,0.215-0.01
		c0.058-0.013,0.149-0.01,0.212-0.01c0.026,0,0.053,0,0.08,0c0.028-0.006,0.074-0.003,0.109-0.003c0.065,0,0.139,0,0.208-0.003
		c0.19-0.011,0.394,0,0.585-0.011c0.156,0,0.313,0,0.469,0c0.058-0.013,0.138-0.003,0.202-0.003c0.132,0,0.265,0,0.397,0
		c0.399,0,0.806-0.003,1.209-0.003c0.317,0,0.633,0,0.949,0c0.1,0,0.201,0,0.301,0c0.049,0,0.113-0.007,0.156,0.003
		c0.045,0,0.09,0,0.135,0c0.104,0,0.207,0,0.311,0c0.051,0,0.113-0.006,0.159,0.003c0.055,0,0.11,0,0.165,0
		c0.116,0.001,0.231,0.002,0.348,0.003c0.063,0,0.145-0.008,0.201,0.004c0.147,0.002,0.296,0.002,0.443,0.004
		c0.062,0.005,0.143,0.006,0.205,0.006c0.037,0,0.084-0.003,0.115,0.003c0.039,0.009,0.089-0.004,0.123,0.003
		c0.057,0.013,0.133-0.005,0.188,0.008c0.023,0,0.049,0,0.074,0c0.055,0.004,0.111,0.008,0.168,0.012
		c0.098,0.023,0.191,0.064,0.268,0.11c0.191,0.118,0.338,0.294,0.434,0.508c0.025,0.057,0.035,0.113,0.055,0.178
		C16.471,14.046,16.496,14.237,16.471,14.349z"/>
	<path fill="#51639b" d="M14.123,4.792c-0.04,0.006-0.079,0.014-0.119,0.02c-0.105,0.029-0.216,0.078-0.274,0.152
		c-0.034,0.046-0.063,0.094-0.083,0.154c-0.013,0.04-0.023,0.111-0.013,0.159c0,0.012,0,0.023,0,0.036
		c0.008,0.033,0.013,0.07,0.026,0.101c0.063,0.147,0.188,0.221,0.36,0.262c0.071,0.018,0.186,0.009,0.248-0.006
		c0.22-0.057,0.342-0.14,0.423-0.331c0.045-0.105,0.051-0.288-0.009-0.383c-0.089-0.141-0.28-0.169-0.516-0.166
		C14.156,4.795,14.138,4.789,14.123,4.792z"/>
	<path fill="#51639b" d="M7.409,8.379c0.03,0.117,0.051,0.232,0.096,0.337C7.775,9.36,8.29,9.795,8.856,10.148
		c0.116,0.072,0.238,0.143,0.357,0.214c0.055,0.033,0.113,0.051,0.169,0.084c0.063,0.038,0.136,0.077,0.205,0.107
		c0.229,0.099,0.454,0.209,0.684,0.309c0.081,0.034,0.16,0.067,0.238,0.101c0.035,0.014,0.082,0.021,0.109,0.045
		c0.003,0,0.008,0,0.011,0c-0.013-0.019-0.035-0.03-0.054-0.042c-0.036-0.027-0.069-0.058-0.105-0.084
		c-0.029-0.021-0.054-0.05-0.083-0.072c-0.104-0.076-0.199-0.161-0.304-0.237c-0.094-0.069-0.172-0.159-0.264-0.227
		c-0.019-0.02-0.038-0.04-0.057-0.059c-0.062-0.045-0.139-0.125-0.185-0.184c-0.036-0.047-0.088-0.085-0.125-0.134
		c-0.086-0.111-0.177-0.22-0.254-0.34c-0.124-0.191-0.209-0.401-0.288-0.64C8.896,8.953,8.896,8.917,8.887,8.878
		C8.795,8.559,8.832,8.064,8.926,7.781c0.021-0.06,0.03-0.115,0.053-0.172c0.029-0.07,0.063-0.141,0.093-0.208
		c0.02-0.043,0.034-0.086,0.059-0.126c0.069-0.111,0.131-0.225,0.206-0.33c0.076-0.108,0.16-0.21,0.241-0.315
		c0.067-0.088,0.154-0.163,0.221-0.25c0.028-0.036,0.072-0.061,0.1-0.097c0.034-0.044,0.076-0.084,0.115-0.124
		c0.015-0.012,0.029-0.025,0.043-0.039c0.04-0.051,0.09-0.101,0.139-0.146c0-0.001,0-0.002,0-0.003c0.001,0,0.002,0,0.003,0
		c0.004,0.904,0.241,1.565,0.599,2.12c0.081,0.126,0.177,0.242,0.268,0.36c0.041,0.055,0.098,0.099,0.139,0.152
		c0.03,0.039,0.064,0.076,0.099,0.111c0.017,0.014,0.033,0.03,0.049,0.045c0.042,0.054,0.11,0.117,0.166,0.158
		c0.028,0.021,0.051,0.057,0.079,0.078c0.085,0.063,0.156,0.142,0.242,0.205c0.211,0.156,0.417,0.32,0.635,0.471
		c0.077,0.054,0.157,0.108,0.235,0.159c0.035,0.023,0.084,0.042,0.111,0.074c0.002,0,0.004,0,0.006,0
		c-0.006-0.02-0.021-0.03-0.033-0.045c-0.025-0.037-0.053-0.071-0.082-0.107c-0.01-0.015-0.031-0.026-0.043-0.042
		c-0.117-0.153-0.27-0.277-0.387-0.433c-0.096-0.128-0.2-0.255-0.287-0.392c-0.116-0.181-0.213-0.375-0.301-0.584
		c-0.053-0.125-0.079-0.261-0.118-0.399c-0.013-0.042-0.009-0.081-0.021-0.124c-0.033-0.134-0.039-0.307-0.039-0.467
		c0-0.062-0.005-0.127,0.006-0.182c0-0.018,0-0.034,0-0.051c0.007-0.032,0.002-0.069,0.01-0.104
		c0.021-0.088,0.019-0.181,0.043-0.267c0.023-0.083,0.038-0.171,0.065-0.253c0.045-0.133,0.097-0.262,0.152-0.386
		c0.039-0.086,0.09-0.172,0.139-0.25c0.081-0.131,0.16-0.253,0.251-0.374c0.162-0.216,0.362-0.403,0.552-0.594
		c0.07-0.071,0.141-0.141,0.211-0.211c0.037-0.035,0.068-0.073,0.109-0.104c0.012-0.012,0.021-0.024,0.033-0.036
		c0.041-0.039,0.08-0.083,0.127-0.116c0.018-0.02,0.037-0.039,0.055-0.059c0.047-0.046,0.096-0.092,0.143-0.137
		c0.064-0.059,0.126-0.126,0.195-0.178c0.015-0.016,0.028-0.03,0.043-0.045c0.044-0.043,0.089-0.09,0.139-0.126
		c0.017-0.018,0.033-0.035,0.049-0.053c0.021-0.019,0.044-0.035,0.064-0.054c0.035-0.034,0.065-0.071,0.104-0.101
		c0.058-0.058,0.116-0.115,0.172-0.172c0.04-0.03,0.071-0.067,0.106-0.101c0.035-0.034,0.073-0.065,0.103-0.104
		c0.014-0.013,0.027-0.024,0.04-0.036c0.034-0.033,0.069-0.069,0.1-0.107c0.013-0.011,0.025-0.024,0.039-0.035
		c0.055-0.073,0.127-0.133,0.182-0.205c0.057-0.075,0.121-0.145,0.176-0.221c0.104-0.143,0.202-0.293,0.287-0.454
		c0.104-0.195,0.178-0.407,0.246-0.64c0.014-0.076,0.029-0.153,0.045-0.23c0.002-0.023,0.004-0.047,0.006-0.071
		c0.035-0.148,0.029-0.433-0.01-0.571c-0.035-0.125-0.07-0.24-0.131-0.338c-0.061-0.096-0.117-0.178-0.209-0.244
		c-0.025-0.019-0.05-0.048-0.086-0.055c0.015,0.099,0.029,0.199,0.043,0.298c0.002,0.061,0.002,0.121,0.004,0.182
		c0,0.15-0.021,0.309-0.061,0.426c-0.065,0.202-0.146,0.379-0.251,0.542c-0.071,0.11-0.156,0.21-0.234,0.312
		c-0.085,0.111-0.2,0.201-0.285,0.312c-0.021,0.02-0.041,0.039-0.063,0.059C14.189,2.223,14.143,2.26,14.1,2.303
		c-0.043,0.042-0.082,0.089-0.132,0.126c-0.022,0.023-0.044,0.046-0.065,0.068c-0.106,0.078-0.191,0.181-0.299,0.259
		c-0.033,0.025-0.06,0.061-0.093,0.084c-0.114,0.085-0.216,0.186-0.329,0.27c-0.34,0.248-0.67,0.507-1.019,0.747
		c-0.192,0.132-0.386,0.266-0.585,0.389c-0.073,0.045-0.144,0.092-0.215,0.137c-0.03,0.018-0.071,0.033-0.093,0.058
		c-0.001,0-0.002,0-0.003,0c0.009-0.064,0.028-0.133,0.046-0.194c0.019-0.099,0.037-0.199,0.057-0.298
		c0.01-0.093,0.021-0.187,0.033-0.279c0.001-0.042,0.002-0.085,0.003-0.127c0.006-0.031,0.006-0.089,0-0.12c0-0.023,0-0.045,0-0.068
		c-0.005-0.047-0.011-0.096-0.017-0.143c-0.022-0.092-0.041-0.178-0.076-0.257c-0.051-0.115-0.147-0.237-0.245-0.308
		c-0.025-0.019-0.052-0.04-0.079-0.055c-0.019-0.013-0.041-0.019-0.057-0.033c-0.002,0-0.004,0-0.006,0
		c0.042,0.1,0.058,0.214,0.086,0.328c0.003,0.033,0.006,0.067,0.009,0.1c0.03,0.128,0.006,0.365-0.023,0.475
		c-0.013,0.048-0.015,0.09-0.03,0.136c-0.059,0.175-0.126,0.335-0.218,0.478c-0.075,0.115-0.162,0.22-0.245,0.328
		c-0.021,0.027-0.051,0.05-0.073,0.077c-0.095,0.125-0.213,0.231-0.324,0.342c-0.074,0.072-0.144,0.154-0.227,0.217
		c-0.041,0.03-0.069,0.077-0.109,0.107C9.738,5.171,9.708,5.208,9.677,5.233C9.563,5.318,9.47,5.428,9.356,5.512
		C9.305,5.55,9.264,5.604,9.213,5.643C9.049,5.764,8.912,5.92,8.748,6.042c-0.044,0.033-0.082,0.076-0.125,0.11
		C8.569,6.19,8.528,6.243,8.476,6.282c-0.01,0.012-0.021,0.023-0.033,0.036C8.368,6.374,8.31,6.447,8.235,6.502
		C8.21,6.528,8.187,6.553,8.162,6.577C8.11,6.617,8.066,6.668,8.02,6.714C7.909,6.823,7.801,6.939,7.712,7.071
		C7.6,7.237,7.515,7.419,7.445,7.629C7.422,7.698,7.416,7.774,7.398,7.846C7.397,7.865,7.396,7.883,7.395,7.902
		c-0.022,0.095-0.019,0.296,0.003,0.39C7.401,8.321,7.405,8.349,7.409,8.379z"/>
	<path fill="#51639b" d="M8.026,22.665c0.033,0.008,0.078-0.003,0.106,0.004c0.04,0.009,0.092-0.004,0.128,0.003
		c0.051,0.012,0.115-0.007,0.163,0.004c0.063,0.013,0.14-0.01,0.199,0.004c0.085,0,0.172,0,0.257,0
		c0.067,0.013,0.158,0.002,0.231,0.002c0.139,0.002,0.278,0.003,0.417,0.003c0.063,0,0.127,0,0.191,0
		c0.052,0.012,0.126,0.004,0.185,0.004c0.122,0,0.245,0,0.367,0c0.372,0.001,0.743,0.001,1.115,0.003
		c0.463-0.002,0.927-0.002,1.391-0.003c0.152,0,0.305,0,0.457,0c0.07,0,0.159,0.011,0.225-0.004c0.113,0,0.227,0,0.34,0
		c0.105,0,0.209-0.001,0.314-0.003c0.059,0,0.133,0.008,0.186-0.002c0.018,0,0.037,0,0.057,0c0.063,0,0.142,0.008,0.197-0.004
		c0.029,0,0.058,0,0.086,0c0.052-0.002,0.104-0.003,0.156-0.004c0.037,0,0.086,0.004,0.119-0.003c0.038,0,0.077,0,0.115,0
		c0.06-0.001,0.149,0.001,0.205-0.009c0.021-0.006,0.053,0,0.07-0.004c0.049-0.012,0.129,0.006,0.164-0.017c0.002,0,0.004,0,0.008,0
		c0-0.002,0-0.004,0-0.007c-0.068-0.029-0.172-0.009-0.252-0.026c-0.029,0-0.06,0-0.09,0c-0.052-0.011-0.121-0.006-0.179-0.006
		c-0.021,0-0.041,0-0.063,0c-0.048-0.011-0.113,0.008-0.165-0.003c-0.033-0.008-0.081-0.004-0.119-0.004
		c-0.045,0-0.089-0.002-0.132-0.004c-0.074,0-0.148,0-0.222,0c-0.07-0.014-0.168-0.003-0.244-0.003
		c-0.149-0.001-0.299-0.002-0.447-0.003c-0.066,0-0.135,0-0.201,0c-0.068-0.015-0.178-0.003-0.256-0.003c-0.17,0-0.342,0-0.512,0
		c-0.525-0.001-1.051-0.002-1.577-0.003c-0.011,0.007-0.042,0.003-0.06,0.003c-0.047,0-0.095,0-0.142,0c-0.179,0-0.357,0-0.536,0
		c-0.219,0.001-0.438,0.002-0.657,0.003c-0.076,0-0.152,0-0.229,0c-0.037,0-0.083-0.003-0.115,0.003c-0.026,0-0.051,0-0.076,0
		c-0.082,0-0.209-0.011-0.281,0.003c-0.037,0-0.075,0-0.112,0c-0.072,0.002-0.144,0.004-0.215,0.004
		c-0.046,0-0.105-0.006-0.145,0.004c-0.054,0-0.106,0-0.16,0c-0.074,0.006-0.178-0.006-0.248,0.009
		c-0.052,0.012-0.11-0.003-0.158,0.007c-0.053,0.011-0.138-0.008-0.175,0.016c-0.002,0-0.004,0-0.008,0c0,0.004,0,0.008,0,0.011
		c0.051,0.011,0.118,0.007,0.173,0.021c0.02,0.004,0.049,0,0.066,0.002C7.967,22.668,8.003,22.661,8.026,22.665z"/>
	<path fill="#51639b" d="M6.744,9.752C6.758,9.795,6.773,9.844,6.79,9.885c0.023,0.062,0.037,0.121,0.063,0.179
		c0.129,0.293,0.3,0.542,0.622,0.649c0.107,0.035,0.229,0.049,0.371,0.049c0.044,0,0.09,0.001,0.128-0.006
		c0.042-0.009,0.086-0.002,0.125-0.01c0.251-0.018,0.502-0.034,0.754-0.052c0-0.001,0-0.002,0-0.003
		c-0.056-0.015-0.109-0.047-0.159-0.069c-0.096-0.041-0.188-0.08-0.278-0.126c-0.17-0.086-0.328-0.171-0.478-0.276
		C7.641,10.014,7.405,9.728,7.21,9.424C7.102,9.256,7.007,9.076,6.909,8.898c-0.028-0.05-0.056-0.104-0.08-0.155
		C6.816,8.711,6.805,8.667,6.78,8.645C6.76,8.724,6.706,8.792,6.681,8.866c0,0.183,0,0.365,0,0.548c0,0.056,0,0.11,0,0.166
		C6.692,9.618,6.715,9.66,6.73,9.696C6.734,9.715,6.739,9.733,6.744,9.752z"/>
	<path fill="#51639b" d="M11.978,3.166c0.104,0.034,0.277,0.035,0.387,0.006c0.239-0.062,0.405-0.167,0.497-0.373
		c0.02-0.048,0.031-0.101,0.045-0.156c0.014-0.058,0.01-0.149-0.004-0.202c-0.012-0.052-0.021-0.093-0.045-0.133
		c-0.07-0.112-0.219-0.187-0.367-0.225c-0.049-0.011-0.114-0.007-0.172-0.006c-0.016,0.01-0.044,0.005-0.063,0.01
		c-0.039,0.01-0.077,0.021-0.116,0.032c-0.099,0.04-0.188,0.091-0.268,0.149c-0.09,0.066-0.16,0.178-0.199,0.292
		c-0.01,0.03-0.012,0.056-0.02,0.088c-0.006,0.023-0.031,0.134-0.024,0.159c0.007,0.024,0.03,0.052,0.04,0.074
		C11.737,3.034,11.812,3.112,11.978,3.166z"/>
	<path fill="#51639b" d="M14.702,20.767c-0.024,0-0.049,0-0.073,0c-0.038-0.008-0.093,0.006-0.135-0.003
		c-0.032-0.007-0.079-0.005-0.116-0.005c-0.049,0-0.097-0.002-0.146-0.002c-0.075,0-0.15,0-0.226,0
		c-0.04-0.009-0.099-0.004-0.145-0.004c-0.095,0-0.189,0-0.284,0c-0.279,0-0.566-0.003-0.85-0.003c-0.902,0-1.803,0-2.705,0
		c-0.016,0.009-0.09,0.003-0.116,0.003c-0.102,0-0.205,0-0.307,0C9.5,20.755,9.4,20.755,9.299,20.757
		c-0.057,0-0.128-0.008-0.178,0.002c-0.067,0.016-0.163-0.01-0.229,0.005c-0.023,0-0.048,0-0.073,0c-0.039,0-0.08,0.002-0.115,0.003
		c-0.035,0-0.079-0.003-0.109,0.003c-0.03,0-0.06,0-0.089,0c-0.062,0.005-0.137,0-0.195,0.014c-0.041,0.008-0.09-0.005-0.119,0.015
		c-0.003,0.002-0.006,0.003-0.01,0.004c0.007,0.031,0.051,0.022,0.083,0.029c0.065,0.015,0.146,0.004,0.215,0.02
		c0.024,0,0.048,0,0.072,0c0.022,0.004,0.058-0.002,0.083,0.004c0.029,0.006,0.071-0.005,0.103,0.003
		c0.039,0.008,0.102,0.006,0.142,0.006c0.041,0.001,0.091-0.004,0.125,0.004c0.055,0.012,0.125-0.008,0.176,0.003
		c0.065,0.014,0.152-0.01,0.214,0.004c0.089,0,0.179,0,0.269,0c0.072,0.016,0.184,0.003,0.264,0.003c0.024,0,0.048,0,0.072,0
		c0.031,0.006,0.077,0.003,0.113,0.003c0.072,0,0.145,0,0.218,0c0.206,0,0.42,0.003,0.631,0.003c0.863,0,1.735,0.007,2.605,0.007
		c0.222,0,0.444-0.004,0.662-0.004c0.074,0,0.152-0.003,0.222-0.003c0.046,0,0.104,0.005,0.145-0.003c0.04,0,0.08,0,0.119,0
		c0.023-0.006,0.059,0.003,0.086-0.003c0.017-0.003,0.047,0.001,0.066-0.003c0.084-0.02,0.165-0.008,0.232-0.039
		c-0.002-0.068-0.164-0.045-0.229-0.059C14.822,20.766,14.754,20.767,14.702,20.767z"/>
	<path fill="#51639b" d="M15.162,23.201c-0.059-0.013-0.148-0.011-0.212-0.011c-0.026,0-0.053,0-0.079,0
		c-0.047-0.01-0.109,0.008-0.159-0.002c-0.034-0.008-0.085-0.003-0.125-0.003c-0.06-0.001-0.118-0.003-0.177-0.004
		c-0.084,0-0.17,0-0.254,0c-0.043-0.009-0.105-0.004-0.155-0.004c-0.103,0-0.202,0-0.305,0c-0.301,0-0.608-0.002-0.915-0.002
		c-0.968,0-1.936,0-2.903,0c-0.019,0.01-0.107,0.002-0.136,0.002c-0.119,0-0.239,0-0.357,0c-0.109,0.002-0.218,0.003-0.327,0.004
		c-0.059,0-0.134-0.008-0.188,0.004c-0.021,0-0.04,0-0.06,0c-0.064,0-0.145-0.009-0.202,0.003c-0.04,0-0.079,0-0.119,0
		c-0.064,0-0.168-0.007-0.225,0.006c-0.037,0.008-0.084-0.004-0.116,0.003c-0.032,0-0.064,0-0.096,0
		c-0.072,0.016-0.159,0.003-0.229,0.017c-0.036,0.008-0.076-0.001-0.102,0.016c-0.003,0.002-0.007,0.003-0.01,0.004
		c0.007,0.034,0.059,0.025,0.093,0.033c0.08,0.018,0.18,0.004,0.264,0.023c0.026,0,0.05,0,0.076,0
		c0.023,0.004,0.06-0.004,0.086,0.002c0.028,0.007,0.07-0.004,0.102,0.003C8.37,23.303,8.43,23.3,8.467,23.302
		c0.04,0.002,0.09-0.004,0.125,0.002c0.051,0.012,0.117-0.005,0.165,0.006c0.063,0.013,0.14-0.011,0.199,0.002
		c0.019,0,0.038,0,0.057,0c0.059,0,0.133-0.008,0.185,0.003c0.096,0,0.191,0,0.287,0c0.072,0.016,0.2,0.004,0.281,0.004
		c0.027,0,0.054,0,0.08,0c0.071,0.015,0.18,0.003,0.258,0.003c0.16,0.001,0.32,0.002,0.48,0.002c0.106,0,0.212,0,0.317,0
		c0.061,0.015,0.145,0.006,0.212,0.006c0.141,0,0.282,0,0.423,0c0.06,0,0.119,0,0.178,0c0.065,0.013,0.156,0.002,0.228,0.002
		c0.153,0,0.307,0,0.46,0c0.485,0,0.962,0,1.444,0c0.127,0,0.255,0,0.384,0c0.062,0,0.139,0.008,0.194-0.002
		c0.021,0,0.043,0,0.063,0c0.071,0,0.161,0.009,0.226-0.006c0.024,0,0.051,0,0.076,0c0.042,0,0.086-0.001,0.122-0.002
		c0.035,0,0.079,0.002,0.109-0.003c0.03,0,0.061,0,0.092,0c0.019-0.005,0.051,0.001,0.073-0.004c0.103-0.021,0.21-0.001,0.288-0.046
		c0-0.009,0.004-0.012,0-0.02c-0.012-0.024-0.049-0.021-0.08-0.028c-0.051-0.012-0.116-0.008-0.172-0.02
		C15.201,23.201,15.182,23.201,15.162,23.201z"/>
	<path fill="#51639b" d="M17.123,8.535c-0.043-0.101-0.086-0.201-0.143-0.289c-0.039-0.06-0.086-0.115-0.129-0.172
		c-0.031-0.039-0.076-0.081-0.115-0.11c-0.047-0.035-0.09-0.08-0.141-0.113c-0.096-0.066-0.199-0.115-0.299-0.176
		c-0.275-0.165-0.576-0.296-0.852-0.461c-0.098-0.059-0.206-0.101-0.304-0.158c-0.018-0.009-0.035-0.016-0.053-0.023
		c-0.079-0.047-0.169-0.086-0.248-0.134c-0.044-0.026-0.101-0.038-0.139-0.071c-0.001,0-0.003,0-0.003,0
		c0.007-0.02,0.027-0.03,0.039-0.045c0.031-0.042,0.072-0.076,0.103-0.118c0.094-0.121,0.207-0.225,0.301-0.346
		c0.024-0.031,0.059-0.057,0.083-0.088c0.08-0.105,0.178-0.195,0.258-0.299c0.203-0.265,0.428-0.506,0.625-0.779
		c0.133-0.183,0.277-0.365,0.373-0.583c0.049-0.11,0.117-0.354,0.084-0.517c-0.004-0.026-0.006-0.055-0.008-0.081
		c-0.039-0.153-0.08-0.281-0.152-0.396c-0.027-0.045-0.057-0.086-0.086-0.127c-0.012-0.017-0.021-0.043-0.043-0.051
		c0.012,0.064,0.01,0.137,0.01,0.211c0,0.032,0.004,0.073-0.002,0.101c0,0.015,0,0.032,0,0.048c-0.008,0.053-0.014,0.106-0.02,0.16
		c-0.031,0.119-0.057,0.235-0.1,0.338c-0.043,0.098-0.082,0.187-0.137,0.272c-0.174,0.269-0.426,0.475-0.684,0.662
		c-0.065,0.047-0.126,0.105-0.191,0.152c-0.179,0.129-0.353,0.258-0.533,0.383c-0.191,0.134-0.381,0.272-0.575,0.407
		c-0.04,0.026-0.079,0.057-0.119,0.084c-0.021,0.015-0.048,0.039-0.093,0.029c-0.047-0.011-0.095-0.021-0.129-0.045
		c-0.021-0.016-0.035-0.043-0.049-0.065c-0.033-0.045-0.069-0.09-0.104-0.137c-0.057-0.078-0.119-0.154-0.175-0.234
		c-0.06-0.083-0.112-0.167-0.171-0.25c-0.041-0.055-0.08-0.112-0.119-0.169c-0.021-0.028-0.059-0.061-0.07-0.097
		c-0.002,0-0.004,0-0.006,0c-0.014,0.041-0.023,0.083-0.037,0.124c-0.008,0.027-0.008,0.056-0.014,0.082
		c-0.02,0.086,0.004,0.244,0.023,0.308C12.996,5.801,13,5.837,13.016,5.876c0.08,0.189,0.189,0.344,0.301,0.499
		c0.049,0.068,0.098,0.133,0.146,0.199c0.021,0.03,0.036,0.065,0.063,0.09c-0.006,0.031-0.034,0.058-0.05,0.082
		c-0.031,0.05-0.064,0.108-0.089,0.163c-0.042,0.096-0.081,0.193-0.116,0.299c-0.021,0.066-0.025,0.14-0.043,0.21
		c0,0.021-0.002,0.043-0.002,0.065c-0.016,0.061-0.008,0.192,0.006,0.25c0,0.016,0.002,0.03,0.004,0.045
		c0.016,0.064,0.025,0.133,0.049,0.191c0.033,0.079,0.065,0.161,0.109,0.23c0.042,0.068,0.093,0.132,0.139,0.195
		c0.076,0.106,0.165,0.199,0.244,0.302c0.034,0.043,0.091,0.082,0.123,0.124c0.035,0.044,0.079,0.08,0.119,0.119
		c0.049,0.048,0.096,0.102,0.152,0.143c0.031,0.025,0.057,0.064,0.09,0.088c0.051,0.039,0.094,0.085,0.145,0.123
		c0.008,0.011,0.018,0.02,0.027,0.03c0.059,0.043,0.113,0.09,0.175,0.133c0.146,0.1,0.313,0.174,0.466,0.267
		c0.053,0.03,0.108,0.057,0.158,0.087c0.018,0.01,0.033,0.014,0.047,0.026c0.002,0,0.004,0,0.006,0
		c-0.026-0.04-0.074-0.07-0.109-0.104c-0.063-0.063-0.133-0.128-0.188-0.202c-0.019-0.023-0.048-0.043-0.066-0.068
		c-0.085-0.111-0.181-0.218-0.258-0.338c-0.127-0.197-0.221-0.388-0.304-0.632c-0.033-0.096-0.047-0.204-0.073-0.312
		c-0.01-0.044,0.001-0.097-0.01-0.142c-0.01-0.045-0.01-0.134,0-0.179c0.002-0.027,0.002-0.057,0.004-0.084
		c0.016-0.072,0.016-0.148,0.035-0.217c0.013-0.043,0.021-0.089,0.037-0.134c0.011-0.032,0.029-0.066,0.036-0.1
		c0.022,0.006,0.036,0.021,0.053,0.032c0.052,0.032,0.104,0.06,0.155,0.09c0.112,0.068,0.226,0.125,0.33,0.199
		c0.048,0.032,0.091,0.07,0.137,0.104c0.016,0.011,0.027,0.031,0.043,0.042c0.107,0.079,0.195,0.18,0.305,0.259
		c0.037,0.029,0.066,0.075,0.105,0.104c0.053,0.04,0.107,0.094,0.148,0.146c0.025,0.033,0.063,0.06,0.09,0.094
		c0.014,0.018,0.035,0.032,0.049,0.049c0.064,0.083,0.139,0.159,0.195,0.247c0.072,0.109,0.129,0.232,0.176,0.367
		c0.014,0.054,0.025,0.108,0.039,0.162c0.004,0.03,0.008,0.061,0.01,0.091c0.031,0.137,0.01,0.381-0.023,0.5
		c-0.012,0.044-0.012,0.084-0.025,0.126c-0.047,0.141-0.096,0.275-0.158,0.396c-0.016,0.026-0.021,0.053-0.037,0.077
		c-0.055,0.086-0.104,0.175-0.162,0.257c-0.043,0.06-0.098,0.115-0.139,0.175c-0.047,0.065-0.084,0.142-0.123,0.214
		c-0.018,0.035-0.031,0.078-0.057,0.107c0,0.002,0,0.004,0,0.006c0.021-0.007,0.033-0.029,0.051-0.042
		c0.041-0.031,0.076-0.07,0.119-0.1c0.117-0.087,0.217-0.19,0.334-0.276c0.023-0.019,0.043-0.047,0.068-0.066
		c0.068-0.05,0.127-0.111,0.195-0.162c0.021-0.016,0.037-0.04,0.057-0.056c0.074-0.055,0.137-0.121,0.201-0.185
		c0.201-0.197,0.387-0.425,0.51-0.698c0.021-0.047,0.035-0.093,0.057-0.143c0.031-0.076,0.057-0.165,0.082-0.25
		c0.012-0.042,0.012-0.079,0.023-0.123c0.012-0.047,0.012-0.107,0.012-0.169c0-0.019,0-0.037,0-0.055
		C17.182,8.74,17.162,8.63,17.123,8.535z"/>
	<path fill="#51639b" d="M7.682,21.522c2.215,0,4.429,0,6.643,0c0.463,0,0.925,0,1.388,0c0.018-0.007,0.035-0.028,0.051-0.039
		c0.041-0.028,0.082-0.057,0.121-0.084c0.191-0.131,0.33-0.279,0.424-0.506c0.018-0.043,0.02-0.084,0.033-0.13
		c0.014-0.052,0.014-0.115,0.025-0.173c0-0.02,0-0.038,0-0.058c0.008-0.028,0.012-0.086,0.006-0.118
		c-0.008-0.032-0.004-0.069-0.012-0.104c-0.012-0.051-0.02-0.103-0.039-0.149c-0.045-0.108-0.111-0.195-0.178-0.282
		c-0.027-0.033-0.064-0.059-0.09-0.091c-0.059-0.075-0.129-0.151-0.223-0.191c-0.098-0.041-0.217-0.039-0.334-0.064
		c-0.041-0.01-0.086-0.002-0.125-0.01c-0.063-0.003-0.125-0.005-0.188-0.007c-0.042-0.009-0.096-0.007-0.142-0.007
		c-0.018,0-0.035,0-0.053,0c-0.035-0.007-0.086-0.002-0.127-0.003c-0.058-0.001-0.127-0.003-0.191-0.003
		c-0.275-0.004-0.557-0.007-0.84-0.007c-2.027,0-4.07,0-6.106,0c0.01,0.169,0.02,0.337,0.03,0.506
		c0.138,0.017,0.311,0.004,0.456,0.004c0.267,0.001,0.534,0.002,0.801,0.003c0.152,0,0.303,0,0.456,0
		c0.044,0.01,0.106,0.003,0.156,0.003c0.102,0,0.203,0,0.304,0c0.305,0.002,0.61,0.002,0.916,0.004
		c0.931,0.003,1.863,0.006,2.793,0.01c0.19,0.001,0.38,0.002,0.569,0.003c0.063,0.001,0.128,0.003,0.191,0.003
		c0.043,0,0.096-0.005,0.133,0.004c0.04,0,0.079,0,0.119,0c0.062,0.001,0.153-0.002,0.211,0.009c0.021,0.005,0.053,0,0.07,0.004
		c0.052,0.003,0.105,0.005,0.158,0.007c0.034,0.007,0.072,0.002,0.109,0.009c0.112,0.024,0.226,0.028,0.304,0.085
		c0.066,0.05,0.09,0.231,0.113,0.334c0.004,0.027-0.002,0.064-0.008,0.084c-0.002,0.021-0.004,0.042-0.006,0.063
		c-0.02,0.065-0.041,0.127-0.074,0.179c-0.037,0.062-0.076,0.126-0.139,0.162c-0.072,0.043-0.2,0.025-0.297,0.046
		c-0.021,0.004-0.049-0.001-0.065,0.003c-0.029,0-0.058,0-0.087,0c-0.029,0.007-0.074-0.004-0.109,0.003
		c-0.034,0.008-0.087,0.004-0.128,0.004c-0.058,0-0.126,0.003-0.188,0.003c-0.231,0-0.467,0.007-0.701,0.007
		c-2.038-0.001-4.087,0.003-6.13,0.003C7.682,21.2,7.682,21.361,7.682,21.522z"/>
	<path fill="#51639b" d="M16.824,22.464c-0.051-0.114-0.135-0.204-0.209-0.299c-0.02-0.025-0.051-0.046-0.07-0.071
		c-0.066-0.084-0.143-0.166-0.246-0.211c-0.078-0.033-0.174-0.04-0.268-0.062c-0.039-0.009-0.082-0.005-0.119-0.014
		c-0.059-0.013-0.123,0-0.18-0.013c-0.07-0.002-0.141-0.004-0.211-0.007c-0.047-0.009-0.107-0.006-0.158-0.006
		c-0.02,0-0.037,0-0.057,0c-0.035-0.007-0.087-0.003-0.128-0.003c-0.06-0.001-0.131-0.004-0.196-0.004
		c-0.297,0-0.601-0.007-0.905-0.007c-2.285,0-4.585-0.003-6.877-0.003c0.011,0.19,0.023,0.381,0.033,0.571
		c2.264,0.002,4.542,0.022,6.807,0.026c0.131,0,0.269,0.002,0.395,0.004c0.069,0,0.157-0.011,0.221,0.003c0.026,0,0.051,0,0.077,0
		c0.043,0,0.088,0.003,0.128,0.003c0.036,0,0.083-0.003,0.113,0.003c0.036,0,0.072,0,0.109,0c0.091,0.02,0.204-0.002,0.292,0.017
		c0.045,0.002,0.09,0.004,0.133,0.006c0.039,0.01,0.086,0.004,0.127,0.014c0.107,0.024,0.215,0.033,0.291,0.088
		c0.072,0.053,0.102,0.24,0.125,0.348c0,0.035,0,0.071,0,0.107c-0.01,0.042-0.01,0.086-0.023,0.127
		c-0.033,0.104-0.08,0.177-0.139,0.256c-0.02,0.026-0.047,0.06-0.076,0.078c-0.064,0.039-0.16,0.032-0.248,0.051
		c-0.033,0.008-0.068,0-0.1,0.007c-0.047,0.01-0.1-0.003-0.145,0.008c-0.033,0-0.068,0-0.103,0
		c-0.037,0.006-0.091-0.007-0.132,0.002c-0.042,0.008-0.102,0.003-0.149,0.003c-0.069,0-0.149,0.004-0.225,0.004
		c-0.29,0-0.582,0.007-0.877,0.007c-2.222,0-4.457,0.004-6.685,0.004c0,0.18,0,0.36,0,0.54c2.485,0,4.971,0,7.456,0
		c0.519,0,1.038,0,1.558,0c0.016-0.005,0.033-0.027,0.049-0.038c0.041-0.028,0.082-0.056,0.123-0.084
		c0.193-0.133,0.365-0.285,0.465-0.511c0.033-0.07,0.047-0.144,0.07-0.227c0.023-0.084,0.029-0.186,0.029-0.289
		c0-0.039,0-0.078,0-0.117c-0.004-0.036-0.008-0.072-0.012-0.11C16.869,22.594,16.854,22.526,16.824,22.464z"/>
	<path fill="#51639b" d="M8.546,20.3c0.04,0.008,0.093-0.006,0.129,0.002c0.051,0.011,0.115-0.007,0.161,0.004
		c0.065,0.014,0.15-0.011,0.212,0.003c0.021,0,0.042,0,0.063,0c0.068,0,0.153-0.011,0.215,0.003c0.134,0,0.267,0,0.4,0
		c0.035,0.008,0.088,0.003,0.129,0.003c0.087,0,0.174,0,0.261,0c0.252,0.001,0.504,0.003,0.757,0.003
		c0.812,0,1.626-0.003,2.433-0.003c0.137-0.001,0.273-0.002,0.41-0.003c0.072,0,0.162,0.01,0.228-0.003c0.021,0,0.042,0,0.063,0
		c0.069,0,0.157,0.011,0.219-0.003c0.028,0,0.058,0,0.086,0c0.054-0.001,0.108-0.002,0.162-0.004c0.04,0,0.089,0.004,0.122-0.002
		c0.038,0,0.075,0,0.112,0c0.033-0.002,0.088,0,0.12-0.008c0.047-0.01,0.1,0.003,0.142-0.006c0.041-0.01,0.094,0.006,0.122-0.014
		c0.002,0,0.004,0,0.008,0c0-0.003,0-0.006,0-0.01c-0.03-0.004-0.067-0.007-0.098-0.013c-0.039-0.009-0.084,0.002-0.121-0.007
		c-0.019,0-0.036,0-0.053,0c-0.044,0-0.104,0.002-0.146-0.006c-0.046-0.01-0.103,0.006-0.143-0.004
		c-0.057-0.012-0.126,0.008-0.179-0.003c-0.068-0.015-0.165,0.011-0.231-0.003c-0.106,0-0.212,0-0.317,0
		c-0.07-0.015-0.168-0.004-0.245-0.004c-0.151,0-0.302-0.002-0.452-0.002c-0.465-0.002-0.928-0.003-1.393-0.004
		c-0.399,0.001-0.8,0.002-1.2,0.004c-0.13,0-0.262,0-0.393,0c-0.063,0-0.143-0.01-0.199,0.002c-0.105,0-0.211,0-0.317,0
		c-0.099,0.002-0.196,0.002-0.294,0.004c-0.056,0-0.127-0.008-0.176,0.003c-0.068,0.015-0.167-0.011-0.234,0.003
		c-0.024,0-0.05,0-0.076,0c-0.044,0-0.088,0.003-0.129,0.004c-0.036,0-0.081-0.004-0.112,0.004c-0.032,0-0.064,0-0.096,0
		c-0.067,0-0.162-0.002-0.225,0.012c-0.031,0.008-0.067-0.004-0.089,0.01c-0.003,0.002-0.006,0.003-0.01,0.004
		c0,0.002,0,0.004,0,0.006c0.057,0.012,0.13,0.006,0.192,0.02c0.024,0.006,0.059-0.001,0.079,0.003
		C8.475,20.302,8.518,20.293,8.546,20.3z"/>
	<path fill="#51639b" d="M8.258,20.567c0.064,0.016,0.146,0.006,0.215,0.02c0.027,0,0.053,0,0.079,0
		c0.029,0.007,0.073-0.002,0.106,0.004c0.03,0.007,0.074,0.003,0.109,0.004c0.04,0.001,0.08,0.002,0.12,0.003
		c0.038,0,0.077,0,0.115,0c0.069,0.015,0.19,0.003,0.267,0.003c0.161,0,0.332,0.004,0.496,0.004c1.267,0,2.555,0,3.822,0
		c0.146,0,0.296-0.004,0.437-0.004c0.077,0,0.176,0.012,0.245-0.003c0.028,0,0.056,0,0.083,0c0.05,0,0.1-0.003,0.146-0.003
		c0.037-0.001,0.085,0.003,0.115-0.004c0.036,0,0.071,0,0.106,0c0.021-0.004,0.057,0.003,0.082-0.004
		c0.104-0.021,0.221,0.002,0.299-0.045c-0.002-0.037-0.03-0.031-0.061-0.039c-0.048-0.012-0.109-0.008-0.162-0.02
		c-0.02,0-0.039,0-0.06,0c-0.062-0.014-0.157-0.01-0.225-0.01c-0.028,0-0.056,0-0.082,0c-0.054-0.011-0.125,0.01-0.183-0.002
		c-0.051-0.012-0.125-0.004-0.182-0.004c-0.104-0.002-0.207-0.003-0.312-0.004c-1.37,0-2.753-0.003-4.129-0.003
		c-0.02,0.013-0.08,0.003-0.109,0.003c-0.095,0-0.189,0-0.284,0c-0.075,0.001-0.15,0.002-0.224,0.004
		c-0.045,0-0.103-0.005-0.142,0.004c-0.059,0.012-0.132-0.009-0.186,0.002c-0.021,0-0.04,0-0.06,0c-0.057,0-0.121-0.004-0.172,0.007
		c-0.025,0-0.051,0-0.076,0c-0.1,0.021-0.207,0.001-0.281,0.045C8.174,20.567,8.222,20.56,8.258,20.567z"/>
</g>
</svg>
