<?xml version="1.0" encoding="utf-8"?>
<!-- Generator: Adobe Illustrator 15.1.0, SVG Export Plug-In . SVG Version: 6.00 Build 0)  -->
<!DOCTYPE svg PUBLIC "-//W3C//DTD SVG 1.1//EN" "http://www.w3.org/Graphics/SVG/1.1/DTD/svg11.dtd">
<svg version="1.1" id="Шар_1" xmlns="http://www.w3.org/2000/svg" xmlns:xlink="http://www.w3.org/1999/xlink" x="0px" y="0px"
	 width="24px" height="24px" viewBox="0 0 24 24" enable-background="new 0 0 24 24" xml:space="preserve">
<path fill="#868686" d="M13.348,11.85l3.276-3.277c0.472-0.471,0.24-0.843-0.132-1.216c-0.373-0.371-0.744-0.603-1.215-0.132
	L12,10.502L8.786,7.288C8.315,6.815,7.88,6.986,7.507,7.357C7.136,7.73,6.966,8.165,7.438,8.636l3.214,3.214l-3.251,3.251
	c-0.473,0.471-0.302,0.903,0.069,1.276c0.373,0.371,0.807,0.542,1.278,0.069L12,13.197l3.251,3.251
	c0.472,0.473,0.905,0.302,1.278-0.069c0.371-0.373,0.541-0.809,0.068-1.277L13.348,11.85z"/>
</svg>
