<?xml version="1.0" encoding="utf-8"?>
<!-- Generator: Adobe Illustrator 15.1.0, SVG Export Plug-In . SVG Version: 6.00 Build 0)  -->
<svg version="1.2" baseProfile="tiny" id="Шар_1"
	 xmlns="http://www.w3.org/2000/svg" xmlns:xlink="http://www.w3.org/1999/xlink" x="0px" y="0px" width="24px" height="24px"
	 viewBox="0 0 24 24" xml:space="preserve">
<g>
	<path fill="none" d="M14.199,11.298c-2.12,0-3.935,1.718-3.935,3.836c0,2.12,1.814,3.839,3.935,3.839
		c2.119,0,3.837-1.719,3.837-3.839C18.036,13.017,16.318,11.298,14.199,11.298z"/>
	<path fill="#3798D2" d="M22.863,21.049l-3.958-2.81c0.471-0.825,0.882-2.085,0.882-3.103c0-3.121-2.529-5.65-5.649-5.65
		s-5.649,2.529-5.649,5.65c0,3.12,2.529,5.648,5.649,5.648c1.343,0,2.445-0.155,3.415-0.938l0.224-0.05l3.484,3.264
		c0.395,0.342,1.271,0.354,1.612-0.04l0.198-0.223C23.412,22.405,23.257,21.39,22.863,21.049z M14.199,18.974
		c-2.12,0-3.935-1.719-3.935-3.839c0-2.118,1.814-3.836,3.935-3.836c2.119,0,3.837,1.718,3.837,3.836
		C18.036,17.255,16.318,18.974,14.199,18.974z"/>
	<path fill="#3798D2" d="M3.487,19.529V7.276l4.795-0.012L8.268,2.388h7.251c0.245,0,0.596,0.351,0.598,0.594L16.11,8.345h1.927
		l0.014-5.666c0-2.066-1.997-2.117-1.997-2.117H6.548L1.534,5.418l0.034,15.71c0,0,0.318,0.939,1.021,0.939c0.513,0,3.032,0,5.836,0
		v-1.991c-2.313,0-4.319,0-4.451,0C3.394,20.076,3.487,19.529,3.487,19.529z"/>
</g>
</svg>
