<?xml version="1.0" encoding="utf-8"?>
<!-- Generator: Adobe Illustrator 15.1.0, SVG Export Plug-In . SVG Version: 6.00 Build 0)  -->
<svg version="1.2" baseProfile="tiny" id="Шар_1"
	 xmlns="http://www.w3.org/2000/svg" xmlns:xlink="http://www.w3.org/1999/xlink" x="0px" y="0px" width="24px" height="24px"
	 viewBox="0 0 24 24" xml:space="preserve">
<g>
	<path fill="#3798D2" d="M19.39,9.547l-4.566,4.396l1.246,1.248l2.712-2.41c-0.242,4.925-3.78,7.049-6.705,7.049
		c-2.488,0-5.357-0.979-7.119-3.537l-2.057-0.047c1.188,3.537,5.191,5.554,9.088,5.554c4.924,0,8.661-3.664,8.673-8.585l2.026,1.966
		l1.137-1.157L19.39,9.547L19.39,9.547z"/>
	<path fill="#3798D2" d="M4.274,14.342l4.729-4.395L7.775,8.76l-3.061,2.699c0.08-4.806,3.707-7.211,7.252-7.211
		c1.997,0,4.185,0.79,6.351,3.349l2.055,0.048c-1.188-3.537-5.337-5.312-8.397-5.312c-4.924,0-9.062,3.439-9.073,8.361L1.136,8.709
		L0,9.867L4.274,14.342L4.274,14.342z"/>
</g>
</svg>
