<?xml version="1.0" encoding="utf-8"?>
<!-- Generator: Adobe Illustrator 15.1.0, SVG Export Plug-In . SVG Version: 6.00 Build 0)  -->
<svg version="1.2" baseProfile="tiny" id="Шар_1"
	 xmlns="http://www.w3.org/2000/svg" xmlns:xlink="http://www.w3.org/1999/xlink" x="0px" y="0px" width="24px" height="24px"
	 viewBox="0 0 24 24" xml:space="preserve">
<path fill="#3798D2" d="M22.34,10.005l-0.895-0.066c-0.174-0.044-0.443-0.153-0.604-0.42c-0.207-0.784-0.514-1.525-0.905-2.211
	c-0.08-0.304,0.035-0.579,0.127-0.735l0.59-0.688c0.149-0.152,0.149-0.399,0-0.548l-2.141-2.158c-0.148-0.152-0.392-0.152-0.541,0
	l-0.674,0.583c-0.161,0.099-0.451,0.221-0.771,0.118c-0.641-0.37-1.332-0.661-2.058-0.869c-0.389-0.172-0.495-0.574-0.522-0.741
	l-0.06-0.8c0-0.215-0.17-0.39-0.382-0.39h-3.027c-0.21,0-0.384,0.175-0.384,0.39l-0.064,0.894C9.989,2.537,9.883,2.82,9.612,2.983
	c-0.773,0.21-1.51,0.52-2.188,0.915C7.127,3.978,6.861,3.87,6.703,3.776L6.014,3.173c-0.15-0.15-0.395-0.15-0.543,0l-2.14,2.161
	c-0.149,0.149-0.149,0.396,0,0.548l0.537,0.626C3.974,6.669,4.157,7.032,3.98,7.425C3.645,8.036,3.375,8.683,3.182,9.368L3.19,9.331
	C3.038,9.804,2.576,9.917,2.409,9.945L1.638,10c-0.212,0-0.384,0.173-0.384,0.387v3.054c0,0.216,0.172,0.389,0.384,0.389
	l0.835,0.063c0.193,0.041,0.56,0.172,0.706,0.565c0.193,0.688,0.465,1.345,0.803,1.956l-0.028-0.047
	c0.275,0.544-0.161,1.041-0.161,1.041l0.459-0.534L3.328,17.95c-0.15,0.149-0.15,0.396,0,0.548l2.14,2.158
	c0.15,0.152,0.393,0.152,0.543,0L6.6,20.143c0.118-0.09,0.471-0.313,0.872-0.18c0.634,0.364,1.317,0.654,2.034,0.855
	c0.342,0.146,0.474,0.465,0.522,0.662l0.064,0.884c0,0.215,0.172,0.388,0.384,0.388H13.5c0.213,0,0.385-0.173,0.385-0.388
	l0.061-0.828c0.035-0.187,0.148-0.546,0.512-0.712c0.727-0.205,1.421-0.497,2.064-0.867c0.332-0.107,0.631,0.029,0.789,0.128
	l0.655,0.572c0.15,0.153,0.394,0.153,0.545,0l2.138-2.158c0.15-0.151,0.15-0.396,0-0.548l-0.565-0.66
	c-0.095-0.148-0.231-0.438-0.146-0.764c0.379-0.668,0.681-1.387,0.887-2.146c0.152-0.319,0.457-0.442,0.645-0.485l0.873-0.064
	c0.215,0,0.387-0.174,0.387-0.389V10.39C22.727,10.178,22.555,10.005,22.34,10.005L22.34,10.005z M11.988,18.832
	c-3.784,0-6.852-3.098-6.852-6.918C5.136,8.095,8.204,5,11.988,5c3.788,0,6.855,3.096,6.855,6.915
	C18.843,15.734,15.773,18.832,11.988,18.832L11.988,18.832z"/>
</svg>
