<svg version="1.2" baseProfile="tiny" xmlns="http://www.w3.org/2000/svg" width="24" height="24" viewBox="0 0 24 24"><path d="M16.073 5.173c0-2.414-1.796-4.211-4.21-4.211s-4.209 1.797-4.209 4.211c0 2.413 1.795 5.376 4.209 5.376s4.21-2.963 4.21-5.376zM11.863 11.519c-4.96 0-7.393 1.472-8.189 4.047l-.795 4.436c.468.252 1.422.48 3.051.721l.197-2.625h1.045l-.397 3.811c.612.338 2.431.797 5.089.797s4.477-.543 5.089-.879l-.397-3.729h1.044l.196 2.625c1.629-.24 2.583-.469 3.051-.721l-.795-4.436c-.796-2.608-3.229-4.047-8.189-4.047z" fill="none"/><path fill="#B7FF70" d="M21.792 19.988l-.777-4.422c-.759-2.543-2.858-4.363-6.812-4.865 1.68-1.197 2.832-3.516 2.832-5.528 0-2.857-2.315-5.173-5.172-5.173-2.856 0-5.172 2.316-5.172 5.173 0 2.012 1.151 4.329 2.829 5.526-3.967.496-6.105 2.296-6.808 4.867l-.777 4.422h-.018v.1c0 .652 1.583 1.232 4.018 1.596l-.04.393c0 .877 2.672 1.674 5.968 1.674 3.297 0 5.968-.797 5.968-1.674l-.039-.393c2.436-.363 4.018-.943 4.018-1.596v-.1h-.018zm-14.138-14.815c0-2.414 1.795-4.211 4.209-4.211s4.21 1.797 4.21 4.211c0 2.413-1.796 5.376-4.21 5.376s-4.209-2.963-4.209-5.376zm10.142 15.55l-.196-2.625h-1.045l.397 3.729c-.612.336-2.431.879-5.089.879s-4.477-.459-5.089-.797l.397-3.811h-1.044l-.197 2.625c-1.628-.24-2.583-.469-3.051-.721l.795-4.436c.796-2.576 3.229-4.047 8.189-4.047s7.393 1.439 8.188 4.047l.795 4.436c-.467.252-1.421.48-3.05.721z"/></svg>