<?xml version="1.0" encoding="utf-8"?>
<!-- Generator: Adobe Illustrator 15.1.0, SVG Export Plug-In . SVG Version: 6.00 Build 0)  -->
<svg version="1.2" baseProfile="tiny" id="Шар_1"
	 xmlns="http://www.w3.org/2000/svg" xmlns:xlink="http://www.w3.org/1999/xlink" x="0px" y="0px" width="24px" height="24px"
	 viewBox="0 0 24 24" xml:space="preserve">
<g>
	<path fill="#1cb7f1" d="M3.174,0c0,4.851,0,11.233,0,16.084c0.569,0,6.128,0,6.128,0v-1.908h-4.2L5.068,1.87H18.73l0.026,12.306
		h-4.259v1.908c0,0,4.336,0,6.187,0c0-4.851,0-11.233,0-16.084C15.66,0,8.197,0,3.174,0z"/>
	<polygon fill="#1cb7f1" points="12.384,21.76 12.384,6.522 11.281,6.522 11.281,21.678 7.19,17.524 6.484,18.229 11.758,23.584 
		11.766,23.574 11.876,23.685 17.15,18.391 16.523,17.605 	"/>
</g>
</svg>
