<?xml version="1.0" encoding="utf-8"?>
<!-- Generator: Adobe Illustrator 15.1.0, SVG Export Plug-In . SVG Version: 6.00 Build 0)  -->
<svg version="1.2" baseProfile="tiny" id="Шар_1"
	 xmlns="http://www.w3.org/2000/svg" xmlns:xlink="http://www.w3.org/1999/xlink" x="0px" y="0px" width="24px" height="24px"
	 viewBox="0 0 24 24" xml:space="preserve">
<g>
	<path fill="none" d="M12.072,2.209c-5.438,0-9.863,4.425-9.863,9.864c0,5.438,4.424,9.864,9.863,9.864
		c2.857,0,9.851-0.011,9.851-0.011s0.013-7.271,0.013-9.853C21.936,6.634,17.512,2.209,12.072,2.209z M11.633,5.988
		c0.23-0.252,0.611-0.344,0.924-0.344c0.351,0,0.671,0.119,0.896,0.354c0.223,0.237,0.369,0.58,0.369,0.893
		c0,0.35-0.082,0.656-0.311,0.917c-0.23,0.26-0.615,0.39-0.954,0.39c-0.313,0-0.729-0.123-0.959-0.372
		c-0.23-0.249-0.379-0.534-0.379-0.851C11.219,6.55,11.401,6.241,11.633,5.988z M15.046,18.88h-4.787v-1.431
		c0.141-0.012,0.557-0.024,0.708-0.036c0.152-0.012,0.796-0.14,0.906-0.178c0.172-0.055,0.161-0.116,0.245-0.254
		c0.083-0.139,0.055-0.251,0.055-0.472v-4.79c0-0.196-0.046-0.375-0.134-0.537c-0.088-0.163-1.778-0.242-1.963-0.255L9.938,9.888
		l3.635-0.202l0.128,0.127v6.585c0,0.965,0.811,0.981,0.811,0.981l-0.037-0.002c0,0,0.412,0.059,0.571,0.07V18.88z"/>
	<path fill="#51639b" d="M12.071,0C5.414,0,0,5.414,0,12.072c0,6.656,5.414,11.935,12.071,11.935c2.588,0,11.892-0.008,11.892-0.008
		s0.009-7.86,0.009-11.927C23.972,5.414,18.727,0,12.071,0z M21.923,21.926c0,0-6.994,0.011-9.851,0.011
		c-5.438,0-9.863-4.426-9.863-9.864c0-5.439,4.424-9.864,9.863-9.864c5.44,0,9.864,4.425,9.864,9.864
		C21.936,14.655,21.923,21.926,21.923,21.926z"/>
	<path fill="#51639b" d="M12.557,8.198c0.339,0,0.724-0.129,0.954-0.39c0.229-0.261,0.311-0.566,0.311-0.917
		c0-0.313-0.146-0.656-0.369-0.893c-0.225-0.236-0.545-0.354-0.896-0.354c-0.313,0-0.694,0.091-0.924,0.344
		c-0.231,0.252-0.414,0.562-0.414,0.988c0,0.317,0.148,0.602,0.379,0.851C11.828,8.075,12.244,8.198,12.557,8.198z"/>
	<path fill="#51639b" d="M14.512,17.381c0,0-0.811-0.017-0.811-0.981V9.814l-0.128-0.127L9.938,9.888l0.138,1.039
		c0.185,0.014,1.875,0.092,1.963,0.255c0.088,0.162,0.134,0.341,0.134,0.537v4.79c0,0.221,0.027,0.333-0.055,0.472
		c-0.084,0.138-0.073,0.199-0.245,0.254c-0.11,0.038-0.754,0.166-0.906,0.178c-0.151,0.012-0.566,0.024-0.708,0.036v1.431h4.787
		v-1.431c-0.159-0.012-0.571-0.07-0.571-0.07L14.512,17.381z"/>
</g>
</svg>
