<?xml version="1.0" encoding="utf-8"?>
<!-- Generator: Adobe Illustrator 15.1.0, SVG Export Plug-In . SVG Version: 6.00 Build 0)  -->
<svg version="1.2" baseProfile="tiny" id="Шар_1"
	 xmlns="http://www.w3.org/2000/svg" xmlns:xlink="http://www.w3.org/1999/xlink" x="0px" y="0px" width="24px" height="24px"
	 viewBox="0 0 24 24" xml:space="preserve">
<g>
	<path fill="none" d="M11.925,1.719L11.925,1.719C5.873,1.72,1.759,6.274,1.759,11.873c0,5.598,4.561,10.177,10.166,10.177
		c5.605,0,10.166-4.579,10.166-10.177C22.091,6.274,17.53,1.719,11.925,1.719z M12.748,18.426H11.31v-1.794h1.438V18.426z
		 M14.979,11.16c-0.407,0.616-0.802,1.246-1.469,1.889c-0.31,0.31-0.613,0.986-0.678,1.232c-0.066,0.246-0.081,0.86-0.081,1.382
		h-1.384c0.005-0.833-0.085-1.468,0.195-2.071c0.147-0.319,0.387-0.976,0.974-1.506c0.568-0.671,0.973-1.076,1.216-1.438
		c0.24-0.362,0.39-0.969,0.39-1.48c0-0.609-0.276-1.078-0.601-1.405c-0.325-0.328-0.79-0.577-1.392-0.577
		c-0.524,0-0.97,0.228-1.338,0.511c-0.368,0.286-0.693,1.05-0.693,1.602l-1.337-0.01l0.002-0.014
		c0.011-0.727,0.224-1.56,0.894-2.288c0.59-0.641,1.438-1.034,2.473-1.034c1.131,0,1.869,0.374,2.496,0.952
		c0.627,0.577,0.912,1.242,0.912,2.276C15.559,9.923,15.383,10.545,14.979,11.16z"/>
	<path fill="#51639b" d="M11.925,0C5.339,0,0,5.328,0,11.901c0,6.574,5.339,11.9,11.925,11.9c6.587,0,11.926-5.326,11.926-11.9
		C23.851,5.328,18.512,0,11.925,0z M11.925,22.05c-5.604,0-10.166-4.579-10.166-10.177c0-5.599,4.113-10.153,10.166-10.153V1.719
		c5.605,0,10.166,4.555,10.166,10.154C22.091,17.471,17.53,22.05,11.925,22.05z"/>
	<rect x="11.31" y="16.632" fill="#51639b" width="1.438" height="1.794"/>
	<path fill="#51639b" d="M12.15,5.953c-1.035,0-1.882,0.394-2.473,1.034c-0.67,0.728-0.882,1.561-0.894,2.288L8.782,9.289
		l1.337,0.01c0-0.552,0.326-1.316,0.693-1.602c0.368-0.284,0.813-0.511,1.338-0.511c0.602,0,1.066,0.249,1.392,0.577
		c0.324,0.327,0.601,0.796,0.601,1.405c0,0.512-0.149,1.118-0.39,1.48c-0.243,0.362-0.647,0.767-1.216,1.438
		c-0.587,0.53-0.827,1.187-0.974,1.506c-0.28,0.604-0.19,1.238-0.195,2.071h1.384c0-0.521,0.015-1.136,0.081-1.382
		c0.064-0.246,0.368-0.923,0.678-1.232c0.667-0.644,1.062-1.273,1.469-1.889c0.403-0.615,0.579-1.237,0.579-1.979
		c0-1.035-0.285-1.699-0.912-2.276C14.02,6.327,13.281,5.953,12.15,5.953z"/>
</g>
</svg>
