<?xml version="1.0" encoding="utf-8"?>
<!-- Generator: Adobe Illustrator 15.1.0, SVG Export Plug-In . SVG Version: 6.00 Build 0)  -->
<svg version="1.2" baseProfile="tiny" id="Шар_1"
	 xmlns="http://www.w3.org/2000/svg" xmlns:xlink="http://www.w3.org/1999/xlink" x="0px" y="0px" width="24px" height="24px"
	 viewBox="0 0 24 24" xml:space="preserve">
<g>
	<path fill="none" d="M18.286,4.044h-0.949V2.803c-0.798,0-1.784,0-2.851,0v1.242h-0.95V2.803c-0.94,0-1.912,0-2.852,0v1.242h-0.95
		V2.803c-1.067,0-2.052,0-2.851,0v1.242h-0.95V2.803c-0.492,0-0.999,0-1.117,0c0,0.885,0,18.702,0,19.588c0.864,0,13.763,0,14.627,0
		c0-0.886,0-18.703,0-19.588c-0.118,0-0.666,0-1.158,0V4.044z M15.438,16.396H6.825v-0.949h8.613V16.396z M17.277,13.547H6.825
		v-0.951h10.453V13.547z M17.277,10.696H6.825V9.745h10.453V10.696z M17.277,7.845H6.825v-0.95h10.453V7.845z"/>
	<path fill="#8b4b18" d="M19.713,1.193h-1.427V0.124h-0.949v1.069h-2.851V0.124h-0.95v1.069h-2.852V0.124h-0.95v1.069H6.884V0.124
		h-0.95v1.069H4.508c-0.787,0-1.425,0.638-1.425,1.134v19.956C3.083,23.361,3.721,24,4.508,24h15.205
		c0.786,0,1.425-0.639,1.425-1.717V2.327C21.138,1.831,20.499,1.193,19.713,1.193z M19.444,22.391c-0.864,0-13.763,0-14.627,0
		c0-0.886,0-18.703,0-19.588c0.118,0,0.625,0,1.117,0v1.242h0.95V2.803c0.799,0,1.784,0,2.851,0v1.242h0.95V2.803
		c0.939,0,1.911,0,2.852,0v1.242h0.95V2.803c1.066,0,2.053,0,2.851,0v1.242h0.949V2.803c0.492,0,1.04,0,1.158,0
		C19.444,3.688,19.444,21.505,19.444,22.391z"/>
	<rect x="6.825" y="9.745" fill="#8b4b18" width="10.453" height="0.951"/>
	<rect x="6.825" y="6.895" fill="#8b4b18" width="10.453" height="0.95"/>
	<rect x="6.825" y="12.596" fill="#8b4b18" width="10.453" height="0.951"/>
	<rect x="6.825" y="15.447" fill="#8b4b18" width="8.613" height="0.949"/>
</g>
</svg>
