<?xml version="1.0" encoding="UTF-8" standalone="no"?>
<!-- Generator: Adobe Illustrator 15.1.0, SVG Export Plug-In . SVG Version: 6.00 Build 0)  -->

<svg
   xmlns:dc="http://purl.org/dc/elements/1.1/"
   xmlns:cc="http://creativecommons.org/ns#"
   xmlns:rdf="http://www.w3.org/1999/02/22-rdf-syntax-ns#"
   xmlns:svg="http://www.w3.org/2000/svg"
   xmlns="http://www.w3.org/2000/svg"
   xmlns:sodipodi="http://sodipodi.sourceforge.net/DTD/sodipodi-0.dtd"
   xmlns:inkscape="http://www.inkscape.org/namespaces/inkscape"
   version="1.2"
   id="Шар_1"
   x="0px"
   y="0px"
   width="24px"
   height="24px"
   viewBox="0 0 24 24"
   xml:space="preserve"
   inkscape:version="0.91 r13725"
   sodipodi:docname="assessments_shadow.svg"><metadata
     id="metadata3359"><rdf:RDF><cc:Work
         rdf:about=""><dc:format>image/svg+xml</dc:format><dc:type
           rdf:resource="http://purl.org/dc/dcmitype/StillImage" /></cc:Work></rdf:RDF></metadata><defs
     id="defs3357" /><sodipodi:namedview
     pagecolor="#ffffff"
     bordercolor="#666666"
     borderopacity="1"
     objecttolerance="10"
     gridtolerance="10"
     guidetolerance="10"
     inkscape:pageopacity="0"
     inkscape:pageshadow="2"
     inkscape:window-width="1680"
     inkscape:window-height="935"
     id="namedview3355"
     showgrid="false"
     inkscape:zoom="30.75"
     inkscape:cx="12"
     inkscape:cy="12"
     inkscape:window-x="-8"
     inkscape:window-y="-8"
     inkscape:window-maximized="1"
     inkscape:current-layer="Шар_1" /><g
     id="g3337"
     style="fill:#000000;opacity:0.5"><polygon
       fill="none"
       points="14.866,1.74 14.55,1.741 14.87,1.742  "
       id="polygon3339"
       style="fill:#000000;opacity:0.5" /><polygon
       fill="#FFFFFF"
       points="15.475,7.506 17.216,5.766 17.216,4.056 15.477,5.794  "
       id="polygon3341"
       style="fill:#ffffff;opacity:0.5;opacity:0.5" /><path
       fill="#FFFFFF"
       d="M14.87,1.742l-0.32-0.001L3.172,1.76v1.71l11.694-0.02c0.248,0,0.605,0.356,0.61,0.605l0.001-1.706   C15.478,2.103,15.12,1.745,14.87,1.742z"
       id="path3343"
       style="fill:#ffffff;opacity:0.5" /><path
       fill="#FFFFFF"
       d="M16.313,22.129c0,0-12.521,0-13.812,0c-0.699,0-1.025-0.901-1.044-0.957l-0.004,1.7   c0,0,0.327,0.967,1.048,0.967c1.291,0,13.812,0,13.812,0c0.5,0,0.904-0.404,0.904-0.906v-1.71   C17.218,21.725,16.813,22.129,16.313,22.129z"
       id="path3345"
       style="fill:#ffffff;opacity:0.5" /><path
       fill="#FFFFFF"
       d="M3.172,20.016v-0.161C3.172,19.854,3.162,19.926,3.172,20.016z"
       id="path3347"
       style="fill:#000000;opacity:0.5" /><polygon
       fill="#FFFFFF"
       points="10.016,15.042 7.253,12.288 5.648,12.299 10.096,16.662 21.188,5.579 19.5,5.564  "
       id="polygon3349"
       style="fill:#ffffff;opacity:0.5" /><path
       d="M15.463,19.964c0.001,0.251-0.151,0.452-0.396,0.452c0,0-11.063,0-11.394,0c-0.386,0-0.48-0.234-0.5-0.4   c-0.011-0.09,0-0.161,0-0.161V3.47V1.76L14.55,1.741l0.316,0c0.001,0,0.003,0.001,0.004,0.001c0.25,0.003,0.607,0.361,0.607,0.609   l-0.001,1.706l-0.002,1.74l0.002-0.001l1.739-1.738V3.918v-1.71c0-2.124-2.053-2.177-2.053-2.177L1.5,0L1.453,21.162   c0,0,0.003,0.009,0.004,0.01c0.019,0.056,0.345,0.957,1.044,0.957c1.291,0,13.812,0,13.812,0c0.5,0,0.904-0.404,0.904-0.906v-9.488   v-1.71l-1.746,1.749L15.463,19.964z"
       id="path3351"
       style="fill:#000000;opacity:0.5;fill-opacity:1" /><polygon
       points="7.253,10.578 5.648,10.589 10.096,14.952 21.188,3.869 19.5,3.854 10.016,13.332  "
       id="polygon3353"
       style="fill:#000000;opacity:0.5" /></g></svg>