<?xml version="1.0" encoding="utf-8"?>
<!-- Generator: Adobe Illustrator 15.1.0, SVG Export Plug-In . SVG Version: 6.00 Build 0)  -->
<svg version="1.2" baseProfile="tiny" id="Шар_1"
	 xmlns="http://www.w3.org/2000/svg" xmlns:xlink="http://www.w3.org/1999/xlink" x="0px" y="0px" width="24px" height="24px"
	 viewBox="0 0 24 24" xml:space="preserve">
<g>
	<path fill="#4b5c8f" d="M16.629,6.273l0.004-3.729c0-0.27-0.392-0.66-0.662-0.66L3.314,1.905v19.584c0,0-0.103,0.608,0.541,0.608
		c0.358,0,12.333,0,12.333,0c0.265,0,0.429-0.218,0.428-0.489l0.01-8.866l1.889-1.892v12.121c0,0.543-0.437,0.98-0.978,0.98
		c0,0-13.552,0-14.949,0c-0.781,0-1.135-1.046-1.135-1.046L1.504,0l14.788,0.034c0,0,2.221,0.058,2.221,2.356v2L16.629,6.273
		L16.629,6.273z"/>
	<polygon fill="#4b5c8f" points="10.721,14.429 7.731,11.449 5.993,11.461 10.807,16.184 22.813,4.187 20.986,4.171 	"/>
</g>
</svg>
