<?xml version="1.0" encoding="utf-8"?>
<!-- Generator: Adobe Illustrator 15.1.0, SVG Export Plug-In . SVG Version: 6.00 Build 0)  -->
<svg version="1.2" baseProfile="tiny" id="Шар_1"
	 xmlns="http://www.w3.org/2000/svg" xmlns:xlink="http://www.w3.org/1999/xlink" x="0px" y="0px" width="24px" height="24px"
	 viewBox="0 0 24 24" xml:space="preserve">
<g>
	<path fill="none" d="M21.902,3.235c0-0.229-0.381-0.559-0.609-0.559h-7.988c-0.34,0-0.547,0.27-0.74,0.63l-0.087,0.179
		l-1.104-0.008l-0.092-0.179C11.12,2.954,10.84,2.676,10.5,2.676H2.609c-0.23,0-0.562,0.33-0.562,0.559l0.014,16.026
		c0,0.229,0.138,0.414,0.363,0.414c0,0,6.59,0,7.377,0c1.129,0,1.42,0.553,1.726,0.897l0.998-0.009
		c0.219-0.426,0.939-0.842,1.643-0.842c0.785,0,7.307,0,7.307,0c0.227,0,0.412-0.186,0.412-0.414l0.006-11.91h0.004L21.902,3.235z"
		/>
	<path fill="#ccc" d="M23.494,7.397V2.983c0-1.873-1.881-1.825-1.881-1.825h-8.012c-0.98,0-1.625,0.718-1.625,1.107V2.262
		c0-0.387-0.588-1.104-1.651-1.104H2.388c-0.001,0-1.882-0.048-1.883,1.825v17.428c0,0.457,0.37,0.827,0.828,0.827
		c0,0,7.344,0,8.528,0s1.597,1.604,1.597,1.604h0.601h0.455c0,0,0.412-1.651,1.596-1.651s8.559,0,8.559,0
		c0.457,0,0.828-0.371,0.828-0.828V7.397H23.494z M21.887,19.308c0,0.229-0.186,0.414-0.412,0.414c0,0-6.521,0-7.307,0
		c-0.703,0-1.424,0.416-1.643,0.842l-0.998,0.009c-0.306-0.345-0.597-0.897-1.726-0.897c-0.787,0-7.377,0-7.377,0
		c-0.225,0-0.363-0.186-0.363-0.414L2.047,3.235c0-0.229,0.332-0.559,0.562-0.559H10.5c0.34,0,0.62,0.278,0.781,0.622l0.092,0.179
		l1.104,0.008l0.087-0.179c0.193-0.36,0.4-0.63,0.74-0.63h7.988c0.229,0,0.609,0.33,0.609,0.559l-0.006,4.163h-0.004L21.887,19.308z
		"/>
</g>
</svg>
