<?xml version="1.0" encoding="utf-8"?>
<!-- Generator: Adobe Illustrator 15.1.0, SVG Export Plug-In . SVG Version: 6.00 Build 0)  -->
<svg version="1.2" baseProfile="tiny" id="Шар_1"
	 xmlns="http://www.w3.org/2000/svg" xmlns:xlink="http://www.w3.org/1999/xlink" x="0px" y="0px" width="24px" height="24px"
	 viewBox="0 0 24 24" xml:space="preserve">
<g>
	<path fill="#b3b3b3" d="M11.958,1.724c5.622,0,10.192,4.567,10.192,10.182s-4.57,10.204-10.192,10.204
		c-5.62,0-10.193-4.589-10.193-10.204S5.888,1.725,11.958,1.724 M11.958,0C5.354,0,0,5.343,0,11.934
		c0,6.591,5.354,11.934,11.958,11.934s11.958-5.343,11.958-11.934C23.916,5.343,18.563,0,11.958,0L11.958,0L11.958,0z"/>
	<path fill="#b3b3b3" d="M11.184,5.712c-0.173,0.172-0.261,0.45-0.261,0.723s0.098,0.507,0.293,0.702
		c0.194,0.195,0.429,0.292,0.701,0.292c0.273,0,0.505-0.097,0.697-0.292c0.192-0.195,0.288-0.429,0.288-0.702
		s-0.096-0.505-0.288-0.697C12.422,5.546,12.19,5.45,11.917,5.45C11.638,5.45,11.357,5.538,11.184,5.712L11.184,5.712z
		 M12.167,8.787L9.732,9.775l0.124,0.317c0.235-0.088,0.435-0.132,0.6-0.132c0.153,0,0.273,0.037,0.362,0.11
		c0.088,0.074,0.152,0.205,0.193,0.393c0.053,0.259,0.08,0.827,0.08,1.704v4.323c0,0.5-0.039,0.838-0.119,1.015
		c-0.079,0.177-0.188,0.303-0.323,0.379c-0.135,0.077-0.4,0.115-0.794,0.115v0.317h4.156v-0.403c-0.382,0-0.645-0.128-0.789-0.21
		s-0.253-0.179-0.326-0.347c-0.074-0.168-0.082-0.36-0.082-0.866V8.787H12.167L12.167,8.787z"/>
</g>
</svg>
