<?xml version="1.0" encoding="utf-8"?>
<!-- Generator: Adobe Illustrator 15.1.0, SVG Export Plug-In . SVG Version: 6.00 Build 0)  -->
<svg version="1.2" baseProfile="tiny" id="Шар_1"
	 xmlns="http://www.w3.org/2000/svg" xmlns:xlink="http://www.w3.org/1999/xlink" x="0px" y="0px" width="24px" height="24px"
	 viewBox="0 0 24 24" xml:space="preserve">
<g>
	<path fill="none" d="M2.842,22.034c0,0.508,0.414,1,0.92,1h15.065V2.983h-2.005l0.011,13.016l-3.523-2.961l-3.484,2.99V3.005
		L2.842,2.983V22.034z"/>
	<polygon fill="none" points="14.832,11.062 14.821,2.983 11.788,2.983 11.788,10.969 13.27,9.875 	"/>
	<path fill="#000000" d="M4.596,0C3.579,0,1.833,1.209,1.833,2.229v19.85c0,1.02,0.824,1.924,1.841,1.924H19.83V1.976H3.217
		c0-0.508,1.296-1.012,1.805-1.012h15.772V22.86l1.045-1.043V0H4.596z M11.788,2.983h3.033l0.011,8.079L13.27,9.875l-1.481,1.094
		V2.983z M9.825,3.005v13.023l3.484-2.99l3.523,2.961L16.822,2.983h2.005v20.051H3.762c-0.507,0-0.92-0.492-0.92-1V2.983
		L9.825,3.005z"/>
</g>
</svg>
