<?xml version="1.0" encoding="utf-8"?>
<!-- Generator: Adobe Illustrator 15.1.0, SVG Export Plug-In . SVG Version: 6.00 Build 0)  -->
<svg version="1.2" baseProfile="tiny" id="Шар_1"
	 xmlns="http://www.w3.org/2000/svg" xmlns:xlink="http://www.w3.org/1999/xlink" x="0px" y="0px" width="24px" height="24px"
	 viewBox="0 0 24 24" xml:space="preserve">
<g>
	<path fill="none" d="M11.975,2.751c-5.933,0-10.761,3.717-10.761,8.287c0,2.147,1.074,4.188,3.025,5.746l0.471,0.377l-0.117,0.592
		l-0.454,2.269l2.188-1.459l0.424-0.283l0.477,0.183c1.505,0.572,3.102,0.863,4.747,0.863c5.933,0,10.761-3.718,10.761-8.287
		C22.735,6.468,17.907,2.751,11.975,2.751z"/>
	<path fill="#b3b3b3" d="M11.975,1.762c-6.488,0-11.75,4.153-11.75,9.276c0,2.542,1.297,4.844,3.396,6.52L2.699,22.17l4.177-2.784
		c1.543,0.588,3.27,0.929,5.099,0.929c6.488,0,11.75-4.152,11.75-9.276C23.725,5.915,18.463,1.762,11.975,1.762z M11.975,19.325
		c-1.645,0-3.242-0.291-4.747-0.863l-0.477-0.183l-0.424,0.283l-2.188,1.459l0.454-2.269l0.117-0.592l-0.471-0.377
		c-1.951-1.558-3.025-3.599-3.025-5.746c0-4.57,4.828-8.287,10.761-8.287s10.761,3.717,10.761,8.287
		C22.735,15.607,17.907,19.325,11.975,19.325z"/>
</g>
</svg>
