<?xml version="1.0" encoding="UTF-8" standalone="no"?>
<!-- Created with Inkscape (http://www.inkscape.org/) -->

<svg
   xmlns:dc="http://purl.org/dc/elements/1.1/"
   xmlns:cc="http://creativecommons.org/ns#"
   xmlns:rdf="http://www.w3.org/1999/02/22-rdf-syntax-ns#"
   xmlns:svg="http://www.w3.org/2000/svg"
   xmlns="http://www.w3.org/2000/svg"
   xmlns:sodipodi="http://sodipodi.sourceforge.net/DTD/sodipodi-0.dtd"
   xmlns:inkscape="http://www.inkscape.org/namespaces/inkscape"
   width="23.6"
   height="23"
   id="svg2"
   version="1.1"
   inkscape:version="0.48.5 r10040"
   sodipodi:docname="drawing_.svg">
  <defs
     id="defs4">
    <filter
       inkscape:label="Drop Shadow"
       id="filter4356"
       color-interpolation-filters="sRGB">
      <feFlood
         flood-opacity="0.5"
         flood-color="rgb(255,255,255)"
         result="flood"
         id="feFlood4358" />
      <feComposite
         in="flood"
         in2="SourceGraphic"
         operator="in"
         result="composite1"
         id="feComposite4360" />
      <feGaussianBlur
         stdDeviation="2.77556e-017"
         result="blur"
         id="feGaussianBlur4362" />
      <feOffset
         dx="-2.41474e-015"
         dy="1"
         result="offset"
         id="feOffset4364" />
      <feComposite
         in="SourceGraphic"
         in2="offset"
         operator="over"
         result="composite2"
         id="feComposite4366" />
    </filter>
  </defs>
  <sodipodi:namedview
     id="base"
     pagecolor="#ffffff"
     bordercolor="#666666"
     borderopacity="1.0"
     inkscape:pageopacity="0.0"
     inkscape:pageshadow="2"
     inkscape:zoom="15.839192"
     inkscape:cx="14.595778"
     inkscape:cy="9.8181487"
     inkscape:document-units="px"
     inkscape:current-layer="g2986"
     showgrid="false"
     inkscape:window-width="1041"
     inkscape:window-height="749"
     inkscape:window-x="130"
     inkscape:window-y="130"
     inkscape:window-maximized="0" />
  <metadata
     id="metadata7">
    <rdf:RDF>
      <cc:Work
         rdf:about="">
        <dc:format>image/svg+xml</dc:format>
        <dc:type
           rdf:resource="http://purl.org/dc/dcmitype/StillImage" />
        <dc:title></dc:title>
      </cc:Work>
    </rdf:RDF>
  </metadata>
  <g
     inkscape:groupmode="layer"
     id="layer2"
     inkscape:label="Layer"
     transform="translate(0,-1029.3622)" />
  <g
     inkscape:label="Layer 1"
     inkscape:groupmode="layer"
     id="layer1"
     transform="translate(0,-1029.3622)">
    <g
       id="g2986"
       transform="translate(-0.10477465,978.85897)"
       style="filter:url(#filter4356)">
	<path
   id="path2988"
   d="m 11.975,2.751 c -5.933,0 -10.761,3.717 -10.761,8.287 0,2.147 1.074,4.188 3.025,5.746 l 0.471,0.377 -0.117,0.592 -0.454,2.269 2.188,-1.459 0.424,-0.283 0.477,0.183 c 1.505,0.572 3.102,0.863 4.747,0.863 5.933,0 10.761,-3.718 10.761,-8.287 C 22.735,6.468 17.907,2.751 11.975,2.751 z"
   inkscape:connector-curvature="0"
   style="fill:none" />

	<path
   id="path2990"
   d="m 11.911866,51.06752 c -6.4880006,0 -11.75000054,4.153 -11.75000054,9.276 0,2.542 1.29699994,4.844 3.39599994,6.52 l -0.922,4.612 4.177,-2.784 c 1.543,0.588 3.2700006,0.929 5.0990006,0.929 6.488,0 11.75,-4.152 11.75,-9.276 0,-5.124 -5.262,-9.277 -11.75,-9.277 z m 0,17.563 c -1.645,0 -3.2420006,-0.291 -4.7470006,-0.863 l -0.477,-0.183 -0.424,0.283 -2.188,1.459 0.454,-2.269 0.117,-0.592 -0.471,-0.377 c -1.951,-1.558 -3.025,-3.599 -3.025,-5.746 0,-4.57 4.828,-8.287 10.7610006,-8.287 5.933,0 10.761,3.717 10.761,8.287 -10e-4,4.57 -4.829,8.288 -10.761,8.288 z"
   inkscape:connector-curvature="0"
   style="fill:#000;fill-opacity:0.48677248" />

</g>
  </g>
</svg>
