<?xml version="1.0" encoding="utf-8"?>
<!-- Generator: Adobe Illustrator 15.1.0, SVG Export Plug-In . SVG Version: 6.00 Build 0)  -->
<svg version="1.2" baseProfile="tiny" id="Шар_1"
	 xmlns="http://www.w3.org/2000/svg" xmlns:xlink="http://www.w3.org/1999/xlink" x="0px" y="0px" width="24px" height="24px"
	 viewBox="0 0 24 24" xml:space="preserve">
<g>
	<path fill="none" d="M18.854,7.565c-0.209-0.208-0.548-0.208-0.759,0l-7.848,7.617l-2.882-2.988
		c-0.095-0.094-0.5-0.161-0.709,0.046l-0.378,0.375c-0.208,0.209-0.143,0.61-0.048,0.704l3.696,3.838
		c0.095,0.094,0.489,0.15,0.698-0.057l8.607-8.409c0.209-0.208,0.209-0.544,0-0.75L18.854,7.565z"/>
	<path fill="#51639b" d="M12.037,0.375c-6.503,0-11.775,5.224-11.775,11.668c0,6.444,5.272,11.668,11.775,11.668
		c6.502,0,11.776-5.225,11.776-11.668C23.813,5.599,18.539,0.375,12.037,0.375z M19.23,8.691l-8.607,8.409
		c-0.208,0.207-0.603,0.15-0.698,0.057l-3.696-3.838c-0.095-0.094-0.16-0.495,0.048-0.704l0.378-0.375
		c0.209-0.208,0.614-0.141,0.709-0.046l2.882,2.988l7.848-7.617c0.211-0.208,0.55-0.208,0.759,0l0.377,0.375
		C19.439,8.147,19.439,8.484,19.23,8.691z"/>
</g>
</svg>
