<?xml version="1.0" encoding="utf-8"?>
<!-- Generator: Adobe Illustrator 15.1.0, SVG Export Plug-In . SVG Version: 6.00 Build 0)  -->
<svg version="1.2" baseProfile="tiny" id="Шар_1"
	 xmlns="http://www.w3.org/2000/svg" xmlns:xlink="http://www.w3.org/1999/xlink" x="0px" y="0px" width="24px" height="24px"
	 viewBox="0 0 24 24" xml:space="preserve">
<g>
	<path fill="none" d="M12.021,2.188c-5.422,0-9.833,4.411-9.833,9.833c0,5.423,4.411,9.834,9.833,9.834
		c5.423,0,9.834-4.411,9.834-9.834C21.855,6.599,17.444,2.188,12.021,2.188z"/>
	<path fill="#C8C8C8" d="M12.021,0.188c-6.536,0-11.833,5.298-11.833,11.833c0,6.535,5.298,11.834,11.833,11.834
		c6.535,0,11.834-5.299,11.834-11.834C23.855,5.486,18.557,0.188,12.021,0.188z M12.021,21.855c-5.422,0-9.833-4.411-9.833-9.834
		c0-5.422,4.411-9.833,9.833-9.833c5.423,0,9.834,4.411,9.834,9.833C21.855,17.444,17.444,21.855,12.021,21.855z"/>
</g>
</svg>
