<?xml version="1.0" encoding="utf-8"?>
<!-- Generator: Adobe Illustrator 15.1.0, SVG Export Plug-In . SVG Version: 6.00 Build 0)  -->
<svg version="1.2" baseProfile="tiny" id="Шар_1"
	 xmlns="http://www.w3.org/2000/svg" xmlns:xlink="http://www.w3.org/1999/xlink" x="0px" y="0px" width="300px" height="300px"
	 viewBox="0 0 300 300" xml:space="preserve">
<g>
	<path fill="none" d="M149.918,34.271c-63.79,0-115.688,51.898-115.688,115.689c0,63.79,51.897,115.688,115.688,115.688
		S265.605,213.75,265.605,149.96C265.605,86.169,213.709,34.271,149.918,34.271z"/>
	<path fill="none" d="M149.918,2.896C68.827,2.896,2.854,68.869,2.854,149.96s65.973,147.063,147.065,147.063
		c81.093,0,147.065-65.973,147.065-147.063C296.982,68.869,231.011,2.896,149.918,2.896z M290.854,126.639l-18.227,3.214
		l1.729,15.432l15.381-0.307l-1.17-11.208l-8.465,1.061l0.494,3.74l4.555-0.358l0.233,2.991l-7.39,0.58l-1.266-9.555l14.504-1.817
		l1.824,17.5l-21.38,0.426l-2.346-20.95l17.853-3.148l-4.09-16.859l-14.542,4.716l2.442,8.777l7.896-1.393l-0.882-3.662
		l-3.882,1.312l-0.961-2.842l6.99-2.362l2.396,9.955l-13.718,2.42l-3.943-14.172l20.355-6.601L290.854,126.639z M267.605,149.96
		c0,64.894-52.795,117.688-117.688,117.688c-64.894,0-117.688-52.795-117.688-117.688c0-64.894,52.795-117.689,117.688-117.689
		C214.813,32.271,267.605,85.066,267.605,149.96z M274.375,79.842l-16.025,9.255l6.902,13.91l14.348-5.549l-4.933-10.133
		l-7.593,3.893l1.744,3.346l4.156-1.894l1.243,2.73l-6.745,3.073l-4.455-8.547l13.006-6.667l7.701,15.821l-19.943,7.713
		l-9.371-18.884l15.697-9.065L260.499,64.4l-12.052,9.405l5.298,7.413l6.942-4.009l-2.08-3.14l-3.199,2.561l-1.875-2.343l5.762-4.61
		l5.656,8.536l-12.063,6.965l-8.555-11.967l16.87-13.165L274.375,79.842z M242.891,41.504l-11.896,14.178l11.244,10.71
		l11.585-10.122l-8.101-7.835l-5.805,6.254l2.783,2.548l3.258-3.201l2.102,2.14l-5.287,5.195l-7.108-6.509l9.942-10.712
		l12.646,12.232L242.15,70.451L226.884,55.91l11.652-13.887l-13.97-10.286l-8.107,12.96l7.514,5.153l5.152-6.141l-3.029-2.239
		l-2.13,3.499l-2.563-1.56l3.836-6.302l8.236,6.085l-8.955,10.671l-12.129-8.319l11.35-18.143L242.891,41.504z M177.371,9.547
		l22.816,6.7l-6.328,17.392l14.229,6.219l7.424-13.475l-10.291-4.591l-3.313,7.861l3.485,1.443l1.969-4.123l2.707,1.293l-3.193,6.69
		l-8.904-3.686l5.678-13.466l16.065,7.168l-10.317,18.73l-19.317-8.444l6.198-17.035l-16.646-4.887l-3.188,14.952l8.824,2.272
		l2.742-7.533l-3.613-1.068l-0.806,4.017l-2.94-0.59l1.449-7.233l9.82,2.902l-4.766,13.09l-14.244-3.669L177.371,9.547z
		 M151.424,7.117v18.508l15.498,0.979l2.369-15.203l-11.243-0.793l-0.425,8.521l3.771,0.163l0.438-4.546l2.986,0.288l-0.713,7.378
		l-9.629-0.416L155.204,7.4l17.554,1.239l-3.293,21.132l-21.041-1.329V10.313l-17.313,1.101l2.119,15.14l9.069-0.883v-8.017
		l-3.76,0.232l0.618,4.049l-2.966,0.452l-1.113-7.293l10.221-0.632v13.931l-14.641,1.425l-2.966-21.194L151.424,7.117z
		 M102.479,15.217l6.33,17.392l14.896-4.381l-2.972-15.095l-10.835,3.099l2.516,8.153l3.596-1.137l-1.143-4.421l2.904-0.751
		l1.855,7.175l-9.189,2.904l-4.309-13.965l16.917-4.839l4.132,20.983l-20.225,5.949l-6.2-17.034L84.86,26.203l7.169,13.502
		l8.22-3.931l-2.741-7.534l-3.453,1.504l1.965,3.594l-2.632,1.439l-3.54-6.474l9.389-4.088L104,37.305l-13.271,6.346l-10.036-18.9
		L102.479,15.217z M59.254,39.569l11.897,14.177l12.5-9.211l-7.957-13.169l-9.123,6.619l5.151,6.801l2.993-2.299l-2.585-3.765
		l2.473-1.698l4.195,6.109l-7.644,5.871L62.33,37.355l14.243-10.333l11.06,18.305l-16.97,12.506L59.011,43.946L46.456,55.917
		l11.355,10.236l6.379-6.505l-5.152-6.141l-2.731,2.594l3.075,2.704l-1.98,2.253l-5.541-4.871l7.425-7.053l8.953,10.671
		L57.938,70.307L42.043,55.979L59.254,39.569z M26.965,77.234l16.03,9.254l8.595-12.932l-11.98-9.654l-6.31,9.34l7.167,4.628
		l2.025-3.183l-3.716-2.654l1.743-2.441l6.031,4.306l-5.172,8.131L29.1,74.101l9.851-14.582l16.653,13.419l-11.67,17.557
		l-15.701-9.064L20.53,96.975l14.17,5.735l3.771-8.294l-6.943-4.009l-1.679,3.373l3.815,1.49l-1.091,2.795L25.7,95.381l4.565-9.167
		l12.063,6.966l-6.089,13.391l-19.835-8.028L26.965,77.234z M9.507,123.673l18.227,3.213l3.654-15.091l-14.56-4.973l-2.734,10.934
		l8.319,1.898l0.815-3.685l-4.401-1.222l0.803-2.891l7.142,1.983l-2.081,9.411l-14.25-3.252l4.27-17.07l20.238,6.913l-4.961,20.489
		l-17.853-3.146l-1.922,17.241l15.278,0.542l0.706-9.084l-7.894-1.392l-0.425,3.743l4.095,0.096l-0.07,2.999l-7.376-0.172
		l1.155-10.174l13.717,2.419l-1.139,14.667l-21.386-0.76L9.507,123.673z M8.983,173.283l18.228-3.217l-1.728-15.43L10.1,154.943
		l1.169,11.207l8.466-1.062l-0.495-3.739l-4.554,0.356l-0.234-2.99l7.389-0.579l1.264,9.555l-14.502,1.816l-1.826-17.501
		l21.382-0.425l2.346,20.949l-17.854,3.148l4.089,16.858l14.543-4.716l-2.442-8.776l-7.896,1.392l0.881,3.662l3.88-1.312l0.96,2.842
		l-6.99,2.361l-2.395-9.955L31,175.618l3.943,14.171l-20.356,6.602L8.983,173.283z M25.458,220.077l16.03-9.252l-6.901-13.91
		l-14.35,5.546l4.934,10.135l7.592-3.893l-1.744-3.346l-4.156,1.894l-1.243-2.729l6.745-3.072l4.455,8.546l-13.005,6.668
		L16.11,200.84l19.947-7.71l9.37,18.886l-15.701,9.063l9.611,14.443l12.052-9.404l-5.298-7.413l-6.942,4.008l2.081,3.142
		l3.197-2.561l1.875,2.342l-5.76,4.61l-5.657-8.535l12.063-6.965l8.554,11.968l-16.871,13.164L25.458,220.077z M56.947,258.416
		l11.897-14.178l-11.242-10.711l-11.587,10.121l8.102,7.836l5.803-6.254l-2.783-2.547l-3.257,3.199l-2.103-2.141l5.287-5.194
		l7.109,6.509l-9.939,10.713l-12.649-12.233l16.107-14.068l15.262,14.542l-11.653,13.887l13.971,10.287l8.108-12.961l-7.514-5.152
		l-5.153,6.142l3.029,2.237l2.13-3.498l2.563,1.561l-3.836,6.301l-8.235-6.084l8.955-10.672l12.13,8.319L76.1,272.52L56.947,258.416
		z M122.466,290.374l-22.816-6.699l6.329-17.393l-14.228-6.22l-7.427,13.475l10.293,4.591l3.313-7.86l-3.486-1.442l-1.967,4.12
		l-2.707-1.293l3.193-6.688l8.905,3.686l-5.675,13.467l-16.072-7.169l10.323-18.729l19.316,8.443l-6.199,17.035l16.645,4.887
		l3.187-14.95l-8.824-2.274l-2.741,7.535l3.612,1.066l0.805-4.018l2.941,0.591l-1.449,7.233l-9.819-2.901l4.764-13.091l14.245,3.67
		L122.466,290.374z M148.413,292.803v-18.507l-15.496-0.979l-2.37,15.203l11.242,0.795l0.426-8.521l-3.77-0.163l-0.438,4.546
		l-2.986-0.287l0.712-7.38l9.629,0.417l-0.729,14.598l-17.552-1.241l3.294-21.13l21.039,1.328v18.125l17.313-1.099l-2.117-15.141
		l-9.068,0.883v8.017l3.76-0.232l-0.617-4.049l2.965-0.452l1.113,7.294l-10.221,0.631v-13.93l14.641-1.424l2.967,21.192
		L148.413,292.803z M197.359,284.704l-6.332-17.392l-14.895,4.381l2.971,15.095l10.836-3.099l-2.516-8.151l-3.597,1.136l1.144,4.422
		l-2.904,0.75l-1.855-7.176l9.189-2.9l4.309,13.963l-16.917,4.838l-4.131-20.981l20.222-5.946l6.202,17.033l15.894-6.957
		l-7.17-13.502l-8.221,3.932l2.742,7.533l3.453-1.505l-1.967-3.594l2.634-1.438l3.54,6.473l-9.389,4.091l-4.765-13.091l13.271-6.348
		l10.037,18.9L197.359,284.704z M240.582,260.352l-11.896-14.178l-12.498,9.213l7.955,13.168l9.123-6.617l-5.152-6.802l-2.991,2.298
		l2.586,3.765l-2.474,1.698l-4.196-6.108l7.646-5.87l8.822,11.65l-14.242,10.33l-11.059-18.303l16.969-12.508l11.653,13.887
		l12.555-11.972l-11.354-10.233l-6.379,6.504l5.152,6.142l2.73-2.595l-3.075-2.706l1.979-2.253l5.541,4.873l-7.423,7.054
		l-8.954-10.67l10.299-10.503l15.896,14.326L240.582,260.352z M272.869,222.686l-16.026-9.252l-8.595,12.931l11.98,9.653
		l6.308-9.338l-7.167-4.63l-2.025,3.183l3.717,2.653l-1.742,2.441l-6.032-4.306l5.176-8.131l12.276,7.93l-9.852,14.578
		l-16.652-13.416l11.67-17.557l15.697,9.063l7.705-15.544l-14.17-5.735l-3.771,8.296l6.942,4.008l1.68-3.371l-3.817-1.49
		l1.093-2.795l6.873,2.684l-4.563,9.166l-12.063-6.964l6.088-13.392l19.836,8.027L272.869,222.686z M290.329,176.248l-18.228-3.214
		l-3.651,15.091l14.559,4.973l2.735-10.931l-8.32-1.899l-0.814,3.685l4.401,1.221l-0.801,2.892l-7.144-1.98l2.08-9.412l14.252,3.255
		l-4.271,17.067l-20.238-6.912l4.959-20.489l17.854,3.147l1.924-17.242l-15.278-0.543l-0.705,9.084l7.895,1.395l0.426-3.744
		l-4.098-0.096l0.07-3l7.379,0.174l-1.156,10.174l-13.717-2.42l1.14-14.666l21.386,0.761L290.329,176.248z"/>
	<path fill="#E5E5E5" d="M149.918,0.896C67.724,0.896,0.854,67.766,0.854,149.96c0,82.194,66.87,149.063,149.065,149.063
		c82.195,0,149.065-66.869,149.065-149.063C298.982,67.766,232.113,0.896,149.918,0.896z M149.918,297.023
		c-81.092,0-147.065-65.973-147.065-147.063c0-81.092,65.973-147.064,147.065-147.064S296.982,68.869,296.982,149.96
		C296.982,231.052,231.011,297.023,149.918,297.023z"/>
	<path fill="#E5E5E5" d="M149.918,32.271C85.025,32.271,32.23,85.066,32.23,149.96c0,64.894,52.794,117.688,117.688,117.688
		c64.893,0,117.688-52.795,117.688-117.688C267.605,85.066,214.813,32.271,149.918,32.271z M149.918,265.646
		c-63.791,0-115.688-51.896-115.688-115.688S86.127,34.271,149.918,34.271S265.605,86.169,265.605,149.96
		C265.605,213.75,213.709,265.646,149.918,265.646z"/>
	<polygon fill="#E5E5E5" points="145.298,28.395 145.298,14.464 135.078,15.096 136.19,22.389 139.156,21.937 138.539,17.888 
		142.298,17.655 142.298,25.672 133.229,26.555 131.111,11.415 148.424,10.313 148.424,28.441 169.465,29.771 172.758,8.638 
		155.204,7.399 154.477,21.995 164.105,22.411 164.818,15.033 161.832,14.745 161.395,19.291 157.623,19.128 158.048,10.607 
		169.291,11.401 166.922,26.604 151.424,25.625 151.424,7.117 127.691,8.625 130.657,29.819 	"/>
	<polygon fill="#E5E5E5" points="103.999,37.306 99.236,24.216 89.847,28.304 93.387,34.778 96.019,33.338 94.054,29.745 
		97.507,28.24 100.249,35.774 92.029,39.705 84.86,26.203 100.753,19.247 106.953,36.281 127.178,30.333 123.045,9.35 
		106.128,14.188 110.437,28.154 119.625,25.25 117.771,18.074 114.866,18.825 116.009,23.247 112.413,24.383 109.897,16.23 
		120.733,13.132 123.705,28.227 108.809,32.608 102.479,15.217 80.693,24.751 90.728,43.652 	"/>
	<polygon fill="#E5E5E5" points="68.237,59.805 59.284,49.134 51.859,56.188 57.4,61.059 59.381,58.806 56.306,56.102 
		59.037,53.507 64.189,59.648 57.811,66.153 46.456,55.917 59.011,43.946 70.664,57.832 87.634,45.326 76.574,27.021 62.332,37.354 
		71.156,49.003 78.799,43.132 74.604,37.023 72.131,38.721 74.716,42.486 71.723,44.785 66.572,37.984 75.694,31.365 83.651,44.535 
		71.151,53.746 59.254,39.569 42.043,55.979 57.938,70.307 	"/>
	<polygon fill="#E5E5E5" points="42.33,93.179 30.267,86.213 25.702,95.379 32.575,98.063 33.666,95.269 29.85,93.779 
		31.529,90.406 38.473,94.416 34.701,102.71 20.531,96.975 28.233,81.431 43.934,90.495 55.604,72.938 38.95,59.519 29.1,74.101 
		41.377,82.03 46.55,73.899 40.519,69.593 38.776,72.034 42.492,74.688 40.467,77.871 33.3,73.243 39.609,63.903 51.59,73.557 
		42.995,86.489 26.965,77.234 16.406,98.542 36.241,106.57 	"/>
	<polygon fill="#E5E5E5" points="29.397,133.4 15.68,130.981 14.524,141.156 21.9,141.328 21.971,138.329 17.876,138.233 
		18.301,134.49 26.195,135.882 25.489,144.966 10.211,144.424 12.134,127.183 29.987,130.33 34.948,109.841 14.71,102.928 
		10.44,119.999 24.69,123.25 26.771,113.839 19.629,111.856 18.826,114.747 23.228,115.969 22.413,119.654 14.094,117.755 
		16.828,106.822 31.388,111.795 27.734,126.886 9.507,123.673 6.872,147.307 28.258,148.067 	"/>
	<polygon fill="#E5E5E5" points="31.002,175.62 17.284,178.038 19.678,187.993 26.668,185.632 25.708,182.79 21.828,184.102 
		20.947,180.438 28.842,179.048 31.285,187.824 16.742,192.54 12.652,175.682 30.506,172.532 28.16,151.583 6.778,152.008 
		8.604,169.509 23.106,167.691 21.842,158.139 14.454,158.717 14.688,161.707 19.242,161.352 19.736,165.09 11.27,166.15 
		10.101,154.943 25.483,154.639 27.211,170.066 8.983,173.283 14.589,196.393 34.946,189.791 	"/>
	<polygon fill="#E5E5E5" points="46.949,214.744 34.886,221.709 40.542,230.244 46.302,225.634 44.427,223.292 41.23,225.852 
		39.149,222.711 46.092,218.703 51.39,226.116 39.337,235.521 29.727,221.077 45.427,212.016 36.057,193.13 16.11,200.84 
		23.813,216.662 36.818,209.994 32.364,201.448 25.619,204.521 26.862,207.251 31.018,205.357 32.762,208.703 25.17,212.596 
		20.236,202.461 34.586,196.915 41.488,210.825 25.458,220.077 38.632,239.876 55.503,226.712 	"/>
	<polygon fill="#E5E5E5" points="75.317,246.057 66.362,256.727 74.598,262.813 78.434,256.511 75.872,254.95 73.741,258.448 
		70.712,256.211 75.865,250.068 83.378,255.223 75.271,268.184 61.299,257.896 72.952,244.01 57.69,229.468 41.583,243.536 
		54.232,255.771 64.172,245.057 57.063,238.549 51.776,243.743 53.879,245.884 57.136,242.684 59.919,245.23 54.116,251.484 
		46.015,243.648 57.602,233.527 68.844,244.238 56.947,258.416 76.098,272.518 87.447,254.375 	"/>
	<polygon fill="#E5E5E5" points="107.918,278.865 117.737,281.768 119.187,274.533 116.245,273.943 115.44,277.96 111.828,276.893 
		114.569,269.357 123.393,271.633 120.206,286.583 103.562,281.695 109.761,264.661 90.444,256.218 80.121,274.947 96.193,282.116 
		101.868,268.65 92.963,264.965 89.77,271.652 92.477,272.945 94.444,268.824 97.931,270.268 94.618,278.128 84.324,273.537 
		91.751,260.063 105.979,266.282 99.649,283.675 122.466,290.374 126.926,269.445 112.682,265.773 	"/>
	<polygon fill="#E5E5E5" points="154.539,271.525 154.539,285.456 164.76,284.825 163.646,277.531 160.682,277.984 161.299,282.032 
		157.539,282.266 157.539,274.249 166.607,273.366 168.727,288.507 151.412,289.605 151.412,271.479 130.374,270.15 127.08,291.281 
		144.632,292.523 145.36,277.926 135.731,277.509 135.019,284.889 138.005,285.176 138.444,280.63 142.214,280.793 141.788,289.314 
		130.546,288.52 132.917,273.316 148.413,274.296 148.413,292.803 172.146,291.296 169.18,270.104 	"/>
	<polygon fill="#E5E5E5" points="195.838,262.615 200.602,275.706 209.99,271.615 206.45,265.143 203.816,266.582 205.783,270.176 
		202.33,271.682 199.588,264.146 207.809,260.216 214.979,273.718 199.085,280.675 192.883,263.641 172.661,269.588 
		176.792,290.568 193.709,285.732 189.4,271.77 180.211,274.67 182.066,281.846 184.971,281.096 183.828,276.674 187.425,275.538 
		189.939,283.689 179.104,286.788 176.134,271.693 191.027,267.313 197.359,284.704 219.146,275.169 209.109,256.27 	"/>
	<polygon fill="#E5E5E5" points="231.6,240.117 240.555,250.787 247.977,243.732 242.436,238.861 240.455,241.113 243.531,243.818 
		240.8,246.414 235.646,240.273 242.025,233.77 253.381,244.003 240.826,255.975 229.173,242.088 212.204,254.596 223.262,272.898 
		237.505,262.568 228.682,250.917 221.037,256.787 225.234,262.896 227.707,261.197 225.121,257.434 228.113,255.136 
		233.266,261.938 224.143,268.555 216.188,255.387 228.686,246.174 240.582,260.352 257.793,243.939 241.896,229.614 	"/>
	<polygon fill="#E5E5E5" points="257.508,206.742 269.57,213.706 274.136,204.54 267.262,201.855 266.17,204.65 269.986,206.143 
		268.309,209.514 261.365,205.506 265.137,197.21 279.307,202.945 271.602,218.489 255.902,209.427 244.234,226.982 
		260.887,240.398 270.736,225.82 258.461,217.893 253.285,226.021 259.318,230.327 261.061,227.886 257.344,225.232 259.369,222.05 
		266.536,226.68 260.229,236.018 248.248,226.363 256.843,213.434 272.869,222.686 283.432,201.379 263.596,193.352 	"/>
	<polygon fill="#E5E5E5" points="270.439,166.52 284.157,168.938 285.313,158.766 277.936,158.592 277.864,161.592 281.962,161.688 
		281.536,165.432 273.643,164.037 274.348,154.953 289.626,155.496 287.702,172.738 269.85,169.591 264.891,190.08 285.128,196.992 
		289.398,179.925 275.146,176.67 273.066,186.082 280.21,188.063 281.011,185.172 276.609,183.951 277.424,180.268 285.744,182.167 
		283.009,193.098 268.45,188.125 272.104,173.034 290.329,176.248 292.966,152.613 271.58,151.854 	"/>
	<polygon fill="#E5E5E5" points="268.835,124.301 282.553,121.881 280.158,111.927 273.167,114.289 274.128,117.131 278.01,115.819 
		278.891,119.481 270.995,120.874 268.553,112.096 283.096,107.38 287.184,124.24 269.332,127.388 271.678,148.338 293.059,147.913 
		291.232,130.412 276.729,132.229 277.994,141.784 285.384,141.204 285.148,138.212 280.596,138.57 280.102,134.831 288.566,133.77 
		289.734,144.978 274.354,145.285 272.627,129.853 290.854,126.639 285.247,103.529 264.891,110.129 	"/>
	<polygon fill="#E5E5E5" points="252.889,85.176 264.951,78.211 259.295,69.676 253.533,74.286 255.408,76.629 258.607,74.068 
		260.688,77.208 253.745,81.217 248.447,73.805 260.499,64.399 270.107,78.843 254.41,87.908 263.781,106.792 283.725,99.079 
		276.023,83.258 263.018,89.925 267.473,98.472 274.219,95.399 272.975,92.669 268.818,94.563 267.074,91.217 274.667,87.325 
		279.6,97.458 265.252,103.007 258.35,89.098 274.375,79.842 261.204,60.044 244.334,73.209 	"/>
	<polygon fill="#E5E5E5" points="224.521,53.865 233.475,43.194 225.238,37.109 221.402,43.411 223.966,44.97 226.096,41.472 
		229.125,43.71 223.973,49.852 216.459,44.699 224.566,31.739 238.536,42.025 226.884,55.912 242.148,70.452 258.254,56.383 
		245.605,44.151 235.664,54.863 242.773,61.372 248.061,56.177 245.959,54.037 242.701,57.238 239.918,54.69 245.723,48.436 
		253.822,56.271 242.236,66.393 230.993,55.682 242.891,41.504 223.74,27.404 212.391,45.546 	"/>
	<polygon fill="#E5E5E5" points="191.92,21.056 182.1,18.154 180.648,25.387 183.591,25.977 184.396,21.96 188.01,23.028 
		185.268,30.562 176.443,28.289 179.631,13.337 196.275,18.225 190.077,35.26 209.395,43.704 219.713,24.973 203.646,17.805 
		197.969,31.271 206.874,34.957 210.066,28.267 207.359,26.974 205.393,31.096 201.906,29.653 205.221,21.792 215.512,26.383 
		208.088,39.858 193.859,33.639 200.188,16.247 177.371,9.547 172.91,30.477 187.154,34.146 	"/>
	<g>
		<path fill="none" d="M179.938,155.866c-0.635-1.427-1.607-2.593-2.877-3.371c-0.506-0.311-1.129-0.583-1.775-0.732
			c-0.383-0.025-0.752-0.052-1.115-0.084c-0.168,0-0.344,0-0.492,0c-0.363-0.078-0.869,0.039-1.252-0.052
			c-0.227-0.046-0.557,0.039-0.816-0.014c-0.201-0.045-0.512-0.025-0.758-0.025c-0.422,0-0.961-0.007-1.361-0.039
			c-0.979-0.013-1.971-0.013-2.943-0.025c-0.375-0.078-0.92-0.026-1.336-0.026c-0.764-0.007-1.529-0.013-2.307-0.02
			c-0.363,0-0.732,0-1.096,0c-0.305-0.059-0.719-0.02-1.057-0.02c-0.688,0-1.373,0-2.061,0c-0.299,0-0.596,0-0.9,0
			c-0.285-0.064-0.707-0.02-1.031-0.02c-0.668,0-1.336,0-1.996,0c-2.104,0-4.201,0-6.304,0c-2.674,0-5.376,0.02-8.024,0.02
			c-0.881,0-1.766,0-2.635,0c-0.424,0-0.956-0.064-1.342,0.02c-1.034,0-2.077,0-3.111,0c-1.267,0.071-2.622,0-3.882,0.071
			c-0.46,0.02-0.95,0.02-1.381,0.02c-0.233,0-0.538-0.02-0.726,0.02c-0.178,0-0.357,0-0.528,0c-0.418,0-1.024-0.02-1.41,0.064
			c-0.477,0.026-0.947,0.052-1.426,0.071c-0.298,0.065-0.638,0.032-0.943,0.11c-0.538,0.13-1.034,0.266-1.446,0.512
			c-1.582,0.953-2.69,2.217-3.425,4c-0.285,0.687-0.344,1.471-0.525,2.281c-0.039,0.155-0.006,0.428,0.02,0.558
			c0.055,0.246,0.036,0.421,0.114,0.648c0.1,0.323,0.259,0.647,0.398,0.946c0.651,1.49,1.607,2.463,3.248,2.975
			c0.596,0.188,1.666,0.266,2.35,0.059c0.431-0.123,0.875-0.26,1.231-0.467c1.202-0.713,1.86-1.634,2.259-3.137
			c0.152-0.584,0.204-1.518-0.02-2.055c-0.308-0.72-0.83-1.342-1.481-1.725c-1.381-0.836-2.8,0.266-3.438,1.16
			c-0.172,0.246-0.69,1.31-0.221,1.614c0.162,0.123,0.943-0.059,1.164-0.11c0.198-0.039,0.544-0.013,0.703,0.026
			c0.179,0.013,0.36,0.013,0.545,0.025c0.366,0.078,0.755,0.117,1.082,0.221c0.237,0.064,0.616,0.11,0.697,0.337
			c0.026,0.039,0.026,0.091,0.026,0.143c-0.059,0.064-0.068,0.143-0.107,0.221c-0.114,0.168-0.253,0.33-0.379,0.492
			c-0.159,0.194-0.396,0.363-0.551,0.558c-0.528,0.687-1.339,1.16-2.308,1.419c-0.551,0.149-1.322,0.014-1.708-0.148
			c-1.154-0.467-1.883-1.374-2.282-2.58c-0.094-0.272-0.227-1.115-0.139-1.517c0.087-0.376,0.113-0.745,0.22-1.102
			c0.298-0.882,0.762-1.563,1.274-2.243c0.104-0.091,0.204-0.175,0.305-0.272c0.544-0.531,1.147-0.966,1.97-1.231
			c0.347-0.104,0.729-0.104,1.102-0.168c0.087,0,0.178,0,0.279,0c0.444-0.091,1.322-0.046,1.714,0.038
			c0.133,0.014,0.256,0.014,0.395,0.026c0.399,0.084,0.817,0.116,1.164,0.259c0.551,0.233,1.047,0.681,1.381,1.115
			c0.113,0.143,0.285,0.246,0.398,0.396c0.298,0.396,0.616,0.765,0.882,1.187c0.324,0.519,0.45,1.153,0.619,1.834
			c0.026,0.246,0.052,0.486,0.091,0.745c0.081,0.356,0.146,0.778,0.166,1.174c12.267,0,24.543,0,36.807,0
			c-0.025-1.958,0.26-3.054,1.012-4.233c0.188-0.298,0.459-0.557,0.68-0.842c0.408-0.532,1.006-1.044,1.666-1.336
			c0.35-0.143,0.777-0.182,1.186-0.271c0.137-0.014,0.279-0.014,0.422-0.026c0.168-0.039,0.428-0.026,0.615-0.064
			c0.137,0,0.273,0,0.422,0c0.506-0.104,1.563-0.014,1.957,0.109c1.504,0.474,2.762,1.835,3.357,3.209
			c0.17,0.383,0.273,0.784,0.363,1.205c0.156,0.545,0.131,1.361-0.012,1.88c-0.078,0.285-0.117,0.519-0.221,0.766
			c-0.377,0.855-1.115,1.562-1.996,1.918c-0.352,0.143-0.727,0.143-1.143,0.214c-0.258,0.052-0.893-0.097-1.102-0.136
			c-0.271-0.091-0.518-0.123-0.764-0.221c-0.57-0.239-1.115-0.907-1.453-1.387c-0.188-0.266-0.389-0.622-0.492-0.966
			c-0.051-0.137-0.051-0.389,0.064-0.447c0.176-0.123,0.467-0.078,0.713-0.13c0.752-0.168,1.725-0.045,2.477-0.207
			c0.26-0.065,0.844-0.052,0.934-0.247c0.104-0.155-0.053-0.453-0.09-0.557c-0.209-0.506-0.441-0.869-0.727-1.265
			c-0.168-0.239-0.363-0.492-0.623-0.654c-0.479-0.285-1.568-0.285-2.113-0.064c-0.934,0.376-1.445,1.043-1.717,2.074
			c-0.064,0.246-0.137,0.829-0.064,1.141c0.109,0.479,0.135,0.946,0.311,1.354c0.447,1.102,1.146,1.938,2.119,2.521
			c0.377,0.207,0.83,0.376,1.271,0.499c0.934,0.253,2.061,0.025,2.74-0.26c1.336-0.557,2.217-1.458,2.762-2.78
			c0.156-0.376,0.221-0.791,0.318-1.206c0.162-0.738,0-2.016-0.182-2.592C180.172,156.617,180.107,156.242,179.938,155.866z"/>
		<path fill="#E5E5E5" d="M122.892,216.859c0.519,0.13,1.17,0.025,1.721,0.155c0.178,0,0.363,0,0.541,0
			c0.606,0.078,1.381,0.065,2.026,0.065c0.292,0,0.583,0,0.868,0c0.405,0.09,0.969,0.013,1.41,0.013c0.133,0,0.266,0,0.395,0
			c0.441,0.104,1.057,0.02,1.536,0.02c0.934,0.006,1.87,0.02,2.807,0.032c6.625,0,13.249,0.013,19.866,0.025
			c2.074-0.013,4.148-0.025,6.223-0.025c0.693,0,1.375,0,2.063,0c0.342,0,0.764,0.039,1.063-0.032c0.609,0,1.211,0,1.814,0
			c0.596,0,1.193-0.007,1.775-0.02c0.357,0,0.791,0.052,1.104-0.013c0.395-0.091,0.867,0.052,1.23-0.026c0.143,0,0.271,0,0.414,0
			c0.391,0,0.883,0.032,1.232-0.039c0.182,0,0.363,0,0.551,0c0.123-0.032,0.318,0,0.461-0.032c0.648-0.136,1.387-0.032,1.867-0.292
			c0-0.064,0.025-0.091,0-0.136c-0.086-0.162-0.332-0.149-0.533-0.188c-0.344-0.09-0.777-0.052-1.141-0.136
			c-0.135,0-0.258,0-0.395,0c-0.396-0.084-0.992-0.064-1.406-0.064c-0.176,0-0.352,0-0.525,0c-0.311-0.071-0.719,0.052-1.057-0.032
			c-0.227-0.039-0.564-0.014-0.83-0.014c-0.389-0.013-0.764-0.025-1.141-0.025c-0.57,0-1.127,0-1.697,0
			c-0.313-0.065-0.746-0.026-1.096-0.026c-0.707,0-1.42,0-2.127,0c-2.119,0-4.297-0.013-6.455-0.013c-6.826,0-13.648,0-20.47,0
			c-0.12,0.064-0.697,0.013-0.885,0.013c-0.768,0-1.552,0-2.324,0c-0.622,0.013-1.241,0.026-1.864,0.026
			c-0.359,0-0.791-0.039-1.102,0.025c-0.444,0.098-1.05-0.077-1.468,0.014c-0.21,0-0.424,0-0.642,0
			c-0.386,0-0.872-0.026-1.229,0.058c-0.201,0.039-0.45-0.02-0.612,0.014c-0.172,0-0.344,0-0.502,0
			c-0.726,0.148-1.568,0.013-2.09,0.323C122.296,216.853,122.626,216.795,122.892,216.859z"/>
		<path fill="#E5E5E5" d="M183.037,154.972c-0.668-1.536-1.797-2.969-2.969-4.006c-0.246-0.221-0.467-0.48-0.727-0.675
			c-0.389-0.285-0.777-0.531-1.205-0.79c-0.221-0.143-0.467-0.363-0.727-0.435c0.025-0.149,0.131-0.227,0.195-0.344
			c0.193-0.291,0.363-0.596,0.543-0.881c0.248-0.376,0.43-0.752,0.676-1.125c0.324-0.521,0.693-1.066,0.932-1.679
			c0.156-0.386,0.182-0.83,0.287-1.268c0.018-0.253,0.018-0.492,0.031-0.735c0.092-0.405,0.025-0.976,0.025-1.417
			c0-0.933,0-1.856,0-2.78c-20.359,0-40.74,0-61.096,0c0,0.897,0,1.799,0,2.69c0,0.418-0.065,0.956,0.019,1.335
			c0,0.158,0,0.305,0,0.457c0.026,0.272,0.055,0.551,0.094,0.816c0.331,1.3,0.843,2.23,1.465,3.231
			c0.175,0.285,0.34,0.693,0.486,0.992c0.045,0.123,0.052,0.259,0.133,0.362c-0.055,0.292-0.425,0.454-0.639,0.603
			c-0.583,0.383-1.267,0.694-1.825,1.103c-0.331,0.234-0.616,0.532-0.901,0.824c-1.057,1.023-1.974,2.262-2.615,3.694
			c-0.182,0.415-0.292,0.855-0.418,1.315c-0.062,0.24-0.055,0.493-0.114,0.72c-0.013,0.233-0.026,0.479-0.048,0.727
			c-0.039,0.181-0.02,0.46-0.02,0.687c0,0.493-0.026,1.024,0.068,1.439c0.013,0.188,0.026,0.376,0.039,0.563
			c0.146,0.563,0.185,1.16,0.398,1.653c0.836,2.009,2.275,3.409,4.281,4.277c0.538,0.221,1.128,0.396,1.76,0.558
			c0.331,0.084,0.661,0.026,1.034,0.11c0.194,0.045,0.855,0.071,1.089,0.025c0.343-0.052,0.677-0.09,1.008-0.136
			c0.924-0.24,1.753-0.499,2.463-0.953c0.48-0.298,0.904-0.654,1.381-0.966c0.24-0.162,0.486-0.382,0.881-0.382
			c0.023,0.278,0.042,0.551,0.062,0.823c0.045,0.188-0.013,0.447,0.026,0.609c0.045,0.246-0.026,0.557,0.02,0.771
			c0.068,0.318-0.039,0.694,0.02,0.973c0.006,0.927,0.013,1.848,0.023,2.774c0.026,0.486,0.026,1.069,0.026,1.588
			c0,0.246,0,0.474,0,0.706c0.052,0.272,0.019,0.668,0.019,0.966c0,0.629,0,1.245,0,1.867c0,5.438,0,10.89,0,16.334
			c2.078,0,4.168,0,6.246,0c0-2.871,0-5.717,0-8.582c0-0.635,0-1.264,0-1.893c0-0.324-0.033-0.706,0.026-0.972
			c0.087-0.415-0.065-0.934,0.02-1.323c0.006-0.44,0.013-0.875,0.022-1.309c0.045-0.221-0.01-0.486,0.039-0.727
			c0.178-0.797,0.107-1.517,0.502-2.074c0.334-0.434,0.853-0.576,1.494-0.706c0.366-0.084,0.797,0.064,1.037,0.149
			c0.438,0.143,0.83,0.324,1.053,0.687c0.314,0.519,0.175,1.374,0.328,2.062c0.032,0.143,0,0.337,0.02,0.453
			c0,0.195,0,0.415,0,0.604c0.045,0.214-0.026,0.524,0.026,0.752c0.058,0.291-0.052,0.681,0.019,0.991
			c0.081,0.376,0.039,1.103,0.039,1.511c0,0.376,0,0.745,0,1.121c0.068,0.272,0.029,0.661,0.029,0.973
			c0.006,0.485,0.013,0.979,0.02,1.484c0,0.259,0,0.512,0,0.771c0.078,0.37,0.019,0.889,0.019,1.29c0,0.13,0,0.246,0,0.369
			c0.081,0.37,0.02,0.889,0.02,1.297c0,0.123,0,0.233,0,0.363c0.068,0.285,0.02,0.699,0.02,1.037
			c0.006,0.557,0.02,1.102,0.026,1.659c2.071,0,4.142,0,6.213,0c0-2.126,0-4.246,0-6.365c0-0.531,0-1.076,0-1.62
			c0-0.247-0.026-0.584,0.022-0.804c0.045-0.221-0.022-0.519,0.02-0.714c0-0.227,0-0.453,0-0.687
			c0.039-0.169,0.013-0.422,0.02-0.629c0.013-0.214,0-0.57,0.045-0.771c0.045-0.22-0.02-0.505,0.02-0.693
			c0.048-0.227-0.02-0.519,0.02-0.72c0.036-1.16,0.062-2.32,0.087-3.487c0.068-0.271,0.22-0.519,0.324-0.765
			c0.074-0.143,0.094-0.298,0.181-0.415c0.045-0.071,0.152-0.109,0.217-0.148c0.586-0.408,1.076-0.408,1.893-0.577
			c0.318-0.078,0.895,0,1.141,0.059c0.227,0.059,0.405,0.039,0.612,0.11c0.656,0.207,1.248,0.557,1.6,1.056
			c0.266,0.37,0.365,0.85,0.484,1.355c0.059,0.253,0.033,0.519,0.086,0.758c0.066,0.331,0,0.693,0.061,1.005
			c0.078,0.376-0.031,0.868,0.045,1.231c0,0.376,0,0.765,0,1.141c0.082,0.363,0.02,0.869,0.02,1.271c0,0.836,0,1.673,0,2.502
			c0,2.632,0,5.276,0,7.908c2.082,0,4.162,0,6.256,0c0-2.943,0-5.898,0-8.842c0-0.608,0.025-1.251,0.025-1.827
			c0-0.363-0.051-0.817,0.025-1.141c0-0.137,0-0.272,0-0.415c0-0.37-0.039-0.817,0.039-1.16c0-0.194,0-0.383,0-0.558
			c0.117-0.545,0.014-1.212,0.131-1.73c0.076-0.337,0-0.688,0.154-0.921c0.26-0.415,0.766-0.505,1.316-0.635
			c0.213-0.052,0.66-0.104,0.939-0.039c0.461,0.091,0.92,0.169,1.129,0.519c0.168,0.285,0.025,0.855,0.104,1.244
			c0.084,0.363-0.027,0.843,0.045,1.206c0.053,0.207,0.025,0.506,0.025,0.739c0,0.232,0.027,0.524,0.027,0.79
			c0.006,0.389,0.012,0.778,0.018,1.167c0,0.272-0.025,0.609,0.02,0.843c0,3.578,0,7.169,0,10.76c2.082,0,4.162,0,6.23,0
			c0-5.497,0.031-11.02,0.031-16.464c0-1.057,0.02-2.133,0.02-3.15c0-0.519-0.09-1.257,0.02-1.73
			c0.111-0.447-0.084-1.089,0.025-1.523c0-0.396,0-0.791,0-1.192c0.059-0.259-0.045-0.635,0.027-0.921
			c0.045-0.207-0.033-0.505,0.012-0.738c0.084-0.376,0.059-0.855,0.098-1.226c0.447,0.124,0.805,0.474,1.166,0.707
			c0.52,0.337,1.129,0.635,1.777,0.843c0.453,0.148,0.959,0.2,1.465,0.324c0.596,0.136,1.943,0.109,2.502-0.026
			c0.57-0.13,1.088-0.143,1.582-0.35c0.609-0.247,1.127-0.532,1.619-0.901c0.195-0.136,0.402-0.33,0.57-0.499
			c0.064-0.064,0.143-0.136,0.195-0.207c0.193-0.137,0.336-0.272,0.467-0.447c0.09-0.085,0.174-0.162,0.26-0.24
			c0.219-0.285,0.473-0.545,0.686-0.836c0.545-0.746,0.922-1.621,1.207-2.612c0.285-0.985,0.271-2.696,0.025-3.708
			C183.387,156.371,183.309,155.646,183.037,154.972z M180.482,159.638c-0.09,0.415-0.148,0.83-0.311,1.206
			c-0.545,1.322-1.426,2.224-2.762,2.78c-0.688,0.285-1.814,0.513-2.748,0.26c-0.441-0.13-0.895-0.292-1.27-0.499
			c-0.967-0.583-1.674-1.42-2.113-2.521c-0.17-0.408-0.209-0.875-0.313-1.354c-0.076-0.312,0-0.895,0.066-1.141
			c0.271-1.024,0.783-1.698,1.723-2.074c0.545-0.221,1.627-0.221,2.107,0.064c0.26,0.155,0.447,0.415,0.621,0.654
			c0.293,0.396,0.52,0.759,0.727,1.265c0.039,0.104,0.188,0.401,0.092,0.557c-0.092,0.195-0.682,0.182-0.934,0.247
			c-0.752,0.162-1.73,0.039-2.477,0.207c-0.246,0.052-0.537,0.007-0.719,0.13c-0.111,0.064-0.111,0.311-0.059,0.447
			c0.109,0.344,0.305,0.7,0.492,0.972c0.338,0.474,0.881,1.142,1.451,1.381c0.246,0.104,0.494,0.137,0.766,0.221
			c0.201,0.052,0.842,0.188,1.102,0.136c0.422-0.077,0.785-0.077,1.141-0.214c0.883-0.356,1.621-1.063,1.996-1.918
			c0.111-0.247,0.137-0.48,0.221-0.766c0.137-0.519,0.162-1.328,0.014-1.88c-0.098-0.421-0.188-0.822-0.369-1.205
			c-0.598-1.374-1.848-2.735-3.357-3.209c-0.389-0.123-1.453-0.207-1.959-0.109c-0.135,0-0.271,0-0.414,0
			c-0.182,0.038-0.441,0.025-0.623,0.064c-0.135,0.013-0.271,0.013-0.414,0.026c-0.414,0.09-0.836,0.129-1.186,0.271
			c-0.668,0.292-1.252,0.804-1.666,1.336c-0.215,0.285-0.486,0.544-0.688,0.842c-0.752,1.18-1.037,2.275-1.004,4.233
			c-12.271,0-24.541,0-36.808,0c-0.019-0.396-0.084-0.817-0.165-1.174c-0.033-0.259-0.065-0.499-0.091-0.745
			c-0.162-0.693-0.295-1.315-0.619-1.834c-0.266-0.415-0.577-0.791-0.881-1.187c-0.107-0.136-0.285-0.246-0.398-0.396
			c-0.334-0.435-0.83-0.882-1.381-1.115c-0.347-0.143-0.765-0.175-1.164-0.259c-0.139-0.013-0.266-0.013-0.395-0.026
			c-0.399-0.084-1.271-0.129-1.715-0.038c-0.1,0-0.191,0-0.278,0c-0.373,0.077-0.755,0.064-1.102,0.168
			c-0.83,0.26-1.433,0.688-1.971,1.231c-0.1,0.098-0.208,0.182-0.305,0.272c-0.512,0.681-0.975,1.361-1.277,2.243
			c-0.104,0.356-0.129,0.726-0.217,1.102c-0.094,0.401,0.045,1.244,0.139,1.517c0.398,1.206,1.122,2.101,2.282,2.58
			c0.392,0.162,1.157,0.298,1.708,0.148c0.969-0.259,1.779-0.732,2.307-1.419c0.146-0.194,0.392-0.363,0.551-0.558
			c0.126-0.162,0.266-0.324,0.379-0.492c0.039-0.078,0.045-0.156,0.107-0.221c0-0.059,0-0.11-0.026-0.143
			c-0.081-0.227-0.46-0.272-0.697-0.337c-0.321-0.11-0.716-0.143-1.083-0.221c-0.185-0.013-0.366-0.013-0.544-0.025
			c-0.165-0.039-0.505-0.065-0.703-0.026c-0.22,0.052-0.995,0.227-1.164,0.11c-0.47-0.305,0.049-1.368,0.22-1.614
			c0.639-0.895,2.058-1.996,3.439-1.16c0.651,0.383,1.167,0.991,1.481,1.725c0.224,0.537,0.172,1.471,0.02,2.055
			c-0.405,1.503-1.057,2.417-2.259,3.137c-0.356,0.207-0.8,0.35-1.234,0.467c-0.681,0.207-1.75,0.136-2.347-0.052
			c-1.64-0.519-2.596-1.497-3.247-2.981c-0.14-0.299-0.292-0.623-0.399-0.946c-0.071-0.221-0.052-0.402-0.113-0.648
			c-0.026-0.13-0.058-0.402-0.02-0.558c0.178-0.811,0.24-1.595,0.525-2.281c0.729-1.783,1.844-3.047,3.426-4
			c0.418-0.246,0.914-0.395,1.445-0.512c0.305-0.078,0.645-0.045,0.943-0.11c0.476-0.02,0.949-0.045,1.426-0.071
			c0.386-0.084,0.992-0.064,1.41-0.064c0.172,0,0.35,0,0.528,0c0.188-0.039,0.493-0.02,0.726-0.02c0.431,0,0.92,0,1.381-0.02
			c1.261-0.071,2.612,0,3.882-0.071c1.034,0,2.078,0,3.111,0c0.386-0.084,0.917-0.02,1.342-0.02c0.875,0,1.76,0,2.635,0
			c2.648,0,5.351-0.02,8.024-0.02c2.104,0,4.199,0,6.297,0c0.662,0,1.336,0,1.996,0c0.324,0,0.752-0.045,1.037,0.02
			c0.299,0,0.598,0,0.895,0c0.693,0,1.375,0,2.068,0c0.336,0,0.744-0.039,1.057,0.02c0.363,0,0.725,0,1.088,0
			c0.779,0.007,1.537,0.013,2.314,0.02c0.422,0,0.967-0.052,1.336,0.026c0.979,0.013,1.963,0.013,2.936,0.025
			c0.414,0.032,0.953,0.039,1.361,0.039c0.246,0,0.557-0.02,0.766,0.025c0.258,0.053,0.596-0.032,0.816,0.014
			c0.375,0.091,0.881-0.026,1.244,0.052c0.156,0,0.33,0,0.492,0c0.369,0.032,0.738,0.059,1.115,0.084
			c0.654,0.149,1.27,0.422,1.783,0.732c1.264,0.778,2.242,1.944,2.883,3.371c0.162,0.376,0.229,0.751,0.363,1.18
			C180.482,157.622,180.65,158.887,180.482,159.638z"/>
		<path fill="#E5E5E5" d="M164.9,96.201c-0.266,0.038-0.525,0.094-0.791,0.133c-0.699,0.191-1.432,0.519-1.814,1.008
			c-0.232,0.305-0.422,0.625-0.557,1.024c-0.086,0.266-0.15,0.735-0.086,1.053c0,0.081,0,0.152,0,0.24
			c0.059,0.22,0.086,0.463,0.176,0.671c0.414,0.976,1.244,1.465,2.385,1.736c0.475,0.12,1.238,0.062,1.646-0.038
			c1.465-0.38,2.27-0.928,2.814-2.197c0.297-0.697,0.336-1.912-0.066-2.541c-0.59-0.937-1.854-1.122-3.422-1.103
			C165.121,96.22,165.004,96.181,164.9,96.201z"/>
		<path fill="#E5E5E5" d="M120.338,120.008c0.198,0.777,0.337,1.539,0.635,2.235c1.792,4.275,5.211,7.163,8.968,9.506
			c0.771,0.477,1.582,0.949,2.369,1.42c0.366,0.22,0.752,0.34,1.122,0.557c0.418,0.253,0.904,0.513,1.361,0.71
			c1.52,0.658,3.014,1.391,4.541,2.052c0.538,0.227,1.063,0.447,1.578,0.671c0.233,0.094,0.544,0.14,0.726,0.298
			c0.019,0,0.052,0,0.071,0c-0.084-0.123-0.23-0.197-0.356-0.278c-0.24-0.179-0.46-0.383-0.697-0.558
			c-0.195-0.14-0.36-0.33-0.551-0.477c-0.69-0.505-1.322-1.069-2.019-1.571c-0.625-0.461-1.141-1.057-1.753-1.508
			c-0.126-0.133-0.252-0.266-0.376-0.392c-0.412-0.298-0.923-0.83-1.228-1.222c-0.24-0.312-0.586-0.564-0.83-0.892
			c-0.57-0.735-1.177-1.458-1.686-2.256c-0.823-1.267-1.39-2.66-1.912-4.245c-0.094-0.24-0.094-0.479-0.152-0.739
			c-0.612-2.116-0.366-5.402,0.256-7.278c0.139-0.399,0.201-0.766,0.353-1.145c0.191-0.464,0.418-0.937,0.616-1.381
			c0.133-0.285,0.227-0.57,0.392-0.836c0.46-0.735,0.872-1.494,1.368-2.19c0.506-0.717,1.063-1.394,1.601-2.091
			c0.444-0.583,1.021-1.082,1.465-1.659c0.188-0.24,0.48-0.405,0.665-0.642c0.227-0.292,0.505-0.558,0.765-0.823
			c0.097-0.081,0.191-0.169,0.285-0.26c0.266-0.34,0.597-0.671,0.92-0.969c0-0.007,0-0.013,0-0.02c0.007,0,0.017,0,0.023,0
			c0.026,5.999,1.598,10.388,3.973,14.069c0.538,0.836,1.177,1.607,1.779,2.392c0.272,0.362,0.651,0.654,0.924,1.008
			c0.198,0.259,0.424,0.506,0.658,0.735c0.11,0.094,0.217,0.201,0.324,0.298c0.279,0.36,0.729,0.778,1.102,1.051
			c0.185,0.139,0.337,0.379,0.525,0.519c0.564,0.418,1.034,0.942,1.604,1.361c1.4,1.033,2.768,2.122,4.217,3.124
			c0.508,0.359,1.041,0.716,1.559,1.057c0.232,0.152,0.557,0.278,0.732,0.489c0.02,0,0.033,0,0.045,0
			c-0.045-0.133-0.135-0.198-0.221-0.299c-0.162-0.242-0.35-0.47-0.543-0.709c-0.066-0.101-0.201-0.172-0.285-0.279
			c-0.779-1.014-1.793-1.837-2.568-2.874c-0.637-0.85-1.328-1.692-1.904-2.603c-0.772-1.199-1.414-2.489-2-3.876
			c-0.35-0.83-0.522-1.731-0.781-2.648c-0.087-0.278-0.062-0.538-0.139-0.823c-0.221-0.888-0.259-2.035-0.259-3.098
			c0-0.412-0.033-0.843,0.039-1.209c0-0.12,0-0.228,0-0.337c0.045-0.214,0.013-0.461,0.068-0.69
			c0.139-0.587,0.123-1.202,0.285-1.773c0.152-0.551,0.25-1.134,0.431-1.679c0.298-0.885,0.642-1.74,1.008-2.563
			c0.259-0.57,0.596-1.141,0.923-1.659c0.539-0.868,1.06-1.679,1.666-2.482c1.072-1.433,2.402-2.674,3.666-3.94
			c0.467-0.474,0.934-0.938,1.4-1.4c0.246-0.233,0.453-0.486,0.725-0.69c0.078-0.081,0.137-0.162,0.215-0.24
			c0.271-0.259,0.531-0.551,0.842-0.771c0.123-0.133,0.248-0.26,0.371-0.39c0.311-0.308,0.635-0.612,0.945-0.91
			c0.428-0.393,0.836-0.836,1.297-1.184c0.098-0.104,0.182-0.197,0.285-0.298c0.285-0.285,0.584-0.596,0.92-0.836
			c0.117-0.12,0.221-0.233,0.324-0.35c0.143-0.127,0.291-0.233,0.428-0.36c0.234-0.224,0.428-0.47,0.688-0.671
			c0.389-0.382,0.771-0.762,1.141-1.141c0.266-0.201,0.473-0.444,0.707-0.671c0.227-0.224,0.486-0.431,0.68-0.69
			c0.092-0.084,0.182-0.158,0.266-0.239c0.227-0.218,0.461-0.457,0.668-0.71c0.084-0.071,0.162-0.159,0.26-0.23
			c0.363-0.486,0.842-0.885,1.205-1.361c0.377-0.499,0.805-0.962,1.166-1.468c0.688-0.949,1.342-1.944,1.906-3.014
			c0.688-1.294,1.18-2.7,1.633-4.246c0.092-0.506,0.195-1.018,0.299-1.526c0.014-0.155,0.025-0.314,0.039-0.473
			c0.232-0.982,0.195-2.875-0.064-3.789c-0.234-0.83-0.467-1.595-0.869-2.246c-0.402-0.635-0.777-1.18-1.387-1.617
			c-0.168-0.126-0.338-0.32-0.57-0.366c0.098,0.658,0.193,1.322,0.285,1.978c0.014,0.408,0.014,0.804,0.025,1.208
			c0,0.995-0.143,2.052-0.402,2.83c-0.434,1.338-0.971,2.515-1.672,3.597c-0.467,0.729-1.037,1.394-1.549,2.071
			c-0.564,0.735-1.328,1.332-1.893,2.071c-0.137,0.133-0.271,0.259-0.422,0.389c-0.232,0.308-0.545,0.551-0.83,0.836
			c-0.285,0.278-0.543,0.593-0.875,0.84c-0.148,0.152-0.291,0.305-0.434,0.45c-0.699,0.519-1.264,1.199-1.982,1.718
			c-0.221,0.168-0.396,0.405-0.609,0.558c-0.766,0.563-1.439,1.234-2.191,1.792c-2.256,1.646-4.447,3.367-6.76,4.958
			c-1.274,0.879-2.564,1.767-3.883,2.583c-0.486,0.299-0.956,0.609-1.429,0.908c-0.198,0.119-0.47,0.22-0.616,0.386
			c-0.007,0-0.013,0-0.02,0c0.058-0.425,0.185-0.882,0.305-1.287c0.126-0.658,0.246-1.322,0.379-1.977
			c0.065-0.619,0.14-1.241,0.217-1.854c0.006-0.278,0.013-0.563,0.02-0.843c0.042-0.204,0.042-0.59,0-0.797c0-0.152,0-0.298,0-0.45
			c-0.033-0.312-0.071-0.639-0.11-0.95c-0.146-0.608-0.272-1.18-0.505-1.704c-0.337-0.765-0.976-1.575-1.627-2.045
			c-0.166-0.127-0.344-0.266-0.525-0.366c-0.123-0.085-0.269-0.123-0.376-0.218c-0.013,0-0.026,0-0.042,0
			c0.279,0.665,0.386,1.42,0.574,2.179c0.02,0.217,0.039,0.443,0.058,0.661c0.198,0.852,0.039,2.424-0.152,3.153
			c-0.088,0.317-0.101,0.596-0.201,0.903c-0.389,1.161-0.836,2.224-1.445,3.173c-0.499,0.762-1.076,1.459-1.627,2.175
			c-0.14,0.182-0.337,0.334-0.483,0.513c-0.632,0.829-1.413,1.532-2.152,2.271c-0.49,0.477-0.956,1.021-1.507,1.439
			c-0.272,0.197-0.457,0.512-0.723,0.709c-0.227,0.159-0.424,0.405-0.632,0.57c-0.755,0.564-1.371,1.294-2.129,1.854
			c-0.337,0.249-0.609,0.609-0.95,0.868c-1.089,0.804-1.996,1.838-3.085,2.647c-0.292,0.221-0.544,0.506-0.83,0.729
			c-0.36,0.253-0.632,0.606-0.976,0.865c-0.068,0.078-0.14,0.152-0.221,0.236c-0.496,0.373-0.881,0.859-1.38,1.223
			c-0.166,0.172-0.318,0.337-0.483,0.499c-0.347,0.266-0.639,0.603-0.943,0.907c-0.735,0.726-1.455,1.494-2.045,2.369
			c-0.742,1.102-1.306,2.311-1.772,3.704c-0.152,0.46-0.191,0.963-0.312,1.442c-0.006,0.126-0.013,0.243-0.019,0.369
			c-0.146,0.632-0.126,1.968,0.019,2.59C120.283,119.623,120.309,119.81,120.338,120.008z"/>
		<path fill="#E5E5E5" d="M124.432,214.83c0.22,0.052,0.519-0.019,0.703,0.026c0.266,0.059,0.613-0.026,0.849,0.02
			c0.34,0.078,0.765-0.046,1.083,0.025c0.418,0.091,0.93-0.064,1.322,0.026c0.564,0,1.141,0,1.705,0
			c0.444,0.091,1.05,0.013,1.533,0.013c0.924,0.014,1.847,0.026,2.768,0.026c0.418,0,0.843,0,1.267,0
			c0.347,0.077,0.839,0.025,1.229,0.025c0.81,0,1.627,0,2.437,0c2.47,0,4.933,0,7.399,0.014c3.076-0.014,6.155-0.014,9.229-0.014
			c1.012,0,2.029,0,3.033,0c0.467,0,1.064,0.071,1.498-0.025c0.746,0,1.51,0,2.256,0c0.693,0,1.387-0.013,2.08-0.026
			c0.396,0,0.889,0.052,1.238-0.013c0.123,0,0.246,0,0.383,0c0.414,0,0.939,0.052,1.303-0.026c0.195,0,0.383,0,0.576,0
			c0.338-0.013,0.688-0.02,1.031-0.025c0.246,0,0.57,0.025,0.791-0.02c0.252,0,0.512,0,0.758,0c0.402-0.007,0.992,0.007,1.361-0.059
			c0.143-0.039,0.357,0,0.467-0.025c0.324-0.078,0.855,0.039,1.09-0.117c0.012,0,0.025,0,0.051,0c0-0.013,0-0.025,0-0.045
			c-0.447-0.188-1.141-0.059-1.672-0.175c-0.195,0-0.396,0-0.596,0c-0.344-0.071-0.805-0.039-1.188-0.039c-0.135,0-0.271,0-0.42,0
			c-0.318-0.071-0.752,0.052-1.09-0.014c-0.221-0.058-0.545-0.032-0.791-0.032c-0.297,0-0.596-0.013-0.881-0.025
			c-0.492,0-0.979,0-1.473,0c-0.459-0.091-1.113-0.02-1.619-0.02c-0.992-0.007-1.984-0.014-2.963-0.02c-0.439,0-0.9,0-1.334,0
			c-0.455-0.098-1.18-0.02-1.699-0.02c-1.127,0-2.268,0-3.402,0c-3.484-0.007-6.975-0.013-10.465-0.02
			c-0.074,0.045-0.279,0.02-0.398,0.02c-0.311,0-0.632,0-0.943,0c-1.189,0-2.369,0-3.559,0c-1.452,0.007-2.907,0.013-4.359,0.02
			c-0.505,0-1.008,0-1.52,0c-0.246,0-0.551-0.02-0.765,0.02c-0.172,0-0.337,0-0.502,0c-0.544,0-1.387-0.071-1.867,0.02
			c-0.246,0-0.496,0-0.742,0c-0.479,0.013-0.956,0.025-1.429,0.025c-0.305,0-0.697-0.039-0.959,0.032c-0.359,0-0.707,0-1.063,0
			c-0.493,0.039-1.183-0.045-1.646,0.053c-0.347,0.084-0.729-0.014-1.05,0.052c-0.35,0.071-0.914-0.052-1.16,0.104
			c-0.013,0-0.026,0-0.052,0c0,0.025,0,0.052,0,0.077c0.337,0.065,0.781,0.039,1.147,0.137c0.133,0.025,0.324,0,0.438,0.013
			C124.04,214.85,124.279,214.805,124.432,214.83z"/>
		<path fill="#E5E5E5" d="M115.924,129.122c0.091,0.285,0.191,0.609,0.305,0.881c0.152,0.415,0.246,0.804,0.418,1.189
			c0.855,1.944,1.99,3.598,4.129,4.308c0.71,0.233,1.52,0.327,2.463,0.327c0.292,0,0.596,0.007,0.849-0.042
			c0.278-0.059,0.57-0.013,0.83-0.065c1.666-0.119,3.332-0.227,5.004-0.347c0-0.006,0-0.013,0-0.02
			c-0.373-0.1-0.723-0.311-1.057-0.456c-0.635-0.272-1.248-0.532-1.844-0.837c-1.128-0.57-2.178-1.134-3.173-1.834
			c-1.97-1.364-3.539-3.264-4.832-5.282c-0.716-1.115-1.348-2.308-1.996-3.491c-0.188-0.33-0.373-0.69-0.532-1.027
			c-0.087-0.214-0.159-0.505-0.327-0.651c-0.133,0.525-0.49,0.976-0.655,1.469c0,1.212,0,2.421,0,3.636c0,0.369,0,0.729,0,1.102
			c0.071,0.253,0.224,0.532,0.324,0.769C115.856,128.875,115.889,128.995,115.924,129.122z"/>
		<path fill="#E5E5E5" d="M150.664,85.408c0.689,0.228,1.836,0.233,2.57,0.039c1.58-0.411,2.682-1.108,3.291-2.476
			c0.137-0.317,0.209-0.668,0.305-1.034c0.092-0.386,0.066-0.988-0.031-1.342c-0.078-0.344-0.137-0.615-0.299-0.881
			c-0.461-0.746-1.451-1.241-2.43-1.494c-0.328-0.071-0.76-0.046-1.145-0.039c-0.104,0.064-0.291,0.032-0.418,0.064
			c-0.26,0.068-0.51,0.14-0.768,0.214c-0.658,0.266-1.249,0.604-1.78,0.988c-0.596,0.438-1.063,1.18-1.322,1.938
			c-0.064,0.197-0.078,0.373-0.133,0.583c-0.039,0.152-0.204,0.892-0.159,1.057c0.049,0.159,0.201,0.344,0.266,0.489
			C149.063,84.533,149.562,85.048,150.664,85.408z"/>
		<path fill="#E5E5E5" d="M168.744,202.236c-0.162,0-0.33,0-0.486,0c-0.252-0.059-0.615,0.039-0.895-0.026
			c-0.213-0.045-0.525-0.032-0.771-0.032c-0.324,0-0.641-0.013-0.965-0.013c-0.5,0-0.998,0-1.504,0
			c-0.266-0.059-0.654-0.025-0.959-0.025c-0.637,0-1.258,0-1.887,0c-1.854,0-3.754-0.02-5.646-0.02c-5.982,0-11.964,0-17.951,0
			c-0.106,0.058-0.596,0.02-0.771,0.02c-0.674,0-1.358,0-2.035,0c-0.658,0.013-1.322,0.013-1.993,0.025
			c-0.376,0-0.849-0.052-1.18,0.013c-0.444,0.11-1.083-0.064-1.52,0.032c-0.152,0-0.318,0-0.486,0c-0.259,0-0.531,0.014-0.762,0.026
			c-0.233,0-0.525-0.026-0.723,0.013c-0.201,0-0.398,0-0.593,0c-0.412,0.039-0.908,0-1.293,0.098
			c-0.272,0.052-0.596-0.032-0.791,0.097c-0.02,0.014-0.039,0.02-0.065,0.026c0.045,0.207,0.337,0.149,0.551,0.194
			c0.431,0.104,0.969,0.026,1.426,0.13c0.159,0,0.317,0,0.477,0c0.149,0.025,0.385-0.013,0.551,0.025
			c0.194,0.039,0.473-0.025,0.684,0.026c0.259,0.052,0.678,0.039,0.943,0.039c0.272,0.006,0.606-0.026,0.83,0.025
			c0.366,0.078,0.83-0.052,1.17,0.02c0.431,0.091,1.008-0.071,1.419,0.026c0.59,0,1.189,0,1.786,0c0.477,0.11,1.222,0.02,1.753,0.02
			c0.159,0,0.318,0,0.477,0c0.204,0.039,0.512,0.02,0.749,0.02c0.479,0,0.962,0,1.449,0c1.368,0,2.787,0.02,4.187,0.02
			c5.73,0,11.519,0.052,17.286,0.052c1.479,0,2.957-0.026,4.396-0.026c0.492,0,1.01-0.025,1.477-0.025
			c0.305,0,0.688,0.038,0.959-0.02c0.273,0,0.531,0,0.791,0c0.156-0.039,0.389,0.02,0.57-0.02c0.117-0.02,0.313,0.006,0.441-0.02
			c0.557-0.137,1.096-0.052,1.543-0.26c-0.014-0.447-1.09-0.298-1.523-0.396C169.541,202.224,169.088,202.236,168.744,202.236z"/>
		<path fill="#E5E5E5" d="M171.797,218.389c-0.389-0.091-0.984-0.077-1.406-0.077c-0.176,0-0.357,0-0.525,0
			c-0.311-0.065-0.725,0.058-1.057-0.014c-0.227-0.052-0.563-0.013-0.83-0.013c-0.395-0.013-0.783-0.025-1.172-0.025
			c-0.559,0-1.129,0-1.686,0c-0.285-0.065-0.699-0.033-1.031-0.033c-0.68,0-1.342,0-2.027,0c-1.998,0-4.033-0.013-6.068-0.013
			c-6.426,0-12.85,0-19.27,0c-0.126,0.071-0.709,0.013-0.901,0.013c-0.791,0-1.588,0-2.372,0c-0.723,0.02-1.445,0.02-2.168,0.033
			c-0.392,0-0.891-0.059-1.248,0.025c-0.139,0-0.266,0-0.398,0c-0.425,0-0.963-0.064-1.342,0.013c-0.266,0-0.525,0-0.791,0
			c-0.424,0-1.115-0.038-1.491,0.039c-0.246,0.059-0.558-0.025-0.771,0.026c-0.21,0-0.424,0-0.638,0
			c-0.477,0.104-1.053,0.02-1.517,0.11c-0.24,0.058-0.506-0.007-0.678,0.109c-0.022,0.014-0.048,0.014-0.068,0.026
			c0.045,0.221,0.392,0.162,0.619,0.221c0.528,0.116,1.192,0.025,1.75,0.148c0.175,0,0.334,0,0.505,0
			c0.152,0.026,0.399-0.025,0.571,0.014c0.185,0.045,0.463-0.026,0.677,0.019c0.252,0.053,0.651,0.033,0.895,0.046
			c0.266,0.02,0.599-0.026,0.83,0.02c0.34,0.077,0.778-0.039,1.095,0.039c0.418,0.084,0.93-0.078,1.322,0.013
			c0.126,0,0.253,0,0.379,0c0.389,0,0.881-0.052,1.228,0.013c0.635,0,1.267,0,1.902,0c0.48,0.11,1.329,0.026,1.867,0.026
			c0.178,0,0.356,0,0.531,0c0.47,0.104,1.193,0.025,1.711,0.025c1.063,0.007,2.123,0.014,3.186,0.014c0.703,0,1.407,0,2.104,0
			c0.405,0.097,0.962,0.038,1.406,0.038c0.937,0,1.874,0,2.81,0c0.398,0,0.788,0,1.18,0c0.431,0.085,1.037,0.014,1.513,0.014
			c1.018,0,2.04,0,3.053,0c3.219,0,6.381,0,9.584,0c0.842,0,1.697,0,2.553,0c0.408,0,0.92,0.052,1.283-0.014
			c0.143,0,0.285,0,0.416,0c0.479,0,1.076,0.059,1.504-0.038c0.154,0,0.336,0,0.504,0c0.279,0,0.57-0.007,0.811-0.014
			c0.227,0,0.525,0.014,0.721-0.025c0.201,0,0.408,0,0.609,0c0.129-0.026,0.342,0.013,0.492-0.026c0.68-0.136,1.387,0,1.906-0.298
			c0-0.064,0.025-0.084,0-0.136c-0.078-0.162-0.324-0.137-0.533-0.188c-0.336-0.078-0.764-0.052-1.141-0.13
			C172.057,218.389,171.928,218.389,171.797,218.389z"/>
		<path fill="#E5E5E5" d="M184.813,121.045c-0.285-0.671-0.57-1.336-0.945-1.919c-0.26-0.398-0.572-0.765-0.857-1.141
			c-0.207-0.26-0.504-0.538-0.764-0.732c-0.311-0.23-0.596-0.532-0.934-0.749c-0.643-0.438-1.322-0.765-1.99-1.17
			c-1.82-1.096-3.818-1.964-5.658-3.06c-0.648-0.389-1.361-0.671-2.01-1.047c-0.123-0.062-0.232-0.106-0.355-0.152
			c-0.525-0.314-1.121-0.57-1.646-0.891c-0.293-0.172-0.668-0.253-0.922-0.471c-0.006,0-0.02,0-0.02,0
			c0.047-0.133,0.182-0.2,0.26-0.298c0.207-0.278,0.48-0.506,0.682-0.784c0.629-0.804,1.373-1.494,2.002-2.298
			c0.156-0.204,0.389-0.376,0.545-0.583c0.531-0.697,1.18-1.293,1.711-1.983c1.348-1.76,2.846-3.361,4.148-5.173
			c0.881-1.215,1.842-2.421,2.477-3.869c0.324-0.729,0.777-2.35,0.557-3.433c-0.025-0.172-0.039-0.363-0.051-0.534
			c-0.26-1.018-0.533-1.867-1.012-2.629c-0.176-0.298-0.377-0.57-0.57-0.843c-0.078-0.113-0.137-0.285-0.285-0.34
			c0.084,0.425,0.07,0.91,0.07,1.4c0,0.214,0.027,0.485-0.012,0.67c0,0.101,0,0.214,0,0.318c-0.059,0.353-0.098,0.706-0.137,1.063
			c-0.207,0.791-0.375,1.559-0.662,2.243c-0.285,0.651-0.543,1.241-0.906,1.805c-1.154,1.786-2.826,3.153-4.545,4.395
			c-0.434,0.312-0.836,0.697-1.264,1.008c-1.191,0.859-2.346,1.715-3.539,2.545c-1.27,0.888-2.527,1.805-3.816,2.699
			c-0.266,0.175-0.525,0.379-0.791,0.558c-0.137,0.101-0.318,0.259-0.615,0.194c-0.313-0.074-0.637-0.14-0.857-0.298
			c-0.143-0.107-0.232-0.285-0.322-0.435c-0.221-0.298-0.461-0.597-0.695-0.907c-0.375-0.519-0.783-1.024-1.16-1.553
			c-0.4-0.551-0.738-1.108-1.133-1.659c-0.273-0.366-0.533-0.745-0.791-1.125c-0.137-0.185-0.396-0.401-0.461-0.642
			c-0.014,0-0.031,0-0.045,0c-0.092,0.272-0.148,0.551-0.24,0.823c-0.059,0.179-0.059,0.37-0.098,0.545
			c-0.135,0.57,0.027,1.62,0.15,2.045c0.115,0.256,0.143,0.496,0.246,0.755c0.531,1.254,1.258,2.281,1.996,3.313
			c0.33,0.45,0.654,0.881,0.973,1.322c0.143,0.197,0.238,0.431,0.414,0.596c-0.039,0.204-0.221,0.386-0.324,0.545
			c-0.207,0.33-0.428,0.716-0.596,1.082c-0.273,0.636-0.531,1.28-0.766,1.983c-0.143,0.438-0.168,0.931-0.285,1.394
			c0,0.14-0.012,0.285-0.012,0.432c-0.111,0.405-0.059,1.273,0.037,1.659c0,0.106,0.014,0.201,0.027,0.298
			c0.104,0.425,0.168,0.885,0.324,1.268c0.221,0.525,0.428,1.069,0.725,1.529c0.273,0.451,0.609,0.875,0.922,1.293
			c0.504,0.704,1.094,1.319,1.619,2.003c0.221,0.289,0.604,0.545,0.816,0.823c0.234,0.295,0.52,0.532,0.791,0.791
			c0.324,0.317,0.637,0.678,1.006,0.949c0.207,0.166,0.383,0.425,0.602,0.584c0.338,0.259,0.623,0.563,0.961,0.816
			c0.051,0.074,0.115,0.133,0.18,0.201c0.391,0.285,0.746,0.597,1.154,0.882c0.973,0.664,2.08,1.153,3.098,1.772
			c0.352,0.197,0.715,0.379,1.051,0.577c0.117,0.064,0.221,0.094,0.311,0.171c0.014,0,0.027,0,0.039,0
			c-0.174-0.266-0.492-0.463-0.725-0.689c-0.416-0.419-0.883-0.85-1.246-1.339c-0.129-0.155-0.322-0.288-0.439-0.454
			c-0.564-0.735-1.199-1.445-1.711-2.242c-0.844-1.31-1.465-2.576-2.023-4.193c-0.213-0.639-0.311-1.355-0.479-2.071
			c-0.066-0.295,0.006-0.646-0.066-0.943c-0.064-0.298-0.064-0.891,0-1.189c0.014-0.178,0.014-0.379,0.027-0.558
			c0.104-0.476,0.104-0.981,0.232-1.438c0.084-0.285,0.137-0.593,0.246-0.892c0.066-0.21,0.189-0.438,0.234-0.661
			c0.148,0.039,0.24,0.137,0.35,0.211c0.35,0.214,0.693,0.398,1.037,0.597c0.738,0.453,1.498,0.829,2.184,1.322
			c0.318,0.21,0.604,0.463,0.914,0.689c0.104,0.072,0.176,0.208,0.285,0.279c0.707,0.525,1.291,1.195,2.023,1.718
			c0.246,0.194,0.439,0.499,0.699,0.69c0.35,0.266,0.707,0.625,0.979,0.969c0.162,0.221,0.422,0.398,0.598,0.625
			c0.096,0.12,0.232,0.211,0.33,0.324c0.422,0.551,0.92,1.057,1.289,1.641c0.475,0.723,0.855,1.539,1.168,2.437
			c0.096,0.356,0.168,0.717,0.258,1.073c0.027,0.2,0.059,0.405,0.072,0.605c0.201,0.911,0.064,2.528-0.156,3.319
			c-0.078,0.291-0.078,0.557-0.168,0.836c-0.311,0.937-0.635,1.824-1.051,2.628c-0.104,0.172-0.135,0.351-0.246,0.513
			c-0.363,0.57-0.688,1.16-1.076,1.704c-0.285,0.398-0.648,0.765-0.92,1.16c-0.311,0.435-0.557,0.943-0.816,1.423
			c-0.117,0.23-0.207,0.516-0.377,0.71c0,0.013,0,0.026,0,0.039c0.143-0.046,0.221-0.191,0.338-0.279
			c0.271-0.207,0.506-0.463,0.791-0.664c0.777-0.577,1.439-1.261,2.217-1.831c0.156-0.126,0.285-0.312,0.453-0.438
			c0.453-0.334,0.844-0.735,1.297-1.076c0.137-0.106,0.246-0.266,0.375-0.372c0.494-0.363,0.908-0.804,1.336-1.226
			c1.336-1.31,2.566-2.822,3.383-4.635c0.143-0.311,0.234-0.615,0.377-0.949c0.207-0.502,0.375-1.096,0.545-1.659
			c0.076-0.279,0.076-0.525,0.154-0.816c0.078-0.312,0.078-0.71,0.078-1.122c0-0.126,0-0.246,0-0.366
			C185.201,122.406,185.072,121.673,184.813,121.045z"/>
		<path fill="#E5E5E5" d="M122.15,207.24c14.701,0,29.395,0,44.092,0c3.072,0,6.139,0,9.211,0c0.117-0.039,0.232-0.182,0.336-0.259
			c0.273-0.182,0.545-0.376,0.805-0.558c1.27-0.869,2.191-1.848,2.813-3.357c0.123-0.285,0.137-0.558,0.221-0.856
			c0.092-0.35,0.092-0.765,0.168-1.153c0-0.13,0-0.253,0-0.383c0.053-0.188,0.078-0.576,0.039-0.784
			c-0.051-0.214-0.025-0.46-0.078-0.687c-0.076-0.344-0.135-0.688-0.258-0.992c-0.299-0.719-0.74-1.296-1.18-1.873
			c-0.182-0.221-0.428-0.389-0.598-0.603c-0.395-0.499-0.861-1.005-1.484-1.264c-0.654-0.272-1.445-0.26-2.217-0.429
			c-0.271-0.064-0.57-0.013-0.828-0.064c-0.422-0.025-0.83-0.039-1.252-0.052c-0.271-0.059-0.635-0.045-0.939-0.045
			c-0.123,0-0.232,0-0.357,0c-0.227-0.046-0.57-0.014-0.842-0.02c-0.375-0.007-0.842-0.02-1.264-0.02
			c-1.822-0.026-3.701-0.046-5.574-0.046c-13.453,0-27.013,0-40.528,0c0.065,1.122,0.133,2.236,0.198,3.357
			c0.917,0.117,2.064,0.026,3.027,0.026c1.772,0.007,3.545,0.013,5.318,0.02c1.008,0,2.01,0,3.024,0
			c0.295,0.071,0.707,0.02,1.037,0.02c0.677,0,1.348,0,2.019,0c2.022,0.013,4.048,0.013,6.08,0.025
			c6.177,0.026,12.364,0.039,18.534,0.065c1.266,0.013,2.529,0.013,3.779,0.025c0.422,0.007,0.85,0.02,1.264,0.02
			c0.285,0,0.643-0.032,0.883,0.026c0.271,0,0.531,0,0.791,0c0.414,0.006,1.018-0.014,1.398,0.058c0.143,0.033,0.357,0,0.467,0.026
			c0.352,0.02,0.701,0.039,1.051,0.052c0.227,0.039,0.48,0.013,0.727,0.052c0.738,0.162,1.496,0.188,2.016,0.57
			c0.434,0.331,0.596,1.53,0.752,2.217c0.025,0.175-0.02,0.422-0.059,0.558c-0.014,0.136-0.025,0.272-0.039,0.415
			c-0.129,0.428-0.271,0.843-0.492,1.192c-0.24,0.408-0.5,0.83-0.922,1.076c-0.479,0.285-1.322,0.162-1.969,0.298
			c-0.143,0.026-0.324,0-0.428,0.026c-0.195,0-0.391,0-0.584,0c-0.188,0.039-0.486-0.026-0.719,0.013
			c-0.229,0.059-0.578,0.026-0.85,0.026c-0.389,0-0.836,0.025-1.244,0.025c-1.537,0-3.105,0.046-4.654,0.046
			c-13.531-0.007-27.13,0.02-40.69,0.02C122.15,205.107,122.15,206.178,122.15,207.24z"/>
		<path fill="#E5E5E5" d="M182.83,213.495c-0.338-0.758-0.895-1.354-1.389-1.983c-0.129-0.162-0.336-0.305-0.467-0.473
			c-0.439-0.558-0.945-1.103-1.633-1.4c-0.518-0.221-1.154-0.266-1.775-0.415c-0.26-0.052-0.545-0.025-0.791-0.091
			c-0.389-0.084-0.816,0-1.193-0.084c-0.467-0.013-0.939-0.026-1.4-0.046c-0.311-0.064-0.713-0.038-1.049-0.038
			c-0.137,0-0.246,0-0.377,0c-0.232-0.052-0.582-0.026-0.855-0.026c-0.395,0-0.867-0.025-1.295-0.025
			c-1.971,0-3.994-0.039-6.01-0.039c-15.167,0-30.432-0.026-45.645-0.026c0.071,1.264,0.152,2.528,0.217,3.792
			c15.028,0.013,30.147,0.149,45.181,0.175c0.869,0,1.783,0.013,2.625,0.026c0.453,0,1.037-0.078,1.465,0.02
			c0.168,0,0.338,0,0.506,0c0.285,0,0.584,0.02,0.855,0.02c0.232,0,0.545-0.02,0.752,0.019c0.232,0,0.473,0,0.719,0
			c0.604,0.137,1.355-0.013,1.939,0.11c0.297,0.014,0.596,0.026,0.881,0.039c0.26,0.071,0.57,0.026,0.842,0.098
			c0.713,0.162,1.428,0.214,1.932,0.583c0.48,0.35,0.676,1.595,0.83,2.314c0,0.227,0,0.466,0,0.706
			c-0.064,0.278-0.064,0.57-0.154,0.843c-0.215,0.693-0.525,1.173-0.922,1.698c-0.129,0.175-0.311,0.396-0.506,0.519
			c-0.42,0.259-1.063,0.214-1.646,0.337c-0.213,0.059-0.447,0-0.66,0.045c-0.311,0.065-0.662-0.019-0.959,0.053
			c-0.221,0-0.455,0-0.688,0c-0.246,0.038-0.604-0.039-0.875,0.013c-0.279,0.059-0.68,0.025-0.992,0.025
			c-0.453,0-0.984,0.026-1.49,0.026c-1.926,0-3.863,0.045-5.82,0.045c-14.75,0-29.583,0.026-44.372,0.026c0,1.199,0,2.392,0,3.584
			c16.493,0,32.997,0,49.493,0c3.441,0,6.883,0,10.338,0c0.109-0.032,0.213-0.181,0.324-0.252c0.271-0.188,0.545-0.37,0.816-0.558
			c1.277-0.882,2.424-1.893,3.086-3.391c0.219-0.466,0.316-0.959,0.467-1.503c0.148-0.558,0.188-1.238,0.188-1.919
			c0-0.26,0-0.519,0-0.778c-0.027-0.239-0.053-0.479-0.078-0.732C183.127,214.357,183.023,213.903,182.83,213.495z"/>
		<path fill="#E5E5E5" d="M127.883,199.132c0.266,0.059,0.619-0.039,0.855,0.013c0.34,0.071,0.765-0.045,1.069,0.032
			c0.431,0.091,0.995-0.077,1.407,0.014c0.139,0,0.279,0,0.418,0c0.454,0,1.018-0.072,1.429,0.025c0.888,0,1.77,0,2.654,0
			c0.233,0.052,0.583,0.013,0.856,0.013c0.577,0,1.153,0,1.734,0c1.672,0.014,3.344,0.026,5.023,0.026
			c5.39,0,10.792-0.026,16.153-0.026c0.906,0,1.809-0.013,2.715-0.013c0.48,0,1.076,0.064,1.51-0.025c0.143,0,0.285,0,0.422,0
			c0.461,0,1.043,0.077,1.459-0.014c0.182,0,0.383,0,0.57,0c0.355-0.013,0.713-0.013,1.076-0.032c0.26,0,0.584,0.032,0.803-0.013
			c0.254,0,0.5,0,0.746,0c0.221-0.014,0.584,0,0.797-0.052c0.311-0.065,0.662,0.02,0.947-0.039c0.271-0.071,0.621,0.039,0.803-0.098
			c0.014,0,0.027,0,0.053,0c0-0.013,0-0.039,0-0.064c-0.195-0.026-0.441-0.046-0.648-0.084c-0.26-0.059-0.557,0.013-0.805-0.046
			c-0.129,0-0.232,0-0.35,0c-0.291,0-0.688,0.013-0.973-0.039c-0.297-0.064-0.68,0.039-0.945-0.025
			c-0.377-0.084-0.836,0.052-1.193-0.026c-0.447-0.097-1.088,0.078-1.529-0.013c-0.699,0-1.406,0-2.1,0
			c-0.467-0.104-1.115-0.026-1.635-0.026c-0.998,0-1.996-0.019-2.994-0.019c-3.084-0.014-6.16-0.02-9.246-0.026
			c-2.648,0.007-5.312,0.013-7.966,0.026c-0.862,0-1.74,0-2.609,0c-0.418,0-0.95-0.065-1.319,0.019c-0.697,0-1.403,0-2.107,0
			c-0.654,0.014-1.299,0.014-1.951,0.026c-0.37,0-0.843-0.059-1.167,0.013c-0.45,0.104-1.108-0.071-1.552,0.026
			c-0.162,0-0.334,0-0.505,0c-0.292,0-0.583,0.013-0.856,0.025c-0.24,0-0.538-0.025-0.745,0.026c-0.211,0-0.425,0-0.635,0
			c-0.444,0-1.076-0.013-1.494,0.078c-0.204,0.052-0.444-0.026-0.59,0.064c-0.02,0.013-0.042,0.025-0.068,0.025
			c0,0.014,0,0.026,0,0.039c0.379,0.085,0.862,0.039,1.273,0.137c0.162,0.038,0.392-0.007,0.525,0.02
			C127.413,199.145,127.699,199.086,127.883,199.132z"/>
		<path fill="#E5E5E5" d="M125.971,200.901c0.424,0.11,0.969,0.045,1.429,0.136c0.178,0,0.35,0,0.522,0
			c0.194,0.046,0.486-0.013,0.706,0.026c0.198,0.045,0.49,0.02,0.723,0.025c0.266,0.007,0.531,0.02,0.797,0.02
			c0.25,0,0.509,0,0.762,0c0.457,0.104,1.261,0.026,1.773,0.026c1.069,0,2.204,0.025,3.292,0.025c8.41,0,16.956,0,25.366,0
			c0.967,0,1.965-0.025,2.898-0.025c0.518,0,1.172,0.077,1.633-0.026c0.182,0,0.369,0,0.545,0c0.336,0,0.668-0.02,0.971-0.02
			c0.248-0.006,0.564,0.02,0.766-0.025c0.234,0,0.467,0,0.699,0c0.145-0.026,0.377,0.02,0.545-0.026
			c0.688-0.136,1.465,0.013,1.984-0.298c-0.014-0.246-0.195-0.208-0.402-0.26c-0.318-0.077-0.727-0.052-1.076-0.136
			c-0.129,0-0.26,0-0.402,0c-0.408-0.091-1.037-0.064-1.49-0.064c-0.182,0-0.369,0-0.545,0c-0.355-0.071-0.828,0.064-1.211-0.014
			c-0.344-0.077-0.83-0.025-1.213-0.025c-0.688-0.013-1.373-0.02-2.068-0.026c-9.094,0-18.271-0.02-27.404-0.02
			c-0.133,0.085-0.532,0.02-0.723,0.02c-0.632,0-1.258,0-1.886,0c-0.5,0.007-0.995,0.014-1.488,0.026
			c-0.298,0-0.684-0.032-0.943,0.025c-0.389,0.078-0.875-0.058-1.235,0.014c-0.14,0-0.263,0-0.396,0
			c-0.379,0-0.804-0.026-1.144,0.052c-0.166,0-0.337,0-0.502,0c-0.664,0.136-1.374,0-1.867,0.298
			C125.414,200.901,125.734,200.862,125.971,200.901z"/>
	</g>
</g>
</svg>
