<?xml version="1.0" encoding="utf-8"?>
<!-- Generator: Adobe Illustrator 15.1.0, SVG Export Plug-In . SVG Version: 6.00 Build 0)  -->
<svg version="1.2" baseProfile="tiny" id="Шар_1"
	 xmlns="http://www.w3.org/2000/svg" xmlns:xlink="http://www.w3.org/1999/xlink" x="0px" y="0px" width="300px" height="300px"
	 viewBox="0 0 300 300" xml:space="preserve">
<g>
	<path fill="none" d="M149.918,34.271C86.128,34.271,34.23,86.169,34.23,149.96c0,63.79,51.897,115.688,115.688,115.688
		S265.606,213.75,265.606,149.96C265.606,86.169,213.709,34.271,149.918,34.271z"/>
	<path fill="none" d="M149.918,2.896C68.827,2.896,2.854,68.869,2.854,149.96c0,81.091,65.973,147.064,147.065,147.064
		c81.092,0,147.065-65.973,147.065-147.064C296.983,68.869,231.011,2.896,149.918,2.896z M290.854,126.639l-18.227,3.214
		l1.728,15.432l15.381-0.307l-1.169-11.208l-8.466,1.061l0.495,3.74l4.554-0.358l0.234,2.991l-7.39,0.58l-1.265-9.555l14.503-1.817
		l1.825,17.5l-21.38,0.426l-2.346-20.95l17.852-3.148l-4.089-16.859l-14.542,4.716l2.442,8.777l7.896-1.393l-0.881-3.662
		l-3.882,1.312l-0.961-2.842l6.991-2.362l2.395,9.955l-13.718,2.42l-3.944-14.172l20.356-6.601L290.854,126.639z M267.606,149.96
		c0,64.894-52.795,117.688-117.688,117.688c-64.894,0-117.688-52.794-117.688-117.688S85.025,32.271,149.918,32.271
		C214.812,32.271,267.606,85.066,267.606,149.96z M274.375,79.842l-16.025,9.255l6.902,13.91l14.348-5.549l-4.933-10.133
		l-7.593,3.893l1.744,3.346l4.156-1.894l1.244,2.73l-6.746,3.073l-4.455-8.547l13.007-6.667l7.7,15.821l-19.943,7.713l-9.371-18.884
		l15.697-9.065l-9.608-14.444l-12.052,9.405l5.298,7.413l6.942-4.009l-2.08-3.14l-3.199,2.561l-1.875-2.343l5.762-4.61l5.656,8.536
		l-12.063,6.965l-8.554-11.967l16.87-13.165L274.375,79.842z M242.89,41.504l-11.896,14.178l11.244,10.71l11.585-10.122
		l-8.101-7.835l-5.804,6.254l2.783,2.548l3.258-3.201l2.102,2.14l-5.287,5.195l-7.109-6.509l9.942-10.712l12.647,12.232
		l-16.104,14.069l-15.266-14.541l11.652-13.887l-13.97-10.286l-8.107,12.96l7.513,5.153l5.153-6.141l-3.029-2.239l-2.13,3.499
		l-2.563-1.56l3.835-6.302l8.236,6.085l-8.954,10.671l-12.13-8.319l11.35-18.143L242.89,41.504z M177.371,9.547l22.817,6.7
		l-6.328,17.392l14.228,6.219l7.424-13.475l-10.291-4.591l-3.314,7.861l3.485,1.443l1.969-4.123l2.707,1.293l-3.193,6.69
		l-8.905-3.686l5.678-13.466l16.066,7.168l-10.318,18.73l-19.317-8.444l6.199-17.035l-16.646-4.887l-3.188,14.952l8.823,2.272
		l2.743-7.533l-3.613-1.068l-0.806,4.017l-2.941-0.59l1.45-7.233l9.82,2.902l-4.765,13.09l-14.245-3.669L177.371,9.547z
		 M151.424,7.117v18.508l15.498,0.979l2.369-15.203l-11.243-0.793l-0.425,8.521l3.771,0.163l0.438-4.546l2.986,0.288l-0.712,7.378
		l-9.63-0.416l0.728-14.596l17.554,1.239l-3.293,21.132l-21.041-1.329V10.313l-17.313,1.101l2.119,15.14l9.069-0.883v-8.017
		l-3.76,0.232l0.618,4.049l-2.966,0.452l-1.113-7.293l10.221-0.632v13.931l-14.641,1.425l-2.966-21.194L151.424,7.117z
		 M102.479,15.217l6.33,17.392l14.896-4.381l-2.972-15.095l-10.835,3.099l2.516,8.153l3.596-1.137l-1.143-4.421l2.904-0.751
		l1.855,7.175l-9.189,2.904l-4.309-13.965l16.917-4.839l4.132,20.983l-20.225,5.949l-6.2-17.034L84.86,26.203l7.169,13.502
		l8.22-3.931l-2.741-7.534l-3.453,1.504l1.965,3.594l-2.632,1.439l-3.54-6.474l9.389-4.088l4.763,13.09l-13.271,6.346L80.693,24.751
		L102.479,15.217z M59.254,39.569l11.897,14.177l12.5-9.211l-7.957-13.169l-9.123,6.619l5.151,6.801l2.993-2.299l-2.585-3.765
		l2.473-1.698l4.195,6.109l-7.644,5.871l-8.824-11.649l14.243-10.333l11.06,18.305l-16.97,12.506L59.011,43.946L46.456,55.917
		l11.355,10.236l6.379-6.505l-5.152-6.141l-2.731,2.594l3.075,2.704l-1.98,2.253l-5.541-4.871l7.425-7.053l8.953,10.671
		L57.938,70.307L42.043,55.979L59.254,39.569z M26.965,77.234l16.03,9.254l8.595-12.932l-11.98-9.654l-6.31,9.34l7.167,4.628
		l2.025-3.183l-3.716-2.654l1.743-2.441l6.031,4.306l-5.172,8.131L29.1,74.101l9.851-14.582l16.653,13.419L43.934,90.495
		l-15.701-9.064l-7.703,15.544l14.17,5.735l3.771-8.294l-6.943-4.009l-1.679,3.373l3.815,1.49l-1.091,2.795l-6.873-2.684
		l4.565-9.167l12.063,6.966l-6.089,13.391l-19.835-8.028L26.965,77.234z M9.507,123.673l18.227,3.213l3.654-15.091l-14.56-4.973
		l-2.734,10.934l8.319,1.898l0.815-3.685l-4.401-1.222l0.803-2.891l7.142,1.983l-2.081,9.411l-14.25-3.252l4.27-17.07l20.238,6.913
		l-4.961,20.489l-17.853-3.146l-1.922,17.241l15.278,0.542l0.706-9.084l-7.894-1.392l-0.425,3.743l4.095,0.096l-0.07,2.999
		l-7.376-0.172l1.155-10.174l13.717,2.419l-1.139,14.667l-21.386-0.76L9.507,123.673z M8.983,173.283l18.228-3.216l-1.728-15.43
		l-15.383,0.306l1.169,11.208l8.466-1.062l-0.495-3.739l-4.554,0.356l-0.234-2.99l7.389-0.579l1.264,9.554l-14.502,1.817
		l-1.826-17.501l21.382-0.425l2.346,20.949l-17.854,3.149l4.089,16.858l14.543-4.716l-2.442-8.776l-7.896,1.391l0.881,3.662
		l3.88-1.311l0.96,2.842l-6.99,2.361l-2.395-9.955l13.719-2.418l3.943,14.171l-20.356,6.601L8.983,173.283z M25.458,220.077
		l16.03-9.252l-6.901-13.91l-14.35,5.546l4.934,10.135l7.592-3.893l-1.744-3.345l-4.156,1.893l-1.243-2.73l6.745-3.072l4.455,8.546
		l-13.005,6.668L16.11,200.84l19.947-7.71l9.37,18.885l-15.701,9.063l9.611,14.443l12.052-9.404l-5.298-7.413l-6.942,4.008
		l2.081,3.141l3.197-2.56l1.875,2.342l-5.76,4.61l-5.657-8.535l12.063-6.965l8.554,11.968l-16.871,13.164L25.458,220.077z
		 M56.947,258.416l11.897-14.178l-11.242-10.71l-11.587,10.121l8.102,7.836l5.803-6.255l-2.783-2.547l-3.257,3.2l-2.103-2.141
		l5.287-5.194l7.109,6.508l-9.939,10.714l-12.649-12.234l16.107-14.068l15.262,14.542l-11.653,13.887l13.971,10.287l8.108-12.961
		l-7.514-5.153l-5.153,6.142l3.029,2.237l2.13-3.498l2.563,1.561l-3.836,6.301l-8.235-6.085l8.955-10.671l12.13,8.319
		l-11.349,18.143L56.947,258.416z M122.466,290.374l-22.816-6.699l6.329-17.393l-14.228-6.219l-7.427,13.474l10.293,4.591
		l3.313-7.86l-3.486-1.443l-1.967,4.121l-2.707-1.293l3.193-6.688l8.905,3.686l-5.675,13.466l-16.072-7.169l10.323-18.729
		l19.316,8.443l-6.199,17.035l16.645,4.887l3.187-14.95l-8.824-2.274l-2.741,7.534l3.612,1.067l0.805-4.017l2.941,0.59l-1.449,7.233
		l-9.819-2.901l4.764-13.091l14.245,3.671L122.466,290.374z M148.413,292.803v-18.507l-15.496-0.979l-2.37,15.202l11.242,0.795
		l0.426-8.521l-3.77-0.163l-0.438,4.546l-2.986-0.287l0.712-7.38l9.629,0.417l-0.729,14.598l-17.552-1.242l3.294-21.13l21.039,1.328
		v18.126l17.313-1.099l-2.118-15.141l-9.068,0.883v8.016l3.76-0.232l-0.617-4.048l2.965-0.453l1.113,7.294l-10.221,0.631v-13.93
		l14.641-1.424l2.966,21.193L148.413,292.803z M197.36,284.704l-6.333-17.392l-14.894,4.381l2.971,15.095l10.835-3.099l-2.515-8.151
		l-3.597,1.136l1.143,4.422l-2.904,0.75l-1.855-7.176l9.19-2.901l4.308,13.964l-16.917,4.837l-4.131-20.981l20.222-5.947
		l6.202,17.034l15.893-6.957l-7.169-13.502l-8.221,3.931l2.742,7.534l3.453-1.505l-1.966-3.594l2.633-1.439l3.54,6.473l-9.389,4.091
		l-4.764-13.091l13.271-6.347l10.036,18.9L197.36,284.704z M240.582,260.352l-11.897-14.178l-12.498,9.213l7.956,13.168l9.122-6.617
		l-5.151-6.802l-2.992,2.298l2.586,3.764l-2.473,1.699l-4.197-6.109l7.645-5.87l8.823,11.651l-14.243,10.33l-11.058-18.303
		l16.969-12.508l11.653,13.887l12.555-11.972l-11.354-10.234l-6.379,6.505l5.152,6.141l2.731-2.595l-3.076-2.706l1.98-2.252
		l5.541,4.872l-7.423,7.054l-8.955-10.67l10.299-10.503l15.896,14.326L240.582,260.352z M272.869,222.685l-16.026-9.252
		l-8.595,12.931l11.98,9.653l6.308-9.338l-7.167-4.629l-2.025,3.183l3.717,2.653l-1.742,2.441l-6.033-4.306l5.176-8.13l12.276,7.93
		l-9.851,14.578l-16.652-13.417l11.669-17.556l15.698,9.063l7.704-15.544l-14.169-5.735l-3.771,8.296l6.942,4.007l1.68-3.371
		l-3.817-1.49l1.092-2.795l6.874,2.684l-4.564,9.166l-12.063-6.964l6.088-13.392l19.835,8.028L272.869,222.685z M290.329,176.248
		l-18.227-3.214l-3.652,15.091l14.559,4.973l2.735-10.931l-8.32-1.899l-0.814,3.684l4.401,1.221l-0.801,2.891l-7.144-1.98
		l2.08-9.412l14.252,3.255l-4.271,17.067l-20.238-6.912l4.959-20.489l17.854,3.147l1.924-17.242l-15.278-0.543l-0.706,9.084
		l7.895,1.394l0.426-3.744l-4.098-0.095l0.07-3l7.379,0.173l-1.156,10.174l-13.717-2.419l1.14-14.666l21.386,0.76L290.329,176.248z"
		/>
	<path fill="#E7E3E1" d="M149.918,0.896C67.724,0.896,0.854,67.766,0.854,149.96c0,82.194,66.87,149.064,149.065,149.064
		s149.065-66.87,149.065-149.064C298.983,67.766,232.113,0.896,149.918,0.896z M149.918,297.024
		c-81.092,0-147.065-65.973-147.065-147.064c0-81.092,65.973-147.064,147.065-147.064c81.092,0,147.065,65.973,147.065,147.064
		C296.983,231.052,231.011,297.024,149.918,297.024z"/>
	<path fill="#E7E3E1" d="M149.918,32.271C85.025,32.271,32.23,85.066,32.23,149.96s52.794,117.688,117.688,117.688
		c64.893,0,117.688-52.794,117.688-117.688S214.812,32.271,149.918,32.271z M149.918,265.647
		c-63.791,0-115.688-51.897-115.688-115.688c0-63.791,51.897-115.688,115.688-115.688S265.606,86.169,265.606,149.96
		C265.606,213.75,213.709,265.647,149.918,265.647z"/>
	<polygon fill="#E7E3E1" points="145.298,28.395 145.298,14.464 135.078,15.096 136.19,22.389 139.156,21.937 138.539,17.888 
		142.298,17.655 142.298,25.672 133.229,26.555 131.111,11.415 148.424,10.313 148.424,28.441 169.465,29.771 172.758,8.638 
		155.204,7.399 154.477,21.995 164.106,22.411 164.818,15.033 161.832,14.745 161.394,19.291 157.623,19.128 158.048,10.607 
		169.291,11.401 166.922,26.604 151.424,25.625 151.424,7.117 127.691,8.625 130.657,29.819 	"/>
	<polygon fill="#E7E3E1" points="103.999,37.306 99.236,24.216 89.847,28.304 93.387,34.778 96.019,33.338 94.054,29.745 
		97.507,28.24 100.249,35.774 92.029,39.705 84.86,26.203 100.753,19.247 106.953,36.281 127.178,30.333 123.045,9.35 
		106.128,14.188 110.437,28.154 119.625,25.25 117.771,18.074 114.866,18.825 116.009,23.247 112.413,24.383 109.897,16.23 
		120.733,13.132 123.705,28.227 108.809,32.608 102.479,15.217 80.693,24.751 90.728,43.652 	"/>
	<polygon fill="#E7E3E1" points="68.237,59.805 59.284,49.134 51.859,56.188 57.4,61.059 59.381,58.806 56.306,56.102 
		59.037,53.507 64.189,59.648 57.811,66.153 46.456,55.917 59.011,43.946 70.664,57.832 87.634,45.326 76.574,27.021 62.332,37.354 
		71.156,49.003 78.799,43.132 74.604,37.023 72.131,38.721 74.716,42.486 71.723,44.785 66.572,37.984 75.694,31.365 83.651,44.535 
		71.151,53.746 59.254,39.569 42.043,55.979 57.938,70.307 	"/>
	<polygon fill="#E7E3E1" points="42.33,93.179 30.267,86.213 25.702,95.379 32.575,98.063 33.666,95.269 29.85,93.779 
		31.529,90.406 38.473,94.416 34.701,102.71 20.531,96.975 28.233,81.431 43.934,90.495 55.604,72.938 38.95,59.519 29.1,74.101 
		41.377,82.03 46.55,73.899 40.519,69.593 38.776,72.034 42.492,74.688 40.467,77.871 33.3,73.243 39.609,63.903 51.59,73.557 
		42.995,86.489 26.965,77.234 16.406,98.542 36.241,106.57 	"/>
	<polygon fill="#E7E3E1" points="29.397,133.4 15.68,130.981 14.524,141.156 21.9,141.328 21.971,138.329 17.876,138.233 
		18.301,134.49 26.195,135.882 25.489,144.966 10.211,144.424 12.134,127.183 29.987,130.33 34.948,109.841 14.71,102.928 
		10.44,119.999 24.69,123.25 26.771,113.839 19.629,111.856 18.826,114.747 23.228,115.969 22.413,119.654 14.094,117.755 
		16.828,106.822 31.388,111.795 27.734,126.886 9.507,123.673 6.872,147.307 28.258,148.067 	"/>
	<polygon fill="#E7E3E1" points="31.002,175.62 17.284,178.038 19.678,187.993 26.668,185.632 25.708,182.79 21.828,184.101 
		20.947,180.438 28.842,179.048 31.285,187.824 16.742,192.54 12.652,175.682 30.506,172.532 28.16,151.583 6.778,152.008 
		8.604,169.509 23.106,167.691 21.842,158.138 14.454,158.717 14.688,161.707 19.242,161.351 19.736,165.09 11.27,166.151 
		10.101,154.943 25.483,154.638 27.211,170.067 8.983,173.283 14.589,196.392 34.946,189.791 	"/>
	<polygon fill="#E7E3E1" points="46.949,214.744 34.886,221.709 40.542,230.244 46.302,225.634 44.427,223.292 41.23,225.852 
		39.149,222.711 46.092,218.703 51.39,226.116 39.337,235.521 29.727,221.077 45.427,212.015 36.057,193.13 16.11,200.84 
		23.813,216.662 36.818,209.994 32.364,201.448 25.619,204.521 26.862,207.251 31.018,205.358 32.762,208.703 25.17,212.596 
		20.236,202.461 34.586,196.915 41.488,210.825 25.458,220.077 38.632,239.876 55.503,226.712 	"/>
	<polygon fill="#E7E3E1" points="75.317,246.056 66.362,256.727 74.598,262.812 78.434,256.511 75.872,254.95 73.741,258.448 
		70.712,256.211 75.865,250.069 83.378,255.223 75.271,268.184 61.299,257.896 72.952,244.01 57.69,229.468 41.583,243.536 
		54.232,255.771 64.172,245.057 57.063,238.549 51.776,243.743 53.879,245.884 57.136,242.684 59.919,245.23 54.116,251.485 
		46.015,243.649 57.602,233.528 68.844,244.238 56.947,258.416 76.098,272.518 87.447,254.375 	"/>
	<polygon fill="#E7E3E1" points="107.918,278.865 117.737,281.767 119.187,274.533 116.245,273.943 115.44,277.96 111.828,276.893 
		114.569,269.358 123.393,271.633 120.206,286.583 103.562,281.696 109.761,264.661 90.444,256.218 80.121,274.947 96.193,282.116 
		101.868,268.65 92.963,264.965 89.77,271.652 92.477,272.945 94.444,268.824 97.931,270.268 94.618,278.128 84.324,273.537 
		91.751,260.063 105.979,266.282 99.649,283.675 122.466,290.374 126.926,269.445 112.682,265.774 	"/>
	<polygon fill="#E7E3E1" points="154.539,271.526 154.539,285.456 164.76,284.825 163.646,277.531 160.682,277.984 161.299,282.032 
		157.539,282.265 157.539,274.249 166.607,273.366 168.726,288.507 151.412,289.605 151.412,271.479 130.374,270.151 
		127.08,291.281 144.632,292.523 145.36,277.926 135.731,277.509 135.019,284.889 138.005,285.176 138.444,280.63 142.214,280.793 
		141.788,289.314 130.546,288.52 132.917,273.317 148.413,274.296 148.413,292.803 172.146,291.296 169.18,270.103 	"/>
	<polygon fill="#E7E3E1" points="195.838,262.615 200.602,275.706 209.99,271.615 206.45,265.143 203.817,266.582 205.783,270.176 
		202.33,271.681 199.588,264.146 207.809,260.216 214.978,273.718 199.085,280.675 192.883,263.641 172.661,269.588 
		176.792,290.569 193.709,285.732 189.401,271.769 180.211,274.67 182.066,281.846 184.971,281.096 183.828,276.674 
		187.425,275.538 189.939,283.689 179.104,286.788 176.134,271.693 191.027,267.313 197.36,284.704 219.146,275.169 
		209.109,256.269 	"/>
	<polygon fill="#E7E3E1" points="231.599,240.117 240.554,250.787 247.977,243.733 242.436,238.861 240.455,241.113 
		243.531,243.819 240.8,246.414 235.647,240.273 242.026,233.769 253.381,244.003 240.826,255.975 229.173,242.088 212.204,254.596 
		223.262,272.898 237.505,262.568 228.682,250.917 221.037,256.787 225.234,262.896 227.707,261.197 225.121,257.434 
		228.113,255.136 233.265,261.938 224.143,268.555 216.187,255.387 228.685,246.174 240.582,260.352 257.793,243.94 
		241.897,229.614 	"/>
	<polygon fill="#E7E3E1" points="257.508,206.742 269.571,213.706 274.136,204.54 267.262,201.856 266.17,204.651 269.987,206.142 
		268.308,209.513 261.365,205.506 265.137,197.21 279.306,202.945 271.602,218.489 255.903,209.427 244.234,226.982 
		260.887,240.399 270.737,225.821 258.461,217.892 253.285,226.021 259.318,230.327 261.061,227.886 257.344,225.232 
		259.369,222.05 266.536,226.679 260.229,236.017 248.248,226.363 256.843,213.433 272.869,222.685 283.431,201.379 
		263.596,193.351 	"/>
	<polygon fill="#E7E3E1" points="270.44,166.52 284.157,168.938 285.313,158.765 277.935,158.592 277.864,161.592 281.962,161.687 
		281.536,165.431 273.642,164.037 274.348,154.953 289.626,155.496 287.702,172.738 269.849,169.591 264.89,190.08 285.128,196.992 
		289.398,179.925 275.146,176.67 273.066,186.082 280.21,188.063 281.011,185.172 276.609,183.951 277.424,180.268 285.744,182.167 
		283.009,193.098 268.45,188.125 272.103,173.034 290.329,176.248 292.966,152.613 271.58,151.854 	"/>
	<polygon fill="#E7E3E1" points="268.835,124.301 282.553,121.881 280.158,111.927 273.167,114.289 274.128,117.131 278.01,115.819 
		278.891,119.481 270.995,120.874 268.553,112.096 283.095,107.38 287.184,124.24 269.332,127.388 271.678,148.338 293.058,147.913 
		291.232,130.412 276.729,132.229 277.994,141.784 285.384,141.204 285.149,138.212 280.596,138.57 280.101,134.831 288.566,133.77 
		289.735,144.978 274.354,145.285 272.627,129.853 290.854,126.639 285.247,103.529 264.891,110.129 	"/>
	<polygon fill="#E7E3E1" points="252.888,85.176 264.951,78.211 259.295,69.676 253.533,74.286 255.408,76.629 258.607,74.068 
		260.688,77.208 253.745,81.217 248.447,73.805 260.499,64.399 270.107,78.843 254.41,87.908 263.781,106.792 283.725,99.079 
		276.024,83.258 263.018,89.925 267.473,98.472 274.219,95.399 272.975,92.669 268.818,94.563 267.074,91.217 274.667,87.325 
		279.6,97.458 265.252,103.007 258.35,89.098 274.375,79.842 261.204,60.044 244.334,73.209 	"/>
	<polygon fill="#E7E3E1" points="224.521,53.865 233.475,43.194 225.238,37.109 221.403,43.411 223.966,44.97 226.096,41.472 
		229.125,43.71 223.972,49.852 216.459,44.699 224.566,31.739 238.536,42.025 226.884,55.912 242.149,70.452 258.254,56.383 
		245.606,44.151 235.664,54.863 242.773,61.372 248.061,56.177 245.959,54.037 242.701,57.238 239.918,54.69 245.722,48.436 
		253.822,56.271 242.237,66.393 230.993,55.682 242.89,41.504 223.74,27.404 212.391,45.546 	"/>
	<polygon fill="#E7E3E1" points="191.92,21.056 182.1,18.154 180.649,25.387 183.591,25.977 184.396,21.96 188.01,23.028 
		185.267,30.562 176.443,28.289 179.631,13.337 196.276,18.225 190.077,35.26 209.395,43.704 219.713,24.973 203.646,17.805 
		197.969,31.271 206.874,34.957 210.067,28.267 207.36,26.974 205.392,31.096 201.906,29.653 205.221,21.792 215.512,26.383 
		208.088,39.858 193.86,33.639 200.188,16.247 177.371,9.547 172.91,30.477 187.155,34.146 	"/>
</g>
</svg>
