<?xml version="1.0" encoding="utf-8"?>
<!-- Generator: Adobe Illustrator 15.1.0, SVG Export Plug-In . SVG Version: 6.00 Build 0)  -->
<svg version="1.2" baseProfile="tiny" id="Шар_1"
	 xmlns="http://www.w3.org/2000/svg" xmlns:xlink="http://www.w3.org/1999/xlink" x="0px" y="0px" width="24px" height="24px"
	 viewBox="0 0 24 24" xml:space="preserve">
<path fill="#ffffff" d="M13.666,1.666c-3.386,0-6.383,1.635-8.268,4.154V5.799L0.231,12l5.167,6.199v-0.018
	c1.885,2.514,4.883,4.15,8.268,4.15C19.373,22.333,24,17.705,24,12C24,6.293,19.373,1.666,13.666,1.666z M18.107,15.752
	l-0.735,0.736c-0.204,0.207-0.534,0.207-0.738,0l-2.901-2.9L10.99,16.33c-0.202,0.201-0.53,0.201-0.73,0L9.527,15.6
	c-0.2-0.201-0.2-0.529,0-0.729l2.743-2.742L9.627,9.484c-0.205-0.203-0.205-0.533,0-0.736l0.739-0.736
	c0.201-0.205,0.532-0.205,0.735,0l2.644,2.643l2.726-2.727c0.2-0.201,0.528-0.201,0.729,0l0.729,0.73
	c0.204,0.201,0.204,0.529,0,0.73l-2.723,2.727l2.898,2.902C18.313,15.219,18.313,15.549,18.107,15.752z"/>
</svg>
