<?xml version="1.0" encoding="utf-8"?>
<!-- Generator: Adobe Illustrator 15.1.0, SVG Export Plug-In . SVG Version: 6.00 Build 0)  -->
<svg version="1.2" baseProfile="tiny" id="Шар_1"
	 xmlns="http://www.w3.org/2000/svg" xmlns:xlink="http://www.w3.org/1999/xlink" x="0px" y="0px" width="24px" height="24px"
	 viewBox="0 0 24 24" xml:space="preserve">
<g>
	<path fill="none" d="M19.792,11.125c0.028-0.22,0.046-0.442,0.046-0.67c0-3.027-2.633-5.606-5.807-5.606
		c-2.648,0-4.906,1.869-5.573,4.193C7.994,8.444,7.215,8,6.375,8c-1.411,0-2.812,1.365-2.812,2.71c0,0.137,0.022,0.268,0.046,0.398
		c-1.638,0.461-2.505,1.809-2.505,3.218c0,1.987,1.619,3.46,3.665,3.591c0.041,0.002,0.08,0.014,0.121,0.016l0.119,0.005
		c0.016,0,0.031,0.003,0.046,0.003c0.007,0,0.011-0.001,0.018-0.001l0.035,0.001h14.11c2.072,0,3.751-1.449,3.751-3.425
		C22.968,12.708,21.617,11.366,19.792,11.125z"/>
	<path fill="#fff" d="M20.671,10.459c0.001-0.055,0.011-0.109,0.011-0.164c0-3.469-2.951-6.283-6.588-6.283
		c-2.66,0-4.947,1.509-5.986,3.674C7.583,7.35,6.953,7.153,6.273,7.153c-1.807,0-3.272,1.389-3.291,3.108
		c-1.695,0.687-2.884,2.289-2.884,4.157c0,2.428,2.01,4.402,4.528,4.507v0.009h14.819c2.501,0,4.528-1.935,4.528-4.319
		C23.974,12.635,22.576,10.971,20.671,10.459z M19.217,17.94H5.107l-0.035-0.001c-0.006,0-0.011,0.001-0.018,0.001
		c-0.015,0-0.03-0.003-0.046-0.003L4.89,17.933c-0.042-0.002-0.08-0.014-0.121-0.016c-2.045-0.131-3.665-1.604-3.665-3.591
		c0-1.409,0.868-2.757,2.505-3.218c-0.024-0.13-0.046-0.261-0.046-0.398C3.563,9.365,4.964,8,6.375,8
		c0.84,0,1.619,0.444,2.083,1.042c0.667-2.324,2.925-4.193,5.573-4.193c3.174,0,5.807,2.58,5.807,5.606
		c0,0.228-0.018,0.45-0.046,0.67c1.825,0.241,3.176,1.583,3.176,3.391C22.968,16.491,21.289,17.94,19.217,17.94z"/>
</g>
</svg>
