<?xml version="1.0" encoding="utf-8"?>
<!-- Generator: Adobe Illustrator 15.1.0, SVG Export Plug-In . SVG Version: 6.00 Build 0)  -->
<svg version="1.2" baseProfile="tiny" id="Шар_1"
	 xmlns="http://www.w3.org/2000/svg" xmlns:xlink="http://www.w3.org/1999/xlink" x="0px" y="0px" width="24px" height="24px"
	 viewBox="0 0 24 24" xml:space="preserve">
<g>
	<path fill="none" d="M2.473,10.461c-0.718,0-1.24,0.523-1.24,1.244c0,0.73,0.533,1.281,1.24,1.281c0.799,0,1.163-0.664,1.163-1.281
		C3.635,10.962,3.168,10.461,2.473,10.461z"/>
	<path fill="none" d="M2.473,3.14c-0.718,0-1.24,0.523-1.24,1.245c0,0.731,0.533,1.282,1.24,1.282c0.799,0,1.163-0.664,1.163-1.282
		C3.635,3.641,3.168,3.14,2.473,3.14z"/>
	<path fill="none" d="M2.473,17.757c-0.718,0-1.24,0.509-1.24,1.211c0,0.712,0.533,1.248,1.24,1.248
		c0.799,0,1.163-0.646,1.163-1.248C3.635,18.244,3.168,17.757,2.473,17.757z"/>
	<rect x="7.6" y="18.225" fill="#FFFFFF" width="16.166" height="1.83"/>
	<rect x="7.6" y="10.904" fill="#FFFFFF" width="16.166" height="1.831"/>
	<rect x="7.6" y="3.584" fill="#FFFFFF" width="16.166" height="1.83"/>
	<path fill="#FFFFFF" d="M2.473,16.891c-1.229,0-2.154,0.894-2.154,2.078c0,1.188,0.946,2.114,2.154,2.114
		c1.184,0,2.077-0.908,2.077-2.114C4.55,17.764,3.676,16.891,2.473,16.891z M2.473,20.216c-0.707,0-1.24-0.536-1.24-1.248
		c0-0.702,0.522-1.211,1.24-1.211c0.696,0,1.163,0.487,1.163,1.211C3.635,19.568,3.271,20.216,2.473,20.216z"/>
	<path fill="#FFFFFF" d="M2.473,9.57c-1.229,0-2.154,0.918-2.154,2.135c0,1.219,0.946,2.172,2.154,2.172
		c1.184,0,2.077-0.934,2.077-2.172C4.55,10.468,3.676,9.57,2.473,9.57z M2.473,12.986c-0.707,0-1.24-0.551-1.24-1.281
		c0-0.721,0.522-1.244,1.24-1.244c0.696,0,1.163,0.5,1.163,1.244C3.635,12.322,3.271,12.986,2.473,12.986z"/>
	<path fill="#FFFFFF" d="M2.473,2.25c-1.229,0-2.154,0.918-2.154,2.135c0,1.219,0.946,2.172,2.154,2.172
		c1.184,0,2.077-0.934,2.077-2.172C4.55,3.147,3.676,2.25,2.473,2.25z M2.473,5.667c-0.707,0-1.24-0.551-1.24-1.282
		c0-0.721,0.522-1.245,1.24-1.245c0.696,0,1.163,0.5,1.163,1.245C3.635,5.002,3.271,5.667,2.473,5.667z"/>
</g>
</svg>
