<?xml version="1.0" encoding="UTF-8" standalone="no"?>
<!-- Created with Inkscape (http://www.inkscape.org/) -->

<svg
   xmlns:dc="http://purl.org/dc/elements/1.1/"
   xmlns:cc="http://creativecommons.org/ns#"
   xmlns:rdf="http://www.w3.org/1999/02/22-rdf-syntax-ns#"
   xmlns:svg="http://www.w3.org/2000/svg"
   xmlns="http://www.w3.org/2000/svg"
   version="1.1"
   width="18.666666"
   height="24"
   id="svg13851">
  <defs
     id="defs13853">
    <linearGradient
       id="linearGradient16100">
      <stop
         id="stop16102"
         style="stop-color:#51629b;stop-opacity:1"
         offset="0" />
    </linearGradient>
    <clipPath
       id="clipPath8767">
      <path
         d="m 174,3334 42.001,0 0,54 -42.001,0 0,-54 z"
         id="path8769" />
    </clipPath>
  </defs>
  <metadata
     id="metadata13856">
    <rdf:RDF>
      <cc:Work
         rdf:about="">
        <dc:format>image/svg+xml</dc:format>
        <dc:type
           rdf:resource="http://purl.org/dc/dcmitype/StillImage" />
        <dc:title></dc:title>
      </cc:Work>
    </rdf:RDF>
  </metadata>
  <g
     transform="translate(-221.02656,-294.78853)"
     id="layer1">
    <g
       transform="matrix(1.25,0,0,-1.25,-0.89285286,4493.6122)"
       id="g8763"
       style="fill:#51639b;fill-opacity:1">
      <g
         transform="matrix(0.35555556,0,0,0.35555556,115.66886,2154.4367)"
         clip-path="url(#clipPath8767)"
         id="g8765"
         style="fill:#51639b;fill-opacity:1">
        <g
           transform="translate(204,3338)"
           id="g8771"
           style="fill:#51639b;fill-opacity:1">
          <path
             d="m 0,0 c 0,-1.104 -0.922,-2 -2,-2 l -24,0 c -1.078,0 -2,0.896 -2,2 l 0,36 c 0,1.104 0.922,2 2,2 l 16,0 0,-6 c 0,-2.209 1.836,-4 4,-4 L 0,28 0,0 z M -8,37.172 -0.828,30 -6,30 c -1.078,0 -2,0.896 -2,2 l 0,5 0,0.172 z M -8,40 -26,40 c -2.164,0 -4,-1.791 -4,-4 l 0,-36 c 0,-2.209 1.836,-4 4,-4 l 24,0 c 2.164,0 4,1.791 4,4 L 2,30 -8,40 z"
             id="path8773"
             style="fill:#51639b;fill-opacity:1;fill-rule:nonzero;stroke:none" />
        </g>
        <g
           transform="translate(208,3378)"
           id="g8775"
           style="fill:#51639b;fill-opacity:1">
          <path
             d="M 0,0 C -1.078,0 -2,0.896 -2,2 L -2,7 -2,7.172 5.172,0 0,0 z m -2,10 -18,0 c -2.164,0 -4,-1.791 -4,-4 l 0,-4 2,0 0,4 c 0,1.104 0.922,2 2,2 l 16,0 0,-6 c 0,-2.209 1.836,-4 4,-4 l 6,0 0,-28 c 0,-1.104 -0.922,-2 -2,-2 l -4,0 0,-2 4,0 c 2.164,0 4,1.791 4,4 L 8,0 -2,10 z"
             id="path8777"
             style="fill:#51639b;fill-opacity:1;fill-rule:nonzero;stroke:none" />
        </g>
      </g>
    </g>
  </g>
</svg>
