<?xml version="1.0" encoding="utf-8"?>
<!-- Generator: Adobe Illustrator 15.1.0, SVG Export Plug-In . SVG Version: 6.00 Build 0)  -->
<svg version="1.2" baseProfile="tiny" id="Шар_1"
	 xmlns="http://www.w3.org/2000/svg" xmlns:xlink="http://www.w3.org/1999/xlink" x="0px" y="0px" width="24px" height="24px"
	 viewBox="0 0 24 24" xml:space="preserve">
<g id="Шар_1_1_" display="none">
	<g display="inline">
		<path fill="none" d="M-37.288,7.488V6.534V2.718h-8.234c-0.122,0-0.219,0.098-0.219,0.218v8.516v0.012h13.115V7.488H-37.288z"/>
		<polygon fill="none" points="-44.998,19.589 -44.998,20.377 -44.998,21.177 -33.442,21.177 -33.442,20.377 -33.442,19.589 
			-33.442,18.753 -44.998,18.753 		"/>
		<polygon fill="none" points="-48.049,18.634 -46.741,18.634 -46.741,17.229 -46.741,16.273 -44.998,16.273 -33.442,16.273 
			-31.699,16.273 -31.699,17.229 -31.699,18.634 -30.392,18.634 -30.392,14.163 -48.049,14.163 		"/>
		<polygon fill="#FFFFFF" points="-44.998,18.634 -44.998,18.753 -33.442,18.753 -33.442,18.634 -33.442,17.798 -44.998,17.798 		
			"/>
		<path fill="#FFFFFF" d="M-30.392,20.377H-31.7v0.8c0,0.964-0.78,1.743-1.743,1.743h-11.556c-0.962,0-1.743-0.779-1.743-1.743v-0.8
			h-1.308c-0.962,0-1.743-0.781-1.743-1.743v0.955c0,0.962,0.781,1.743,1.743,1.743h1.308v0.8c0,0.964,0.781,1.743,1.743,1.743
			h11.556c0.963,0,1.743-0.779,1.743-1.743v-0.8h1.308c0.963,0,1.743-0.781,1.743-1.743v-0.955
			C-28.648,19.596-29.429,20.377-30.392,20.377z"/>
		<rect x="-48.049" y="13.208" fill="#FFFFFF" width="17.657" height="0.955"/>
		<polygon fill="#FFFFFF" points="-30.879,7.488 -30.881,7.487 -30.881,7.488 		"/>
		<path fill="#FFFFFF" d="M-45.522,2.718h8.234V1.763h-8.234c-0.122,0-0.219,0.098-0.219,0.218v0.955
			C-45.742,2.816-45.644,2.718-45.522,2.718z"/>
		<rect x="-47.488" y="11.453" fill="#FFFFFF" width="1.746" height="0.012"/>
		<rect x="-37.288" y="6.534" fill="#FFFFFF" width="4.661" height="0.955"/>
		<path fill="#266E9E" d="M-30.392,11.465h-0.489v0.001h-1.746v-0.001h-13.115h-1.746h-0.561c-0.962,0-1.743,0.78-1.743,1.743v0.955
			v4.471c0,0.962,0.781,1.743,1.743,1.743h1.308v0.8c0,0.964,0.781,1.743,1.743,1.743h11.556c0.963,0,1.743-0.779,1.743-1.743v-0.8
			h1.308c0.963,0,1.743-0.781,1.743-1.743v-4.471v-0.955C-28.648,12.245-29.429,11.465-30.392,11.465z M-33.442,18.634v0.119v0.836
			v0.788v0.8h-11.556v-0.8v-0.788v-0.836v-0.119v-0.836h11.556V18.634z M-30.392,14.163v4.471H-31.7v-1.405v-0.955h-1.743h-11.556
			h-1.743v0.955v1.405h-1.308v-4.471v-0.955h17.657L-30.392,14.163L-30.392,14.163z"/>
		<path fill="#6DB9E4" d="M-45.742,2.937V1.981c0-0.12,0.098-0.218,0.219-0.218h8.234v0.955v3.815h4.661v0.955v3.977v0.001h1.746
			v-0.001V7.488l0,0v-0.77V6.533h0.002h-0.002v-0.77L-37.288,0v0.017h-8.234c-1.085,0-1.965,0.88-1.965,1.965v0.955v8.516h1.746
			L-45.742,2.937L-45.742,2.937z"/>
	</g>
</g>
<g>
	<polygon fill="none" points="4.116,14.216 10.454,14.216 7.341,5.811 	"/>
	<g>
		<path fill="#51639b" d="M6.553,4.249L0.057,20.646h1.646l2.018-5.297h7.173l2.041,5.297h1.646L8.266,4.249H6.553z M4.116,14.216
			l3.225-8.405l3.113,8.405H4.116z"/>
	</g>
	<polygon fill="#51639b" points="16.662,14.337 23.711,5.537 23.711,4.709 15.565,4.709 15.565,5.706 22.057,5.706 15.09,14.378 
		15.09,15.333 24,15.333 24,14.337 	"/>
</g>
</svg>
