<?xml version="1.0" encoding="utf-8"?>
<!-- Generator: Adobe Illustrator 15.1.0, SVG Export Plug-In . SVG Version: 6.00 Build 0)  -->
<svg version="1.2" baseProfile="tiny" id="Шар_4"
	 xmlns="http://www.w3.org/2000/svg" xmlns:xlink="http://www.w3.org/1999/xlink" x="0px" y="0px" width="24px" height="24px"
	 viewBox="0 0 24 24" xml:space="preserve">
<g>
	<path fill="none" d="M17.043,9.591c0-3.081-3.319-5.587-7.398-5.587S2.247,6.511,2.247,9.591c0,1.425,0.723,2.786,2.034,3.833
		l0.378,0.35l-0.703,2.391l1.805-1.809l0.582,0.225c1.044,0.396,2.155,0.598,3.302,0.598C13.724,15.178,17.043,12.672,17.043,9.591z
		"/>
	<path fill="#ffffff" d="M18.724,9.591c0-4.007-4.073-7.268-9.079-7.268c-5.005,0-9.076,3.26-9.076,7.268
		c0,1.859,0.862,3.61,2.438,4.958l-0.77,4.318l3.738-2.633c1.17,0.414,2.402,0.625,3.669,0.625
		C14.65,16.859,18.724,13.6,18.724,9.591z M5.761,14.355l-1.805,1.809l0.703-2.391l-0.378-0.35
		c-1.312-1.046-2.034-2.408-2.034-3.833c0-3.081,3.318-5.587,7.397-5.587s7.398,2.506,7.398,5.587s-3.319,5.586-7.398,5.586
		c-1.146,0-2.258-0.201-3.302-0.598L5.761,14.355z"/>
	<path fill="#ffffff" d="M23.432,12.467c0-2.282-0.562-5.146-4.795-6.811l-0.084-0.023c0.444,0.672,0.777,1.396,0.979,2.16
		c1.88,1.111,2.317,3.369,2.317,4.706c0,1.641-0.699,3.047-2.255,4.088l-0.136,0.115l0.5,1.844l-1.656-1.219l-0.08,0.018
		c-1.111,0.508-2.237,0.736-3.646,0.736c-1.106,0-2.177-0.195-3.161-0.553c-0.916,0.229-1.887,0.354-2.889,0.369
		c1.67,1.199,3.813,1.863,6.05,1.863c1.268,0,2.499-0.211,3.669-0.627l3.815,2.543l-0.847-4.225
		C22.79,16.102,23.432,14.326,23.432,12.467z"/>
</g>
</svg>
