<?xml version="1.0" encoding="UTF-8" standalone="no"?>
<!-- Created with Inkscape (http://www.inkscape.org/) -->

<svg
   xmlns:dc="http://purl.org/dc/elements/1.1/"
   xmlns:cc="http://creativecommons.org/ns#"
   xmlns:rdf="http://www.w3.org/1999/02/22-rdf-syntax-ns#"
   xmlns:svg="http://www.w3.org/2000/svg"
   xmlns="http://www.w3.org/2000/svg"
   version="1.1"
   width="64"
   height="64"
   id="svg13853">
  <defs
     id="defs13855">
    <clipPath
       id="clipPath13393">
      <path
         d="m 266,5930 50,0 0,46 -50,0 0,-46 z"
         id="path13395" />
    </clipPath>
  </defs>
  <metadata
     id="metadata13858">
    <rdf:RDF>
      <cc:Work
         rdf:about="">
        <dc:format>image/svg+xml</dc:format>
        <dc:type
           rdf:resource="http://purl.org/dc/dcmitype/StillImage" />
        <dc:title></dc:title>
      </cc:Work>
    </rdf:RDF>
  </metadata>
  <g
     id="layer1">
    <g
       transform="matrix(1.2774308,0,0,-1.2774308,-339.69088,7637.4457)"
       id="g13389"
       style="fill:#f63440;fill-opacity:1">
      <g
         clip-path="url(#clipPath13393)"
         id="g13391"
         style="fill:#f63440;fill-opacity:1">
        <g
           transform="translate(291,5944)"
           id="g13397"
           style="fill:#f63440;fill-opacity:1">
          <path
             d="m 0,0 c -1.656,0 -3,-1.344 -3,-3 0,-1.656 1.344,-3 3,-3 1.656,0 3,1.344 3,3 0,1.656 -1.344,3 -3,3"
             id="path13399"
             style="fill:#f63440;fill-opacity:1;fill-rule:nonzero;stroke:none" />
        </g>
        <g
           transform="translate(290.9297,5946.0083)"
           id="g13401"
           style="fill:#f63440;fill-opacity:1">
          <path
             d="m 0,0 c 0.553,-0.071 1.059,0.318 1.129,0.871 l 1.908,15.604 c 0.006,0.063 -0.002,0.13 0,0.193 0.094,0.874 -0.18,1.777 -0.848,2.446 -1.171,1.17 -3.07,1.172 -4.244,0 -0.621,-0.623 -0.902,-1.451 -0.865,-2.264 -0.006,-0.118 -0.018,-0.232 0,-0.377 L -0.871,0.871 C -0.813,0.429 -0.463,0.06 0,0"
             id="path13403"
             style="fill:#f63440;fill-opacity:1;fill-rule:nonzero;stroke:none" />
        </g>
        <g
           transform="translate(291,5976)"
           id="g13405"
           style="fill:#f63440;fill-opacity:1">
          <path
             d="M 0,0 C -2.852,0 -5.361,-0.724 -7.463,-4.124 L -23.186,-34 c -1.187,-1.714 -1.814,-3.243 -1.814,-5 0,-4.046 3.402,-7 7.582,-7 l 34.836,0 c 4.18,0 7.582,2.954 7.582,7 0,1.757 -0.627,3.286 -1.814,5 L 7.463,-4.124 C 5.361,-0.724 2.852,0 0,0 m 0,-2 c 2.329,0 4.102,-0.523 5.727,-3.119 l 15.689,-29.813 0.057,-0.107 0.069,-0.1 C 22.563,-36.614 23,-37.769 23,-39 c 0,-2.851 -2.399,-5 -5.582,-5 l -34.836,0 c -3.183,0 -5.582,2.149 -5.582,5 0,1.231 0.437,2.386 1.458,3.861 l 0.069,0.1 0.057,0.107 15.689,29.813 C -4.102,-2.523 -2.329,-2 0,-2"
             id="path13407"
             style="fill:#f63440;fill-opacity:1;fill-rule:nonzero;stroke:none" />
        </g>
      </g>
    </g>
  </g>
</svg>
