<?xml version="1.0" encoding="utf-8"?>
<!-- Generator: Adobe Illustrator 15.1.0, SVG Export Plug-In . SVG Version: 6.00 Build 0)  -->
<svg version="1.2" baseProfile="tiny"
	 xmlns="http://www.w3.org/2000/svg" xmlns:xlink="http://www.w3.org/1999/xlink" x="0px" y="0px" width="24px" height="24px"
	 viewBox="0 0 24 24" xml:space="preserve">
<g>
	<path fill="none" d="M7.498,11.199l4.455,4.709l4.306-4.537l-0.002,0c0.051-0.047,0.32-0.347,0.32-0.347
		c0.948-1.108,1.469-2.504,1.469-3.958c0-3.358-2.735-6.092-6.093-6.092c-3.359,0-6.092,2.734-6.092,6.092
		c0,1.454,0.519,2.85,1.466,3.958L7.498,11.199z M11.953,2.818c2.342,0,4.247,1.905,4.247,4.246c0,2.342-1.905,4.247-4.247,4.247
		c-2.341,0-4.247-1.905-4.246-4.247C7.707,4.723,9.611,2.818,11.953,2.818z"/>
	<path fill="none" d="M11.953,10.336c1.804,0,3.271-1.468,3.271-3.272c0-1.803-1.467-3.271-3.271-3.271
		c-1.805,0-3.272,1.468-3.272,3.271C8.681,8.869,10.149,10.336,11.953,10.336z"/>
	<path fill="#4b5c8f" d="M21.829,4.265l-2.202,0.008v1.882l1.717,0.013c0.489,0,0.618,0.363,0.62,0.615l-0.018,12.758
		c0,0.251-0.151,0.455-0.4,0.455c0,0-5.728,0-6.594,0c-1.599,0-2.141,1.159-2.141,1.159l-1.723-0.007c0,0-0.476-1.159-2.253-1.159
		c-0.866,0-6.435,0-6.435,0c-0.247,0-0.454-0.203-0.453-0.455L1.932,6.766c0-0.252,0.213-0.598,0.671-0.598l1.705-0.013V4.249
		L2.071,4.265c0,0-2.071,0-2.071,2.063V20.98c0,0.504,0.544,0.93,1.047,0.93c0,0,7.262,0,8.565,0c1.304,0,1.757,1.937,1.757,1.937
		h0.501h0.662c0,0,0.453-1.892,1.756-1.892c1.305,0,8.567,0,8.567,0c0.503,0,1.045-0.425,1.045-0.927V6.328
		C23.9,4.265,21.829,4.265,21.829,4.265z"/>
	<path fill="#4b5c8f" d="M11.953,11.311c2.342,0,4.247-1.905,4.247-4.247c0-2.341-1.905-4.246-4.247-4.246S7.707,4.723,7.707,7.064
		C7.707,9.406,9.612,11.311,11.953,11.311z M11.953,3.792c1.804,0,3.271,1.468,3.271,3.271c0,1.805-1.467,3.272-3.271,3.272
		c-1.804,0-3.272-1.468-3.272-3.272C8.681,5.261,10.148,3.792,11.953,3.792z"/>
	<path fill="#4b5c8f" d="M6.75,11.843L6.75,11.845l5.204,5.479l5.201-5.479v-0.001l0.002-0.002c1.201-1.31,1.863-3.006,1.863-4.774
		C19.02,3.17,15.85,0,11.953,0C8.056,0,4.886,3.17,4.886,7.067c0,1.768,0.661,3.465,1.862,4.774L6.75,11.843z M11.953,0.975
		c3.357,0,6.093,2.734,6.093,6.092c0,1.454-0.521,2.85-1.469,3.958c0,0-0.27,0.299-0.32,0.347l0.002,0l-4.306,4.537l-4.455-4.709
		l-0.171-0.175C6.38,9.917,5.861,8.521,5.861,7.067C5.861,3.708,8.594,0.975,11.953,0.975z"/>
</g>
</svg>
