<?xml version="1.0" encoding="utf-8"?>
<!-- Generator: Adobe Illustrator 15.1.0, SVG Export Plug-In . SVG Version: 6.00 Build 0)  -->
<svg version="1.2" baseProfile="tiny" id="Шар_1"
	 xmlns="http://www.w3.org/2000/svg" xmlns:xlink="http://www.w3.org/1999/xlink" x="0px" y="0px" width="24px" height="24px"
	 viewBox="0 0 24 24" xml:space="preserve">
<g>
	<path fill="none" d="M21.081,7.777H2.947c-0.506,0-0.917,0.407-0.917,0.907v10.509c0,0.501,0.411,0.907,0.917,0.907h18.134
		c0.508,0,0.918-0.405,0.918-0.907V8.684C21.999,8.184,21.588,7.777,21.081,7.777z"/>
	<path fill="#ccc" d="M21.717,5.795H2.313c-1.216,0-2.205,0.627-2.205,2.196v11.897c0,1.21,0.572,2.194,2.205,2.194h19.462
		c1.514,0,2.206-0.984,2.206-2.194V7.991C23.981,6.542,22.933,5.795,21.717,5.795z M21.999,19.193c0,0.502-0.41,0.907-0.918,0.907
		H2.947c-0.506,0-0.917-0.406-0.917-0.907V8.684c0-0.5,0.411-0.907,0.917-0.907h18.134c0.507,0,0.918,0.407,0.918,0.907V19.193z"/>
	<polygon fill="#ccc" points="21.801,3.935 1.791,3.935 1.004,4.874 22.749,4.874 	"/>
	<polygon fill="#ccc" points="19.966,2.058 3.658,2.058 2.761,2.939 20.989,2.939 	"/>
</g>
</svg>
