<?xml version="1.0" encoding="utf-8"?>
<!-- Generator: Adobe Illustrator 15.1.0, SVG Export Plug-In . SVG Version: 6.00 Build 0)  -->
<svg version="1.2" baseProfile="tiny" id="Шар_2"
	 xmlns="http://www.w3.org/2000/svg" xmlns:xlink="http://www.w3.org/1999/xlink" x="0px" y="0px" width="24px" height="24px"
	 viewBox="0 0 24 24" xml:space="preserve">
<g>
	<path fill="none" d="M22.433,1.235H1.736v16.753h20.697V1.235z M20.46,9.119h-0.984v-2.26l-3.941,3.942l-2.465-2.464l-4.435,4.435
		l-1.355-1.346l-3.278,3.273l-0.697-0.696l3.975-3.971l1.355,1.347l4.435-4.435l2.465,2.463l3.244-3.245h-2.26V5.177h3.941V9.119z"
		/>
	<path fill="#51639b" d="M23.417,18.975V0.25H0.75v18.725h10.841V19.5l-3.654,3.704l0.697,0.698l2.957-2.999v2.999h0.985v-2.999
		l2.958,2.999l0.695-0.698L12.576,19.5v-0.525H23.417z M1.736,17.988V1.235h20.697v16.753H1.736z"/>
	<polygon fill="#51639b" points="16.519,6.163 18.778,6.163 15.534,9.408 13.069,6.944 8.635,11.379 7.279,10.032 3.305,14.003 
		4.001,14.699 7.279,11.426 8.635,12.772 13.069,8.337 15.534,10.802 19.476,6.859 19.476,9.119 20.46,9.119 20.46,5.177 
		16.519,5.177 	"/>
</g>
</svg>
