<?xml version="1.0" encoding="utf-8"?>
<!-- Generator: Adobe Illustrator 16.0.4, SVG Export Plug-In . SVG Version: 6.00 Build 0)  -->
<!DOCTYPE svg PUBLIC "-//W3C//DTD SVG 1.1//EN" "http://www.w3.org/Graphics/SVG/1.1/DTD/svg11.dtd">
<svg version="1.1" id="Layer_1" xmlns="http://www.w3.org/2000/svg" xmlns:xlink="http://www.w3.org/1999/xlink" x="0px" y="0px"
	 width="288px" height="288px" viewBox="0 0 288 288" enable-background="new 0 0 288 288" xml:space="preserve">
<g>
	<path fill="none" stroke="#ffffff" stroke-width="15.5919" stroke-miterlimit="10" d="M276.645,144
		c0,73.254-59.383,132.652-132.645,132.652S11.355,217.254,11.355,144C11.355,70.738,70.738,11.348,144,11.348
		S276.645,70.738,276.645,144z"/>
	<path fill="#ffffff" d="M155.565,121.823h23.752l-2.787,26.235h-20.965v76.142h-31.512v-76.142H108.34v-26.235h15.714v-15.812
		c0-11.207,2.642-19.696,7.94-25.451c5.299-5.756,14.023-8.648,26.159-8.648h20.967v26.242h-13.11c-2.405,0-4.34,0.206-5.778,0.602
		c-1.454,0.404-2.505,1.127-3.151,2.177c-0.648,1.051-1.058,2.109-1.242,3.183c-0.182,1.081-0.272,2.604-0.272,4.575V121.823z"/>
</g>
</svg>
