<?xml version="1.0" encoding="utf-8"?>
<!-- Generator: Adobe Illustrator 15.1.0, SVG Export Plug-In . SVG Version: 6.00 Build 0)  -->
<svg version="1.2" baseProfile="tiny" id="Шар_1"
	 xmlns="http://www.w3.org/2000/svg" xmlns:xlink="http://www.w3.org/1999/xlink" x="0px" y="0px" width="24px" height="24px"
	 viewBox="0 0 24 24" xml:space="preserve">
<g>
	<path fill="none" d="M12.045,1.01c-6.062,0-10.994,4.934-10.994,10.998c0,6.064,4.932,10.998,10.994,10.998
		c6.064,0,10.998-4.934,10.998-10.998C23.043,5.944,18.109,1.01,12.045,1.01z M13.455,18.118c0,0.778-0.631,1.409-1.41,1.409
		s-1.41-0.631-1.41-1.409v-8.46c0-0.779,0.631-1.41,1.41-1.41s1.41,0.631,1.41,1.41V18.118z M12.045,7.308
		c-0.779,0-1.41-0.631-1.41-1.41s0.631-1.41,1.41-1.41s1.41,0.631,1.41,1.41S12.824,7.308,12.045,7.308z"/>
	<path fill="#4b5c8f" d="M12.045,0.258c-6.49,0-11.75,5.26-11.75,11.75c0,6.489,5.26,11.75,11.75,11.75s11.75-5.261,11.75-11.75
		C23.795,5.518,18.535,0.258,12.045,0.258z M12.045,23.006c-6.062,0-10.994-4.934-10.994-10.998c0-6.064,4.932-10.998,10.994-10.998
		c6.064,0,10.998,4.934,10.998,10.998C23.043,18.072,18.109,23.006,12.045,23.006z"/>
	<path fill="#4b5c8f" d="M12.045,8.248c-0.779,0-1.41,0.631-1.41,1.41v8.46c0,0.778,0.631,1.409,1.41,1.409s1.41-0.631,1.41-1.409
		v-8.46C13.455,8.879,12.824,8.248,12.045,8.248z"/>
	<circle fill="#4b5c8f" cx="12.045" cy="5.898" r="1.41"/>
</g>
</svg>
