<?xml version="1.0" encoding="utf-8"?>
<!-- Generator: Adobe Illustrator 15.1.0, SVG Export Plug-In . SVG Version: 6.00 Build 0)  -->
<svg version="1.2" baseProfile="tiny" id="Шар_1"
	 xmlns="http://www.w3.org/2000/svg" xmlns:xlink="http://www.w3.org/1999/xlink" x="0px" y="0px" width="24px" height="24px"
	 viewBox="0 0 24 24" xml:space="preserve">
<g>
	<path fill="none" d="M15.119,10.084c1.898,0,3.442-1.544,3.442-3.443s-1.544-3.443-3.442-3.443c-1.899,0-3.443,1.544-3.443,3.443
		S13.22,10.084,15.119,10.084z"/>
	<path fill="none" d="M15.119,12.38c-3.986,0-6.594,1.425-7.35,4.014l-0.645,3.514c0.24,0.146,0.954,0.469,2.829,0.737l0.224-2.145
		h0.704l-0.246,2.984L10.624,21.6c0.419,0.279,2.005,0.727,4.496,0.727c2.491,0,4.076-0.447,4.495-0.727l-0.013-0.114l-0.245-2.984
		h0.703l0.225,2.145c1.875-0.269,2.59-0.592,2.83-0.737l-0.646-3.506C21.642,13.809,19.032,12.38,15.119,12.38z"/>
	<path fill="#56a90d" d="M10.911,6.642c0,2.324,1.884,4.208,4.208,4.208c2.323,0,4.208-1.884,4.208-4.208
		c0-2.325-1.885-4.208-4.208-4.208C12.795,2.434,10.911,4.317,10.911,6.642z M15.119,3.199c1.898,0,3.442,1.544,3.442,3.443
		s-1.544,3.443-3.442,3.443c-1.899,0-3.443-1.544-3.443-3.443S13.22,3.199,15.119,3.199z"/>
	<path fill="#56a90d" d="M23.918,20.054l-0.703-3.836c-0.792-2.549-3.236-4.603-8.096-4.603c-4.86,0-7.362,2.025-8.095,4.603
		L6.32,20.054c0,0.556,1.399,1.047,3.554,1.354L9.84,21.742c0,0.745,2.363,1.349,5.279,1.349c2.915,0,5.278-0.604,5.278-1.349
		l-0.033-0.335C22.52,21.101,23.918,20.609,23.918,20.054z M20.284,20.646l-0.225-2.145h-0.703l0.245,2.984l0.013,0.114
		c-0.419,0.279-2.004,0.727-4.495,0.727c-2.49,0-4.077-0.447-4.496-0.727l0.012-0.114l0.246-2.984h-0.704l-0.224,2.145
		c-1.875-0.269-2.589-0.592-2.829-0.737l0.645-3.514c0.755-2.589,3.364-4.014,7.35-4.014c3.913,0,6.522,1.428,7.35,4.022
		l0.646,3.506C22.874,20.054,22.159,20.377,20.284,20.646z"/>
	<path fill="#56a90d" d="M5.634,20.467c-0.57-0.132-0.955-0.279-1.131-0.396l0.257-3.099H4.057l-0.224,2.144
		c-1.875-0.268-2.588-0.592-2.829-0.737l0.645-3.514c0.755-2.589,3.363-4.015,7.349-4.015c1.094,0,2.081,0.116,2.96,0.333
		c0.52-0.118,1.069-0.204,1.646-0.259c-1.203-0.527-2.72-0.839-4.605-0.839c-4.86,0-7.362,2.026-8.095,4.604l-0.704,3.835
		c0,0.556,1.399,1.047,3.555,1.354l-0.035,0.335c0,0.538,1.246,1.005,3.041,1.22C6.151,21.164,5.783,20.847,5.634,20.467z"/>
	<path fill="#56a90d" d="M8.998,9.32c0.613,0,1.193-0.134,1.718-0.369c-0.119-0.226-0.218-0.461-0.301-0.705
		C9.982,8.442,9.503,8.555,8.998,8.555c-1.898,0-3.443-1.544-3.443-3.443c0-1.899,1.544-3.443,3.443-3.443
		c1.11,0,2.095,0.529,2.725,1.347c0.188-0.174,0.384-0.338,0.596-0.482c-0.77-0.991-1.969-1.63-3.32-1.63
		c-2.323,0-4.208,1.884-4.208,4.208C4.79,7.436,6.675,9.32,8.998,9.32z"/>
</g>
</svg>
