<?xml version="1.0" encoding="utf-8"?>
<!-- Generator: Adobe Illustrator 15.1.0, SVG Export Plug-In . SVG Version: 6.00 Build 0)  -->
<!DOCTYPE svg [
	<!ENTITY ns_flows "http://ns.adobe.com/Flows/1.0/">
	<!ENTITY ns_extend "http://ns.adobe.com/Extensibility/1.0/">
	<!ENTITY ns_ai "http://ns.adobe.com/AdobeIllustrator/10.0/">
	<!ENTITY ns_graphs "http://ns.adobe.com/Graphs/1.0/">
	<!ENTITY ns_vars "http://ns.adobe.com/Variables/1.0/">
	<!ENTITY ns_imrep "http://ns.adobe.com/ImageReplacement/1.0/">
	<!ENTITY ns_sfw "http://ns.adobe.com/SaveForWeb/1.0/">
	<!ENTITY ns_custom "http://ns.adobe.com/GenericCustomNamespace/1.0/">
	<!ENTITY ns_adobe_xpath "http://ns.adobe.com/XPath/1.0/">
]>
<svg version="1.2" baseProfile="tiny"
	 xmlns:x="&ns_extend;" xmlns:i="&ns_ai;" xmlns:graph="&ns_graphs;" i:viewOrigin="17.5 22.5" i:rulerOrigin="-17.5 1.5" i:pageBounds="17.5 22.5 41.5 -1.5"
	 xmlns="http://www.w3.org/2000/svg" xmlns:xlink="http://www.w3.org/1999/xlink" xmlns:a="http://ns.adobe.com/AdobeSVGViewerExtensions/3.0/"
	 x="0px" y="0px" width="24px" height="24px" viewBox="0 0 24 24" xml:space="preserve">
<metadata>
	<variableSets  xmlns="&ns_vars;">
		<variableSet  locked="none" varSetName="binding1">
			<variables></variables>
			<v:sampleDataSets  xmlns:v="&ns_vars;" xmlns="&ns_custom;"></v:sampleDataSets>
		</variableSet>
	</variableSets>
	<sfw  xmlns="&ns_sfw;">
		<slices></slices>
		<sliceSourceBounds  width="23.803" height="14.441" y="3.279" x="17.599" bottomLeftOrigin="true"></sliceSourceBounds>
	</sfw>
</metadata>
<g id="Шар_1" i:layer="yes" i:dimmedPercent="50" i:rgbTrio="#4F008000FFFF">
	<g>
		<path i:knockout="Off" fill="none" d="M1.686,6.366v11.268l0,0h20.63l0,0V6.366l0,0H1.686L1.686,6.366z M17.556,15.809
			c0,0.088-0.072,0.159-0.159,0.159H6.525c-0.087,0-0.158-0.071-0.158-0.159V14.46c0-0.087,0.071-0.159,0.158-0.159h10.871
			c0.087,0,0.159,0.072,0.159,0.159V15.809z M20.729,15.809c0,0.088-0.071,0.159-0.158,0.159h-1.35
			c-0.089,0-0.158-0.071-0.158-0.159V14.46c0-0.087,0.069-0.159,0.158-0.159h1.35c0.087,0,0.158,0.072,0.158,0.159V15.809z
			 M19.063,11.127V8.191c0-0.088,0.069-0.158,0.158-0.158h1.35c0.087,0,0.158,0.07,0.158,0.158v3.095v0.793v0.556
			c0,0.088-0.071,0.158-0.158,0.158h-2.938c-0.087,0-0.159-0.07-0.159-0.158v-1.349c0-0.088,0.072-0.159,0.159-0.159H19.063z
			 M15.889,8.112c0-0.088,0.072-0.159,0.159-0.159h1.349c0.087,0,0.159,0.071,0.159,0.159v1.349c0,0.088-0.072,0.159-0.159,0.159
			h-1.349c-0.087,0-0.159-0.071-0.159-0.159V8.112z M15.809,11.127c0.089,0,0.158,0.071,0.158,0.159v1.349
			c0,0.088-0.069,0.158-0.158,0.158h-1.35c-0.087,0-0.158-0.07-0.158-0.158v-1.349c0-0.088,0.071-0.159,0.158-0.159H15.809z
			 M12.714,8.112c0-0.088,0.072-0.159,0.16-0.159h1.349c0.087,0,0.158,0.071,0.158,0.159v1.349c0,0.088-0.071,0.159-0.158,0.159
			h-1.349c-0.088,0-0.16-0.071-0.16-0.159V8.112z M12.635,11.127c0.088,0,0.159,0.071,0.159,0.159v1.349
			c0,0.088-0.071,0.158-0.159,0.158h-1.348c-0.088,0-0.159-0.07-0.159-0.158v-1.349c0-0.088,0.071-0.159,0.159-0.159H12.635z
			 M9.542,8.112c0-0.088,0.07-0.159,0.158-0.159h1.348c0.088,0,0.16,0.071,0.16,0.159v1.349c0,0.088-0.072,0.159-0.16,0.159H9.7
			c-0.088,0-0.158-0.071-0.158-0.159V8.112z M9.461,11.127c0.088,0,0.16,0.071,0.16,0.159v1.349c0,0.088-0.072,0.158-0.16,0.158
			H8.113c-0.088,0-0.159-0.07-0.159-0.158v-1.349c0-0.088,0.071-0.159,0.159-0.159H9.461z M6.367,8.112
			c0-0.088,0.071-0.159,0.158-0.159h1.349c0.088,0,0.159,0.071,0.159,0.159v1.349c0,0.088-0.071,0.159-0.159,0.159H6.525
			c-0.087,0-0.158-0.071-0.158-0.159V8.112z M3.193,8.112c0-0.088,0.071-0.159,0.159-0.159h1.349c0.087,0,0.159,0.071,0.159,0.159
			v1.349c0,0.088-0.071,0.159-0.159,0.159H3.352c-0.088,0-0.159-0.071-0.159-0.159V8.112z M3.193,11.286
			c0-0.088,0.071-0.159,0.159-0.159h2.936c0.088,0,0.159,0.071,0.159,0.159v1.349c0,0.088-0.071,0.158-0.159,0.158H3.352
			c-0.088,0-0.159-0.07-0.159-0.158V11.286z M3.193,14.46c0-0.087,0.071-0.159,0.159-0.159h1.349c0.087,0,0.159,0.072,0.159,0.159
			v1.349c0,0.088-0.071,0.159-0.159,0.159H3.352c-0.088,0-0.159-0.071-0.159-0.159V14.46z"/>
		<path i:knockout="Off" fill="#51639B" d="M22.315,4.779H1.686c-0.876,0-1.587,0.711-1.587,1.587v11.268
			c0,0.876,0.71,1.587,1.587,1.587h20.63c0.876,0,1.586-0.711,1.586-1.587V6.366C23.901,5.49,23.191,4.779,22.315,4.779z
			 M22.315,6.366v11.268l0,0H1.686l0,0V6.366l0,0H22.315L22.315,6.366z"/>
		<path fill-rule="evenodd" fill="#51639B" d="M3.352,9.62h1.349c0.087,0,0.159-0.071,0.159-0.159V8.112
			c0-0.088-0.071-0.159-0.159-0.159H3.352c-0.088,0-0.159,0.071-0.159,0.159v1.349C3.193,9.549,3.264,9.62,3.352,9.62z"/>
		<path fill-rule="evenodd" fill="#51639B" d="M6.525,9.62h1.349c0.088,0,0.159-0.071,0.159-0.159V8.112
			c0-0.088-0.071-0.159-0.159-0.159H6.525c-0.087,0-0.158,0.071-0.158,0.159v1.349C6.367,9.549,6.438,9.62,6.525,9.62z"/>
		<path fill-rule="evenodd" fill="#51639B" d="M9.7,9.62h1.348c0.088,0,0.16-0.071,0.16-0.159V8.112c0-0.088-0.072-0.159-0.16-0.159
			H9.7c-0.088,0-0.158,0.071-0.158,0.159v1.349C9.542,9.549,9.612,9.62,9.7,9.62z"/>
		<path fill-rule="evenodd" fill="#51639B" d="M12.874,9.62h1.349c0.087,0,0.158-0.071,0.158-0.159V8.112
			c0-0.088-0.071-0.159-0.158-0.159h-1.349c-0.088,0-0.16,0.071-0.16,0.159v1.349C12.714,9.549,12.786,9.62,12.874,9.62z"/>
		<path fill-rule="evenodd" fill="#51639B" d="M16.048,9.62h1.349c0.087,0,0.159-0.071,0.159-0.159V8.112
			c0-0.088-0.072-0.159-0.159-0.159h-1.349c-0.087,0-0.159,0.071-0.159,0.159v1.349C15.889,9.549,15.961,9.62,16.048,9.62z"/>
		<path fill-rule="evenodd" fill="#51639B" d="M14.301,11.286v1.349c0,0.088,0.071,0.158,0.158,0.158h1.35
			c0.089,0,0.158-0.07,0.158-0.158v-1.349c0-0.088-0.069-0.159-0.158-0.159h-1.35C14.372,11.127,14.301,11.198,14.301,11.286z"/>
		<path fill-rule="evenodd" fill="#51639B" d="M11.127,11.286v1.349c0,0.088,0.071,0.158,0.159,0.158h1.348
			c0.088,0,0.159-0.07,0.159-0.158v-1.349c0-0.088-0.071-0.159-0.159-0.159h-1.348C11.199,11.127,11.127,11.198,11.127,11.286z"/>
		<path fill-rule="evenodd" fill="#51639B" d="M7.954,11.286v1.349c0,0.088,0.071,0.158,0.159,0.158h1.348
			c0.088,0,0.16-0.07,0.16-0.158v-1.349c0-0.088-0.072-0.159-0.16-0.159H8.113C8.025,11.127,7.954,11.198,7.954,11.286z"/>
		<path fill-rule="evenodd" fill="#51639B" d="M20.571,14.301h-1.35c-0.089,0-0.158,0.072-0.158,0.159v1.349
			c0,0.088,0.069,0.159,0.158,0.159h1.35c0.087,0,0.158-0.071,0.158-0.159V14.46C20.729,14.373,20.658,14.301,20.571,14.301z"/>
		<path fill-rule="evenodd" fill="#51639B" d="M3.352,15.968h1.349c0.087,0,0.159-0.071,0.159-0.159V14.46
			c0-0.087-0.071-0.159-0.159-0.159H3.352c-0.088,0-0.159,0.072-0.159,0.159v1.349C3.193,15.896,3.264,15.968,3.352,15.968z"/>
		<path fill-rule="evenodd" fill="#51639B" d="M3.352,12.793h2.936c0.088,0,0.159-0.07,0.159-0.158v-1.349
			c0-0.088-0.071-0.159-0.159-0.159H3.352c-0.088,0-0.159,0.071-0.159,0.159v1.349C3.193,12.723,3.264,12.793,3.352,12.793z"/>
		<path fill="#51639B" d="M17.475,11.286v1.349c0,0.088,0.072,0.158,0.159,0.158h2.938c0.087,0,0.158-0.07,0.158-0.158v-0.556
			v-0.793V8.191c0-0.088-0.071-0.158-0.158-0.158h-1.35c-0.089,0-0.158,0.07-0.158,0.158v2.936h-1.43
			C17.547,11.127,17.475,11.198,17.475,11.286z"/>
		<path fill-rule="evenodd" fill="#51639B" d="M17.396,14.301H6.525c-0.087,0-0.158,0.072-0.158,0.159v1.349
			c0,0.088,0.071,0.159,0.158,0.159h10.871c0.087,0,0.159-0.071,0.159-0.159V14.46C17.556,14.373,17.483,14.301,17.396,14.301z"/>
	</g>
</g>
</svg>
