<?xml version="1.0" encoding="utf-8"?>
<!-- Generator: Adobe Illustrator 15.1.0, SVG Export Plug-In . SVG Version: 6.00 Build 0)  -->
<svg version="1.2" baseProfile="tiny" id="Шар_1"
	 xmlns="http://www.w3.org/2000/svg" xmlns:xlink="http://www.w3.org/1999/xlink" x="0px" y="0px" width="24px" height="24px"
	 viewBox="0 0 24 24" xml:space="preserve">
<g>
	<path fill="#8b4b18" d="M21.774,1.348h-9.819c-1.314,0-2.382,1.067-2.382,2.379v5.851h1.989V4.465c0-0.656,0.533-1.19,1.19-1.19
		h8.225c0.657,0,1.191,0.535,1.191,1.19v15.099c0,0.656-0.534,1.191-1.191,1.191h-8.225c-0.657,0-1.19-0.534-1.19-1.191v-4.172
		L9.569,15.41v4.858c0,1.313,1.069,2.381,2.382,2.381h9.823c1.314,0,2.383-1.068,2.383-2.381V3.728
		C24.157,2.416,23.089,1.348,21.774,1.348z"/>
	<path fill="#8b4b18" d="M1.714,13.016h15.528c0.329,0,0.656-0.146,0.656-0.474c0-0.329-0.327-0.544-0.656-0.544H1.692l3.782-3.734
		c0.232-0.232,0.457-0.609,0.224-0.842c-0.233-0.232-0.609-0.232-0.842,0L0,12.485l4.601,5.402c0.117,0.117,0.269,0.175,0.421,0.175
		c0.152,0,0.304-0.058,0.422-0.175c0.232-0.232,0.008-0.609-0.224-0.842L1.714,13.016z"/>
</g>
</svg>
