<?xml version="1.0" encoding="utf-8"?>
<!-- Generator: Adobe Illustrator 15.1.0, SVG Export Plug-In . SVG Version: 6.00 Build 0)  -->
<svg version="1.2" baseProfile="tiny" id="Шар_1"
	 xmlns="http://www.w3.org/2000/svg" xmlns:xlink="http://www.w3.org/1999/xlink" x="0px" y="0px" width="24px" height="24px"
	 viewBox="0 0 24 24" xml:space="preserve">
<path fill="#51639b" d="M23.945,9.119l0.021-2.188L11.78,1.645L0.017,6.931l0.01,2.188h1.814v10.945L0,20.086V22h23.983v-1.914
	l-1.842-0.022V9.119H23.945L23.945,9.119z M7.339,20.063H3.718V9.119h3.621V20.063L7.339,20.063z M14.709,20.063H9.216V9.119h5.493
	V20.063L14.709,20.063z M20.265,20.063h-3.65V9.119h3.65V20.063L20.265,20.063z M3.394,7.252l8.397-3.401l8.222,3.394L3.394,7.252
	L3.394,7.252z"/>
</svg>
