<?xml version="1.0" encoding="utf-8"?>
<!-- Generator: Adobe Illustrator 15.1.0, SVG Export Plug-In . SVG Version: 6.00 Build 0)  -->
<svg version="1.2" baseProfile="tiny" id="Шар_1"
	 xmlns="http://www.w3.org/2000/svg" xmlns:xlink="http://www.w3.org/1999/xlink" x="0px" y="0px" width="24px" height="24px"
	 viewBox="0 0 24 24" xml:space="preserve">
<g>
	<path fill="#51639B" d="M14.167,5.035c0-0.204-0.167-0.368-0.37-0.368H3.531c-0.203,0-0.37,0.165-0.37,0.368v0.599
		c0,0.204,0.167,0.37,0.37,0.37h10.266c0.203,0,0.37-0.166,0.37-0.37V5.035z"/>
	<path fill="#51639B" d="M14.167,8.467V7.868c0-0.204-0.167-0.368-0.37-0.368H3.531c-0.203,0-0.37,0.165-0.37,0.368v0.599
		c0,0.204,0.167,0.37,0.37,0.37h10.266C14,8.837,14.167,8.671,14.167,8.467z"/>
	<path fill="#51639B" d="M8.75,18.592c0,0.204,0.167,0.37,0.37,0.37h4.655c0.203,0,0.37-0.166,0.37-0.37v-0.6
		c0-0.203-0.167-0.367-0.37-0.367H9.12c-0.203,0-0.37,0.164-0.37,0.367V18.592z"/>
	<path fill="#51639B" d="M17.572,19.643l-0.833-0.008c-0.097,0.031-0.281,0.071-0.281,0.471v1.437c0,0.705-0.083,0.85-0.791,0.85
		H2.417c-0.707,0-0.808-0.145-0.808-0.85V2.458c0-0.705,0.101-0.771,0.808-0.771h13.25c0.708,0,0.791,0.065,0.791,0.771v1.147
		c0,0.234,0.284,0.268,0.284,0.268l0.876,0.004c0,0,0.201-0.043,0.201-0.272V1.614c0-0.705-0.578-1.283-1.285-1.283H1.533
		c-0.707,0-1.286,0.578-1.286,1.283v20.854c0,0.704,0.58,1.282,1.286,1.282h15.001c0.707,0,1.285-0.578,1.285-1.282v-2.581
		C17.819,19.613,17.572,19.643,17.572,19.643z"/>
	<path fill="#51639B" d="M22.419,10.875h-4.002V6.874c0-0.553-0.446-1.001-0.999-1.001s-1.001,0.448-1.001,1.001v4.001h-4.001
		c-0.553,0-1.001,0.447-1.001,0.999c0,0.553,0.448,1.001,1.001,1.001h4.001v4.002c0,0.551,0.448,1,1.001,1s0.999-0.449,0.999-1
		v-4.002h4.002c0.552,0,1-0.448,1-1.001C23.419,11.322,22.971,10.875,22.419,10.875z"/>
</g>
</svg>
