<?xml version="1.0" encoding="utf-8"?>
<!-- Generator: Adobe Illustrator 15.1.0, SVG Export Plug-In . SVG Version: 6.00 Build 0)  -->
<svg version="1.2" baseProfile="tiny" id="Шар_1"
	 xmlns="http://www.w3.org/2000/svg" xmlns:xlink="http://www.w3.org/1999/xlink" x="0px" y="0px" width="24px" height="24px"
	 viewBox="0 0 24 24" xml:space="preserve">
<g>
	<path fill="none" d="M11.944,3.056c-5.561,0-10.085,3.402-10.085,8.172c0,2.731,1.532,4.782,4.099,6.409
		c0.128,0.082,0.207,0.223,0.207,0.375c0,0.064,0.5,1.255-0.515,3.018c1.638-0.642,2.701-1.932,2.716-1.952
		c0.108-0.133,0.648-0.048,0.817-0.007c0.894,0.218,1.824,0.182,2.762,0.182c5.562,0,10.086-3.256,10.086-8.025
		C22.031,6.458,17.506,3.056,11.944,3.056z M12.886,16.431h-1.379v-1.817h1.397L12.886,16.431z M11.484,13.681l0.009-4.108
		l-0.015-3.173h1.399l0.002,3.173l0.027,4.108H11.484z"/>
	<path fill="#51639b" d="M11.944,1.404C5.43,1.404,0.13,5.496,0.13,11.157c0,3.183,1.72,5.69,4.615,7.628
		c-0.064,0.532-0.332,1.866-1.435,3.432c-0.104,0.146-0.116,0.336-0.035,0.495c0.082,0.158,0.246,0.258,0.423,0.26
		c0,0,0.029,0,0.031,0c2.807,0,4.696-1.735,5.298-2.376c0.949,0.208,1.929,0.314,2.917,0.314c6.515,0,11.813-4.091,11.813-9.753
		C23.758,5.496,18.459,1.404,11.944,1.404z M11.944,19.253c-0.938,0-1.868,0.036-2.762-0.182c-0.169-0.042-0.709-0.127-0.817,0.007
		c-0.015,0.02-1.078,1.311-2.716,1.952c1.015-1.763,0.515-2.954,0.515-3.018c0-0.152-0.078-0.294-0.207-0.375
		c-2.567-1.627-4.099-3.678-4.099-6.409c0-4.77,4.524-8.172,10.085-8.172c5.562,0,10.086,3.402,10.086,8.172
		S17.506,19.253,11.944,19.253z"/>
	<polygon fill="#51639b" points="11.506,16.431 12.886,16.431 12.903,14.613 11.506,14.613 	"/>
	<polygon fill="#51639b" points="12.877,6.399 11.478,6.399 11.493,9.572 11.484,13.681 12.906,13.681 12.878,9.572 	"/>
</g>
</svg>
