<?xml version="1.0" encoding="utf-8"?>
<!-- Generator: Adobe Illustrator 15.1.0, SVG Export Plug-In . SVG Version: 6.00 Build 0)  -->
<svg version="1.2" baseProfile="tiny" id="Шар_1"
	 xmlns="http://www.w3.org/2000/svg" xmlns:xlink="http://www.w3.org/1999/xlink" x="0px" y="0px" width="24px" height="24px"
	 viewBox="0 0 24 24" xml:space="preserve">
<g>
	<polygon fill="#51639b" points="8.293,16.135 8.872,16.711 14.021,11.626 14.014,11.62 14.104,11.53 9.001,6.443 8.359,6.957 
		12.53,11.114 0.069,11.114 0.069,12.017 12.464,12.017 	"/>
	<path fill="#51639b" d="M22.119,3.479h-6.62c-1.063,0-1.651,0.717-1.651,1.104v0.003c0-0.389-0.645-1.107-1.626-1.107h-6.5
		c0,0-1.88-0.048-1.88,1.825v5.106h1.598L5.433,5.556c0-0.229,0.38-0.559,0.61-0.559h6.476c0.34,0,0.548,0.27,0.741,0.63
		l0.088,0.179l1.103-0.008l0.092-0.179c0.161-0.344,0.441-0.622,0.781-0.622h6.573c0.229,0,0.561,0.33,0.561,0.559l-0.015,12.181
		c0.001,0.229-0.138,0.413-0.363,0.413c0,0-5.189,0-5.977,0c-1.129,0-1.419,0.554-1.725,0.899L13.38,19.04
		c-0.218-0.426-0.939-0.842-1.641-0.842c-0.786,0-5.879,0-5.879,0c-0.225,0-0.412-0.186-0.411-0.414l-0.006-5.008H3.841v6.065
		c0,0.457,0.37,0.828,0.827,0.828c0,0,5.946,0,7.129,0c1.184,0,1.596,1.651,1.596,1.651h0.455h0.6c0,0,0.413-1.603,1.597-1.603
		c1.183,0,7.128,0,7.128,0c0.458,0,0.828-0.371,0.828-0.829V5.304C24,3.431,22.119,3.479,22.119,3.479z"/>
</g>
</svg>
