<?xml version="1.0" encoding="utf-8"?>
<!-- Generator: Adobe Illustrator 15.1.0, SVG Export Plug-In . SVG Version: 6.00 Build 0)  -->
<svg version="1.2" baseProfile="tiny" id="Шар_1"
	 xmlns="http://www.w3.org/2000/svg" xmlns:xlink="http://www.w3.org/1999/xlink" x="0px" y="0px" width="24px" height="24px"
	 viewBox="0 0 24 24" xml:space="preserve">
<g>
	<path fill="none" d="M4.845,2.969C4.723,2.894,4.604,2.82,4.488,2.749v18.502c0.226-0.14,15.026-9.246,15.026-9.246
		C17.372,10.691,13.172,8.104,4.845,2.969z"/>
	<path fill="#fff" d="M2.988,0.063v23.875C2.988,23.932,22.387,12,22.387,12C22.472,12.083,2.983,0.058,2.988,0.063z
		 M4.488,2.749c0.116,0.071,0.234,0.145,0.357,0.22c8.327,5.134,12.527,7.722,14.669,9.036c0,0-14.801,9.106-15.026,9.246V2.749z"/>
</g>
</svg>
