<?xml version="1.0" encoding="utf-8"?>
<!-- Generator: Adobe Illustrator 15.1.0, SVG Export Plug-In . SVG Version: 6.00 Build 0)  -->
<svg version="1.2" baseProfile="tiny" id="Шар_1"
	 xmlns="http://www.w3.org/2000/svg" xmlns:xlink="http://www.w3.org/1999/xlink" x="0px" y="0px" width="24px" height="24px"
	 viewBox="0 0 24 24" xml:space="preserve">
<path fill="#8b4b18" d="M11.924,2.47c2.063,0,3.58,1.14,3.58,3.023v3.473c-0.236,1.167-1.095,2.648-1.442,2.99l-0.37,0.367v0.52
	v2.962v0.822l0.755,0.322l7.436,3.679c0.149,0.473,0.169,0.694,0.059,1.307H1.942c-0.108-0.612-0.088-0.76,0.063-1.23l7.205-3.755
	l0.905-0.324v-0.82v-2.961v-0.521l-0.369-0.365c-0.345-0.341-1.205-1.823-1.441-2.993V5.493C8.305,3.951,9.858,2.47,11.924,2.47
	 M12.094,0.547c-2.654,0-5.638,2.293-5.638,4.946v3.593c0,0,0.929,2.884,1.812,3.757v2.583l-7.652,3.989
	c-0.684,0.686-0.684,3.608-0.003,4.291h22.962c0.682-0.683,0.684-3.605,0-4.291l-8.035-3.989v-2.584
	c0.884-0.872,1.663-3.756,1.663-3.756V5.493C17.202,2.84,14.745,0.547,12.094,0.547L12.094,0.547L12.094,0.547z"/>
</svg>
