<?xml version="1.0" encoding="utf-8"?>
<!-- Generator: Adobe Illustrator 15.1.0, SVG Export Plug-In . SVG Version: 6.00 Build 0)  -->
<svg version="1.2" baseProfile="tiny" id="Шар_1"
	 xmlns="http://www.w3.org/2000/svg" xmlns:xlink="http://www.w3.org/1999/xlink" x="0px" y="0px" width="24px" height="24px"
	 viewBox="0 0 24 24" xml:space="preserve">
<g>
	<path fill="none" d="M10.366,3.064H2.883c-0.569,0-0.75,0.406-0.75,0.687l0.019,15.028c0,0.28,0.229,0.509,0.506,0.509
		c0,0,5.784,0,6.75,0s1.72,0.761,1.72,0.761V3.829C11.128,3.407,10.784,3.064,10.366,3.064z M9.733,15.445H3.56v-0.979h6.173V15.445
		z M9.733,12.597H3.56v-0.98h6.173V12.597z M9.733,9.747H3.56V8.768h6.173V9.747z M9.733,6.898H3.56V5.918h6.173V6.898z"/>
	<path fill="none" d="M21.414,3.064h-7.602c-0.417,0-0.762,0.343-0.762,0.765v16.16c0,0,0.754-0.761,1.72-0.761s6.869,0,6.869,0
		c0.276,0,0.447-0.229,0.446-0.51L22.074,3.751C22.074,3.47,21.9,3.064,21.414,3.064z M20.654,15.445H14.48v-0.979h6.174V15.445z
		 M20.654,12.597H14.48v-0.98h6.174V12.597z M20.654,9.747H14.48V8.768h6.174V9.747z M20.654,6.898H14.48V5.918h6.174V6.898z"/>
	<rect x="3.56" y="5.918" fill="#FFFFFF" width="6.173" height="0.979"/>
	<rect x="3.56" y="8.768" fill="#FFFFFF" width="6.173" height="0.979"/>
	<rect x="3.56" y="11.616" fill="#FFFFFF" width="6.173" height="0.98"/>
	<rect x="3.56" y="14.466" fill="#FFFFFF" width="6.173" height="0.979"/>
	<rect x="14.48" y="5.918" fill="#FFFFFF" width="6.174" height="0.979"/>
	<rect x="14.48" y="8.768" fill="#FFFFFF" width="6.174" height="0.979"/>
	<rect x="14.48" y="11.616" fill="#FFFFFF" width="6.174" height="0.98"/>
	<rect x="14.48" y="14.466" fill="#FFFFFF" width="6.174" height="0.979"/>
	<path fill="#FFFFFF" d="M21.689,1.2h-7.662c-1.193,0-1.939,0.919-1.939,1.395V2.61c0-0.478-0.99-1.41-2.087-1.41H2.488
		c0,0-2.312-0.06-2.312,2.243v16.636c0,0.562,0.456,1.018,1.017,1.018c0,0,6.831,0,8.286,0c1.454,0,1.96,2.028,1.96,2.028h0.56
		h0.738c0,0,0.507-1.971,1.961-1.971c1.455,0,8.285,0,8.285,0c0.562,0,1.017-0.454,1.017-1.017V3.443
		C24,1.141,21.689,1.2,21.689,1.2z M11.128,20.049c0,0-0.753-0.762-1.72-0.762c-0.966,0-6.75,0-6.75,0
		c-0.277,0-0.506-0.229-0.506-0.508L2.134,3.751c0-0.281,0.18-0.687,0.75-0.687h7.483c0.418,0,0.762,0.343,0.762,0.765V20.049z
		 M21.639,19.229c0,0-5.903,0-6.869,0c-0.965,0-1.719,0.761-1.719,0.761V3.829c0-0.422,0.345-0.765,0.761-0.765h7.602
		c0.486,0,0.661,0.406,0.661,0.687l0.012,14.968C22.087,18.999,21.916,19.229,21.639,19.229z"/>
</g>
</svg>
