<?xml version="1.0" encoding="utf-8"?>
<!-- Generator: Adobe Illustrator 15.1.0, SVG Export Plug-In . SVG Version: 6.00 Build 0)  -->
<svg version="1.2" baseProfile="tiny" id="Шар_1"
	 xmlns="http://www.w3.org/2000/svg" xmlns:xlink="http://www.w3.org/1999/xlink" x="0px" y="0px" width="24px" height="24px"
	 viewBox="0 0 24 24" xml:space="preserve">
<g>
	<path fill="none" d="M10.249,3.047H2.813c-0.581,0-0.745,0.403-0.745,0.682l0.019,14.933c0,0.279,0.228,0.505,0.502,0.505
		c0,0,5.747,0,6.708,0c0.96,0,1.709,0.757,1.709,0.757V3.806C11.006,3.387,10.664,3.047,10.249,3.047z"/>
	<path fill="none" d="M21.228,3.047h-7.554c-0.415,0-0.758,0.341-0.758,0.759v16.058c0,0,0.75-0.757,1.71-0.757s6.825,0,6.825,0
		c0.275,0,0.444-0.226,0.443-0.505L21.884,3.729C21.884,3.449,21.666,3.047,21.228,3.047z"/>
	<path fill="#00a888" d="M21.5,1.194h-7.612c-1.156,0-1.927,0.958-1.927,1.431v0.029c0-0.474-1.013-1.46-2.074-1.46H2.421
		c0,0-2.297-0.059-2.297,2.229v16.531c0,0.56,0.453,1.012,1.01,1.012c0,0,6.788,0,8.233,0c1.445,0,1.948,2.016,1.948,2.016h0.556
		h0.734c0,0,0.503-1.958,1.948-1.958s8.233,0,8.233,0c0.558,0,1.01-0.451,1.01-1.01V3.422C23.797,1.135,21.5,1.194,21.5,1.194z
		 M11.006,19.924c0,0-0.749-0.757-1.709-0.757s-6.708,0-6.708,0c-0.275,0-0.503-0.227-0.502-0.505L2.069,3.729
		c0-0.279,0.164-0.682,0.745-0.682h7.436c0.415,0,0.757,0.341,0.757,0.759V19.924z M21.451,19.107c0,0-5.866,0-6.826,0
		s-1.709,0.757-1.709,0.757V3.806c0-0.419,0.343-0.759,0.757-0.759h7.554c0.439,0,0.657,0.403,0.657,0.682l0.011,14.874
		C21.896,18.881,21.727,19.107,21.451,19.107z"/>
</g>
</svg>
