<?xml version="1.0" encoding="utf-8"?>
<!-- Generator: Adobe Illustrator 15.1.0, SVG Export Plug-In . SVG Version: 6.00 Build 0)  -->
<svg version="1.2" baseProfile="tiny" id="Шар_1"
	 xmlns="http://www.w3.org/2000/svg" xmlns:xlink="http://www.w3.org/1999/xlink" x="0px" y="0px" width="24px" height="24px"
	 viewBox="0 0 24 24" xml:space="preserve">
<g>
	<polygon fill="#ffffff" points="11.606,12.017 24.001,12.017 24.001,11.114 11.541,11.114 15.711,6.957 15.069,6.443 9.967,11.53 
		10.057,11.62 10.049,11.626 15.198,16.711 15.777,16.135 	"/>
	<path fill="#ffffff" d="M0.069,5.304v13.584c0,0.457,0.37,0.828,0.828,0.828c0,0,5.944,0,7.128,0s1.597,1.604,1.597,1.604h0.601
		h0.455c0,0,0.412-1.651,1.596-1.651c1.183,0,7.129,0,7.129,0c0.457,0,0.827-0.371,0.827-0.828v-6.065h-1.603l-0.006,5.009
		c0.001,0.228-0.186,0.414-0.411,0.414c0,0-5.093,0-5.879,0c-0.702,0-1.423,0.416-1.641,0.842l-0.998,0.009
		c-0.306-0.345-0.597-0.898-1.726-0.898c-0.787,0-5.977,0-5.977,0c-0.225,0-0.363-0.185-0.363-0.414L1.612,5.556
		c0-0.229,0.332-0.559,0.562-0.559h6.572c0.34,0,0.62,0.278,0.781,0.622l0.092,0.179l1.104,0.008l0.088-0.179
		c0.193-0.36,0.4-0.63,0.74-0.63h6.477c0.229,0,0.609,0.33,0.609,0.559L18.63,10.41h1.599V5.304c0-1.873-1.881-1.825-1.881-1.825
		h-6.5c-0.981,0-1.625,0.718-1.625,1.107V4.583c0-0.387-0.588-1.104-1.651-1.104h-6.62C1.951,3.479,0.07,3.431,0.069,5.304z"/>
</g>
</svg>
