<?xml version="1.0" encoding="utf-8"?>
<!-- Generator: Adobe Illustrator 15.1.0, SVG Export Plug-In . SVG Version: 6.00 Build 0)  -->
<svg version="1.2" baseProfile="tiny" id="Шар_1"
	 xmlns="http://www.w3.org/2000/svg" xmlns:xlink="http://www.w3.org/1999/xlink" x="0px" y="0px" width="24px" height="24px"
	 viewBox="0 0 24 24" xml:space="preserve">
<g>
	<path fill="none" d="M3.524,2.079v18.01h14.219v1.896c0,0.523,0.424,0.947,0.948,0.947c0.522,0,0.947-0.424,0.947-0.947V2.079
		c0-0.348,0.099-0.668,0.264-0.948H4.472C3.949,1.13,3.524,1.555,3.524,2.079z M6.031,5.418h11.152v1.014H6.031V5.418z M6.031,8.46
		h11.152v1.014H6.031V8.46z M6.031,11.502h11.152v1.013H6.031V11.502z M6.031,14.543h11.152v1.016H6.031V14.543z M6.031,17.586
		h7.098V18.6H6.031V17.586z"/>
	<path fill="none" d="M16.794,21.036H1.628v0.948c0,0.523,0.424,0.947,0.948,0.947h14.48c-0.162-0.279-0.263-0.601-0.263-0.947
		V21.036z"/>
	<path fill="none" d="M21.534,1.13c-0.524,0-0.947,0.424-0.947,0.948v0.948h1.896V2.079C22.482,1.555,22.059,1.13,21.534,1.13z"/>
	<path fill="#56a90d" d="M21.534,0.183H4.472c-1.047,0-1.896,0.849-1.896,1.896v18.01H0.681v1.896c0,1.048,0.849,1.895,1.896,1.895
		h16.115c1.046,0,1.896-0.847,1.896-1.895V3.974h2.843V2.079C23.43,1.031,22.581,0.183,21.534,0.183z M2.577,22.932
		c-0.524,0-0.948-0.424-0.948-0.947v-0.948h15.166v0.948c0,0.347,0.101,0.668,0.263,0.947H2.577z M19.639,2.079v19.906
		c0,0.523-0.425,0.947-0.947,0.947c-0.524,0-0.948-0.424-0.948-0.947v-1.896H3.524V2.079c0-0.524,0.424-0.948,0.948-0.948h15.43
		C19.737,1.41,19.639,1.731,19.639,2.079z M22.482,3.026h-1.896V2.079c0-0.524,0.423-0.948,0.947-0.948s0.948,0.424,0.948,0.948
		V3.026z"/>
	<rect x="6.031" y="5.418" fill="#56a90d" width="11.152" height="1.014"/>
	<rect x="6.031" y="8.46" fill="#56a90d" width="11.152" height="1.014"/>
	<rect x="6.031" y="11.502" fill="#56a90d" width="11.152" height="1.013"/>
	<rect x="6.031" y="14.543" fill="#56a90d" width="11.152" height="1.016"/>
	<rect x="6.031" y="17.586" fill="#56a90d" width="7.098" height="1.014"/>
</g>
</svg>
