<?xml version="1.0" encoding="utf-8"?>
<!-- Generator: Adobe Illustrator 15.1.0, SVG Export Plug-In . SVG Version: 6.00 Build 0)  -->
<svg version="1.2" baseProfile="tiny" id="Шар_1"
	 xmlns="http://www.w3.org/2000/svg" xmlns:xlink="http://www.w3.org/1999/xlink" x="0px" y="0px" width="24px" height="24px"
	 viewBox="0 0 24 24" xml:space="preserve">
<g>
	<circle fill="none" cx="9.121" cy="9.12" r="7.418"/>
	<path fill="#595959" d="M16.179,14.92l-0.076,0.063c1.333-1.585,2.139-3.629,2.139-5.863C18.241,4.083,14.157,0,9.121,0
		C4.083,0,0,4.083,0,9.121c0,5.037,4.083,9.121,9.121,9.121c2.102,0,4.032-0.718,5.575-1.914l7.23,7.571l2.098-2.109L16.179,14.92z
		 M9.121,16.538c-4.097,0-7.418-3.32-7.418-7.417s3.321-7.418,7.418-7.418c4.096,0,7.418,3.321,7.418,7.418
		C16.539,13.217,13.217,16.538,9.121,16.538z"/>
</g>
</svg>
