<?xml version="1.0" encoding="utf-8"?>
<!-- Generator: Adobe Illustrator 15.1.0, SVG Export Plug-In . SVG Version: 6.00 Build 0)  -->
<svg version="1.2" baseProfile="tiny" id="Шар_1"
	 xmlns="http://www.w3.org/2000/svg" xmlns:xlink="http://www.w3.org/1999/xlink" x="0px" y="0px" width="24px" height="24px"
	 viewBox="0 0 24 24" xml:space="preserve">
<g>
	<path fill="none" d="M7.778,9.507C7.539,9.61,7.096,9.849,6.965,10.05c-0.13,0.2-0.109,0.538-0.109,0.782
		c0,0.375,0.113,0.831,0.397,1.081s1.015,0.174,1.561,0.174c0.542,0,1.023-0.119,1.445-0.355c0.422-0.238,0.76-0.504,0.958-0.915
		c0.152-0.318,0.198-0.786,0.198-1.406V8.809c-0.511,0.208-1.276,0.271-2.296,0.416C8.542,9.309,8.018,9.402,7.778,9.507z"/>
	<path fill="none" d="M9.133,1.77c-4.102,0-7.428,3.327-7.428,7.429c0,4.104,3.326,7.43,7.428,7.43c4.103,0,7.429-3.326,7.429-7.43
		C16.563,5.097,13.236,1.77,9.133,1.77z M12.505,12.971h-0.979v-0.028c-0.146-0.292,0.048-0.518,0.007-0.909
		c-0.521,0.443-1.022,0.639-1.503,0.823c-0.481,0.182-0.999,0.188-1.55,0.188c-0.911,0-1.553-0.052-2.042-0.495
		c-0.49-0.446-0.763-0.985-0.763-1.678c0-0.406,0.064-0.777,0.249-1.113c0.185-0.335,0.426-0.605,0.726-0.809
		c0.299-0.202,0.637-0.355,1.012-0.46c0.275-0.073,0.691-0.142,1.249-0.21c1.135-0.135,1.97-0.499,2.507-0.685
		c0.004-0.193,0.008-0.114,0.008-0.166c0-0.573-0.104-1.149-0.37-1.383c-0.359-0.316-0.922-0.475-1.63-0.475
		c-0.661,0-1.378,0.115-1.694,0.347C7.415,6.147,7.038,6.73,6.888,7.318l-1-0.188c0.125-0.588,0.331-1.063,0.617-1.425
		c0.286-0.361,0.699-0.64,1.241-0.835c0.541-0.195,1.169-0.292,1.881-0.292c0.708,0,1.343,0.146,1.726,0.422
		c0.471,0.339,0.391,0.319,0.631,0.543c0.207,0.195,0.523,0.87,0.523,0.87L12.505,12.971z"/>
	<path fill="#ccc" d="M16.204,15.008l-0.081,0.067c1.338-1.589,2.145-3.637,2.145-5.875c0-5.045-4.09-9.134-9.134-9.134
		C4.089,0.066,0,4.155,0,9.2s4.09,9.133,9.133,9.133c2.106,0,4.039-0.719,5.584-1.915L21.959,24l2.102-2.112L16.204,15.008z
		 M9.133,16.63c-4.102,0-7.428-3.327-7.428-7.43c0-4.103,3.326-7.429,7.428-7.429c4.103,0,7.429,3.327,7.429,7.429
		C16.563,13.303,13.236,16.63,9.133,16.63z"/>
	<path fill="#ccc" d="M11.353,5c-0.384-0.276-1.019-0.422-1.727-0.422c-0.712,0-1.34,0.098-1.881,0.292
		C7.203,5.066,6.79,5.345,6.504,5.706C6.218,6.068,6.012,6.543,5.887,7.131l1,0.188c0.15-0.588,0.527-1.171,0.842-1.402
		c0.315-0.231,1.033-0.347,1.694-0.347c0.708,0,1.271,0.159,1.63,0.476c0.266,0.234,0.37,0.811,0.37,1.383
		c0,0.052-0.003-0.027-0.008,0.166c-0.537,0.187-1.372,0.55-2.507,0.685C8.351,8.347,7.935,8.416,7.66,8.489
		C7.285,8.594,6.947,8.748,6.648,8.95C6.349,9.153,6.107,9.423,5.922,9.758c-0.185,0.336-0.249,0.707-0.249,1.113
		c0,0.693,0.273,1.232,0.763,1.678c0.49,0.444,1.132,0.495,2.042,0.495c0.552,0,1.069-0.006,1.55-0.188
		c0.481-0.183,0.982-0.379,1.503-0.822c0.041,0.39,0.02,0.598-0.007,0.908v0.028h0.979l0.003-6.367c0,0-0.11-0.631-0.524-1.061
		C11.756,5.308,11.823,5.339,11.353,5z M11.415,9.41c0,0.62-0.047,1.088-0.198,1.406c-0.197,0.41-0.535,0.677-0.958,0.915
		c-0.421,0.236-0.902,0.346-1.445,0.355c-0.601,0.01-1.278,0.041-1.561-0.174c-0.302-0.228-0.397-0.707-0.397-1.081
		c0-0.244-0.021-0.582,0.109-0.782c0.131-0.2,0.573-0.439,0.813-0.543c0.24-0.104,0.763-0.197,1.341-0.281
		c1.02-0.146,1.786-0.208,2.296-0.417L11.415,9.41L11.415,9.41z"/>
</g>
</svg>
