<?xml version="1.0" encoding="utf-8"?>
<!-- Generator: Adobe Illustrator 15.1.0, SVG Export Plug-In . SVG Version: 6.00 Build 0)  -->
<svg version="1.2" baseProfile="tiny" id="Шар_1"
	 xmlns="http://www.w3.org/2000/svg" xmlns:xlink="http://www.w3.org/1999/xlink" x="0px" y="0px" width="24px" height="24px"
	 viewBox="0 0 24 24" xml:space="preserve">
<g>
	<rect x="3.167" y="7.19" fill="#fff" width="11.139" height="1.303"/>
	<rect x="7.472" y="16.44" fill="#fff" width="6.337" height="1.303"/>
	<path fill="#fff" d="M16.294,21.4c0,0.765-0.63,1.396-1.397,1.396H2.438c-0.77,0-1.123-0.433-1.123-1.202V2.263
		c0-0.767,0.315-1.002,1.083-1.002h13.046c0.771,0,0.85,0.236,0.85,1.002v3.011l1.284-1.263v-2.48c0-0.766-0.628-1.394-1.399-1.394
		H1.506c-0.769,0-1.398,0.627-1.398,1.394v21.072c0,0.765,0.629,1.354,1.398,1.354h14.672c0.771,0,1.399-0.589,1.399-1.354v-8.105
		l-1.284,1.25V21.4z"/>
	<rect x="3.167" y="3.422" fill="#fff" width="11.097" height="1.303"/>
	<path fill="#fff" d="M23.558,3.089c-0.598-0.598-1.346-0.376-1.942,0.221l-9.614,9.613c-0.597,0.598-0.82,1.346-0.222,1.943
		c0.599,0.597,1.373,0.403,1.97-0.195l9.615-9.613C23.96,4.461,24.156,3.685,23.558,3.089z"/>
</g>
</svg>
