<?xml version="1.0" encoding="UTF-8" standalone="no"?>
<!-- Created with Inkscape (http://www.inkscape.org/) -->

<svg
   xmlns:dc="http://purl.org/dc/elements/1.1/"
   xmlns:cc="http://creativecommons.org/ns#"
   xmlns:rdf="http://www.w3.org/1999/02/22-rdf-syntax-ns#"
   xmlns:svg="http://www.w3.org/2000/svg"
   xmlns="http://www.w3.org/2000/svg"
   xmlns:sodipodi="http://sodipodi.sourceforge.net/DTD/sodipodi-0.dtd"
   xmlns:inkscape="http://www.inkscape.org/namespaces/inkscape"
   width="24.6"
   height="25"
   id="svg2"
   version="1.1"
   inkscape:version="0.48.5 r10040"
   sodipodi:docname="drawing_.svg">
  <defs
     id="defs4">
    <filter
       inkscape:label="Drop Shadow"
       id="filter4356"
       color-interpolation-filters="sRGB">
      <feFlood
         flood-opacity="0.5"
         flood-color="rgb(255,255,255)"
         result="flood"
         id="feFlood4358" />
      <feComposite
         in="flood"
         in2="SourceGraphic"
         operator="in"
         result="composite1"
         id="feComposite4360" />
      <feGaussianBlur
         stdDeviation="2.77556e-017"
         result="blur"
         id="feGaussianBlur4362" />
      <feOffset
         dx="-2.41474e-015"
         dy="1"
         result="offset"
         id="feOffset4364" />
      <feComposite
         in="SourceGraphic"
         in2="offset"
         operator="over"
         result="composite2"
         id="feComposite4366" />
    </filter>
  </defs>
  <sodipodi:namedview
     id="base"
     pagecolor="#ffffff"
     bordercolor="#666666"
     borderopacity="1.0"
     inkscape:pageopacity="0.0"
     inkscape:pageshadow="2"
     inkscape:zoom="15.839192"
     inkscape:cx="14.595778"
     inkscape:cy="9.8181487"
     inkscape:document-units="px"
     inkscape:current-layer="g4369"
     showgrid="false"
     inkscape:window-width="1041"
     inkscape:window-height="749"
     inkscape:window-x="130"
     inkscape:window-y="130"
     inkscape:window-maximized="0" />
  <metadata
     id="metadata7">
    <rdf:RDF>
      <cc:Work
         rdf:about="">
        <dc:format>image/svg+xml</dc:format>
        <dc:type
           rdf:resource="http://purl.org/dc/dcmitype/StillImage" />
        <dc:title></dc:title>
      </cc:Work>
    </rdf:RDF>
  </metadata>
  <g
     inkscape:groupmode="layer"
     id="layer2"
     inkscape:label="Layer"
     transform="translate(0,-1027.3622)" />
  <g
     inkscape:label="Layer 1"
     inkscape:groupmode="layer"
     id="layer1"
     transform="translate(0,-1027.3622)">
    <g
       id="g2986"
       transform="translate(-0.10477465,978.85897)"
       style="filter:url(#filter4356)">
	<path
   id="path2988"
   d="m 11.975,2.751 c -5.933,0 -10.761,3.717 -10.761,8.287 0,2.147 1.074,4.188 3.025,5.746 l 0.471,0.377 -0.117,0.592 -0.454,2.269 2.188,-1.459 0.424,-0.283 0.477,0.183 c 1.505,0.572 3.102,0.863 4.747,0.863 5.933,0 10.761,-3.718 10.761,-8.287 C 22.735,6.468 17.907,2.751 11.975,2.751 z"
   inkscape:connector-curvature="0"
   style="fill:none" />

	
<g
   id="g4369"
   transform="translate(0.14919039,48.387382)">
	<rect
   id="rect4371"
   height="1.303"
   width="11.139"
   y="7.1900001"
   x="3.1670001"
   style="fill:#000;opacity:0.5" />

	<rect
   id="rect4373"
   height="1.303"
   width="6.3369999"
   y="16.440001"
   x="7.4720001"
   style="fill:#000;opacity:0.5" />

	<path
   id="path4375"
   d="m 16.294,21.4 c 0,0.765 -0.63,1.396 -1.397,1.396 H 2.438 c -0.77,0 -1.123,-0.433 -1.123,-1.202 V 2.263 c 0,-0.767 0.315,-1.002 1.083,-1.002 h 13.046 c 0.771,0 0.85,0.236 0.85,1.002 v 3.011 l 1.284,-1.263 v -2.48 c 0,-0.766 -0.628,-1.394 -1.399,-1.394 H 1.506 c -0.769,0 -1.398,0.627 -1.398,1.394 v 21.072 c 0,0.765 0.629,1.354 1.398,1.354 h 14.672 c 0.771,0 1.399,-0.589 1.399,-1.354 v -8.105 l -1.284,1.25 V 21.4 z"
   inkscape:connector-curvature="0"
   style="fill:#000;opacity:0.5" />

	<rect
   id="rect4377"
   height="1.303"
   width="11.097"
   y="3.4219999"
   x="3.1670001"
   style="fill:#000;opacity:0.5" />

	<path
   id="path4379"
   d="M 23.558,3.089 C 22.96,2.491 22.212,2.713 21.616,3.31 l -9.614,9.613 c -0.597,0.598 -0.82,1.346 -0.222,1.943 0.599,0.597 1.373,0.403 1.97,-0.195 L 23.365,5.058 C 23.96,4.461 24.156,3.685 23.558,3.089 z"
   inkscape:connector-curvature="0"
   style="fill:#000;opacity:0.5" />

</g>
</g>
  </g>
</svg>
