<?xml version="1.0" encoding="utf-8"?>
<!-- Generator: Adobe Illustrator 15.1.0, SVG Export Plug-In . SVG Version: 6.00 Build 0)  -->
<svg version="1.2" baseProfile="tiny" id="Шар_1"
	 xmlns="http://www.w3.org/2000/svg" xmlns:xlink="http://www.w3.org/1999/xlink" x="0px" y="0px" width="24px" height="24px"
	 viewBox="0 0 24 24" xml:space="preserve">
<g>
	<path fill="none" d="M21.62,1.91h-6.454c-0.295,0-0.574,0.115-0.789,0.324L2.015,14.813c-0.126,0.127-0.192,0.287-0.192,0.47
		c0,0.18,0.066,0.346,0.188,0.468l6.231,6.237c0.252,0.254,0.701,0.245,0.939,0.007l12.779-12.2
		c0.118-0.118,0.126-0.319,0.129-0.665l0.001-0.11V2.38C22.09,2.015,21.984,1.91,21.62,1.91z M17.625,8.875
		c-1.381,0-2.5-1.119-2.5-2.5s1.119-2.5,2.5-2.5s2.5,1.119,2.5,2.5S19.006,8.875,17.625,8.875z"/>
	<circle fill="none" cx="17.625" cy="6.375" r="1.7"/>
	<path fill="#51639b" d="M17.625,3.875c-1.381,0-2.5,1.119-2.5,2.5s1.119,2.5,2.5,2.5s2.5-1.119,2.5-2.5S19.006,3.875,17.625,3.875z
		 M17.625,8.075c-0.938,0-1.7-0.763-1.7-1.7s0.763-1.7,1.7-1.7s1.7,0.763,1.7,1.7S18.563,8.075,17.625,8.075z"/>
	<path fill="#51639b" d="M21.62,0h-6.454c-0.746,0-1.451,0.288-1.998,0.821L0.794,13.603c-0.443,0.443-0.689,1.038-0.692,1.675
		c-0.002,0.642,0.243,1.242,0.692,1.69l6.237,6.242c0.445,0.446,1.042,0.692,1.681,0.692c0.641,0,1.239-0.246,1.676-0.685
		l12.779-12.197C23.694,10.496,23.99,9.792,24,9.037V2.38C24,1.068,22.933,0,21.62,0z M22.09,9.021l-0.001,0.11
		c-0.003,0.345-0.011,0.546-0.129,0.665l-12.779,12.2c-0.239,0.238-0.687,0.247-0.939-0.007L2.01,15.751
		c-0.122-0.122-0.188-0.288-0.188-0.468c0-0.183,0.066-0.343,0.192-0.47l12.362-12.58c0.215-0.209,0.494-0.324,0.789-0.324h6.454
		c0.364,0,0.47,0.105,0.47,0.47V9.021z"/>
</g>
</svg>
