<?xml version="1.0" encoding="UTF-8" standalone="no"?>
<!-- Created with Inkscape (http://www.inkscape.org/) -->

<svg
   xmlns:dc="http://purl.org/dc/elements/1.1/"
   xmlns:cc="http://creativecommons.org/ns#"
   xmlns:rdf="http://www.w3.org/1999/02/22-rdf-syntax-ns#"
   xmlns:svg="http://www.w3.org/2000/svg"
   xmlns="http://www.w3.org/2000/svg"
   version="1.1"
   width="80"
   height="62.5"
   id="svg13833">
  <defs
     id="defs13835">
    <clipPath
       id="clipPath13513">
      <path
         d="m 450,6024 64,0 0,50 -64,0 0,-50 z"
         id="path13515" />
    </clipPath>
  </defs>
  <metadata
     id="metadata13838">
    <rdf:RDF>
      <cc:Work
         rdf:about="">
        <dc:format>image/svg+xml</dc:format>
        <dc:type
           rdf:resource="http://purl.org/dc/dcmitype/StillImage" />
        <dc:title></dc:title>
      </cc:Work>
    </rdf:RDF>
  </metadata>
  <g
     transform="translate(-217.14286,-643.9693)"
     id="layer1">
    <g
       transform="matrix(1.25,0,0,-1.25,-345.35714,8236.4693)"
       id="g13509"
       style="fill:#00a888;fill-opacity:1">
      <g
         clip-path="url(#clipPath13513)"
         id="g13511"
         style="fill:#00a888;fill-opacity:1">
        <g
           transform="translate(502,6041)"
           id="g13517"
           style="fill:#00a888;fill-opacity:1">
          <path
             d="m 0,0 0,-3.018 c -7.855,-0.287 -15.105,-3.943 -20.001,-10.016 -3.617,4.486 -8.52,7.647 -13.999,9.112 L -34,4.875 -20,-3 -1.455,7.431 C -0.525,5.132 0,2.629 0,0 M -40,-3.018 -40,0 c 0,2.629 0.527,5.131 1.457,7.43 L -36,6 l 0,-9.47 c -1.31,0.246 -2.646,0.403 -4,0.452 M -20,30.705 7.921,15 -20,-0.705 -32.285,6.205 -18.188,15 -20,16.215 -34.231,7.3 -47.921,15 -20,30.705 z M 12,15 -20,33 -52,15 -40.325,8.433 C -41.403,5.835 -42,2.988 -42,0 l 0,-5.025 c 0.332,0.013 0.665,0.025 1,0.025 1.713,0 3.384,-0.177 5,-0.506 l 0,-11.494 2,0 0,10.993 c 5.826,-1.699 10.776,-5.453 14,-10.435 C -15.55,-9.558 -7.81,-5 1,-5 1.335,-5 1.668,-5.012 2,-5.025 L 2,0 C 2,2.987 1.401,5.834 0.322,8.431 L 12,15 z"
             id="path13519"
             style="fill:#00a888;fill-opacity:1;fill-rule:nonzero;stroke:none" />
        </g>
      </g>
    </g>
  </g>
</svg>
