<?xml version="1.0" encoding="utf-8"?>
<!-- Generator: Adobe Illustrator 15.1.0, SVG Export Plug-In . SVG Version: 6.00 Build 0)  -->
<!DOCTYPE svg PUBLIC "-//W3C//DTD SVG 1.1//EN" "http://www.w3.org/Graphics/SVG/1.1/DTD/svg11.dtd">
<svg version="1.1" id="Шар_1" xmlns="http://www.w3.org/2000/svg" xmlns:xlink="http://www.w3.org/1999/xlink" x="0px" y="0px"
	 width="24px" height="24px" viewBox="0 0 24 24" enable-background="new 0 0 24 24" xml:space="preserve">
<g>
	<path fill="none" d="M11.862,11.875c-4.959,0-6.826,1.286-7.623,3.861l-0.781,3.889c0.468,0.253,0.669,0.283,2.297,0.523
		l0.286-2.023l1.129-0.027L7,21.167c0.612,0.338,2.205,0.917,4.863,0.917c2.659,0,4.276-0.498,4.887-0.834l-0.199-3.15l1.157,0.025
		l0.385,1.916c1.378-0.156,1.732-0.37,2.199-0.624l-0.839-3.837C18.658,12.973,16.822,11.875,11.862,11.875z"/>
	<path fill="none" d="M11.863,9.875c2.163,0,3.637-2.481,3.637-4.642c0-2.162-1.475-3.771-3.637-3.771
		c-2.162,0-3.683,1.696-3.683,3.858C8.18,7.482,9.701,9.875,11.863,9.875z"/>
	<path fill="#00a888" d="M21.792,19.988l-0.776-4.422c-0.76-2.543-2.856-4.363-6.813-4.865c1.68-1.197,2.832-3.516,2.832-5.528
		C17.035,2.316,14.721,0,11.863,0C9.007,0,6.691,2.316,6.691,5.173c0,2.012,1.151,4.329,2.829,5.526
		c-3.967,0.496-6.105,2.296-6.808,4.867l-0.777,4.422H1.917v0.1c0,0.652,1.583,1.232,4.018,1.596l-0.04,0.396
		c0,0.877,2.672,1.674,5.968,1.674c3.297,0,5.968-0.797,5.968-1.674l-0.039-0.396c2.437-0.363,4.019-0.94,4.019-1.596v-0.1H21.792z
		 M8.18,5.32c0-2.162,1.521-3.858,3.683-3.858c2.163,0,3.637,1.609,3.637,3.771c0,2.161-1.475,4.642-3.637,4.642
		C9.701,9.875,8.18,7.482,8.18,5.32z M18.093,20.041l-0.385-1.916L16.551,18.1l0.199,3.15c-0.611,0.336-2.229,0.834-4.887,0.834
		c-2.658,0-4.251-0.579-4.863-0.917l0.171-3.069l-1.129,0.027l-0.286,2.023c-1.628-0.24-1.83-0.271-2.297-0.523l0.781-3.889
		c0.796-2.575,2.664-3.861,7.623-3.861c4.96,0,6.796,1.098,7.591,3.705l0.839,3.837C19.825,19.671,19.471,19.885,18.093,20.041z"/>
</g>
</svg>
