<?xml version="1.0" encoding="utf-8"?>
<!-- Generator: Adobe Illustrator 15.1.0, SVG Export Plug-In . SVG Version: 6.00 Build 0)  -->
<svg version="1.2" baseProfile="tiny" id="Шар_1"
	 xmlns="http://www.w3.org/2000/svg" xmlns:xlink="http://www.w3.org/1999/xlink" x="0px" y="0px" width="24px" height="24px"
	 viewBox="0 0 24 24" xml:space="preserve">
<g>
	<path fill="none" d="M6.834,14.401c-1.769,0-3.207,1.438-3.207,3.207s1.438,3.207,3.207,3.207s3.207-1.438,3.207-3.207
		C10.041,15.841,8.603,14.401,6.834,14.401z"/>
	<path fill="none" d="M17.01,9.877c1.768,0,3.205-1.438,3.205-3.207s-1.438-3.207-3.205-3.207s-3.207,1.438-3.207,3.207
		S15.242,9.877,17.01,9.877z"/>
	<path fill="#00a888" d="M0.407,7.855H12.83c0.686,2.009,2.445,3.269,4.218,3.241c1.774-0.027,3.456-1.425,4.03-3.241h2.229
		c0.376,0,0.516-0.604,0.516-0.979s-0.14-0.956-0.516-0.956h-2.063c-0.237-2.074-2.099-3.553-4.235-3.553s-3.944,1.517-4.18,3.591
		H0.407C0.031,5.958,0,6.472,0,6.848C0,7.223,0.031,7.855,0.407,7.855z M17.01,3.464c1.768,0,3.205,1.438,3.205,3.207
		s-1.438,3.207-3.205,3.207s-3.207-1.438-3.207-3.207S15.242,3.464,17.01,3.464z"/>
	<path fill="#00a888" d="M23.438,16.897H11.014c-0.236-2.075-2.043-3.592-4.18-3.592c-2.137,0-3.998,1.476-4.234,3.551H0.536
		c-0.376,0-0.517,0.58-0.517,0.956s0.141,0.981,0.517,0.981h2.229c0.574,1.815,2.257,3.212,4.029,3.239s3.535-1.231,4.218-3.239
		h12.425c0.374,0,0.406-0.634,0.406-1.009S23.813,16.897,23.438,16.897z M6.834,20.815c-1.769,0-3.207-1.438-3.207-3.206
		c0-1.769,1.438-3.207,3.207-3.207s3.207,1.438,3.207,3.207C10.041,19.377,8.603,20.815,6.834,20.815z"/>
</g>
</svg>
